<mxfile host="app.diagrams.net" agent="Mozilla/5.0 (Macintosh; Intel Mac OS X 10_15_7) AppleWebKit/537.36 (KHTML, like Gecko) Chrome/134.0.0.0 Safari/537.36" version="26.1.2">
  <diagram name="Page-1" id="gPuULG24yaRPwg1vc0Q2">
    <mxGraphModel dx="867" dy="1781" grid="1" gridSize="10" guides="1" tooltips="1" connect="1" arrows="1" fold="1" page="1" pageScale="1" pageWidth="827" pageHeight="1169" math="0" shadow="0">
      <root>
        <mxCell id="0" />
        <mxCell id="1" parent="0" />
        <mxCell id="AQmvB_hK_ORsPchkkE_o-6" value="" style="rounded=0;whiteSpace=wrap;html=1;strokeWidth=2;" parent="1" vertex="1">
          <mxGeometry x="160" y="152" width="170" height="80" as="geometry" />
        </mxCell>
        <mxCell id="AQmvB_hK_ORsPchkkE_o-8" value="&lt;span style=&quot;color: rgb(64, 64, 64); text-align: start;&quot;&gt;&lt;font style=&quot;font-size: 16px;&quot; face=&quot;Times New Roman&quot;&gt;&lt;b style=&quot;&quot;&gt;MLX90614&lt;/b&gt;&lt;/font&gt;&lt;/span&gt;" style="rounded=0;whiteSpace=wrap;html=1;strokeWidth=2;rotation=-90;" parent="1" vertex="1">
          <mxGeometry x="140" y="50" width="100" height="30" as="geometry" />
        </mxCell>
        <mxCell id="AQmvB_hK_ORsPchkkE_o-9" value="&lt;span style=&quot;color: rgb(64, 64, 64); font-size: 16.002px; text-align: start;&quot;&gt;&lt;b style=&quot;&quot;&gt;&lt;font face=&quot;Times New Roman&quot;&gt;DS18B20&lt;/font&gt;&lt;/b&gt;&lt;/span&gt;" style="rounded=0;whiteSpace=wrap;html=1;strokeWidth=2;rotation=-90;" parent="1" vertex="1">
          <mxGeometry x="200" y="50" width="100" height="30" as="geometry" />
        </mxCell>
        <mxCell id="AQmvB_hK_ORsPchkkE_o-10" value="&lt;span style=&quot;color: rgb(64, 64, 64); font-size: 16.002px; text-align: start;&quot;&gt;&lt;font face=&quot;Times New Roman&quot;&gt;&lt;b&gt;MAX30100&lt;/b&gt;&lt;/font&gt;&lt;/span&gt;" style="rounded=0;whiteSpace=wrap;html=1;strokeWidth=2;rotation=-90;" parent="1" vertex="1">
          <mxGeometry x="250" y="50" width="100" height="30" as="geometry" />
        </mxCell>
        <mxCell id="AQmvB_hK_ORsPchkkE_o-11" value="" style="endArrow=classic;html=1;rounded=0;exitX=0;exitY=0.5;exitDx=0;exitDy=0;strokeWidth=2;" parent="1" source="AQmvB_hK_ORsPchkkE_o-8" edge="1">
          <mxGeometry width="50" height="50" relative="1" as="geometry">
            <mxPoint x="490" y="280" as="sourcePoint" />
            <mxPoint x="190" y="153" as="targetPoint" />
          </mxGeometry>
        </mxCell>
        <mxCell id="AQmvB_hK_ORsPchkkE_o-12" value="" style="endArrow=classic;html=1;rounded=0;strokeWidth=2;exitX=0;exitY=0.5;exitDx=0;exitDy=0;" parent="1" edge="1" source="AQmvB_hK_ORsPchkkE_o-9">
          <mxGeometry width="50" height="50" relative="1" as="geometry">
            <mxPoint x="250" y="150" as="sourcePoint" />
            <mxPoint x="250" y="150" as="targetPoint" />
          </mxGeometry>
        </mxCell>
        <mxCell id="AQmvB_hK_ORsPchkkE_o-13" value="" style="endArrow=classic;html=1;rounded=0;strokeWidth=2;exitX=0;exitY=0.5;exitDx=0;exitDy=0;" parent="1" source="AQmvB_hK_ORsPchkkE_o-10" edge="1">
          <mxGeometry width="50" height="50" relative="1" as="geometry">
            <mxPoint x="260" y="160" as="sourcePoint" />
            <mxPoint x="300" y="150" as="targetPoint" />
          </mxGeometry>
        </mxCell>
        <mxCell id="AQmvB_hK_ORsPchkkE_o-14" value="" style="rounded=0;whiteSpace=wrap;html=1;strokeWidth=2;" parent="1" vertex="1">
          <mxGeometry x="160" y="280" width="170" height="80" as="geometry" />
        </mxCell>
        <mxCell id="AQmvB_hK_ORsPchkkE_o-16" value="&lt;span style=&quot;color: rgb(64, 64, 64); font-size: 16.002px; text-align: start;&quot;&gt;&lt;font face=&quot;Times New Roman&quot;&gt;&lt;b&gt;MQ-135&lt;/b&gt;&lt;/font&gt;&lt;/span&gt;" style="rounded=0;whiteSpace=wrap;html=1;strokeWidth=2;rotation=0;" parent="1" vertex="1">
          <mxGeometry x="17" y="286" width="100" height="30" as="geometry" />
        </mxCell>
        <mxCell id="AQmvB_hK_ORsPchkkE_o-22" value="&lt;span style=&quot;color: rgb(64, 64, 64); font-size: 16.002px; text-align: start;&quot;&gt;&lt;font face=&quot;Times New Roman&quot;&gt;&lt;b&gt;RCWL-0516&lt;/b&gt;&lt;/font&gt;&lt;/span&gt;" style="rounded=0;whiteSpace=wrap;html=1;strokeWidth=2;rotation=0;" parent="1" vertex="1">
          <mxGeometry x="17" y="327" width="100" height="30" as="geometry" />
        </mxCell>
        <mxCell id="AQmvB_hK_ORsPchkkE_o-23" value="" style="rounded=0;whiteSpace=wrap;html=1;strokeWidth=2;" parent="1" vertex="1">
          <mxGeometry x="160" y="400" width="170" height="80" as="geometry" />
        </mxCell>
        <mxCell id="AQmvB_hK_ORsPchkkE_o-25" value="&lt;span style=&quot;color: rgb(64, 64, 64); font-size: 16.002px; text-align: start;&quot;&gt;&lt;b style=&quot;&quot;&gt;&lt;font face=&quot;Times New Roman&quot;&gt;ML8511&lt;/font&gt;&lt;/b&gt;&lt;/span&gt;" style="rounded=0;whiteSpace=wrap;html=1;strokeWidth=2;rotation=0;" parent="1" vertex="1">
          <mxGeometry x="19" y="405" width="100" height="30" as="geometry" />
        </mxCell>
        <mxCell id="AQmvB_hK_ORsPchkkE_o-26" value="&lt;table style=&quot;border-collapse: collapse; color: rgb(64, 64, 64); font-family: Inter, system-ui, -apple-system, &amp;quot;system-ui&amp;quot;, &amp;quot;Segoe UI&amp;quot;, Roboto, &amp;quot;Noto Sans&amp;quot;, Ubuntu, Cantarell, &amp;quot;Helvetica Neue&amp;quot;, Oxygen, &amp;quot;Open Sans&amp;quot;, sans-serif; font-size: 16.002px; text-align: start;&quot;&gt;&lt;tbody&gt;&lt;tr&gt;&lt;td style=&quot;padding-top: ; padding-right: ; padding-bottom: ; padding-left: 0px; border-bottom: 1px solid rgb(var(--ds-rgb-label-3));&quot;&gt;&lt;b&gt;&lt;font face=&quot;Times New Roman&quot;&gt;RCWL-0516&lt;/font&gt;&lt;/b&gt;&lt;/td&gt;&lt;td style=&quot;padding: calc(var(--ds-md-zoom)*6px)calc(var(--ds-md-zoom)*12px); border-bottom: 1px solid rgb(var(--ds-rgb-label-3));&quot;&gt;&lt;/td&gt;&lt;/tr&gt;&lt;/tbody&gt;&lt;/table&gt;" style="rounded=0;whiteSpace=wrap;html=1;strokeWidth=2;rotation=0;" parent="1" vertex="1">
          <mxGeometry x="19" y="445" width="100" height="30" as="geometry" />
        </mxCell>
        <mxCell id="AQmvB_hK_ORsPchkkE_o-27" value="" style="rounded=0;whiteSpace=wrap;html=1;strokeWidth=2;" parent="1" vertex="1">
          <mxGeometry x="160" y="540" width="170" height="80" as="geometry" />
        </mxCell>
        <mxCell id="AQmvB_hK_ORsPchkkE_o-29" value="&lt;span style=&quot;color: rgb(64, 64, 64); font-size: 16.002px; text-align: start;&quot;&gt;&lt;font face=&quot;Times New Roman&quot;&gt;&lt;b&gt;RFID/NFC&lt;/b&gt;&lt;/font&gt;&lt;/span&gt;" style="rounded=0;whiteSpace=wrap;html=1;strokeWidth=2;rotation=0;" parent="1" vertex="1">
          <mxGeometry x="19" y="550" width="100" height="30" as="geometry" />
        </mxCell>
        <mxCell id="AQmvB_hK_ORsPchkkE_o-30" value="&lt;font style=&quot;font-size: 16px;&quot;&gt;Buzzer&lt;/font&gt;" style="rounded=0;whiteSpace=wrap;html=1;strokeWidth=2;rotation=0;" parent="1" vertex="1">
          <mxGeometry x="19" y="590" width="100" height="30" as="geometry" />
        </mxCell>
        <mxCell id="AQmvB_hK_ORsPchkkE_o-34" value="" style="shape=image;verticalLabelPosition=bottom;labelBackgroundColor=default;verticalAlign=top;aspect=fixed;imageAspect=0;image=data:image/png,iVBORw0KGgoAAAANSUhEUgAAAWoAAACLCAMAAAB/aSNCAAABs1BMVEX///8Ax9QArUbkOSEBfO5RUE8R4e4E1ln/dVcMtv9OTUxCQUBGRURKSUijo6IAw9HZ2dm3t7Z5eXjKyslpaGc9PDrm5uXDw8NzcnEMuf8Ab+0Ac+35+fnY2NgAeO47OjgAqj1dXFuNjIzw8PBjYmEAvP+UlJMApzDjJgD/c1MAsv+mpqUS5Pecm5sE2k3kNBniFgDuKQCEg4P/bUkGkvR5rfQM1+QDyVNWv3bsg3nyrqj87evjLArpZljmTjuC3OTd9ffm+PrA7fFt2OEFjPIBid4BukydwvbV5fvB2PkE3EcEtWU/uGXl7/0qtFns+PBRl/HG6ND40c7mUD7paFvti4Lul5D0urXrdmr2ycXlQy2Z4+m36+/9kHvzsqz/hGr63duncYyBiLOxaHxzkMHVRz9js7gsKynOjX7MT1Dfg22SfaCymI9UxP9hmc+PpqRHpOF5z/8InvjEV16IaX+RPzMygqtNQTQhh486cndIUEBNODYqoKkDwYZNPkgDvI8I3toDtJ8DorsEynOxzvgLy68CkNQCm8WGtPUCmMkKyKWO6aeo7b3a9+Oz4cGX1al2yo+zAaHfAAAS+0lEQVR4nO2diX/bxpmGIcmQJQAj8QJJSSApHrpCy3Io16fiJI1y+4js2LHVw2nSrttuu1t7t9vubtMkPXbbbG35T945AGJmMAMORuAhQ29/TQQSxPHgwzvfNzNADONUI9Pdw3v33njj008fPrx6/8GDa9c+e/To88+ve6M+jDffHPUeR6+HezuB9pA2sS5c2Ln36dUH1x7dvT6So3hncfH7I9nROHV9c2dGKMweUZ954/61R8Ml/s7iVAZQG9d3JKxD6Aj5hXtXr90dkq9A0plArcDaj/K9zQs37n+Wfny/CUlnA7VxfUaJNQnwzQuH9x+luntMemrxrVQ3OqnyDpVZE9ybD9OjTUhnBbXh3UjCGuHe3Lx6N5Vd+6Qzg9owkrJGtA+vHX+/P/BJZwi1cS8xaxTaD46Zk/RJTy2+nc55nATd20vMemZmb/PBcfYZks4UauMNHdYzmzP6LSRFOluoNVnPXHio6SI06anFdM9l0vWpHuudPa1k5Ic06ayhNh5uarGeuaCRi7CkM4dam/Xm/aR74khPTQ3jdCZaV3VZP0y2nwjp7KEeEeso6QyiNu7rsv6R+j4EpLOI2ngwdNbfF5B+Z5inNLF6cEGP9YwiaxHpjKLWZb2zq8RaSHoxA8O4Ql3TY3249XjwtoWkp6Z+MPyzmkz9WI/11mDWEtJTPxzFaU2kPtNifWNu63F8h8hbEtKL2UWtx/pwbm5rLo61jHRGRnEl0mI9F89aSjpmEKbcam1rnUATrGv9bgx6pMF6C7OWzV+Qk47prq46oFHROf6GVdL52Vh0NznrG3OI9ZaY9dty0vKOvbZrmlZV5/DdE4RagzVGLWH9thz0lLwu7zqWaTbaGkd/olAbd5PW6IdzUtZxMR2D2rSsogO69EflXJldohoHL/wSo27ncp70pxOlz2WTJ+NRz23t8qwHkJbV5TUbbBvAMslSu9GoVEzXtt2gxdu24VKj6gPMVRvwO7CAF1yr2i7B5UbPh+210C+trjGZSsg6QA1Zf85sJ9495HV5C7hlYxvYNbxUds2m49i2YznYHDzTAbYDF13MutKwgO3CL5sILlwX4HWBhVm3AVx0bGBrOf8IlJD1nJj1ANLSutxzrQ4iDFp4sWybpt0tl/PAtPNwed1xWm3Dy9u44Ww3THu73C42Lbw6bE/t7Vy54i8aHcvueka5CuyFYQI7hhQnqnJRDUWxHkhaVsHkHQchLVkuDkyI2saJX861LPivQqOAVyvg77eBg83Bc6yGh1Dj3xptx0TfFm3fWJqWPRxSx1cS1jTqud1gIH0gaWkF0yGMfeIQtdUkX1SJZ/guvADsMg5bsty17TZCDci369h/4D9JHpN37GL6lNJRgknBDOqAtTeQtCytDpyD+AhCHVSAXeDzKlcWeiXLRKid4DoQ9ZM9eKGK6M6wckjl4LpNpNRZs6gJawXSslwPtoc5/Mc6wEFcDkwA4UNOksfpiAswaq48pFFXkG+YcE0o2GxOqllDXT/cmdnb3Bw8I+fGHMf6kRppSa7nmFaTyASoI4RBDSO1gPKJ7XxuHRuIH/qBuKiGqJvBxrQK/RHJu7H5ky+++HLn9QHhvTsXYa1CWpLrFW3TAkSW6Ri0gSwg/624VgG7M0HdT7+NMroFONRVyxkuo7TU/s3a0tLa0k9/9nos6i0e9dzuP6mwFvdWVy3QaxGVLOTNsFn0acL2sm30gN8OwqSijNzYb/hajSflCOp+cm60dcr80WltHmtp7YvYPDtCem7r5ypR/ZZon203bOfKMIBxskfyuQpORVo4mBFL7NVdh8Q8LHRQOsehhvkhqV1KjSeTzHppPtDS/C9iAluA+pcqqIU77QIqVehYjTZCbdmFSmXdNl1Ir+haZj5Xa9kkA/GA5RQqxS5sJJGjc6iNAgDVWrnYAWCSu6FC0lBrP5GyPtSManECYoFG2FWUt2E8QwOpOlDAIp0gLReX3k4pSFAcgL51e+jLBugEP8V1j9eBjagN/18a+WPd6lqbZ7T2hYw1n4Ag1AsKpMUJSKFE9Qx51VIeNYvddg807JKfQ1RKtmv1yrVOFePztpsw8ysU2Z/XSiXSHZWHazvVSU4/fj3Pae2nEtbRVnFuN75Hj0h1ZkKY7L2aipCWs061VRToFUctIC3zEIFVKwW18jT2Vxv1r18ToZ5f+2cB66hVb/1KgbT6fL1yw9YbPT8JkpCGrL+MDoZFrHrrsQpp9UlkXq9XG+bZjlNS0jDB/kWkltGzjyw9iCtXDGkovvcp4h9qRXk2Z7Fziie99C+cXfP+sfuvaqQzOrWaVjxpVDayds2TVilepjI+XY9oEGkY1z/bkfuHKunsPbEY0dOBpOeXfvO61D9U3ePUP1RIcxbCZHlbii3iGP2jnatBkQG1NvxrXPOeCOmlvmRxHb6KiPaPrcdKWR7ROE6v3S25ro3UQOVn7Qn868l4xtEh6aWl1549u3hxH+rixWfP0AdR4FQWQpuHUsepH9QpPG+UKyG11H+w3UCTLrHweEHegX+Np+Z/Or/07OKZer1+xlcd/b2PeXMW8m87fP/HlrpNT6m+ByS/jrQtGT2pAgvKVe4dLTlmX2NG/fQ1yPlMVJA3xM3Q7reM/UZx95cJzEOxUcw38FiuY4m/ruIQVZ7dUQUhaROMFfXTiyLOfd5nLtK0177co/1jSznH84P6LZUjMv3bXTItKRnqik0Y2w6+fGiT40L9tB5HOkobh/WuD/rniUJ6Sq1RrNnB3d4Tfp8MdROvbfdy4UdjQv3+8gDQPm3oJH7CtxcE9e5j5RQvUVC3+nd8QzgsWHUSeHXZxTHNdMaOB7UaaUx7/xkJ7dd3dm7gXDpJc0ikVr64fWcVR26uiqT4PBfGalrRz0aNWp00Ce35pfm1f//tbxFopVEALqiV0o8KhoMjm50AqaVttCHuObtxoP4wCWkEu37xtf/4neOAuV8lNWlEWm1MoITMFeQxazc3eP149UD07hgD6lsJSWP9DrXjv08OekqxUCTm6hrrgnDUUAFdOIdNZcaAWgO0j/o/NUArvsUQ3/Ew98jhPOTYM/4nA/X3BmV5UdWX3/0vmJ/+9x80SCv2M4Ego8ZZmnPcGTMTgfqD5Pax/O5XH70H/vjH38/OXkpKWnHwtoiDGT1rgYEc+7nPZKjbtUo+n6/UUp5QuZ8U9Mr+1+fPnj373u3Vb2ZnE8JW7mbCaDCGNjFtQWfneqdU6hTZ5RJuQNuV9QL8u9OF1wx3SpVILdQs0WqaQtTl7aZrozmCju02F9j9LqBd8IeC+734hruG9s82w39ZSQj6zLfnEenL09OrH5+bnU1EW5k0zTekzp1hA5UwFruM5pu2e66Du6LQNNYm+cuvOxmZItTlqguC/j/4A+D2qND28C741BOVUgBwH+I9PGE+SmbU9eU/nUWgYVBPT09vfDM7mwT2ovLQS5dyjdBLONSkcGeXrY5RdPtlpl32C3K5ONR5l18f0PUo3hp3h5EOBJsNa5xAsS8keD9RUC+/+2cC+uxZSDoMa0Xa6oNcJt0WOkELqYK6lGuEmBKjXneDaMaPhxC54dTYBUF6jnOlyCVzIismCumVbz/yQeOgpsNagfYlddIkUFz6XKJ9TkLUZtNnFRhI1cW267uFQyuKqEs2adlmb6G70LNs8jM3z+yDe3sG6YC0TOZDXIC5dLOaxKlXwpAmQQ11+9wsq0sy3JdmEwzctpi6hVQzkT4nMWqCyu7gDhIYjl4FqUhqz4UKLVIdUahr5Iawq4EZFJtkOKHRtwyM1aUPJdgtYyse9g/G1PcTmMcfQtCoUSRh/VeetYj3pUvwwwSk8YFS7texordtDGq7Gp3ip5Tskfh06ZcstEg3Vf95PXx5GDNb8FsG5pUauAOH+UQ9p67Xv6JI+/6B7FpAOiR+CUMmimPLiaTSTekykQy1K3ofhQpq0vvHPUna69dSWLiNBvSAZtAYMI9P4tuSaSmVC8X6/mWadOAfEPVXorAWSMpVIBLFFDGS+nGpqwS1+KFbFdQYWqRYIk7ct2e+M5akGnxiQnol6c2oOvXK/zCgw6COtIxpkPa9mWpTWqI+JzFqrnkKpIA6R2yLNx8S6/0Wrmex8doF6EKgpoByOHwozPF+qIh6+X8/YkiHQY2UNmk/4yhQn9REfU5i1JIBMAXUXSC8Uh7ZbJBc8y6M7kCQx8DD+2Eh4uiK/hEhfZkmrWIhMqhiCfJoJs/2JUZti6crKaAmVWm0u7bKfE5yi74v4zvQLeN/hfchqXTojagF9QpPmvYPbCGDWMuYiiWqDknEsfmsBLX48UQF1E1hnhPcZP19V5mMGW0DNdgm7SC4W4EpBNT8Y+XvPGnWP+KzkOSk/Shin35pNxjDxEobNZtqcKuF+Q9bByKTRnayAKjLQVah78G/qfhH/d3zPOnLPOqPY8NaDlUocU9eNdrnlDJqT9SVgVRkkw6SchSog0XHincelDZ4Z0zJta8S1PXLPGnOPxDrr2NYx2EViXgFn3IJXCVt1K7E6kmbHL7rAhuNHW6CBDzdmLj8GSgNKS5/HQlq3j+kRaMWab8FjFimHcnERos6TH/o9ALdbGQLyNH9WMdhwZyBilXXo0YtQi1vGuVIJeJjiDlBQDc1KaNuq6KmkmZ8eUhpRTkILt4ZB1RJ9Vai9hGx6jjWMUwlIoWwWahywv1FjAGOK6qxV5D8GyXZQSYO+g4CTI2upvqfovYRtWri1yLWingpeUGHcUT4Y/q2HFmzyDcTYdSirQa5EvoU33Uk6pkWXMGql/8cJS3yDwlrjTdw5KlJ0ALRwZJ2sudEWgMiXB/SVWTfi/HVCS4ODn5UtnQjXU0fKFj1vsCpZaijbaPOu046AwZNqD6ntFGTia3RWRD04BuR7X9ALkLwKVpArSXpLKO3oDDUVf+7wD+EVk1Yf3fuuKRJT5PAPgILoQrntFGT0YNoD2wrMgiEu5xgE4jalbDWQuuBFmlemW5WlVZRiFps1cRDPp4NYWv9p1jXyXTIkkj+DOn+ummjXhcU/0ikkYh0/MP4txnHwQ7ikC/ZonN/sH8IDSQG9fTq6nc+7HN6/9Fbh4tcWiQbC+/wtFFX2N5SbrO0h3skcDFbqrnEjHO9SFeTSqt4ZvlblQKGgT393Tfnzp375qXwhAfJP1vJs4S4OA/DLm3UJAUB/KtHCsS4okditiw2LLCDrOODpHuAjVsqfU31W/8XYR2PGsLemP749sbGFTGueBGYHcm3XNiljToY22IvdFF0AfyJ8Vy041UFT40o1Yq3DCPCehDqgPhNCbAY+RYhfbqFnHXgmqmjJm2yZdEW4u+Es5Vy/4kGJtPoD9mzq7+v0CreQivyrBVRT6/elhGTqkvmrUtTF7/RZClwVI6B2n/6xgLhank72igiBWO3bKbhV7p8Z9ngBISQNox/MKzlud7xWeO7D8ifry0zo3/po/b8x/fsTj7X9tq5rj8NJPriyWBGAptpFP2w5q7MJ4NQr9wKVmVYq6NOzLoWbes54eog6HNKHzV+0S0OS8d24f/8qWSWGdlmMBGCG+4Uzb4ZPINs5YNw3X8IJtsosZ6+I8cWVU88jsrDCRxmCKiNskU/s+vHaFOwSUvgH4GD8KcwINejSTOsk6BOyNoV2iItD497+e2mPxmh/2VtIGp7IGrD67ksbNAQZvmk2XC54bGKKF0ZMC7AkjaMF+e1UCdjbeIXSMTW8+uN8L0SbfR3IyyY8bIryRS38cpsHiF+SUWuh5zDslDvALDtljjJb6NjdSMe3sSnwO4mvrNp+QN+G33WyVAnYu3VcrnagJ4T/J9ooNanO9Da3DL/w8jzFuVaTvTqFa+4UECPGZR6XfnLQjzqQLjj404hdgpqlLRhHNATqxPBTuTXr6Di0moR6ZB1UtSZZx0zMUFM2jCen9dDnXXW8gpm+UPZbwjruJ49iTaej/LUJk3SCkZOGrLWaBdPWe9rkPbjWgP19MbBqE5s8iQJ6njShnFHE3WWWYsrmOW/DPrdHT0HyTBrT4h6MGnMWgv19MaL4Z/WJEpYl6uQRqw1cpAMsxYNd6mRRqxXT1mrS9AFsvy+8q/fO2WtrujIYgLShnFbl/XR0M5oYhVBnYj0KesE4jv2EpI2jJunrBXFdewlJm0YVzZOWSuJRb38N41NHOmy1pv4dGLF9KGu6JA2jINVPRPJGGsatSZpWHJqmki2WFPd1dqkoQ6mtWBninWIeuV7x9rQCy3Yq1qTJ0+m+qiPSdrAsJN7doZYB4MwxycNdXAlOezssPZRp0Ia6s7R7aS0M8OaoE6LNNKdo5sbibI/nQnYJ1GfYNKfpLvROy9eTifArTEB+yRqfwiksSDumxuQtwrwbLDeHxJpoucvjq5Mbwwmvnpb59nGE6b9M/Xhkfb1/ODo5ZXbqxuEuZD66vSwD2L8+mR56KT7uvP84MXRy5dXbhLsvjD91Y1Xf46ZN2C+x9B0B+r5wcHBC6Sjo6zOWDhV+vp/CZbNZMTKfGcAAAAASUVORK5CYII=;" parent="1" vertex="1">
          <mxGeometry x="879" y="320.5" width="141.94" height="54.5" as="geometry" />
        </mxCell>
        <mxCell id="AQmvB_hK_ORsPchkkE_o-35" value="" style="shape=image;verticalLabelPosition=bottom;labelBackgroundColor=default;verticalAlign=top;aspect=fixed;imageAspect=0;image=https://upload.wikimedia.org/wikipedia/commons/thumb/7/77/Apache_ZooKeeper_logo.svg/1200px-Apache_ZooKeeper_logo.svg.png;" parent="1" vertex="1">
          <mxGeometry x="1186" y="195" width="147.92" height="80" as="geometry" />
        </mxCell>
        <mxCell id="AQmvB_hK_ORsPchkkE_o-38" value="" style="shape=image;verticalLabelPosition=bottom;labelBackgroundColor=default;verticalAlign=top;aspect=fixed;imageAspect=0;image=https://shubhammishra107.github.io/myArt/home/spark.svg;" parent="1" vertex="1">
          <mxGeometry x="1464.63" y="351.25" width="90.75" height="48" as="geometry" />
        </mxCell>
        <mxCell id="AQmvB_hK_ORsPchkkE_o-41" value="" style="verticalLabelPosition=bottom;verticalAlign=top;html=1;shape=mxgraph.infographic.cylinder;fillColor=#10739E;strokeColor=none;rotation=90;" parent="1" vertex="1">
          <mxGeometry x="1206" y="275" width="60" height="160" as="geometry" />
        </mxCell>
        <mxCell id="AQmvB_hK_ORsPchkkE_o-44" value="&lt;b&gt;&lt;font style=&quot;font-size: 18px;&quot;&gt;Master Agent&lt;/font&gt;&lt;/b&gt;" style="text;html=1;align=center;verticalAlign=middle;resizable=0;points=[];autosize=1;strokeColor=none;fillColor=none;" parent="1" vertex="1">
          <mxGeometry x="1440" y="320.25" width="140" height="40" as="geometry" />
        </mxCell>
        <mxCell id="AQmvB_hK_ORsPchkkE_o-45" value="" style="shape=image;verticalLabelPosition=bottom;labelBackgroundColor=default;verticalAlign=top;aspect=fixed;imageAspect=0;image=https://shubhammishra107.github.io/myArt/home/spark.svg;" parent="1" vertex="1">
          <mxGeometry x="1640" y="243" width="88.86" height="47" as="geometry" />
        </mxCell>
        <mxCell id="AQmvB_hK_ORsPchkkE_o-46" value="&lt;b&gt;&lt;font style=&quot;font-size: 18px;&quot;&gt;Agent1&lt;/font&gt;&lt;/b&gt;" style="text;html=1;align=center;verticalAlign=middle;resizable=0;points=[];autosize=1;strokeColor=none;fillColor=none;" parent="1" vertex="1">
          <mxGeometry x="1644" y="210" width="80" height="40" as="geometry" />
        </mxCell>
        <mxCell id="AQmvB_hK_ORsPchkkE_o-47" value="" style="shape=image;verticalLabelPosition=bottom;labelBackgroundColor=default;verticalAlign=top;aspect=fixed;imageAspect=0;image=https://shubhammishra107.github.io/myArt/home/spark.svg;" parent="1" vertex="1">
          <mxGeometry x="1641.46" y="403" width="85.08" height="45" as="geometry" />
        </mxCell>
        <mxCell id="AQmvB_hK_ORsPchkkE_o-48" value="&lt;b&gt;&lt;font style=&quot;font-size: 18px;&quot;&gt;Agent2&lt;/font&gt;&lt;/b&gt;" style="text;html=1;align=center;verticalAlign=middle;resizable=0;points=[];autosize=1;strokeColor=none;fillColor=none;" parent="1" vertex="1">
          <mxGeometry x="1644" y="373" width="80" height="40" as="geometry" />
        </mxCell>
        <mxCell id="AQmvB_hK_ORsPchkkE_o-50" value="&lt;b&gt;&lt;font style=&quot;font-size: 18px;&quot;&gt;Kafka broker&lt;/font&gt;&lt;/b&gt;" style="text;html=1;align=center;verticalAlign=middle;resizable=0;points=[];autosize=1;strokeColor=none;fillColor=none;" parent="1" vertex="1">
          <mxGeometry x="1160" y="335" width="130" height="40" as="geometry" />
        </mxCell>
        <mxCell id="AQmvB_hK_ORsPchkkE_o-51" value="&lt;b&gt;&lt;font style=&quot;font-size: 18px;&quot;&gt;Schema registry&lt;/font&gt;&lt;/b&gt;" style="rounded=0;whiteSpace=wrap;html=1;" parent="1" vertex="1">
          <mxGeometry x="1245" y="445" width="120" height="60" as="geometry" />
        </mxCell>
        <mxCell id="AQmvB_hK_ORsPchkkE_o-52" value="&lt;b&gt;&lt;font style=&quot;font-size: 18px;&quot;&gt;Control center&lt;/font&gt;&lt;/b&gt;" style="rounded=0;whiteSpace=wrap;html=1;" parent="1" vertex="1">
          <mxGeometry x="1116" y="445" width="120" height="60" as="geometry" />
        </mxCell>
        <mxCell id="wYebdBgnLxdCCM2Bcpz7-1" value="" style="shape=image;verticalLabelPosition=bottom;labelBackgroundColor=default;verticalAlign=top;aspect=fixed;imageAspect=0;image=https://upload.wikimedia.org/wikipedia/commons/thumb/5/5e/Cassandra_logo.svg/2560px-Cassandra_logo.svg.png;" parent="1" vertex="1">
          <mxGeometry x="1464.63" y="438.5" width="96.77" height="65" as="geometry" />
        </mxCell>
        <mxCell id="s5DQ25FVZao19d8wmNkH-1" value="" style="shape=image;verticalLabelPosition=bottom;labelBackgroundColor=default;verticalAlign=top;aspect=fixed;imageAspect=0;image=data:image/png,iVBORw0KGgoAAAANSUhEUgAAAMkAAACmCAYAAABwZKuKAAAYTWlDQ1BJQ0MgUHJvZmlsZQAAWIWVeQk4lV3X/77PfI75HPM8z2Se53meZxKO6ZjiGEOJJGOiQkglGSuVQiUiDUoZekiSSIZKoaJC9d2Gep73ef/X/7u+fV373r+z9tprrb3WHu51bgC4qnwjI8MQjACER8RQHUwN+N3cPfixbwEE2AEGIIGCLzk6Ut/OzgrA5Xf7n2VlGOaGy1OZDVn/3f//LUz+AdFkACA7GPv5R5PDYXwVAFQ5OZIaAwBmgy4UHxO5geEKmKmwgTDO3MBBW7h8A/tt4UubPE4OhjDuBgBH6+tLDQKAvh+m88eRg2AZ9ItwHzHCnxIBAAsKxjrh4bv9AeAygnnEYZ5IGG/MQ83vH3KC/kOm3x+Zvr5Bf/DWXDYLzogSHRnmu+f/6I7/vYSHxf7WIQpX2mCqmcPGnGG/jYTuttzAtDCej/CzsYUxEcbfKP6b/DBGEIJjzZy3+BHc5GhD2GeAFcZy/r5GljDmhrFJRJiN1TbdL5BiYg5jeIUgEigx5k4wZodxZkC0seM2z2nqbodtXYjmQKqh/jb9gS91U++GrvHYUGf9bfmfggPMt+Uj6RODnVxhTICxcBzFxQbG9DCWjQ51tNzm0UoMNrT5zUONddiwXxjGDgERpgZb8pFxgVQTh23+7PDo3/NFng6mmNts4ysxwU5mW/5BdpN9N+2H54LsD4jQd/4tJyDazer3XPwDjIy35o6cC4hwdtyW8y0yxsBhayyKEBlmt82PEgwIM92gC8JYKTrOcXssyiUGXpBb8lGBkTF2Tlt2ohJDfC3stuxBHQFWwBAYAX4QC1c/sBuEAMqT+ZZ5+NdWjwnwBVQQBAKAzDbl9wjXzZ4I+OkIEsEHGAWA6D/jDDZ7A0AcTP/xh7r1lAGBm71xmyNCwQyMw4ElCIN/x26OivijzQW8gSmU/9LuC1cybG8YXDf6/9/039S/KfowxWqbEvtbIz/Db06MMcYIY4YxwUigOFE6KE2UFfzUg6sCSg2l/nsef/OjZ9AD6NfoIfQE+vkuShr1X1ZagwlYvsm2L/z+6QuUKCxTGWWA0oalw5JRrChOIINSgvXoo3Rhzcow1XDb7g2v8P9L9n/M4B/R2ObDy+EReDa8Hl783yPpJemV/0jZ8PU//bNlq98ffxv+6fm3fsN/eN8fbi3/zYnMRDYh7yM7kT3INmQL4Ed2IFuRvchbG/jP6nqzubp+a3PYtCcUlkP5L32/I7vhyWi5Brm3cutbfTEBCRtnNDDcHbmHSgkKjuHXh2+EAH7zCLKsNL+CnIIyABv3y9bx9dlh896AWPv+ppEPAqAKn8/41b9p4Z8BuATvfX7rv2ki3vD2wwBQO0OOpcZt0VAbDzR8SjDAO40D8AIhIA7PRwGoAE2gB4yBBbAFTsAdeMPWB8PrnAriQTJIBRkgBxwBx0EpOAXOglpwAVwBLaANdIJ74BHoB0PgBbx6psF7sAhWwBoEQViIDiJBHBAfJAJJQQqQGqQDGUNWkAPkDvlAQVAEFAslQwegHKgQKoXOQHXQZeg61An1QAPQc2gSegt9glYRSAQtghnBgxBF7ECoIfQRlggnxE5EECIKkYhIRxxGlCAqEecRzYhOxCPEEGIC8R6xjARIGiQrUgApg1RDGiJtkR7IQCQVuQ+ZjSxCViIvIm/AcX6KnEDOI7+jMCgSih8lA69gM5QzioyKQu1D5aJKUbWoZlQ36ilqErWI+ommQ3OjpdAaaHO0GzoIHY/OQBehq9HX0HfhvTSNXsFgMKwYMYwqvBfdMSGYJEwu5iSmEXMbM4CZwixjsVgOrBRWG2uL9cXGYDOwJ7DnsR3YQew09huOBseHU8CZ4DxwEbg0XBGuHteOG8TN4tbwjHgRvAbeFu+P34PPx1fhb+D78NP4NQITQYygTXAihBBSCSWEi4S7hDHCZxoaGkEadRp7GgrNfpoSmks0D2gmab7TEmklaQ1pvWhjaQ/T1tDepn1O+5mOjk6UTo/Ogy6G7jBdHd0dunG6b/Qkell6c3p/+hT6Mvpm+kH6jwx4BhEGfQZvhkSGIoYmhj6GeUY8oyijIaMv4z7GMsbrjM8Yl5lITPJMtkzhTLlM9Uw9THNELFGUaEz0J6YTzxLvEKdISJIQyZBEJh0gVZHukqaZMcxizObMIcw5zBeYnzAvshBZlFhcWBJYylhusUywIllFWc1Zw1jzWa+wDrOusvGw6bMFsGWxXWQbZPvKzsWuxx7Ans3eyD7EvsrBz2HMEcpRwNHC8ZITxSnJac8Zz1nBeZdznouZS5OLzJXNdYVrlBvBLcntwJ3EfZa7l3uZh5fHlCeS5wTPHZ55XlZePd4Q3mO87bxv+Uh8OnwUvmN8HXzv+Fn49fnD+Ev4u/kXBbgFzARiBc4IPBFYExQTdBZME2wUfClEEFITChQ6JtQltCjMJ2wtnCzcIDwqghdREwkWKRa5L/JVVEzUVfSQaIvonBi7mLlYoliD2Jg4nbiueJR4pfhfEhgJNYlQiZMS/ZIISWXJYMkyyT4phJSKFEXqpNSANFpaXTpCulL6mQytjL5MnEyDzKQsq6yVbJpsi+zHHcI7PHYU7Li/46ecslyYXJXcC3mivIV8mvwN+U8KkgpkhTKFvxTpFE0UUxRbFZeUpJQClCqURpRJytbKh5S7lH+oqKpQVS6qvFUVVvVRLVd9psasZqeWq/ZAHa1uoJ6i3qb+XUNFI0bjisaCpoxmqGa95pyWmFaAVpXWlLagtq/2Ge0JHX4dH53TOhO6Arq+upW6r/WE9Pz1qvVm9SX0Q/TP6380kDOgGlwz+GqoYbjX8LYR0sjUKNvoiTHR2Nm41HjcRNAkyKTBZNFU2TTJ9LYZ2szSrMDsmTmPOdm8znzRQtVir0W3Ja2lo2Wp5WsrSSuq1Q1rhLWF9VHrMRsRmwibFltga2571PalnZhdlN1Ne4y9nX2Z/YyDvEOyw31HkuMux3rHFScDp3ynF87izrHOXS4MLl4udS5fXY1cC10n3Ha47XV75M7pTnFv9cB6uHhUeyx7Gnse95z2UvbK8BreKbYzYWePN6d3mPetXQy7fHc1+aB9XH3qfdZ9bX0rfZf9zP3K/RbJhuRi8nt/Pf9j/m8DtAMKA2YDtQMLA+eCtIOOBr0N1g0uCp6nGFJKKUshZiGnQr6G2obWhP4Kcw1rDMeF+4RfjyBGhEZ07+bdnbB7IFIqMiNyIkoj6njUItWSWh0NRe+Mbo1hhl/ke2PFYw/GTsbpxJXFfYt3iW9KYEqISOjdI7kna89sokniuSRUEjmpK1kgOTV5cq/+3jP7oH1++7pShFLSU6b3m+6vTSWkhqY+TpNLK0z7csD1wI10nvT96VMHTQ82ZNBnUDOeHdI8dCoTlUnJfJKlmHUi62e2f/bDHLmcopz1XHLuwzz5vJK8X4cDDz/JV8mvOII5EnFkuEC3oLaQqTCxcOqo9dHmY/zHso99Ob7reE+RUtGpYkJxbPFEiVVJ6wnhE0dOrJcGlw6VGZQ1lnOXZ5V/Pel/crBCr+LiKZ5TOadWT1NOj5wxPdNcKVpZdBZzNu7sTJVL1f1zaufqqjmrc6p/1ETUTNQ61HbXqdbV1XPX5zcgGmIb3p73Ot9/wehC60WZi2caWRtzLoFLsZfeXfa5PHzF8kpXk1rTxasiV8uvka5lN0PNe5oXW4JbJlrdWweuW1zvuqF549pN2Zs1bQJtZbdYbuW3E9rT2391JHYs3468Pd8Z1DnVtavrxR23O39123c/uWt598E9k3t37uvf73ig/aCtR6Pn+kO1hy2PVB419yr3Xnus/PjaE5UnzX2qfa396v03BrQG2gd1BzufGj2995f5X4+GbIYGhp2HR555PZsY8R+Zex72fGk0bnTtxf4x9Fj2S8aXRePc45WvJF41TqhM3Jo0mux97fj6xRR56v2b6Dfr0+kzdDNFs3yzdXMKc21vTd72v/N8N/0+8v3afMYHpg/lH8U/Xl3QW+hddFucXqIu/fqU+5njc80XpS9dy3bL4yvhK2tfs79xfKv9rvb9/qrr6uxa/Dp2veSHxI8bPy1/jv0K//Ur0pfqu/kqgIQrIjAQgE81ANC5A0CC8zOC51b+t12Q8MsHAm5dIFnoPSIdvlH7UBloEwwS8whbgovAWxEkaLA087SDdC30NQzVjI1MrcQu0iPmfpYR1ldsc+zvOZY4V7l+8CB4sXwEfjoBoiBRiFWYXYRNlF2MW5xHgl+SX0pQWlhGVFZsh7ScnLyigoqihpKusrGKuaq5mom6iYaJpqGWvraWjoaukp6svqgBjyGzEcHol/FnkxnT52a95m0WtZZHrVKsQ2zcbI3tlO3FHLgcGZ1wzkgXyBXhhnLHezB6cngJ75Txltgl7MPny+nHQib5EwNIgaxBXMGCFOkQ1VCTMJdwSkTy7sLIqqjT1JLogpjc2Ky47PjDCSV7ahPbk17sBfukU3btP5H64oBg+u6DnYcwmUJZCtkGOY65gXmJhwvya4/cLhgtXD7GdFymyKI4sOTAiYrS62WD5W9OLp/CnuY4I1mpdda2yu9cTPXBmqLa2rrr9Q8bRs+/u/C9EXeJ7bL4Fd0m96tR17KaT7Y0tnZc77nRd7O/7dGtrvbLHWW3Uzp3dWncId6Z6b5+t/5e+f2cBwk9fg/NH8n20vfOP777pLwvst9ggDQwNXjlaepf9kMiw6jht896RxqfF47GvHAZU3vJ+XJ9fPxV58S5yazXu6ec32hNC8OrbGX2r7mrb4vfpbwPmyd/IH+MXMhZvLa08Fnvy5kV0teS71KrT9ZTfmr8+vWP+Csg51CFaEsMC+YltgmXiw8iGNFI0jLQrtPN0o8wjDC+YnpD/ED6zLzC8oN1je0H+0+OH5wrXJ+5F3hmeMf4BvnvClwXrBbKEQ4TsRKVFMOLvRPvkaiTzJaiSFvKyMjSyS7sGJC7Kl+skKxIVrJXNlBRUBVQI6r9Uv+oMabZo9WsXamTqxuv56NvYaBgyGmEMHpr/MTkkmmBWbS5k4WKJZvlmtUr6zs29bYFdkn2gQ6OjvpO8s4CLiRXrOuq23v3MY9ez1tejTtPex/ddcgn2ZfqRyH7+nsEOAXaB9kEW1IsQ8xCNcNkwwUiWHbTRCIi16O+Ub9H/4hFxxHjhRI09jglRicVJbftnUmh2c+XKpOmfcAm3e9gfEbeoerMjqzR7K+5zHkKh+3zI47kFTQUPjj65tivIs5i5RK7E6GlB8tOlbee7K+YO/XzDHOlxFntKrtz5OrYmkO1JfA519uwcIF4UbHR8VLU5fwrDU3dV8eufWrBtHJcl7yhcdOize1WYHtMR8rt1M4DXQfvZHQfupt5L/t+7oO8nryHeY/yenMf5zzJ6jvUnz6QOrj3adxfUUO7hyOfxYwkPT84evRF5VjTy3vjz199mASviVOCb+SndWbMZ/3mTr/98F55PulD+8efi5pLcZ8ufn6zzL5i+TXlW9P32TXudYcf2T+7t+NvjNBH7kB+RHWiD2EcseLYJdx1fAbBgYabZpz2LF04vToDgqGTMZ3JgshA7CcdYbZlYWB5zJrNZsIOsbdyRHAKcY5w5XDrcH/gKeM14/3CV8Fvxv9R4JighuCY0F5hfuF2EW+RddESMSWxXvEA8XWJo5JSkh1SjlIz0qkyIjIjsrk7DHZ8kauR91SgU+hQjFQSUBpUTlNRUJlUzVfTVvugXqZhrrGseVbLXuundoOOuy5W95oeWZ+of9sg0pDfsN8ozVjJeNak1NQWfu+4aR5lIWXxxrLCysOa1fqpTaGtgx3Jbtj+hIO3o7DjO6fLzokuxq4MrqNu1e7RHgaetJ7DXqd2BnsreK/tuutT4OvlJ+G3Qu72PxrgG6gYhAoaDq6npIQ4hUqHocNehd+IKNkdH+kapUHljUZFz8cMxXbGNcZXJOTvSU2MTwpN9t+7c59bitN+h1T7NPsDDulOB90zdh4KyAzNis5OycnMLcyrOFyX33zkTsFA4fjRj8dRRRLFXiVHTtwtXSuXPelXcfzUw9PrlQpnA6pKz/XVoGq16uLrGxveX5C8GNJYf2nhikrT/qu9zRwtYa3dN/huprS9brfqaOuU7zrfLXX38n2DB6MPE3r5Hvf35Q04PRUdAsPvR96MvnsJXolM7pqqn0HPJb4HH6oWyZ91V9S+O6+XbMR/63/AjYJRAeD4IQA2/udxqAMg9zwAYnsAYINzTzs6AJzUAULAFEDLXQCy0P5zf0Bw4kkAJMADJIEaMIPzyzA4pywGjaAHTIEfEDukDDlC0dBxqBV6Ced80ggXRCqiETGOZEAaIOORF5AzcJbmhSpDvYAzMR/0OfQHjAomFfMEy4MNx3bgSDgKrhPPiY/FDxIUCcWEdRoyzWNaddpaOna6XHoEfRL9V4ZYhhXGRCaIKZvISqwiqZH6mUNYsCznWI1ZZ9gy2aXY+zliODk427n8uWm4r/B48CJ5L/B5whnBgEC+oK0Qk9BT4WIRT1EB0Rmx8+LREhqSkGSPVIG0J7w6F2UHd7TJVcsXKuxTpCg5Kmuo8KlCqhNqberHNEI0tbXotca063RidHX1cHoD+k0GVw1bjG4Yt5vcMe0x6zMfthi3nLVasl6zxdmx2os6qDlaOZGdk11KXNvd5jxInvpekTsrvYd8CL76fknkVv+vgWpBScGdIYRQ57Cq8OXdZpEVUQvRWjE5sePxSglH9iwluSbf26ed0p5qmTaVnpWhnQmyBnIu5ZXnFxaYHUUeu1tUUBJQalguXSF4WqRSqcqmOqq2rP7RBdCoetmmyf1acEvy9eM3r9wa7Fjp4u02uxfz4PTDJ70/+mQGdj49PHR7hDRKHrswPj/JPaU2rTcr/5b+3bP5wx93LHQumX3q/qKwXLqy+s3++7nVpXWNHyk/b2+eH1vxJ8LxlwCqwAS4ghCwDxwDDaAbjINvEAmSg2ygCOgI1AQ9RwCEBJzlpyEuI17DebwVMh3ZgVxDaaMOoHrR7OhAdDMGj/HGNGMZsWHYRzhpXD5uGe+Fv0eQJRTTIGmiaCZpnWkf0hnStdNr0d+Cs9gHjPaM43Ce+ot4jCRLeswcAWeeray+bDRsreyBHKwc9zn3cElzTXIX89jy4ni7+PbzGwhgBB4LFgn5CssKr4v0ilaIRYkbS3BJfJJ8KHVWOkXGU1Zzh4Qcuzxefl1hQXFK6ZnyQ5WbqufVStUPaVA1PbUMtSV1GHWWdUf12vUbDS4bNhm1GN806TDtNnto3m/xzPKV1az1ks2aHc6e1UHMUd3J2tnfZa9rqdt191GPH16COy28Y3ad9unzg8gq/hEBdYEzwaKUkJDLoavhphFFu+eitKh7oztiUXFW8cUJM4nqSYeTZ/cZp9Sm0qftOTALnyf9mRZZ93PMcnsPO+RPFKQc5T12uyiwhP5Ea5n/SVLFvdN7K1XOfjp3uSa2TqsBc37o4rlLyVe8rqo007dMXb9688Atmw7225Nddd3Ue1oPsD3Dj+oe7+/zGtB5KjLENPxgxPn59IvEl8zjVyacJtenaqfdZxnmet5lzlt+ZFx4tnT6c8iyylfEt77VsvWgn4rb8UcCDKDdPAHEgQq8AtxAODgIToGbYBTe/4KQBRQLVUHDCBqEEbzzu5A4pD3yFPITygJVg8ajqehXGCd4t9tgh3Bk3Hd8EUGdME1zglaPdowuiZ6fvochnlGScYrpFNGPJEH6ynyfpYI1ic2TXY9DipOdi4Ybwb3Os8q7zg8EsPAbKI+wrIi2qINYkPh+iROS1+C8e1GWcYeCnKv8PoUqxT6lNRUJVXe1QvVBTWYtd+0qnQU9bf08g1dGisY5JpNmWuZFFp+s7Kwv2NLahdk/dJR0ynF+52rhVu+B96R43fcW3XXQZ9rPkFwdgAz0D7pDEQ3JCJ0Lt4pojGSJSqBOxBjFXoxnT9i3532SG7xPVVJqUjnSDqejDiZnfMr0yLqc/SvXKa/m8OoRx4KLRwnHKMfvFUuV5J5YKHMtv1UheqoAPvv9z/ae06yuqWWqS6yfOe94oa1R9FL+5ZUm76v3mmVajrQu3rC/efEWoT2wo72T2BVwp/ku6p7d/bIHUw8lHlF6qx9P9nH22w8cHLz69PUQYVjumcMI9fnh0boXd8aGXs6ML71an4ReY6cwbzDTYHp15sPs+Nzjt63vKt9nzkd8sP4otYBdeLXYupT1yeOzxOdPX9qW01aMvmK+dn9L+a75fWn13JrHOmG9+Qf5J93PK7/cN+K/9e1o8/5gBOA01wYauPThzb+/22x9V/pHbvLvFmzeLhtl43bZbOGbBvwPUs7QxTD+2ewAAABWZVhJZk1NACoAAAAIAAGHaQAEAAAAAQAAABoAAAAAAAOShgAHAAAAEgAAAESgAgAEAAAAAQAAAMmgAwAEAAAAAQAAAKYAAAAAQVNDSUkAAABTY3JlZW5zaG90bjhXXwAAAdZpVFh0WE1MOmNvbS5hZG9iZS54bXAAAAAAADx4OnhtcG1ldGEgeG1sbnM6eD0iYWRvYmU6bnM6bWV0YS8iIHg6eG1wdGs9IlhNUCBDb3JlIDYuMC4wIj4KICAgPHJkZjpSREYgeG1sbnM6cmRmPSJodHRwOi8vd3d3LnczLm9yZy8xOTk5LzAyLzIyLXJkZi1zeW50YXgtbnMjIj4KICAgICAgPHJkZjpEZXNjcmlwdGlvbiByZGY6YWJvdXQ9IiIKICAgICAgICAgICAgeG1sbnM6ZXhpZj0iaHR0cDovL25zLmFkb2JlLmNvbS9leGlmLzEuMC8iPgogICAgICAgICA8ZXhpZjpQaXhlbFlEaW1lbnNpb24+MTY2PC9leGlmOlBpeGVsWURpbWVuc2lvbj4KICAgICAgICAgPGV4aWY6UGl4ZWxYRGltZW5zaW9uPjIwMTwvZXhpZjpQaXhlbFhEaW1lbnNpb24+CiAgICAgICAgIDxleGlmOlVzZXJDb21tZW50PlNjcmVlbnNob3Q8L2V4aWY6VXNlckNvbW1lbnQ+CiAgICAgIDwvcmRmOkRlc2NyaXB0aW9uPgogICA8L3JkZjpSREY+CjwveDp4bXBtZXRhPgpvGN7yAAAc6klEQVR4Ae1cCXhU1fX/zSSZLGRfyUYSAiRAACFsymJABNnE4r7Q1VatVlvrWm3ls7bWfrWrtvZv1Sru+qlILYKiLFVAWWQnQAIJWchK9mQmy/zPeZMJSebNvMkGmbxzvm8yM/fed959vzm/e88999wYsGS1NcDXByKCgCDQFYGm5hbEhwXCm4sbzM1da+WbICAIKAhYWlphFCwEAUHAOQL+Jm/bTOK8iXrN8NBh8PEyoqbRguoGs3ojKRUEBgECIQG+CPY3obm1DWeq6nvVI8XdcufKFVNHYemUVGQkRsJoMHRcUlHXhM8P5eGjPbk4UljRUS4fBIELhcB4stGlk0cia/wIhA/z6+hGa5sVB06XKba6bveJjnKtDwZeuLtqNCc9AQ+umIHIIH8YafaIiQiGn5+PQpRm8teqaxtRVdMAps1/9uTg9x9+BfbjRASB840Au0Zsq1dMSgEbdVhwAILJbn28vdBmtaKpqRklFTVoo1mlhGz2qQ924stjhS67mRwVTLbtgiQ3XDIWP12SCS+6yaikaITSTdWklW5aVHKWXlXIK6/BT178FKXUCU+WeanAsrFWjI2GMgAcKQU+OmrAJvcHIOXxJ8cB38qw4qJYwI/m7dxKYONxA9472DN0ksKA6yYCMxKtCKHBsagG2JxrwJo9QEtbz3TxM11NfcpMAAJNQH4V6LkMeP2bnukZTK3jKAr11+8tQEJ4IOKHhyEuJgxG4zmPp3Nfz1bX40ReqUKWp//zNd7Zkd25ustnlyRh1+qXKy9GaEgA0kbSL+yGVFU34GhuMU6WVuPmv60DkdfjZBgZzTMrrFiZod71Dw4Bd601oNaNpdhvFllx1yXqenaeBu750AAmn5bceTHw2yvUwSyoMeDutWzkWlps9Q/PAx7KUtd1qIT6tM6Ar6lvniS8Pn7t7uVIjAjC2NRYhDgZzLs/05ETRaghT+ixd77Ahn0nu1cr35kkXhidtbp7LS/MnyFWDqNFz/jR8d2rnX5nN4yvabO0KIul7ceLnLYdrBXv3mLF4jRb77xDRsMncjK8g1NhMNKUba5EOo3C0xJBo676KGV/rj8vt+K2GbZvXoGJMEVOgU/IGBi8A9DWWIqEEGBxOrD2sAE1Lgh39yyAycZi9IskPZPhEzYORt9QtDVVINjUiusnAV/kGZQZwXZH9b+rL7fi/rm2Oq+AWFufwtJh8AmiPpUgOhC4ZgKw4ZgBpXXqOgZj6QNXTseMUbFIJ4I483bU+h0VHoTys3WYkToc63bnoIHstruEDvNVJ8ndizMxNj4C48fEw5tcrZ6Iv58J7H4lUQeYnRwB8xS5jwzoO5m23vqnrIRfwuXwDkqi1wj4RExUjLTl7GEkhYJ8XgO+OKX+ZFeOAx5faKvzjb8M/ilXkY5kMFnYwJl0zVXHEexjQQwZ5odEFDVht+j1G20EMUVlImDMKuVa1uMdmkZ9moTWutOwNtdgUqwBL3ytpsVWNicF+NuVts++w2fDP/U60pXS3qd0pV8ttSfhbW3AyHDgzX3qfXJ+hwtTMzI6FI+QxxNL7zFRNPL0UEJozVJeWQsT2fmXxxwHdSaJwz6Jj7eRIgOpiI6kBXovd+K5wyxXXES/jAfJD6fbDNI3LkshRfeu+4RnwDd+vlL8o/a23dvw9+9m2vT4hE+Ab+wchyZs5P5JS5RyHrlTaL2hJjdPtunhUd8vablDE6MpmAi4QikfH2PFFe0zoENDKvj2FJsu7+BR8E1Y4NDE6B9NfVqmlPN6LNN9B8JB1/kssNtYbIzN5np6bx7UeUZZTtFbZ+JAksyU4fCiBU94yDBn12iWmyjK4Euu19yx5Jd4iKRHAcODbJ01RU112mt7XSTBkxGj3ixrpK2cR3pnorhMJtsPO5UW0GoyO9lWyuR0Jka/KLBbyMKLemcyt3288okgVjoRL57tAijSQDLdQ366S8fRgOPvq0SwnDyWZnEYLS98aSaZkqL+gzqQJLl9ygrsFF/WvItKg/DgYbDrUqkedEVh/rYuGYwm8tHJB3IivKYweNli7/ZrOjcNpSpaRypi9CO/xYUYTDZWhgeoN4pqH6cMtP5wJTyjsEQ40cN1dl1GXyfTFjciOdcn54SztRwcf0fQlgSHevsidltPiVZ31xxIEkS7kyxe9l+6l3f3JreNow7MUE+QykZbL61tFsXHd9Zna3M9rK1NSnVF+zWd21ZRVXOrrYQX1q7EaqE4Lkl5g3qrkvbFc5v5rHqD9tI2c7XyqdzFhnKHrqZKl7qsFruuwb8mCSRvhfe12db6IryPwhJErpeaOGg3U+Yji7WP8Vve3WQxe8jGYnYZUEjhVBZL6S7lXe2PpewrpbikzoDDFDJVk89ybKXN5XvVqpWy5sqDFAW0GaSzkOu2k7bLWyoOONXT2nAGLTW2+O/2fOeGvTnXpqK5Yp9TXS01OWB9LByiHuxit622dlvrbX850MRi19ddjwNJCittw1dDH6NSTU0WFFF4zZPknztsvTUXb0VzOe3SdRM2enPRFqX0ufa23ZooX1/aZTPWZoqEmQs/d2jSUpOLpvyPlPI3vrFt5jk0ooI1e216Wik823jyfYcmPFM1nVqrlO+hjeNPjjs06Sh4ebdNF0ewmk5/3FFu/9BaX4imvHXK143HgG8cAz32poPmvZl2Uctpn6ORbK0v0tB+fSFFudSE9oC7yoF8GlJJONWE9zx6KxWUTLbzeHFvL78g1/3lC2BWMrBoDNB46kNYKvbDO3CE0pfWuny01J5SPn9KA/cftykfVf+szwaYRLfPpNGpeAtaqrPhFTyS9looPM4jf9VR5TrefX/sE5vxqik6UQ48uN6ApxZbwTNAK92fQ7+8ZmprKgfPRrDaRsGHPnauh3XvyAee2kz6smimLNlBfTqhLPh5fcX7Ns1nD3EzVDUZ8MgG5aNH/PnqRDEiKIw7Kll90e3OQ/AmOMuBfAJcRRw2E+vpbMlFydEI8vVWtvdVrtEsOlNWjWoi2TMb9qLYw2aT9w8ZlI2+ibFkf5Yq2ofIU15t9JnlDfJWbn3XgFaNde2nlObhQ67uJUmkp7lO2c9gI2fjZtlC7s/33jGgwOZxKWVqf3YVAGX1BlxGEUpDmxk84rfSbMCbf6QZ7CZ+520DtuepXd21bNspA7kUBmSl0pUtDaSrQCFeW5NtYOR7sa7DpV2vG8zf2EVaTFsNJh/vXg3qvKw4mntG2SNZu8txKuZ9EtXcrakjh+OZ7y/AcIp0JSVE9ggjM+1a7qWs4H15Zbj9eQ8akro95UyaQJam23K3uOoo2RHnbrljjJ1VcWj5qvHApDirkrt1kmaPTyh3i2ebnghvOl47kUKzCZS7RZE4zt3aQrlbbzpfYjhVnxwGJe0mM94KTsPh3K3PcgzglBtPlBduX4xxCRGYkpGkkKUnz5BLnlMZJT3e9vxGslnH0cFl7tY9tOt+46yxCkmYLO5IC/mI+46eRpPZglXPfKTkcLlznbQRBPqCwJjYMLx851Lw/tyk9ES3I7PFpVXIp+Mdr2w9hL9vVA+yOM3d4g7vJF9vLLEzmKYxTonnnBhDp3Mk3R+K3auDlHbc1tqKB1/boswk3dvId0FgIBDgM025lIE+jzYWiykLPTDAz2W2CEfDeAZhkmw+chpPfuA8CuM0d8v+IBv3nYIfkSSVMiELqROch89EMRqN5A3TotTSDF705BdVoPDMWZyh9cf9RBAmmCfJ/VdfgmfuWIIbLs3ASEqz3rz/FH5541xs/t138drmA6ikCErhmnvx6mf7UPfeL/Crmy7FiplpqKCB4cjpc4u9aWPisPOPt+JP7aA/cv0c3JQ1AZsoh+21+1eC77MoMxU7jhaghk50ziX34P1Hb8D1czMQGuiHndnnzjbwYnTjb1bhzmXTcdfy6diTU4zCilpMHR2HDx+7ETdmZSCBNtK2HcpH0ZqfY83n+1FP5yW6yzWzx+Gdh6/FbXTk4coZaXhr2yGsf/xmrLnvW/jBoimIJx2bD5yCPWTPzz1vYjK2HHBjkdP9Zhfw+ylaB7O7NJUyRhrrm1BH+PIuBqfL8yHBFhq8uayUSJR9shgcvf33loP4HZ0pcSVMEofoVvcLntmwB1vJhVo1Zzzm0F2Zfd2lrKYRb20/ilfpB/A0WTJtNC67aCRm3Ps8AWnFz66aiUiaNRngE8WVeIwIseoP7yvfORzPhhh8zZPIoODGGw9cjeNFldh/0rZh8jUlyPGBs4vHJmD7kQJ8f+Fk3PKH9xSd2QUVuP537+KHV0zBoimj8MqmfQpxptz9T1TXm/Gf1TfhRZrya9tD71lkqEzOFY+/hIV0bIH/ow3/2G88eDUW/OIVnC6rwbuPXIdYOj/hSlbNn4hfrvkc7315BA9cMwu8WcwD3LyHXqa+V2D1zVn4OSUIPvn2/xBM0cxV8ycpaUl/XrtD6Zcr3YOt7uucM7iK8L6FbPW6i9OU4JFaHzcfPq3Y6sFOA5xaO3uZJkm44X5ahN+ftxm8wzmeFvKxdMCFd9OrG800zVXjBM0inipLpo7Gup3Z5FK24adEEDYU7/Zsg5c+2YvbFk/FCFqTsafJQVZ+51NuTIytB/MwjUZ2O0kYg5c++QY30Mxgpm13nnWZLE/fugi/IkNlef5j2/4LE4n/P0BZe/hx4aNrlHr7n03fnFRIto5mjfdpAGJSpdOxVB8vL+TReR2WlU+8ZW/u9P1vdFL0iW/PxxWZo/AiPc9Zck3sz8Ez0wek+0e0/mS5Zd5EvLX1IPzIt+fPz9KBJE8TnhFfphmCX7xWSaFk2xAaGCx8MJA8HSZGT/87kFsksQNVR6Oop7lS9r47e68loie2BybYeO5YOlUxHG7Ps8Ljb2xRXC/+blXGYP5kkyT6AdZ2O9X2Orln2//4A4VIL9AszMKkq6dgRmdhY68ig3UmTNaf/GM9ka1FGe0XU5bqr9/YSjNZVz3OrreXs1s3/+GXkUnnLf79s6tw/4sb7VXK+wjKVyoisrDcuWwadmQXKETkwcMTSaI8SPufY8Vnwa++isOOe18Vetr1/7d+N66mKN5KOqq8l6bruk6ZBgYac3kEnzVuBEJoMcijFPu4l9M/GXj61oXKOmIDnevvLLk0q54gF+yOJdPwCq1hWN6m6MlVM9OVz8/TCbpfr5qH3XQqLozWITxLxfHhnzcfQDRlo9oljYIm7/ziWoyhcz08+h+hja7DtNjkPqTTbB5FJ0Z5LcJrKCbvJZRxnTUhGSndUsZ/QgeSHr1hLrlQRtLTiHyahdjdmkRh/nu/dTHuvnKGsobimY3vs2bTfsXtY3LNpP9vIMIehIsz7noBKIQWZ8umj8Go2HDF/WHjnkKn3Fpoiv6Soh+8wJ5P/1zgqXf+hwevnU2G2qYQaj1tPtkXvJ2xYmMdnxTVZSR+iK5jl2f/qRLc96+NyiyVSAGRZ+9YiqAAE554cyvYxeosTBRebFfQ2oTXKyxMjufuWka7zAF4+v0vyVU8pqwpgihdnGUb7VF11sPHHi6n80Fs8B+SW7mHgirsSo2KCye3rUq5vpwCEAtoXcazHbuHLLMoUsRuV2ddSoXO/rjcJ9EZFvK4goAqAkwS3btbqshIoSDQCQEhSScw5KMgoIbAuehWgc3nVWskZYKA7hCITgNMthOP50jSQKGyE1t1h4U8sCCgisCCBzqKxd3qgEI+CALqCAhJ1HGRUkGgAwEhSQcU8kEQUEdASKKOi5QKAh0ICEk6oJAPgoA6AkISdVykVBDoQOBcCLijSP1DUFCQcqZCvVZKBQHPQoD/EXxVlePZKLWncJsk9fX1aKPEPhFBYCggEBBwLuNa63nE3dJCSOp1j4CQRPcmIABoISAk0UJI6nWPgJBE9yYgAGghICTRQkjqdY+AkET3JiAAaCEgJNFCSOp1j4CQRPcmIABoISAk0UJI6nWPgJBE9yYgAGghICTRQkjqdY+AkET3JiAAaCEgJNFCSOp1j4CQRPcmIABoISAk0UJI6nWPgJBE9yYgAGghICTRQkjqdY+AkET3JiAAaCEgJNFCSOp1j4CQRPcmIABoISAk0UJI6nWPgJBE9yYgAGghICTRQkjqdY+AkET3JiAAaCEgJNFCSOp1j4CQRPcmIABoISAk0UJI6nWPgJBE9yYgAGghICTRQkjqdY+AkET3JiAAaCEgJNFCSOp1j4CQRPcmIABoISAk0UJI6nWPgJBE9yYgAGghICTRQkjqdY+AkET3JiAAaCEgJNFCSOp1j4CQRPcmIABoISAk0UJI6nWPgJBE9yYgAGghICTRQkjqdY+AkET3JiAAaCEgJNFCSOp1j4CQRPcmIABoISAk0UJI6nWPgJBE9yYgAGghICTRQkjqdY+AkET3JiAAaCEgJNFCSOp1j4CQRPcmIABoISAk0UJI6nWPgJBE9yYgAGghICTRQkjqdY+AkET3JiAAaCEgJNFCSOp1j4CQRPcmIABoISAk0UJI6nWPgJBE9yYgAGghICTRQkjqdY+AkET3JiAAaCEgJNFCSOp1j4CQRPcmIABoISAk0UJI6nWPgJBE9yYgAGghICTRQkjqdY+AkET3JiAAaCEgJNFCSOp1j4CQRPcmIABoISAk0UJI6nWPgJBE9yYgAGghICTRQkjqdY+AkET3JiAAaCEgJNFCSOp1j4CQRPcmIABoISAk0UJI6nWPgJBE9yYgAGghICTRQkjqdY+AkET3JiAAaCEgJNFCSOp1j4CQRPcmIABoISAk0UJI6nWPgJBE9yYgAGghICTRQkjqdY+AkET3JiAAaCEgJNFCSOp1j4CQRPcmIABoISAk0UJI6nWPgLe7CHh5ecNotLrbXNoJAoMaAYPB4Hb/3CZJTMxwt5VKQ0FgsCPQ1NSI+vo6t7rpNkkKCvLdUiiNBIGhhoCsSYbaLyrP0+8ICEn6HVJRONQQEJIMtV9UnqffERCS9DukonCoISAkGWq/qDxPvyMgJOl3SEXhUENASDLUflF5nn5HoGOfJHSYLxAa2u83EIWCgEciYAKq2jt+jiQhIYievcwjn8eh021tgLkWsDQAzY1AW4tDEykYIAS8abA1BQC+gYCP/wDdZODVVvtZUUXmw9JBEgwfSw/Waisdan+ZKLUlQMUpIcxA/La+QUDUSCAgAjAMEQ+++dxznCPJQIA3WHTyiBaeDATHAgXf2GaZwdI3T+9HeBIRZLSnP4XL/p+ji8tmQ6SSXYHEiwAvcjhF+o4ADzpDnCAMUsdMUmMxoMbS8bXvAA5aDfSMxWeBmuJB20OP6djoBCBw6NtMxxNWWlxPKkH+Jlw6NhETk6KQEhUCH28vlNc24BgZ3FfHi/FNXumg/21HBpzFmGEV2N14BmWVlYO+v4O9g9N8TiI+zITtVYkoMQ8bVN2dnByDGaNiMTo2DBFB/rC0tOJkaTX2k51uPnwa9eZmt/trwJLVLk9SeRkNuG3BRVg1Zxz4oIqBvgf4+cLbywizpRlN7Tc7UVKFZzfswfZjRW7f/Hw3vCd5B64efhh3/qsEB/LN5/v2Q+5+9y0Px5XTArGpYiR+nzsbja0dY+4Fe9bZ6Qm4c+FkpESHKH3w8/OBr48PWlpb0dBkgbXNilZ6vbL1IP756T7NfiZHBZ9zt9Raj4oJxVO3ZNFoEYioiCBERwQjcJhfl6ZtFG4tr6TDK0SeP317PtZsO0Rk2dulzWD4kuhXg5mhBYOhK0OuD5dF5OKj0jHYVR13QZ/tniWZuPGSsTSQG5GSEIGIsCA6Tdv1BGJdfRPOlNXge1kTcNmEZDzw6macKqt22W+n1B8RGYy/37oQwQG+SBs5HKHBFPtWESN1KJra8utUQTnNOOOVVoONKA00ysUTUUQGBoEyi7p9DMzdHLXes9hGkOG0FEhKiHRs0F7Cg/woekWG2dzDf5CN/+C59Sg66/yUotOFyBPXzwGvQyakxTslSPeeJFPnYqiTTJRFk1K6V8t3QWBAEFg2JRU3zhqLOPJ8XBGk881DQ4ZhfFoCONPk12TrrkSVJNfMGIMxtOAZTYufAH8Km/ZAmCh+fib8dMnUHlwlTQWB3iHAa2N2swLI40mMo83MHkggXZOaFI3x5JqtmDrK6ZWqJFk1N0Mx9Ahai/RGkummYcRQZriIIDCQCCzPTEUQDcpJ8T0jiL1PUeFBMPn6YNVc2zLBXt753YEkaXHhiAkJQFx075MdQ4ICYCSGZ40b0fle8lkQ6HcE5o8fAW/ajggO7H2eGNt6ApFlpBObVyUJP0kwxZb7IhGhgZhEeyoigsBAIpCRGAW2tb6InWA8QaiJA0mi2snha3Ia+FLT41DG1/PCn31GEUFgIBAIIBvzp1dfbdXP12brkcHqE4MKE7rGlfv6cP2rTbs3EUF+mJUWiykpUUiPD0M0PbgPE9VcCetnb2orkBa9QuDVuy6nFJVEZcO5hfbOsouqaMO2AjuPl+DrnJJe6dS8qAf/hVFTFzVwZqsOJOFUExazpaVPDLXQ9bW0w9ncSmc7zpMsnDQCq6+ZhqAAE3iU6SytjbSJ1LlAPvcrAtEh/vCmsKpdEiMCsWBCAqobLNh6pAhPfrAbJfYDGvZGfXxvoGyPpuYWmOnVF2FbZymvpSMVKuLgC2Vz8h9JTZ36BSo6VIvKq+ooT6ZMtW4gCldMS8HTq2YhJjTAgSB8Py//IXTWYSAA7KNOa5tFVUMIDVjLM5Px7PfnIoRCrv0tB0+Xo4JsrS9S006O7CL1fD4HkhwtrEBpTQOKS+2HF3t++2q6aRvNIFsokex8yMKJI/DbG2YioN23dHbPoHE3OKuS8l4iYPAJQGDaShhNtlwpZ2omk/v7wu3z4EUZGv0pnx/KR0tzK2rrmnqttohsnXfccyj/UE26+iTtLV6l/Kt7l05DBV3Ym72SvMJyVDeasW5Pjto9+7WMky4fXDEZft3cK7WbBI6/CX5xM3Bt9buYXWqbMdXaSZl7CEybmYGwcenwH3GpWxcwUZZOScKHu0661d6dRut25+DHlNCYV1SBjDHx7lzSpU15ZS3M5Lat2XqoS3nnL6okeXt7Nu1AjganBwdQhMqfNmvclXyaiRobLfjLf3fDanWZYOyuSpftZo6OQTS5WO6I0WcYTNETcfOPJ7rTXNoMAALLyPXadKCgR6nqrrrBKfB/Xb8bD181EwXFlUiIVQ/jqumop4H8BKXOs5v1/tfH1ZooZU7nvkff2gZeGO0/WgB2n9yRPEpwZDft9S+O4L97c925pM9t5mckwM/Hq896RMH5QYAjj7zI709Zu+sE3tmRjcIzZ8GDtDtSTUuKg9mFqKUB/Zdk667EC6OzVqs1qKo3Y+eJYlxMU1hTQxOaibEmcmlMPl0nH54tOFX+0PEicBryG18eUZitprO/y9jV+m5WOp0dCO5v1aJvgBDgfbMN+0+joKJvi+3u3eNzTKGU3TuCsnuLKPXdl+zUn849dY8S1zeYUUjBqTwiE69D7vn3JkqVr+muruM7J0B2tfiOKtsHnoau/9Na3H75RUqWZWl5jZJuwolhRrq7hRZMDTRlsZyiumc/3oNtNPOcL+EDYQGUdyPiWQiEDkCUixH4w7qvsCunGHcumgIrBY5yyJXiBF0TeRptdNCqjmyVA0osvO5+7pN94D0dLXFJEr7YTDPIX8jne4UWNlnj2o/vUo4Lb9BVUJiYibSTju/uyr0AuxADv+TRwk/qe4FA99G9FyqcXsJHc/k1PTUW0+n4LqeahAf6Kft1uRS92td+fLeaZhR3xEorc02S2BWdJVeKFzeuFjj2tufrnUcBXriJeBYC1eTKD7R8RTMKv/oqlXVmeK+cnorI4K5Hcvuq+Hxc32QhV492SsdS6omIZyFw1+KJSIgMQihtNA5mqW9qRhrZlyEnJ0eclsH8S0nfLjgC/w83KJfZfquDNwAAAABJRU5ErkJggg==;" vertex="1" parent="1">
          <mxGeometry x="23" y="159" width="82.34" height="68" as="geometry" />
        </mxCell>
        <mxCell id="s5DQ25FVZao19d8wmNkH-2" value="" style="shape=image;verticalLabelPosition=bottom;labelBackgroundColor=default;verticalAlign=top;aspect=fixed;imageAspect=0;image=data:image/png,iVBORw0KGgoAAAANSUhEUgAAAMkAAACmCAYAAABwZKuKAAAYTWlDQ1BJQ0MgUHJvZmlsZQAAWIWVeQk4lV3X/77PfI75HPM8z2Se53meZxKO6ZjiGEOJJGOiQkglGSuVQiUiDUoZekiSSIZKoaJC9d2Gep73ef/X/7u+fV373r+z9tprrb3WHu51bgC4qnwjI8MQjACER8RQHUwN+N3cPfixbwEE2AEGIIGCLzk6Ut/OzgrA5Xf7n2VlGOaGy1OZDVn/3f//LUz+AdFkACA7GPv5R5PDYXwVAFQ5OZIaAwBmgy4UHxO5geEKmKmwgTDO3MBBW7h8A/tt4UubPE4OhjDuBgBH6+tLDQKAvh+m88eRg2AZ9ItwHzHCnxIBAAsKxjrh4bv9AeAygnnEYZ5IGG/MQ83vH3KC/kOm3x+Zvr5Bf/DWXDYLzogSHRnmu+f/6I7/vYSHxf7WIQpX2mCqmcPGnGG/jYTuttzAtDCej/CzsYUxEcbfKP6b/DBGEIJjzZy3+BHc5GhD2GeAFcZy/r5GljDmhrFJRJiN1TbdL5BiYg5jeIUgEigx5k4wZodxZkC0seM2z2nqbodtXYjmQKqh/jb9gS91U++GrvHYUGf9bfmfggPMt+Uj6RODnVxhTICxcBzFxQbG9DCWjQ51tNzm0UoMNrT5zUONddiwXxjGDgERpgZb8pFxgVQTh23+7PDo3/NFng6mmNts4ysxwU5mW/5BdpN9N+2H54LsD4jQd/4tJyDazer3XPwDjIy35o6cC4hwdtyW8y0yxsBhayyKEBlmt82PEgwIM92gC8JYKTrOcXssyiUGXpBb8lGBkTF2Tlt2ohJDfC3stuxBHQFWwBAYAX4QC1c/sBuEAMqT+ZZ5+NdWjwnwBVQQBAKAzDbl9wjXzZ4I+OkIEsEHGAWA6D/jDDZ7A0AcTP/xh7r1lAGBm71xmyNCwQyMw4ElCIN/x26OivijzQW8gSmU/9LuC1cybG8YXDf6/9/039S/KfowxWqbEvtbIz/Db06MMcYIY4YxwUigOFE6KE2UFfzUg6sCSg2l/nsef/OjZ9AD6NfoIfQE+vkuShr1X1ZagwlYvsm2L/z+6QuUKCxTGWWA0oalw5JRrChOIINSgvXoo3Rhzcow1XDb7g2v8P9L9n/M4B/R2ObDy+EReDa8Hl783yPpJemV/0jZ8PU//bNlq98ffxv+6fm3fsN/eN8fbi3/zYnMRDYh7yM7kT3INmQL4Ed2IFuRvchbG/jP6nqzubp+a3PYtCcUlkP5L32/I7vhyWi5Brm3cutbfTEBCRtnNDDcHbmHSgkKjuHXh2+EAH7zCLKsNL+CnIIyABv3y9bx9dlh896AWPv+ppEPAqAKn8/41b9p4Z8BuATvfX7rv2ki3vD2wwBQO0OOpcZt0VAbDzR8SjDAO40D8AIhIA7PRwGoAE2gB4yBBbAFTsAdeMPWB8PrnAriQTJIBRkgBxwBx0EpOAXOglpwAVwBLaANdIJ74BHoB0PgBbx6psF7sAhWwBoEQViIDiJBHBAfJAJJQQqQGqQDGUNWkAPkDvlAQVAEFAslQwegHKgQKoXOQHXQZeg61An1QAPQc2gSegt9glYRSAQtghnBgxBF7ECoIfQRlggnxE5EECIKkYhIRxxGlCAqEecRzYhOxCPEEGIC8R6xjARIGiQrUgApg1RDGiJtkR7IQCQVuQ+ZjSxCViIvIm/AcX6KnEDOI7+jMCgSih8lA69gM5QzioyKQu1D5aJKUbWoZlQ36ilqErWI+ommQ3OjpdAaaHO0GzoIHY/OQBehq9HX0HfhvTSNXsFgMKwYMYwqvBfdMSGYJEwu5iSmEXMbM4CZwixjsVgOrBRWG2uL9cXGYDOwJ7DnsR3YQew09huOBseHU8CZ4DxwEbg0XBGuHteOG8TN4tbwjHgRvAbeFu+P34PPx1fhb+D78NP4NQITQYygTXAihBBSCSWEi4S7hDHCZxoaGkEadRp7GgrNfpoSmks0D2gmab7TEmklaQ1pvWhjaQ/T1tDepn1O+5mOjk6UTo/Ogy6G7jBdHd0dunG6b/Qkell6c3p/+hT6Mvpm+kH6jwx4BhEGfQZvhkSGIoYmhj6GeUY8oyijIaMv4z7GMsbrjM8Yl5lITPJMtkzhTLlM9Uw9THNELFGUaEz0J6YTzxLvEKdISJIQyZBEJh0gVZHukqaZMcxizObMIcw5zBeYnzAvshBZlFhcWBJYylhusUywIllFWc1Zw1jzWa+wDrOusvGw6bMFsGWxXWQbZPvKzsWuxx7Ans3eyD7EvsrBz2HMEcpRwNHC8ZITxSnJac8Zz1nBeZdznouZS5OLzJXNdYVrlBvBLcntwJ3EfZa7l3uZh5fHlCeS5wTPHZ55XlZePd4Q3mO87bxv+Uh8OnwUvmN8HXzv+Fn49fnD+Ev4u/kXBbgFzARiBc4IPBFYExQTdBZME2wUfClEEFITChQ6JtQltCjMJ2wtnCzcIDwqghdREwkWKRa5L/JVVEzUVfSQaIvonBi7mLlYoliD2Jg4nbiueJR4pfhfEhgJNYlQiZMS/ZIISWXJYMkyyT4phJSKFEXqpNSANFpaXTpCulL6mQytjL5MnEyDzKQsq6yVbJpsi+zHHcI7PHYU7Li/46ecslyYXJXcC3mivIV8mvwN+U8KkgpkhTKFvxTpFE0UUxRbFZeUpJQClCqURpRJytbKh5S7lH+oqKpQVS6qvFUVVvVRLVd9psasZqeWq/ZAHa1uoJ6i3qb+XUNFI0bjisaCpoxmqGa95pyWmFaAVpXWlLagtq/2Ge0JHX4dH53TOhO6Arq+upW6r/WE9Pz1qvVm9SX0Q/TP6380kDOgGlwz+GqoYbjX8LYR0sjUKNvoiTHR2Nm41HjcRNAkyKTBZNFU2TTJ9LYZ2szSrMDsmTmPOdm8znzRQtVir0W3Ja2lo2Wp5WsrSSuq1Q1rhLWF9VHrMRsRmwibFltga2571PalnZhdlN1Ne4y9nX2Z/YyDvEOyw31HkuMux3rHFScDp3ynF87izrHOXS4MLl4udS5fXY1cC10n3Ha47XV75M7pTnFv9cB6uHhUeyx7Gnse95z2UvbK8BreKbYzYWePN6d3mPetXQy7fHc1+aB9XH3qfdZ9bX0rfZf9zP3K/RbJhuRi8nt/Pf9j/m8DtAMKA2YDtQMLA+eCtIOOBr0N1g0uCp6nGFJKKUshZiGnQr6G2obWhP4Kcw1rDMeF+4RfjyBGhEZ07+bdnbB7IFIqMiNyIkoj6njUItWSWh0NRe+Mbo1hhl/ke2PFYw/GTsbpxJXFfYt3iW9KYEqISOjdI7kna89sokniuSRUEjmpK1kgOTV5cq/+3jP7oH1++7pShFLSU6b3m+6vTSWkhqY+TpNLK0z7csD1wI10nvT96VMHTQ82ZNBnUDOeHdI8dCoTlUnJfJKlmHUi62e2f/bDHLmcopz1XHLuwzz5vJK8X4cDDz/JV8mvOII5EnFkuEC3oLaQqTCxcOqo9dHmY/zHso99Ob7reE+RUtGpYkJxbPFEiVVJ6wnhE0dOrJcGlw6VGZQ1lnOXZ5V/Pel/crBCr+LiKZ5TOadWT1NOj5wxPdNcKVpZdBZzNu7sTJVL1f1zaufqqjmrc6p/1ETUTNQ61HbXqdbV1XPX5zcgGmIb3p73Ot9/wehC60WZi2caWRtzLoFLsZfeXfa5PHzF8kpXk1rTxasiV8uvka5lN0PNe5oXW4JbJlrdWweuW1zvuqF549pN2Zs1bQJtZbdYbuW3E9rT2391JHYs3468Pd8Z1DnVtavrxR23O39123c/uWt598E9k3t37uvf73ig/aCtR6Pn+kO1hy2PVB419yr3Xnus/PjaE5UnzX2qfa396v03BrQG2gd1BzufGj2995f5X4+GbIYGhp2HR555PZsY8R+Zex72fGk0bnTtxf4x9Fj2S8aXRePc45WvJF41TqhM3Jo0mux97fj6xRR56v2b6Dfr0+kzdDNFs3yzdXMKc21vTd72v/N8N/0+8v3afMYHpg/lH8U/Xl3QW+hddFucXqIu/fqU+5njc80XpS9dy3bL4yvhK2tfs79xfKv9rvb9/qrr6uxa/Dp2veSHxI8bPy1/jv0K//Ur0pfqu/kqgIQrIjAQgE81ANC5A0CC8zOC51b+t12Q8MsHAm5dIFnoPSIdvlH7UBloEwwS8whbgovAWxEkaLA087SDdC30NQzVjI1MrcQu0iPmfpYR1ldsc+zvOZY4V7l+8CB4sXwEfjoBoiBRiFWYXYRNlF2MW5xHgl+SX0pQWlhGVFZsh7ScnLyigoqihpKusrGKuaq5mom6iYaJpqGWvraWjoaukp6svqgBjyGzEcHol/FnkxnT52a95m0WtZZHrVKsQ2zcbI3tlO3FHLgcGZ1wzkgXyBXhhnLHezB6cngJ75Txltgl7MPny+nHQib5EwNIgaxBXMGCFOkQ1VCTMJdwSkTy7sLIqqjT1JLogpjc2Ky47PjDCSV7ahPbk17sBfukU3btP5H64oBg+u6DnYcwmUJZCtkGOY65gXmJhwvya4/cLhgtXD7GdFymyKI4sOTAiYrS62WD5W9OLp/CnuY4I1mpdda2yu9cTPXBmqLa2rrr9Q8bRs+/u/C9EXeJ7bL4Fd0m96tR17KaT7Y0tnZc77nRd7O/7dGtrvbLHWW3Uzp3dWncId6Z6b5+t/5e+f2cBwk9fg/NH8n20vfOP777pLwvst9ggDQwNXjlaepf9kMiw6jht896RxqfF47GvHAZU3vJ+XJ9fPxV58S5yazXu6ec32hNC8OrbGX2r7mrb4vfpbwPmyd/IH+MXMhZvLa08Fnvy5kV0teS71KrT9ZTfmr8+vWP+Csg51CFaEsMC+YltgmXiw8iGNFI0jLQrtPN0o8wjDC+YnpD/ED6zLzC8oN1je0H+0+OH5wrXJ+5F3hmeMf4BvnvClwXrBbKEQ4TsRKVFMOLvRPvkaiTzJaiSFvKyMjSyS7sGJC7Kl+skKxIVrJXNlBRUBVQI6r9Uv+oMabZo9WsXamTqxuv56NvYaBgyGmEMHpr/MTkkmmBWbS5k4WKJZvlmtUr6zs29bYFdkn2gQ6OjvpO8s4CLiRXrOuq23v3MY9ez1tejTtPex/ddcgn2ZfqRyH7+nsEOAXaB9kEW1IsQ8xCNcNkwwUiWHbTRCIi16O+Ub9H/4hFxxHjhRI09jglRicVJbftnUmh2c+XKpOmfcAm3e9gfEbeoerMjqzR7K+5zHkKh+3zI47kFTQUPjj65tivIs5i5RK7E6GlB8tOlbee7K+YO/XzDHOlxFntKrtz5OrYmkO1JfA519uwcIF4UbHR8VLU5fwrDU3dV8eufWrBtHJcl7yhcdOize1WYHtMR8rt1M4DXQfvZHQfupt5L/t+7oO8nryHeY/yenMf5zzJ6jvUnz6QOrj3adxfUUO7hyOfxYwkPT84evRF5VjTy3vjz199mASviVOCb+SndWbMZ/3mTr/98F55PulD+8efi5pLcZ8ufn6zzL5i+TXlW9P32TXudYcf2T+7t+NvjNBH7kB+RHWiD2EcseLYJdx1fAbBgYabZpz2LF04vToDgqGTMZ3JgshA7CcdYbZlYWB5zJrNZsIOsbdyRHAKcY5w5XDrcH/gKeM14/3CV8Fvxv9R4JighuCY0F5hfuF2EW+RddESMSWxXvEA8XWJo5JSkh1SjlIz0qkyIjIjsrk7DHZ8kauR91SgU+hQjFQSUBpUTlNRUJlUzVfTVvugXqZhrrGseVbLXuundoOOuy5W95oeWZ+of9sg0pDfsN8ozVjJeNak1NQWfu+4aR5lIWXxxrLCysOa1fqpTaGtgx3Jbtj+hIO3o7DjO6fLzokuxq4MrqNu1e7RHgaetJ7DXqd2BnsreK/tuutT4OvlJ+G3Qu72PxrgG6gYhAoaDq6npIQ4hUqHocNehd+IKNkdH+kapUHljUZFz8cMxXbGNcZXJOTvSU2MTwpN9t+7c59bitN+h1T7NPsDDulOB90zdh4KyAzNis5OycnMLcyrOFyX33zkTsFA4fjRj8dRRRLFXiVHTtwtXSuXPelXcfzUw9PrlQpnA6pKz/XVoGq16uLrGxveX5C8GNJYf2nhikrT/qu9zRwtYa3dN/huprS9brfqaOuU7zrfLXX38n2DB6MPE3r5Hvf35Q04PRUdAsPvR96MvnsJXolM7pqqn0HPJb4HH6oWyZ91V9S+O6+XbMR/63/AjYJRAeD4IQA2/udxqAMg9zwAYnsAYINzTzs6AJzUAULAFEDLXQCy0P5zf0Bw4kkAJMADJIEaMIPzyzA4pywGjaAHTIEfEDukDDlC0dBxqBV6Ced80ggXRCqiETGOZEAaIOORF5AzcJbmhSpDvYAzMR/0OfQHjAomFfMEy4MNx3bgSDgKrhPPiY/FDxIUCcWEdRoyzWNaddpaOna6XHoEfRL9V4ZYhhXGRCaIKZvISqwiqZH6mUNYsCznWI1ZZ9gy2aXY+zliODk427n8uWm4r/B48CJ5L/B5whnBgEC+oK0Qk9BT4WIRT1EB0Rmx8+LREhqSkGSPVIG0J7w6F2UHd7TJVcsXKuxTpCg5Kmuo8KlCqhNqberHNEI0tbXotca063RidHX1cHoD+k0GVw1bjG4Yt5vcMe0x6zMfthi3nLVasl6zxdmx2os6qDlaOZGdk11KXNvd5jxInvpekTsrvYd8CL76fknkVv+vgWpBScGdIYRQ57Cq8OXdZpEVUQvRWjE5sePxSglH9iwluSbf26ed0p5qmTaVnpWhnQmyBnIu5ZXnFxaYHUUeu1tUUBJQalguXSF4WqRSqcqmOqq2rP7RBdCoetmmyf1acEvy9eM3r9wa7Fjp4u02uxfz4PTDJ70/+mQGdj49PHR7hDRKHrswPj/JPaU2rTcr/5b+3bP5wx93LHQumX3q/qKwXLqy+s3++7nVpXWNHyk/b2+eH1vxJ8LxlwCqwAS4ghCwDxwDDaAbjINvEAmSg2ygCOgI1AQ9RwCEBJzlpyEuI17DebwVMh3ZgVxDaaMOoHrR7OhAdDMGj/HGNGMZsWHYRzhpXD5uGe+Fv0eQJRTTIGmiaCZpnWkf0hnStdNr0d+Cs9gHjPaM43Ce+ot4jCRLeswcAWeeray+bDRsreyBHKwc9zn3cElzTXIX89jy4ni7+PbzGwhgBB4LFgn5CssKr4v0ilaIRYkbS3BJfJJ8KHVWOkXGU1Zzh4Qcuzxefl1hQXFK6ZnyQ5WbqufVStUPaVA1PbUMtSV1GHWWdUf12vUbDS4bNhm1GN806TDtNnto3m/xzPKV1az1ks2aHc6e1UHMUd3J2tnfZa9rqdt191GPH16COy28Y3ad9unzg8gq/hEBdYEzwaKUkJDLoavhphFFu+eitKh7oztiUXFW8cUJM4nqSYeTZ/cZp9Sm0qftOTALnyf9mRZZ93PMcnsPO+RPFKQc5T12uyiwhP5Ea5n/SVLFvdN7K1XOfjp3uSa2TqsBc37o4rlLyVe8rqo007dMXb9688Atmw7225Nddd3Ue1oPsD3Dj+oe7+/zGtB5KjLENPxgxPn59IvEl8zjVyacJtenaqfdZxnmet5lzlt+ZFx4tnT6c8iyylfEt77VsvWgn4rb8UcCDKDdPAHEgQq8AtxAODgIToGbYBTe/4KQBRQLVUHDCBqEEbzzu5A4pD3yFPITygJVg8ajqehXGCd4t9tgh3Bk3Hd8EUGdME1zglaPdowuiZ6fvochnlGScYrpFNGPJEH6ynyfpYI1ic2TXY9DipOdi4Ybwb3Os8q7zg8EsPAbKI+wrIi2qINYkPh+iROS1+C8e1GWcYeCnKv8PoUqxT6lNRUJVXe1QvVBTWYtd+0qnQU9bf08g1dGisY5JpNmWuZFFp+s7Kwv2NLahdk/dJR0ynF+52rhVu+B96R43fcW3XXQZ9rPkFwdgAz0D7pDEQ3JCJ0Lt4pojGSJSqBOxBjFXoxnT9i3532SG7xPVVJqUjnSDqejDiZnfMr0yLqc/SvXKa/m8OoRx4KLRwnHKMfvFUuV5J5YKHMtv1UheqoAPvv9z/ae06yuqWWqS6yfOe94oa1R9FL+5ZUm76v3mmVajrQu3rC/efEWoT2wo72T2BVwp/ku6p7d/bIHUw8lHlF6qx9P9nH22w8cHLz69PUQYVjumcMI9fnh0boXd8aGXs6ML71an4ReY6cwbzDTYHp15sPs+Nzjt63vKt9nzkd8sP4otYBdeLXYupT1yeOzxOdPX9qW01aMvmK+dn9L+a75fWn13JrHOmG9+Qf5J93PK7/cN+K/9e1o8/5gBOA01wYauPThzb+/22x9V/pHbvLvFmzeLhtl43bZbOGbBvwPUs7QxTD+2ewAAABWZVhJZk1NACoAAAAIAAGHaQAEAAAAAQAAABoAAAAAAAOShgAHAAAAEgAAAESgAgAEAAAAAQAAAMmgAwAEAAAAAQAAAKYAAAAAQVNDSUkAAABTY3JlZW5zaG90bjhXXwAAAdZpVFh0WE1MOmNvbS5hZG9iZS54bXAAAAAAADx4OnhtcG1ldGEgeG1sbnM6eD0iYWRvYmU6bnM6bWV0YS8iIHg6eG1wdGs9IlhNUCBDb3JlIDYuMC4wIj4KICAgPHJkZjpSREYgeG1sbnM6cmRmPSJodHRwOi8vd3d3LnczLm9yZy8xOTk5LzAyLzIyLXJkZi1zeW50YXgtbnMjIj4KICAgICAgPHJkZjpEZXNjcmlwdGlvbiByZGY6YWJvdXQ9IiIKICAgICAgICAgICAgeG1sbnM6ZXhpZj0iaHR0cDovL25zLmFkb2JlLmNvbS9leGlmLzEuMC8iPgogICAgICAgICA8ZXhpZjpQaXhlbFlEaW1lbnNpb24+MTY2PC9leGlmOlBpeGVsWURpbWVuc2lvbj4KICAgICAgICAgPGV4aWY6UGl4ZWxYRGltZW5zaW9uPjIwMTwvZXhpZjpQaXhlbFhEaW1lbnNpb24+CiAgICAgICAgIDxleGlmOlVzZXJDb21tZW50PlNjcmVlbnNob3Q8L2V4aWY6VXNlckNvbW1lbnQ+CiAgICAgIDwvcmRmOkRlc2NyaXB0aW9uPgogICA8L3JkZjpSREY+CjwveDp4bXBtZXRhPgpvGN7yAAAc6klEQVR4Ae1cCXhU1fX/zSSZLGRfyUYSAiRAACFsymJABNnE4r7Q1VatVlvrWm3ls7bWfrWrtvZv1Sru+qlILYKiLFVAWWQnQAIJWchK9mQmy/zPeZMJSebNvMkGmbxzvm8yM/fed959vzm/e88999wYsGS1NcDXByKCgCDQFYGm5hbEhwXCm4sbzM1da+WbICAIKAhYWlphFCwEAUHAOQL+Jm/bTOK8iXrN8NBh8PEyoqbRguoGs3ojKRUEBgECIQG+CPY3obm1DWeq6nvVI8XdcufKFVNHYemUVGQkRsJoMHRcUlHXhM8P5eGjPbk4UljRUS4fBIELhcB4stGlk0cia/wIhA/z6+hGa5sVB06XKba6bveJjnKtDwZeuLtqNCc9AQ+umIHIIH8YafaIiQiGn5+PQpRm8teqaxtRVdMAps1/9uTg9x9+BfbjRASB840Au0Zsq1dMSgEbdVhwAILJbn28vdBmtaKpqRklFTVoo1mlhGz2qQ924stjhS67mRwVTLbtgiQ3XDIWP12SCS+6yaikaITSTdWklW5aVHKWXlXIK6/BT178FKXUCU+WeanAsrFWjI2GMgAcKQU+OmrAJvcHIOXxJ8cB38qw4qJYwI/m7dxKYONxA9472DN0ksKA6yYCMxKtCKHBsagG2JxrwJo9QEtbz3TxM11NfcpMAAJNQH4V6LkMeP2bnukZTK3jKAr11+8tQEJ4IOKHhyEuJgxG4zmPp3Nfz1bX40ReqUKWp//zNd7Zkd25ustnlyRh1+qXKy9GaEgA0kbSL+yGVFU34GhuMU6WVuPmv60DkdfjZBgZzTMrrFiZod71Dw4Bd601oNaNpdhvFllx1yXqenaeBu750AAmn5bceTHw2yvUwSyoMeDutWzkWlps9Q/PAx7KUtd1qIT6tM6Ar6lvniS8Pn7t7uVIjAjC2NRYhDgZzLs/05ETRaghT+ixd77Ahn0nu1cr35kkXhidtbp7LS/MnyFWDqNFz/jR8d2rnX5nN4yvabO0KIul7ceLnLYdrBXv3mLF4jRb77xDRsMncjK8g1NhMNKUba5EOo3C0xJBo676KGV/rj8vt+K2GbZvXoGJMEVOgU/IGBi8A9DWWIqEEGBxOrD2sAE1Lgh39yyAycZi9IskPZPhEzYORt9QtDVVINjUiusnAV/kGZQZwXZH9b+rL7fi/rm2Oq+AWFufwtJh8AmiPpUgOhC4ZgKw4ZgBpXXqOgZj6QNXTseMUbFIJ4I483bU+h0VHoTys3WYkToc63bnoIHstruEDvNVJ8ndizMxNj4C48fEw5tcrZ6Iv58J7H4lUQeYnRwB8xS5jwzoO5m23vqnrIRfwuXwDkqi1wj4RExUjLTl7GEkhYJ8XgO+OKX+ZFeOAx5faKvzjb8M/ilXkY5kMFnYwJl0zVXHEexjQQwZ5odEFDVht+j1G20EMUVlImDMKuVa1uMdmkZ9moTWutOwNtdgUqwBL3ytpsVWNicF+NuVts++w2fDP/U60pXS3qd0pV8ttSfhbW3AyHDgzX3qfXJ+hwtTMzI6FI+QxxNL7zFRNPL0UEJozVJeWQsT2fmXxxwHdSaJwz6Jj7eRIgOpiI6kBXovd+K5wyxXXES/jAfJD6fbDNI3LkshRfeu+4RnwDd+vlL8o/a23dvw9+9m2vT4hE+Ab+wchyZs5P5JS5RyHrlTaL2hJjdPtunhUd8vablDE6MpmAi4QikfH2PFFe0zoENDKvj2FJsu7+BR8E1Y4NDE6B9NfVqmlPN6LNN9B8JB1/kssNtYbIzN5np6bx7UeUZZTtFbZ+JAksyU4fCiBU94yDBn12iWmyjK4Euu19yx5Jd4iKRHAcODbJ01RU112mt7XSTBkxGj3ixrpK2cR3pnorhMJtsPO5UW0GoyO9lWyuR0Jka/KLBbyMKLemcyt3288okgVjoRL57tAijSQDLdQ366S8fRgOPvq0SwnDyWZnEYLS98aSaZkqL+gzqQJLl9ygrsFF/WvItKg/DgYbDrUqkedEVh/rYuGYwm8tHJB3IivKYweNli7/ZrOjcNpSpaRypi9CO/xYUYTDZWhgeoN4pqH6cMtP5wJTyjsEQ40cN1dl1GXyfTFjciOdcn54SztRwcf0fQlgSHevsidltPiVZ31xxIEkS7kyxe9l+6l3f3JreNow7MUE+QykZbL61tFsXHd9Zna3M9rK1NSnVF+zWd21ZRVXOrrYQX1q7EaqE4Lkl5g3qrkvbFc5v5rHqD9tI2c7XyqdzFhnKHrqZKl7qsFruuwb8mCSRvhfe12db6IryPwhJErpeaOGg3U+Yji7WP8Vve3WQxe8jGYnYZUEjhVBZL6S7lXe2PpewrpbikzoDDFDJVk89ybKXN5XvVqpWy5sqDFAW0GaSzkOu2k7bLWyoOONXT2nAGLTW2+O/2fOeGvTnXpqK5Yp9TXS01OWB9LByiHuxit622dlvrbX850MRi19ddjwNJCittw1dDH6NSTU0WFFF4zZPknztsvTUXb0VzOe3SdRM2enPRFqX0ufa23ZooX1/aZTPWZoqEmQs/d2jSUpOLpvyPlPI3vrFt5jk0ooI1e216Wik823jyfYcmPFM1nVqrlO+hjeNPjjs06Sh4ebdNF0ewmk5/3FFu/9BaX4imvHXK143HgG8cAz32poPmvZl2Uctpn6ORbK0v0tB+fSFFudSE9oC7yoF8GlJJONWE9zx6KxWUTLbzeHFvL78g1/3lC2BWMrBoDNB46kNYKvbDO3CE0pfWuny01J5SPn9KA/cftykfVf+szwaYRLfPpNGpeAtaqrPhFTyS9looPM4jf9VR5TrefX/sE5vxqik6UQ48uN6ApxZbwTNAK92fQ7+8ZmprKgfPRrDaRsGHPnauh3XvyAee2kz6smimLNlBfTqhLPh5fcX7Ns1nD3EzVDUZ8MgG5aNH/PnqRDEiKIw7Kll90e3OQ/AmOMuBfAJcRRw2E+vpbMlFydEI8vVWtvdVrtEsOlNWjWoi2TMb9qLYw2aT9w8ZlI2+ibFkf5Yq2ofIU15t9JnlDfJWbn3XgFaNde2nlObhQ67uJUmkp7lO2c9gI2fjZtlC7s/33jGgwOZxKWVqf3YVAGX1BlxGEUpDmxk84rfSbMCbf6QZ7CZ+520DtuepXd21bNspA7kUBmSl0pUtDaSrQCFeW5NtYOR7sa7DpV2vG8zf2EVaTFsNJh/vXg3qvKw4mntG2SNZu8txKuZ9EtXcrakjh+OZ7y/AcIp0JSVE9ggjM+1a7qWs4H15Zbj9eQ8akro95UyaQJam23K3uOoo2RHnbrljjJ1VcWj5qvHApDirkrt1kmaPTyh3i2ebnghvOl47kUKzCZS7RZE4zt3aQrlbbzpfYjhVnxwGJe0mM94KTsPh3K3PcgzglBtPlBduX4xxCRGYkpGkkKUnz5BLnlMZJT3e9vxGslnH0cFl7tY9tOt+46yxCkmYLO5IC/mI+46eRpPZglXPfKTkcLlznbQRBPqCwJjYMLx851Lw/tyk9ES3I7PFpVXIp+Mdr2w9hL9vVA+yOM3d4g7vJF9vLLEzmKYxTonnnBhDp3Mk3R+K3auDlHbc1tqKB1/boswk3dvId0FgIBDgM025lIE+jzYWiykLPTDAz2W2CEfDeAZhkmw+chpPfuA8CuM0d8v+IBv3nYIfkSSVMiELqROch89EMRqN5A3TotTSDF705BdVoPDMWZyh9cf9RBAmmCfJ/VdfgmfuWIIbLs3ASEqz3rz/FH5541xs/t138drmA6ikCErhmnvx6mf7UPfeL/Crmy7FiplpqKCB4cjpc4u9aWPisPOPt+JP7aA/cv0c3JQ1AZsoh+21+1eC77MoMxU7jhaghk50ziX34P1Hb8D1czMQGuiHndnnzjbwYnTjb1bhzmXTcdfy6diTU4zCilpMHR2HDx+7ETdmZSCBNtK2HcpH0ZqfY83n+1FP5yW6yzWzx+Gdh6/FbXTk4coZaXhr2yGsf/xmrLnvW/jBoimIJx2bD5yCPWTPzz1vYjK2HHBjkdP9Zhfw+ylaB7O7NJUyRhrrm1BH+PIuBqfL8yHBFhq8uayUSJR9shgcvf33loP4HZ0pcSVMEofoVvcLntmwB1vJhVo1Zzzm0F2Zfd2lrKYRb20/ilfpB/A0WTJtNC67aCRm3Ps8AWnFz66aiUiaNRngE8WVeIwIseoP7yvfORzPhhh8zZPIoODGGw9cjeNFldh/0rZh8jUlyPGBs4vHJmD7kQJ8f+Fk3PKH9xSd2QUVuP537+KHV0zBoimj8MqmfQpxptz9T1TXm/Gf1TfhRZrya9tD71lkqEzOFY+/hIV0bIH/ow3/2G88eDUW/OIVnC6rwbuPXIdYOj/hSlbNn4hfrvkc7315BA9cMwu8WcwD3LyHXqa+V2D1zVn4OSUIPvn2/xBM0cxV8ycpaUl/XrtD6Zcr3YOt7uucM7iK8L6FbPW6i9OU4JFaHzcfPq3Y6sFOA5xaO3uZJkm44X5ahN+ftxm8wzmeFvKxdMCFd9OrG800zVXjBM0inipLpo7Gup3Z5FK24adEEDYU7/Zsg5c+2YvbFk/FCFqTsafJQVZ+51NuTIytB/MwjUZ2O0kYg5c++QY30Mxgpm13nnWZLE/fugi/IkNlef5j2/4LE4n/P0BZe/hx4aNrlHr7n03fnFRIto5mjfdpAGJSpdOxVB8vL+TReR2WlU+8ZW/u9P1vdFL0iW/PxxWZo/AiPc9Zck3sz8Ez0wek+0e0/mS5Zd5EvLX1IPzIt+fPz9KBJE8TnhFfphmCX7xWSaFk2xAaGCx8MJA8HSZGT/87kFsksQNVR6Oop7lS9r47e68loie2BybYeO5YOlUxHG7Ps8Ljb2xRXC/+blXGYP5kkyT6AdZ2O9X2Orln2//4A4VIL9AszMKkq6dgRmdhY68ig3UmTNaf/GM9ka1FGe0XU5bqr9/YSjNZVz3OrreXs1s3/+GXkUnnLf79s6tw/4sb7VXK+wjKVyoisrDcuWwadmQXKETkwcMTSaI8SPufY8Vnwa++isOOe18Vetr1/7d+N66mKN5KOqq8l6bruk6ZBgYac3kEnzVuBEJoMcijFPu4l9M/GXj61oXKOmIDnevvLLk0q54gF+yOJdPwCq1hWN6m6MlVM9OVz8/TCbpfr5qH3XQqLozWITxLxfHhnzcfQDRlo9oljYIm7/ziWoyhcz08+h+hja7DtNjkPqTTbB5FJ0Z5LcJrKCbvJZRxnTUhGSndUsZ/QgeSHr1hLrlQRtLTiHyahdjdmkRh/nu/dTHuvnKGsobimY3vs2bTfsXtY3LNpP9vIMIehIsz7noBKIQWZ8umj8Go2HDF/WHjnkKn3Fpoiv6Soh+8wJ5P/1zgqXf+hwevnU2G2qYQaj1tPtkXvJ2xYmMdnxTVZSR+iK5jl2f/qRLc96+NyiyVSAGRZ+9YiqAAE554cyvYxeosTBRebFfQ2oTXKyxMjufuWka7zAF4+v0vyVU8pqwpgihdnGUb7VF11sPHHi6n80Fs8B+SW7mHgirsSo2KCye3rUq5vpwCEAtoXcazHbuHLLMoUsRuV2ddSoXO/rjcJ9EZFvK4goAqAkwS3btbqshIoSDQCQEhSScw5KMgoIbAuehWgc3nVWskZYKA7hCITgNMthOP50jSQKGyE1t1h4U8sCCgisCCBzqKxd3qgEI+CALqCAhJ1HGRUkGgAwEhSQcU8kEQUEdASKKOi5QKAh0ICEk6oJAPgoA6AkISdVykVBDoQOBcCLijSP1DUFCQcqZCvVZKBQHPQoD/EXxVlePZKLWncJsk9fX1aKPEPhFBYCggEBBwLuNa63nE3dJCSOp1j4CQRPcmIABoISAk0UJI6nWPgJBE9yYgAGghICTRQkjqdY+AkET3JiAAaCEgJNFCSOp1j4CQRPcmIABoISAk0UJI6nWPgJBE9yYgAGghICTRQkjqdY+AkET3JiAAaCEgJNFCSOp1j4CQRPcmIABoISAk0UJI6nWPgJBE9yYgAGghICTRQkjqdY+AkET3JiAAaCEgJNFCSOp1j4CQRPcmIABoISAk0UJI6nWPgJBE9yYgAGghICTRQkjqdY+AkET3JiAAaCEgJNFCSOp1j4CQRPcmIABoISAk0UJI6nWPgJBE9yYgAGghICTRQkjqdY+AkET3JiAAaCEgJNFCSOp1j4CQRPcmIABoISAk0UJI6nWPgJBE9yYgAGghICTRQkjqdY+AkET3JiAAaCEgJNFCSOp1j4CQRPcmIABoISAk0UJI6nWPgJBE9yYgAGghICTRQkjqdY+AkET3JiAAaCEgJNFCSOp1j4CQRPcmIABoISAk0UJI6nWPgJBE9yYgAGghICTRQkjqdY+AkET3JiAAaCEgJNFCSOp1j4CQRPcmIABoISAk0UJI6nWPgJBE9yYgAGghICTRQkjqdY+AkET3JiAAaCEgJNFCSOp1j4CQRPcmIABoISAk0UJI6nWPgJBE9yYgAGghICTRQkjqdY+AkET3JiAAaCEgJNFCSOp1j4CQRPcmIABoISAk0UJI6nWPgJBE9yYgAGghICTRQkjqdY+AkET3JiAAaCEgJNFCSOp1j4CQRPcmIABoISAk0UJI6nWPgJBE9yYgAGghICTRQkjqdY+AkET3JiAAaCEgJNFCSOp1j4CQRPcmIABoISAk0UJI6nWPgJBE9yYgAGghICTRQkjqdY+AkET3JiAAaCEgJNFCSOp1j4CQRPcmIABoISAk0UJI6nWPgJBE9yYgAGghICTRQkjqdY+AkET3JiAAaCEgJNFCSOp1j4CQRPcmIABoISAk0UJI6nWPgLe7CHh5ecNotLrbXNoJAoMaAYPB4Hb/3CZJTMxwt5VKQ0FgsCPQ1NSI+vo6t7rpNkkKCvLdUiiNBIGhhoCsSYbaLyrP0+8ICEn6HVJRONQQEJIMtV9UnqffERCS9DukonCoISAkGWq/qDxPvyMgJOl3SEXhUENASDLUflF5nn5HoGOfJHSYLxAa2u83EIWCgEciYAKq2jt+jiQhIYievcwjn8eh021tgLkWsDQAzY1AW4tDEykYIAS8abA1BQC+gYCP/wDdZODVVvtZUUXmw9JBEgwfSw/Waisdan+ZKLUlQMUpIcxA/La+QUDUSCAgAjAMEQ+++dxznCPJQIA3WHTyiBaeDATHAgXf2GaZwdI3T+9HeBIRZLSnP4XL/p+ji8tmQ6SSXYHEiwAvcjhF+o4ADzpDnCAMUsdMUmMxoMbS8bXvAA5aDfSMxWeBmuJB20OP6djoBCBw6NtMxxNWWlxPKkH+Jlw6NhETk6KQEhUCH28vlNc24BgZ3FfHi/FNXumg/21HBpzFmGEV2N14BmWVlYO+v4O9g9N8TiI+zITtVYkoMQ8bVN2dnByDGaNiMTo2DBFB/rC0tOJkaTX2k51uPnwa9eZmt/trwJLVLk9SeRkNuG3BRVg1Zxz4oIqBvgf4+cLbywizpRlN7Tc7UVKFZzfswfZjRW7f/Hw3vCd5B64efhh3/qsEB/LN5/v2Q+5+9y0Px5XTArGpYiR+nzsbja0dY+4Fe9bZ6Qm4c+FkpESHKH3w8/OBr48PWlpb0dBkgbXNilZ6vbL1IP756T7NfiZHBZ9zt9Raj4oJxVO3ZNFoEYioiCBERwQjcJhfl6ZtFG4tr6TDK0SeP317PtZsO0Rk2dulzWD4kuhXg5mhBYOhK0OuD5dF5OKj0jHYVR13QZ/tniWZuPGSsTSQG5GSEIGIsCA6Tdv1BGJdfRPOlNXge1kTcNmEZDzw6macKqt22W+n1B8RGYy/37oQwQG+SBs5HKHBFPtWESN1KJra8utUQTnNOOOVVoONKA00ysUTUUQGBoEyi7p9DMzdHLXes9hGkOG0FEhKiHRs0F7Cg/woekWG2dzDf5CN/+C59Sg66/yUotOFyBPXzwGvQyakxTslSPeeJFPnYqiTTJRFk1K6V8t3QWBAEFg2JRU3zhqLOPJ8XBGk881DQ4ZhfFoCONPk12TrrkSVJNfMGIMxtOAZTYufAH8Km/ZAmCh+fib8dMnUHlwlTQWB3iHAa2N2swLI40mMo83MHkggXZOaFI3x5JqtmDrK6ZWqJFk1N0Mx9Ahai/RGkummYcRQZriIIDCQCCzPTEUQDcpJ8T0jiL1PUeFBMPn6YNVc2zLBXt753YEkaXHhiAkJQFx075MdQ4ICYCSGZ40b0fle8lkQ6HcE5o8fAW/ajggO7H2eGNt6ApFlpBObVyUJP0kwxZb7IhGhgZhEeyoigsBAIpCRGAW2tb6InWA8QaiJA0mi2snha3Ia+FLT41DG1/PCn31GEUFgIBAIIBvzp1dfbdXP12brkcHqE4MKE7rGlfv6cP2rTbs3EUF+mJUWiykpUUiPD0M0PbgPE9VcCetnb2orkBa9QuDVuy6nFJVEZcO5hfbOsouqaMO2AjuPl+DrnJJe6dS8qAf/hVFTFzVwZqsOJOFUExazpaVPDLXQ9bW0w9ncSmc7zpMsnDQCq6+ZhqAAE3iU6SytjbSJ1LlAPvcrAtEh/vCmsKpdEiMCsWBCAqobLNh6pAhPfrAbJfYDGvZGfXxvoGyPpuYWmOnVF2FbZymvpSMVKuLgC2Vz8h9JTZ36BSo6VIvKq+ooT6ZMtW4gCldMS8HTq2YhJjTAgSB8Py//IXTWYSAA7KNOa5tFVUMIDVjLM5Px7PfnIoRCrv0tB0+Xo4JsrS9S006O7CL1fD4HkhwtrEBpTQOKS+2HF3t++2q6aRvNIFsokex8yMKJI/DbG2YioN23dHbPoHE3OKuS8l4iYPAJQGDaShhNtlwpZ2omk/v7wu3z4EUZGv0pnx/KR0tzK2rrmnqttohsnXfccyj/UE26+iTtLV6l/Kt7l05DBV3Ym72SvMJyVDeasW5Pjto9+7WMky4fXDEZft3cK7WbBI6/CX5xM3Bt9buYXWqbMdXaSZl7CEybmYGwcenwH3GpWxcwUZZOScKHu0661d6dRut25+DHlNCYV1SBjDHx7lzSpU15ZS3M5Lat2XqoS3nnL6okeXt7Nu1AjganBwdQhMqfNmvclXyaiRobLfjLf3fDanWZYOyuSpftZo6OQTS5WO6I0WcYTNETcfOPJ7rTXNoMAALLyPXadKCgR6nqrrrBKfB/Xb8bD181EwXFlUiIVQ/jqumop4H8BKXOs5v1/tfH1ZooZU7nvkff2gZeGO0/WgB2n9yRPEpwZDft9S+O4L97c925pM9t5mckwM/Hq896RMH5QYAjj7zI709Zu+sE3tmRjcIzZ8GDtDtSTUuKg9mFqKUB/Zdk667EC6OzVqs1qKo3Y+eJYlxMU1hTQxOaibEmcmlMPl0nH54tOFX+0PEicBryG18eUZitprO/y9jV+m5WOp0dCO5v1aJvgBDgfbMN+0+joKJvi+3u3eNzTKGU3TuCsnuLKPXdl+zUn849dY8S1zeYUUjBqTwiE69D7vn3JkqVr+muruM7J0B2tfiOKtsHnoau/9Na3H75RUqWZWl5jZJuwolhRrq7hRZMDTRlsZyiumc/3oNtNPOcL+EDYQGUdyPiWQiEDkCUixH4w7qvsCunGHcumgIrBY5yyJXiBF0TeRptdNCqjmyVA0osvO5+7pN94D0dLXFJEr7YTDPIX8jne4UWNlnj2o/vUo4Lb9BVUJiYibSTju/uyr0AuxADv+TRwk/qe4FA99G9FyqcXsJHc/k1PTUW0+n4LqeahAf6Kft1uRS92td+fLeaZhR3xEorc02S2BWdJVeKFzeuFjj2tufrnUcBXriJeBYC1eTKD7R8RTMKv/oqlXVmeK+cnorI4K5Hcvuq+Hxc32QhV492SsdS6omIZyFw1+KJSIgMQihtNA5mqW9qRhrZlyEnJ0eclsH8S0nfLjgC/w83KJfZfquDNwAAAABJRU5ErkJggg==;" vertex="1" parent="1">
          <mxGeometry x="203.83" y="670" width="82.34" height="68" as="geometry" />
        </mxCell>
        <mxCell id="s5DQ25FVZao19d8wmNkH-3" value="" style="endArrow=classic;html=1;rounded=0;strokeWidth=2;entryX=1;entryY=0.5;entryDx=0;entryDy=0;exitX=0;exitY=0.5;exitDx=0;exitDy=0;" edge="1" parent="1" source="AQmvB_hK_ORsPchkkE_o-6" target="s5DQ25FVZao19d8wmNkH-1">
          <mxGeometry width="50" height="50" relative="1" as="geometry">
            <mxPoint x="150" y="195" as="sourcePoint" />
            <mxPoint x="310" y="125" as="targetPoint" />
          </mxGeometry>
        </mxCell>
        <mxCell id="s5DQ25FVZao19d8wmNkH-4" value="" style="endArrow=classic;html=1;rounded=0;exitX=1;exitY=0.5;exitDx=0;exitDy=0;strokeWidth=2;entryX=0;entryY=0.25;entryDx=0;entryDy=0;" edge="1" parent="1" source="AQmvB_hK_ORsPchkkE_o-16" target="AQmvB_hK_ORsPchkkE_o-14">
          <mxGeometry width="50" height="50" relative="1" as="geometry">
            <mxPoint x="140" y="300" as="sourcePoint" />
            <mxPoint x="140" y="338" as="targetPoint" />
          </mxGeometry>
        </mxCell>
        <mxCell id="s5DQ25FVZao19d8wmNkH-5" value="" style="endArrow=classic;html=1;rounded=0;strokeWidth=2;entryX=0.5;entryY=0;entryDx=0;entryDy=0;exitX=0.5;exitY=1;exitDx=0;exitDy=0;" edge="1" parent="1" target="s5DQ25FVZao19d8wmNkH-2">
          <mxGeometry width="50" height="50" relative="1" as="geometry">
            <mxPoint x="245.77999999999997" y="620" as="sourcePoint" />
            <mxPoint x="231.17000000000002" y="651" as="targetPoint" />
          </mxGeometry>
        </mxCell>
        <mxCell id="s5DQ25FVZao19d8wmNkH-6" value="" style="endArrow=classic;html=1;rounded=0;exitX=1;exitY=0.5;exitDx=0;exitDy=0;strokeWidth=2;" edge="1" parent="1" source="AQmvB_hK_ORsPchkkE_o-22">
          <mxGeometry width="50" height="50" relative="1" as="geometry">
            <mxPoint x="121" y="344" as="sourcePoint" />
            <mxPoint x="160" y="342" as="targetPoint" />
          </mxGeometry>
        </mxCell>
        <mxCell id="s5DQ25FVZao19d8wmNkH-7" value="" style="endArrow=classic;html=1;rounded=0;exitX=1;exitY=0.5;exitDx=0;exitDy=0;strokeWidth=2;entryX=0;entryY=0.25;entryDx=0;entryDy=0;" edge="1" parent="1">
          <mxGeometry width="50" height="50" relative="1" as="geometry">
            <mxPoint x="119" y="421" as="sourcePoint" />
            <mxPoint x="162" y="420" as="targetPoint" />
          </mxGeometry>
        </mxCell>
        <mxCell id="s5DQ25FVZao19d8wmNkH-8" value="" style="endArrow=classic;html=1;rounded=0;exitX=1;exitY=0.5;exitDx=0;exitDy=0;strokeWidth=2;" edge="1" parent="1">
          <mxGeometry width="50" height="50" relative="1" as="geometry">
            <mxPoint x="119" y="462" as="sourcePoint" />
            <mxPoint x="162" y="462" as="targetPoint" />
          </mxGeometry>
        </mxCell>
        <mxCell id="s5DQ25FVZao19d8wmNkH-9" value="" style="endArrow=classic;html=1;rounded=0;exitX=1;exitY=0.5;exitDx=0;exitDy=0;strokeWidth=2;entryX=0;entryY=0.25;entryDx=0;entryDy=0;" edge="1" parent="1">
          <mxGeometry width="50" height="50" relative="1" as="geometry">
            <mxPoint x="118" y="565" as="sourcePoint" />
            <mxPoint x="161" y="564" as="targetPoint" />
          </mxGeometry>
        </mxCell>
        <mxCell id="s5DQ25FVZao19d8wmNkH-10" value="" style="endArrow=classic;html=1;rounded=0;strokeWidth=2;exitX=0;exitY=0.825;exitDx=0;exitDy=0;exitPerimeter=0;" edge="1" parent="1" source="AQmvB_hK_ORsPchkkE_o-27">
          <mxGeometry width="50" height="50" relative="1" as="geometry">
            <mxPoint x="140" y="630" as="sourcePoint" />
            <mxPoint x="120" y="606" as="targetPoint" />
          </mxGeometry>
        </mxCell>
        <mxCell id="s5DQ25FVZao19d8wmNkH-11" value="" style="endArrow=classic;startArrow=classic;html=1;rounded=0;entryX=-0.015;entryY=0.327;entryDx=0;entryDy=0;entryPerimeter=0;exitX=1;exitY=0.5;exitDx=0;exitDy=0;strokeWidth=2;" edge="1" parent="1" source="AQmvB_hK_ORsPchkkE_o-14">
          <mxGeometry width="50" height="50" relative="1" as="geometry">
            <mxPoint x="342" y="291" as="sourcePoint" />
            <mxPoint x="495.6500000000001" y="322.1299999999999" as="targetPoint" />
          </mxGeometry>
        </mxCell>
        <mxCell id="s5DQ25FVZao19d8wmNkH-12" value="" style="endArrow=classic;startArrow=classic;html=1;rounded=0;exitX=1;exitY=0.5;exitDx=0;exitDy=0;strokeWidth=2;entryX=0;entryY=0.75;entryDx=0;entryDy=0;" edge="1" parent="1" source="AQmvB_hK_ORsPchkkE_o-23" target="s5DQ25FVZao19d8wmNkH-37">
          <mxGeometry width="50" height="50" relative="1" as="geometry">
            <mxPoint x="340" y="330" as="sourcePoint" />
            <mxPoint x="490" y="420" as="targetPoint" />
          </mxGeometry>
        </mxCell>
        <mxCell id="s5DQ25FVZao19d8wmNkH-13" value="" style="endArrow=classic;startArrow=classic;html=1;rounded=0;entryX=0;entryY=0.25;entryDx=0;entryDy=0;exitX=1;exitY=0.5;exitDx=0;exitDy=0;strokeWidth=2;" edge="1" parent="1">
          <mxGeometry width="50" height="50" relative="1" as="geometry">
            <mxPoint x="330" y="197" as="sourcePoint" />
            <mxPoint x="500" y="307.5" as="targetPoint" />
          </mxGeometry>
        </mxCell>
        <mxCell id="s5DQ25FVZao19d8wmNkH-14" value="" style="endArrow=classic;startArrow=classic;html=1;rounded=0;exitX=1;exitY=0.5;exitDx=0;exitDy=0;strokeWidth=2;entryX=-0.003;entryY=0.841;entryDx=0;entryDy=0;entryPerimeter=0;" edge="1" parent="1" source="AQmvB_hK_ORsPchkkE_o-27" target="s5DQ25FVZao19d8wmNkH-37">
          <mxGeometry width="50" height="50" relative="1" as="geometry">
            <mxPoint x="340" y="450" as="sourcePoint" />
            <mxPoint x="490" y="430" as="targetPoint" />
          </mxGeometry>
        </mxCell>
        <mxCell id="s5DQ25FVZao19d8wmNkH-17" value="" style="shape=image;verticalLabelPosition=bottom;labelBackgroundColor=default;verticalAlign=top;aspect=fixed;imageAspect=0;image=https://www.sketching-with-hardware.org/wiki/images/thumb/e/e4/Esp8266-d1-board.PNG/200px-Esp8266-d1-board.PNG;rotation=-90;" vertex="1" parent="1">
          <mxGeometry x="203.83" y="152" width="70" height="87.49" as="geometry" />
        </mxCell>
        <mxCell id="s5DQ25FVZao19d8wmNkH-18" value="" style="shape=image;verticalLabelPosition=bottom;labelBackgroundColor=default;verticalAlign=top;aspect=fixed;imageAspect=0;image=https://www.sketching-with-hardware.org/wiki/images/thumb/e/e4/Esp8266-d1-board.PNG/200px-Esp8266-d1-board.PNG;rotation=-90;" vertex="1" parent="1">
          <mxGeometry x="209.24" y="280" width="70" height="87.49" as="geometry" />
        </mxCell>
        <mxCell id="s5DQ25FVZao19d8wmNkH-19" value="" style="shape=image;verticalLabelPosition=bottom;labelBackgroundColor=default;verticalAlign=top;aspect=fixed;imageAspect=0;image=https://www.sketching-with-hardware.org/wiki/images/thumb/e/e4/Esp8266-d1-board.PNG/200px-Esp8266-d1-board.PNG;rotation=-90;" vertex="1" parent="1">
          <mxGeometry x="210.78" y="396.25" width="70" height="87.49" as="geometry" />
        </mxCell>
        <mxCell id="s5DQ25FVZao19d8wmNkH-20" value="" style="shape=image;verticalLabelPosition=bottom;labelBackgroundColor=default;verticalAlign=top;aspect=fixed;imageAspect=0;image=data:image/png,iVBORw0KGgoAAAANSUhEUgAAAK8AAAFjCAYAAABLz1sOAAAYTWlDQ1BJQ0MgUHJvZmlsZQAAWIWVeQk4lV3X/77PfI75HPM8z2Se53meZxKO6ZjiGEOJJGOiQkglGSuVQiUiDUoZekiSSIZKoaJC9d2Gep73ef/X/7u+fV373r+z9tprrb3WHu51bgC4qnwjI8MQjACER8RQHUwN+N3cPfixbwEE2AEGIIGCLzk6Ut/OzgrA5Xf7n2VlGOaGy1OZDVn/3f//LUz+AdFkACA7GPv5R5PDYXwVAFQ5OZIaAwBmgy4UHxO5geEKmKmwgTDO3MBBW7h8A/tt4UubPE4OhjDuBgBH6+tLDQKAvh+m88eRg2AZ9ItwHzHCnxIBAAsKxjrh4bv9AeAygnnEYZ5IGG/MQ83vH3KC/kOm3x+Zvr5Bf/DWXDYLzogSHRnmu+f/6I7/vYSHxf7WIQpX2mCqmcPGnGG/jYTuttzAtDCej/CzsYUxEcbfKP6b/DBGEIJjzZy3+BHc5GhD2GeAFcZy/r5GljDmhrFJRJiN1TbdL5BiYg5jeIUgEigx5k4wZodxZkC0seM2z2nqbodtXYjmQKqh/jb9gS91U++GrvHYUGf9bfmfggPMt+Uj6RODnVxhTICxcBzFxQbG9DCWjQ51tNzm0UoMNrT5zUONddiwXxjGDgERpgZb8pFxgVQTh23+7PDo3/NFng6mmNts4ysxwU5mW/5BdpN9N+2H54LsD4jQd/4tJyDazer3XPwDjIy35o6cC4hwdtyW8y0yxsBhayyKEBlmt82PEgwIM92gC8JYKTrOcXssyiUGXpBb8lGBkTF2Tlt2ohJDfC3stuxBHQFWwBAYAX4QC1c/sBuEAMqT+ZZ5+NdWjwnwBVQQBAKAzDbl9wjXzZ4I+OkIEsEHGAWA6D/jDDZ7A0AcTP/xh7r1lAGBm71xmyNCwQyMw4ElCIN/x26OivijzQW8gSmU/9LuC1cybG8YXDf6/9/039S/KfowxWqbEvtbIz/Db06MMcYIY4YxwUigOFE6KE2UFfzUg6sCSg2l/nsef/OjZ9AD6NfoIfQE+vkuShr1X1ZagwlYvsm2L/z+6QuUKCxTGWWA0oalw5JRrChOIINSgvXoo3Rhzcow1XDb7g2v8P9L9n/M4B/R2ObDy+EReDa8Hl783yPpJemV/0jZ8PU//bNlq98ffxv+6fm3fsN/eN8fbi3/zYnMRDYh7yM7kT3INmQL4Ed2IFuRvchbG/jP6nqzubp+a3PYtCcUlkP5L32/I7vhyWi5Brm3cutbfTEBCRtnNDDcHbmHSgkKjuHXh2+EAH7zCLKsNL+CnIIyABv3y9bx9dlh896AWPv+ppEPAqAKn8/41b9p4Z8BuATvfX7rv2ki3vD2wwBQO0OOpcZt0VAbDzR8SjDAO40D8AIhIA7PRwGoAE2gB4yBBbAFTsAdeMPWB8PrnAriQTJIBRkgBxwBx0EpOAXOglpwAVwBLaANdIJ74BHoB0PgBbx6psF7sAhWwBoEQViIDiJBHBAfJAJJQQqQGqQDGUNWkAPkDvlAQVAEFAslQwegHKgQKoXOQHXQZeg61An1QAPQc2gSegt9glYRSAQtghnBgxBF7ECoIfQRlggnxE5EECIKkYhIRxxGlCAqEecRzYhOxCPEEGIC8R6xjARIGiQrUgApg1RDGiJtkR7IQCQVuQ+ZjSxCViIvIm/AcX6KnEDOI7+jMCgSih8lA69gM5QzioyKQu1D5aJKUbWoZlQ36ilqErWI+ommQ3OjpdAaaHO0GzoIHY/OQBehq9HX0HfhvTSNXsFgMKwYMYwqvBfdMSGYJEwu5iSmEXMbM4CZwixjsVgOrBRWG2uL9cXGYDOwJ7DnsR3YQew09huOBseHU8CZ4DxwEbg0XBGuHteOG8TN4tbwjHgRvAbeFu+P34PPx1fhb+D78NP4NQITQYygTXAihBBSCSWEi4S7hDHCZxoaGkEadRp7GgrNfpoSmks0D2gmab7TEmklaQ1pvWhjaQ/T1tDepn1O+5mOjk6UTo/Ogy6G7jBdHd0dunG6b/Qkell6c3p/+hT6Mvpm+kH6jwx4BhEGfQZvhkSGIoYmhj6GeUY8oyijIaMv4z7GMsbrjM8Yl5lITPJMtkzhTLlM9Uw9THNELFGUaEz0J6YTzxLvEKdISJIQyZBEJh0gVZHukqaZMcxizObMIcw5zBeYnzAvshBZlFhcWBJYylhusUywIllFWc1Zw1jzWa+wDrOusvGw6bMFsGWxXWQbZPvKzsWuxx7Ans3eyD7EvsrBz2HMEcpRwNHC8ZITxSnJac8Zz1nBeZdznouZS5OLzJXNdYVrlBvBLcntwJ3EfZa7l3uZh5fHlCeS5wTPHZ55XlZePd4Q3mO87bxv+Uh8OnwUvmN8HXzv+Fn49fnD+Ev4u/kXBbgFzARiBc4IPBFYExQTdBZME2wUfClEEFITChQ6JtQltCjMJ2wtnCzcIDwqghdREwkWKRa5L/JVVEzUVfSQaIvonBi7mLlYoliD2Jg4nbiueJR4pfhfEhgJNYlQiZMS/ZIISWXJYMkyyT4phJSKFEXqpNSANFpaXTpCulL6mQytjL5MnEyDzKQsq6yVbJpsi+zHHcI7PHYU7Li/46ecslyYXJXcC3mivIV8mvwN+U8KkgpkhTKFvxTpFE0UUxRbFZeUpJQClCqURpRJytbKh5S7lH+oqKpQVS6qvFUVVvVRLVd9psasZqeWq/ZAHa1uoJ6i3qb+XUNFI0bjisaCpoxmqGa95pyWmFaAVpXWlLagtq/2Ge0JHX4dH53TOhO6Arq+upW6r/WE9Pz1qvVm9SX0Q/TP6380kDOgGlwz+GqoYbjX8LYR0sjUKNvoiTHR2Nm41HjcRNAkyKTBZNFU2TTJ9LYZ2szSrMDsmTmPOdm8znzRQtVir0W3Ja2lo2Wp5WsrSSuq1Q1rhLWF9VHrMRsRmwibFltga2571PalnZhdlN1Ne4y9nX2Z/YyDvEOyw31HkuMux3rHFScDp3ynF87izrHOXS4MLl4udS5fXY1cC10n3Ha47XV75M7pTnFv9cB6uHhUeyx7Gnse95z2UvbK8BreKbYzYWePN6d3mPetXQy7fHc1+aB9XH3qfdZ9bX0rfZf9zP3K/RbJhuRi8nt/Pf9j/m8DtAMKA2YDtQMLA+eCtIOOBr0N1g0uCp6nGFJKKUshZiGnQr6G2obWhP4Kcw1rDMeF+4RfjyBGhEZ07+bdnbB7IFIqMiNyIkoj6njUItWSWh0NRe+Mbo1hhl/ke2PFYw/GTsbpxJXFfYt3iW9KYEqISOjdI7kna89sokniuSRUEjmpK1kgOTV5cq/+3jP7oH1++7pShFLSU6b3m+6vTSWkhqY+TpNLK0z7csD1wI10nvT96VMHTQ82ZNBnUDOeHdI8dCoTlUnJfJKlmHUi62e2f/bDHLmcopz1XHLuwzz5vJK8X4cDDz/JV8mvOII5EnFkuEC3oLaQqTCxcOqo9dHmY/zHso99Ob7reE+RUtGpYkJxbPFEiVVJ6wnhE0dOrJcGlw6VGZQ1lnOXZ5V/Pel/crBCr+LiKZ5TOadWT1NOj5wxPdNcKVpZdBZzNu7sTJVL1f1zaufqqjmrc6p/1ETUTNQ61HbXqdbV1XPX5zcgGmIb3p73Ot9/wehC60WZi2caWRtzLoFLsZfeXfa5PHzF8kpXk1rTxasiV8uvka5lN0PNe5oXW4JbJlrdWweuW1zvuqF549pN2Zs1bQJtZbdYbuW3E9rT2391JHYs3468Pd8Z1DnVtavrxR23O39123c/uWt598E9k3t37uvf73ig/aCtR6Pn+kO1hy2PVB419yr3Xnus/PjaE5UnzX2qfa396v03BrQG2gd1BzufGj2995f5X4+GbIYGhp2HR555PZsY8R+Zex72fGk0bnTtxf4x9Fj2S8aXRePc45WvJF41TqhM3Jo0mux97fj6xRR56v2b6Dfr0+kzdDNFs3yzdXMKc21vTd72v/N8N/0+8v3afMYHpg/lH8U/Xl3QW+hddFucXqIu/fqU+5njc80XpS9dy3bL4yvhK2tfs79xfKv9rvb9/qrr6uxa/Dp2veSHxI8bPy1/jv0K//Ur0pfqu/kqgIQrIjAQgE81ANC5A0CC8zOC51b+t12Q8MsHAm5dIFnoPSIdvlH7UBloEwwS8whbgovAWxEkaLA087SDdC30NQzVjI1MrcQu0iPmfpYR1ldsc+zvOZY4V7l+8CB4sXwEfjoBoiBRiFWYXYRNlF2MW5xHgl+SX0pQWlhGVFZsh7ScnLyigoqihpKusrGKuaq5mom6iYaJpqGWvraWjoaukp6svqgBjyGzEcHol/FnkxnT52a95m0WtZZHrVKsQ2zcbI3tlO3FHLgcGZ1wzkgXyBXhhnLHezB6cngJ75Txltgl7MPny+nHQib5EwNIgaxBXMGCFOkQ1VCTMJdwSkTy7sLIqqjT1JLogpjc2Ky47PjDCSV7ahPbk17sBfukU3btP5H64oBg+u6DnYcwmUJZCtkGOY65gXmJhwvya4/cLhgtXD7GdFymyKI4sOTAiYrS62WD5W9OLp/CnuY4I1mpdda2yu9cTPXBmqLa2rrr9Q8bRs+/u/C9EXeJ7bL4Fd0m96tR17KaT7Y0tnZc77nRd7O/7dGtrvbLHWW3Uzp3dWncId6Z6b5+t/5e+f2cBwk9fg/NH8n20vfOP777pLwvst9ggDQwNXjlaepf9kMiw6jht896RxqfF47GvHAZU3vJ+XJ9fPxV58S5yazXu6ec32hNC8OrbGX2r7mrb4vfpbwPmyd/IH+MXMhZvLa08Fnvy5kV0teS71KrT9ZTfmr8+vWP+Csg51CFaEsMC+YltgmXiw8iGNFI0jLQrtPN0o8wjDC+YnpD/ED6zLzC8oN1je0H+0+OH5wrXJ+5F3hmeMf4BvnvClwXrBbKEQ4TsRKVFMOLvRPvkaiTzJaiSFvKyMjSyS7sGJC7Kl+skKxIVrJXNlBRUBVQI6r9Uv+oMabZo9WsXamTqxuv56NvYaBgyGmEMHpr/MTkkmmBWbS5k4WKJZvlmtUr6zs29bYFdkn2gQ6OjvpO8s4CLiRXrOuq23v3MY9ez1tejTtPex/ddcgn2ZfqRyH7+nsEOAXaB9kEW1IsQ8xCNcNkwwUiWHbTRCIi16O+Ub9H/4hFxxHjhRI09jglRicVJbftnUmh2c+XKpOmfcAm3e9gfEbeoerMjqzR7K+5zHkKh+3zI47kFTQUPjj65tivIs5i5RK7E6GlB8tOlbee7K+YO/XzDHOlxFntKrtz5OrYmkO1JfA519uwcIF4UbHR8VLU5fwrDU3dV8eufWrBtHJcl7yhcdOize1WYHtMR8rt1M4DXQfvZHQfupt5L/t+7oO8nryHeY/yenMf5zzJ6jvUnz6QOrj3adxfUUO7hyOfxYwkPT84evRF5VjTy3vjz199mASviVOCb+SndWbMZ/3mTr/98F55PulD+8efi5pLcZ8ufn6zzL5i+TXlW9P32TXudYcf2T+7t+NvjNBH7kB+RHWiD2EcseLYJdx1fAbBgYabZpz2LF04vToDgqGTMZ3JgshA7CcdYbZlYWB5zJrNZsIOsbdyRHAKcY5w5XDrcH/gKeM14/3CV8Fvxv9R4JighuCY0F5hfuF2EW+RddESMSWxXvEA8XWJo5JSkh1SjlIz0qkyIjIjsrk7DHZ8kauR91SgU+hQjFQSUBpUTlNRUJlUzVfTVvugXqZhrrGseVbLXuundoOOuy5W95oeWZ+of9sg0pDfsN8ozVjJeNak1NQWfu+4aR5lIWXxxrLCysOa1fqpTaGtgx3Jbtj+hIO3o7DjO6fLzokuxq4MrqNu1e7RHgaetJ7DXqd2BnsreK/tuutT4OvlJ+G3Qu72PxrgG6gYhAoaDq6npIQ4hUqHocNehd+IKNkdH+kapUHljUZFz8cMxXbGNcZXJOTvSU2MTwpN9t+7c59bitN+h1T7NPsDDulOB90zdh4KyAzNis5OycnMLcyrOFyX33zkTsFA4fjRj8dRRRLFXiVHTtwtXSuXPelXcfzUw9PrlQpnA6pKz/XVoGq16uLrGxveX5C8GNJYf2nhikrT/qu9zRwtYa3dN/huprS9brfqaOuU7zrfLXX38n2DB6MPE3r5Hvf35Q04PRUdAsPvR96MvnsJXolM7pqqn0HPJb4HH6oWyZ91V9S+O6+XbMR/63/AjYJRAeD4IQA2/udxqAMg9zwAYnsAYINzTzs6AJzUAULAFEDLXQCy0P5zf0Bw4kkAJMADJIEaMIPzyzA4pywGjaAHTIEfEDukDDlC0dBxqBV6Ced80ggXRCqiETGOZEAaIOORF5AzcJbmhSpDvYAzMR/0OfQHjAomFfMEy4MNx3bgSDgKrhPPiY/FDxIUCcWEdRoyzWNaddpaOna6XHoEfRL9V4ZYhhXGRCaIKZvISqwiqZH6mUNYsCznWI1ZZ9gy2aXY+zliODk427n8uWm4r/B48CJ5L/B5whnBgEC+oK0Qk9BT4WIRT1EB0Rmx8+LREhqSkGSPVIG0J7w6F2UHd7TJVcsXKuxTpCg5Kmuo8KlCqhNqberHNEI0tbXotca063RidHX1cHoD+k0GVw1bjG4Yt5vcMe0x6zMfthi3nLVasl6zxdmx2os6qDlaOZGdk11KXNvd5jxInvpekTsrvYd8CL76fknkVv+vgWpBScGdIYRQ57Cq8OXdZpEVUQvRWjE5sePxSglH9iwluSbf26ed0p5qmTaVnpWhnQmyBnIu5ZXnFxaYHUUeu1tUUBJQalguXSF4WqRSqcqmOqq2rP7RBdCoetmmyf1acEvy9eM3r9wa7Fjp4u02uxfz4PTDJ70/+mQGdj49PHR7hDRKHrswPj/JPaU2rTcr/5b+3bP5wx93LHQumX3q/qKwXLqy+s3++7nVpXWNHyk/b2+eH1vxJ8LxlwCqwAS4ghCwDxwDDaAbjINvEAmSg2ygCOgI1AQ9RwCEBJzlpyEuI17DebwVMh3ZgVxDaaMOoHrR7OhAdDMGj/HGNGMZsWHYRzhpXD5uGe+Fv0eQJRTTIGmiaCZpnWkf0hnStdNr0d+Cs9gHjPaM43Ce+ot4jCRLeswcAWeeray+bDRsreyBHKwc9zn3cElzTXIX89jy4ni7+PbzGwhgBB4LFgn5CssKr4v0ilaIRYkbS3BJfJJ8KHVWOkXGU1Zzh4Qcuzxefl1hQXFK6ZnyQ5WbqufVStUPaVA1PbUMtSV1GHWWdUf12vUbDS4bNhm1GN806TDtNnto3m/xzPKV1az1ks2aHc6e1UHMUd3J2tnfZa9rqdt191GPH16COy28Y3ad9unzg8gq/hEBdYEzwaKUkJDLoavhphFFu+eitKh7oztiUXFW8cUJM4nqSYeTZ/cZp9Sm0qftOTALnyf9mRZZ93PMcnsPO+RPFKQc5T12uyiwhP5Ea5n/SVLFvdN7K1XOfjp3uSa2TqsBc37o4rlLyVe8rqo007dMXb9688Atmw7225Nddd3Ue1oPsD3Dj+oe7+/zGtB5KjLENPxgxPn59IvEl8zjVyacJtenaqfdZxnmet5lzlt+ZFx4tnT6c8iyylfEt77VsvWgn4rb8UcCDKDdPAHEgQq8AtxAODgIToGbYBTe/4KQBRQLVUHDCBqEEbzzu5A4pD3yFPITygJVg8ajqehXGCd4t9tgh3Bk3Hd8EUGdME1zglaPdowuiZ6fvochnlGScYrpFNGPJEH6ynyfpYI1ic2TXY9DipOdi4Ybwb3Os8q7zg8EsPAbKI+wrIi2qINYkPh+iROS1+C8e1GWcYeCnKv8PoUqxT6lNRUJVXe1QvVBTWYtd+0qnQU9bf08g1dGisY5JpNmWuZFFp+s7Kwv2NLahdk/dJR0ynF+52rhVu+B96R43fcW3XXQZ9rPkFwdgAz0D7pDEQ3JCJ0Lt4pojGSJSqBOxBjFXoxnT9i3532SG7xPVVJqUjnSDqejDiZnfMr0yLqc/SvXKa/m8OoRx4KLRwnHKMfvFUuV5J5YKHMtv1UheqoAPvv9z/ae06yuqWWqS6yfOe94oa1R9FL+5ZUm76v3mmVajrQu3rC/efEWoT2wo72T2BVwp/ku6p7d/bIHUw8lHlF6qx9P9nH22w8cHLz69PUQYVjumcMI9fnh0boXd8aGXs6ML71an4ReY6cwbzDTYHp15sPs+Nzjt63vKt9nzkd8sP4otYBdeLXYupT1yeOzxOdPX9qW01aMvmK+dn9L+a75fWn13JrHOmG9+Qf5J93PK7/cN+K/9e1o8/5gBOA01wYauPThzb+/22x9V/pHbvLvFmzeLhtl43bZbOGbBvwPUs7QxTD+2ewAAABWZVhJZk1NACoAAAAIAAGHaQAEAAAAAQAAABoAAAAAAAOShgAHAAAAEgAAAESgAgAEAAAAAQAAAK+gAwAEAAAAAQAAAWMAAAAAQVNDSUkAAABTY3JlZW5zaG90zde35wAAAdZpVFh0WE1MOmNvbS5hZG9iZS54bXAAAAAAADx4OnhtcG1ldGEgeG1sbnM6eD0iYWRvYmU6bnM6bWV0YS8iIHg6eG1wdGs9IlhNUCBDb3JlIDYuMC4wIj4KICAgPHJkZjpSREYgeG1sbnM6cmRmPSJodHRwOi8vd3d3LnczLm9yZy8xOTk5LzAyLzIyLXJkZi1zeW50YXgtbnMjIj4KICAgICAgPHJkZjpEZXNjcmlwdGlvbiByZGY6YWJvdXQ9IiIKICAgICAgICAgICAgeG1sbnM6ZXhpZj0iaHR0cDovL25zLmFkb2JlLmNvbS9leGlmLzEuMC8iPgogICAgICAgICA8ZXhpZjpQaXhlbFlEaW1lbnNpb24+MzU1PC9leGlmOlBpeGVsWURpbWVuc2lvbj4KICAgICAgICAgPGV4aWY6UGl4ZWxYRGltZW5zaW9uPjE3NTwvZXhpZjpQaXhlbFhEaW1lbnNpb24+CiAgICAgICAgIDxleGlmOlVzZXJDb21tZW50PlNjcmVlbnNob3Q8L2V4aWY6VXNlckNvbW1lbnQ+CiAgICAgIDwvcmRmOkRlc2NyaXB0aW9uPgogICA8L3JkZjpSREY+CjwveDp4bXBtZXRhPgr2lOIvAABAAElEQVR4AeydB5wV1fXHzzbYBZbeWZp0UBDFgiJSFBFsWBK7mGjUVP1HE1M0MYnRmKjRGGOiJti7gCIoiBTpKE16L8vSlw4LbPnf7yz3vTvzZuaVfbv7dn3n83lvZu7cNnd+c+655557bsq6detKpIJp0aJF8re//U0aN25cwSUni4tnCxw7dkxatmwpDz30UDyzjTiv1IhjxjHi8ePHJSUlJY45JrOqjBYoLCyUkpIK532BR60U8AZKT54kW6AMLZAEbxkaL5m0clsgvXKLD196zZo1JTMzM3xEnxh0bQcOHPCJEXoLsYayy0qUjWwYDdWqVavSxCpEuhMnTkRT3UqLm/DgrayWSU1NjQt4i4uLowZvWlqaUH5lEHJsVaHKaaGq0jrJeiZ0C1Q5zku3FskINyMjo9K4V0K/8WpUuSoJ3qKiorCvgG43nl3v0aNHhQ8nEqpdu7akp8enaenGDx8+HLZYnjU7OzsQr6CgICJxxZkukEEVOEmKDVXgJSWr6N4CSfC6t0sytAq0QBK8VeAlJavo3gJJ8Lq3SzK0CrRAErxV4CUlq+jeAknwurdLMrQKtEASvFXgJSWr6N4CSfC6t0sytAq0QBK8VeAlJavo3gJJ8Lq3SzK0CrRAErxV4CUlq+jeAknwurdLMrQKtEB8rEeqwoNGaSgTL6MejNrjZaRTBZq5Qqv4rQAvAMLSqzKoMsuujOetyDKTYkNFtnayrLi2QBK8cW3OZGYV2QLVVmxg0WOkxuORNDhr0SIlFjBGYjAfSX7RlBtJftUpTrUFb7zAE8vLjudHE0v535Y0SbHh2/Kmq+FzJsFbDV/qt+WRkuD9trzpavicSfBWw5f6bXmkJHi/LW+6Gj5nErzV8KV+Wx4pCd5vy5uuhs+Z8HpePMaYXhaTSntvFGZn7ZHm2WukVo2tsmN/R1mV2847snGncZ08aZq9UtJSj0hefidZv725cTdxTxMevEw2VOaEQ+K+OnvNMmsUSOcmn0mb+qXhLbK/kZSSA7Jya097RMdVozq7pUvTmdK0TumNRlnzpbCwp2ze3dYRM/Euk2JD4r2TmGpUM/14ALhkkJUh0r3lprB51au9JwBcIjeoJdKywZKw6RIhQhK8ifAW4lCH4yfSQnIpisAco7BIodxBhcU1HCGJeekqNixbtkyWLl0qGzZskPKQMbdv3y54XUxS/FrgWFG6LN+WIt1blG5wkq8cSy7d2jVsAXsPNZQNe0TaNyqNum2/SG5+r7DpdIQlS5bIn//8Z30Zt+PmzZula9euctppp1nHVq1aheSdYm5l9fXXX8srr7wiW7dulZ07d5abe3esrnJycqR9+/YhFUoGxN4CyL0N6+yR2jUPyMGCBrJ9b2QDr3q1Dkq9WvmSnnZcDhxpKLsPnkRymKrgenXx4sVxdSWri2Scg4f4unXrWq5b+/XrJ7fffrvUr39SqFcRA+CdMGGCvPTSSxZwccxcnoTVVfPmzUPAC5c/ePBgctlMeTZ+hHnDYOrUqeP7LgDvN998I+WNF6rM/iCnnHKKtedb69atraewxIYZM2bIyy+/LHTnFVERt/ajIfhlZWWVy5fsVmYyzLsFWL6Un59vAZgNXiqbUJdu2rRJHn/8cXniiSesZV3p6FFHjRplcdxYFgq2adPGei5klFNPPdWSlaN9UDjxkSNHZOjQodaOitGmT8YvnxbYt2+fjB8/3mIqZV0D2KRJE+nUqZMFQMTSWAiMrF27Vt555x257bbbJH39+vWyZ8+eQPdQv16qXHVxkfTrs1M6timSFetrybzF9WTq7DTZkGsfvrLC9qc//am89tpr1tZLI0eOtB72iy++CNStdnY9adOxmxw/VhAIO7A3X0oKjWu1zRRiBFuBJilxWgD5kveixkWeC1iz6zeUVm072Cpdo2ambF67Qg4fVKM/RQy87r33Xtm/f7+VD4wO7umkIRekysBzDstp3faqVTAicxc1kU+nZ8riFcFtHOidP/30Uxk+fHgpeLdt22aJCw0UcH951yG54fJ9gXzbtz4iwy48Iu90qCsPP11HCowtxdgfDaH6jDPOsH47duwI2f4ps3a2FJ44LjvzgjrHw+oLapB9UiuuSuIjiMeeZ4FKJ0/i1gINGzYUGJwXFRw5ZHu3xGue01547xq8DLYmT54s7733njRo0MDSToAbc/LptmtE/nBvrq2YM0/dJUP6ifzu2RyZMb+UcSLOIELs3r1b0vkjI+iqIUU24Jo5fXf4AVm3uZb8+82gahg2/sknn8jpp58uY8eOlUaNGsmUKVPMZNb50SOH5eC+vdY53U9meqhOMiRRMqBKtEChGtgdP3rENoVfr2FTW93BF5ql66+/PhCOiKrB27tHqsKdHbg6Ysd2ItcN26+4cF2l/SpVA8J9Dx06JKmmnNv/rF06jetxxJDtIeGff/65PPXUU4J8hC7u6quvDomjA/hqkHv4muPl1EPnnTxWTgvwLhnr+A3qFi1aJHv37rVUXuxYtGDBAjUFHdys8PTuRdLNLnnYHuaqiw5Ky2bBjdYRP8BPumn00rFNMENb6pMXzRzqP74oZN6OHTtaI1MU1tOnT3dLaoUBXlQwDNAi2UvNM6PkjYRrAZMJOiuHzItoaRLzCZrztmzijzvSgb1NBnMG/EEZQEVYtjbLzD/kfE1QbLXuAUa+PPSzqNkQxPnC/Ii45lfnFzd5r3q0AAP6++67zxIpefdoMGBimnbkWxpbfRlyPKhmC48dD3JeHcEG3jmLgrMXOoJ5/HyWfcaGijz00EPy29/+1gLulVdeaakwzDTOcwCfFBmcrVK9r7t37y5/+ctfhOPzzz9vzcqZTzxtbpps22mG2M9nfm3XOOi7NvB+odRhb4xtqO/Zjm99XF8++jz0C7nzzjvlrLPOsgZuiALjxo2zpTMvuA/nrVGjRqXtam7WJ3kevxbwm9zq0qWLxWmZsfv+979viZqmmLFmQ7G8+G4LOXQktD6LVoi8N6FJ6A0VYkPj5q3F8tBTmbJ6Ywu5bOA2aabSbMxNlS9mN5NPpqTJzt12PS+ag86dO1vAZd55+fLlcsEFF8i7777rWhjgzc3NtbQbfg/rmjgZmJAtgNx6QOnpGf170QcffGDpZhnUaV2+lnd1mpffSZH1m3Pk8kH75cJzDirthSjMNZF3J9SUNRuCel4dn6MNvARgRjfq/RT1c04Y2IFLXFQWiAGIDsgwAPLpp5/mlifxkNq2wTNS8kaVaQG0TODAjxAX7r77bpk1a5ZceOGF1kDtZz/7WUiSKbOLZcps9k8O7qEsEoo7nTAEvPpGpMdf/OIX0rhxY8sKzal4dssDbs0XCOiTVPVbgPfIBJOptXI+1cCBA60JCsIx/rr11lstDGCEVRayybyxZIQMi/kk5OwK3PLTel49MeIWJxlWdVogEj0v9gjMsm3cuNESGXn39L5lpTJz3mgqwFeKeFFQELRriCZ9Mm7itoA5AHPWkllX5gIefPBBSzZ+6623fDm1M73XdYWDV+t5/R7Wq7LJ8KrZAnDZf/7zn3GvfJnFhmhrBPdNigzRtloyvlsLVCh4tZ4XAT85YHN7HVU3rDJUn65iwyX9U6V392PSqrlyQrEjS+YvqSmzF6EaK7Xq0U1Mhf/617/qS+uIOsRPz8sUMukq42FtFU1exKUFGKSjLvPT80ZaUI9OqdL/nELp0PqosBp62ZqaMnFGmuza464uCwHvj24tkp/ckidZmbrIw3L3jSLPvNJEnnrJvrbNsuxRpm0vvPCC3HHHHTJz5kzL1kGndDtiRpnU87q1TNUMi0TPG8mTDRuQIr/5Ya7ktLDHHtg3TZ58saWsWBc6UWETG64bJvKLO3cYwA1mdMd1u+T6y0J1swzAWFuEncOuXf4mleSGnhcL/aTYEGzbqnzGe2S6P1Jye++d2qbKLSO2hgCXPC8+X9mYX+E+CWLjvBeeE1xB4axM7VoYq2+Vt8cFZ94ALj4e8MHw9ttvW2aRfmowKo6eFwN4P6W2s+zkdeK2AHpe3umKFSusdYhuNWVKGKsyppGx+YbZPfbYY4GovU8tkfPsFpOBe5x8d3i+PP9GjmzfaRcfbJy3dQsXywgjm87tjYuTpxgiMyXMgjgqyPJkLwK8SXter9ap2uF+qs/zzz/fsiRDy/TMM89YK27ogTV1aGOsLdOBxjGzpkj7nNBe3wbevfttl0by0lOn2RpAxBwS8LKIE246b968kHRmgNbzmmHJ8+rdAjgmOffcc+UPf/iDZZgDBzbtIQ4c9l8Wpjp4xfRC28gmNixc1lQGnhu61Ecnm/FVY31qHeGkl112mZx33nkybdo0YdUwAzI/Ik3SntevharfPaaHx4wZI4MGDbJW2jDmgQtrc4K5i2rICbWYIsOGxmA7zP9G5KtvwgzYvpiTIZ/Pche+P5+ZKmMnBVQQVs50Feecc45VCeauH374YbniiiuCpTrOtJ43Ee15qVOzZs2kbdu2lsYkOZHieHlhLv1Un4gNGOcA3ptuukm4NsWMr5YUyX/esi/a1MXtVgtz3hsfHGfpcI42rH+zskh+/0xT2bz1iIy8Jl9xSJGdygnb5zMbqIFaHVm+1o5+xAbWsEVK2p6XipuV90vft29fy2uLXxy/e3zdzK1TtpPgAKyt8rJyQ8RBHGJtnleP0rRpU+nVq5cza9dr8qO7pNvEF0I0g1Z8dtFmLD7UHMu1EJ9AnpNnRr3l9Tw+yV1vUZdw9ry6rCeffFIeeOABVx8Q/3ozQ3bvaykjLsqTnt1Ki5o4I0PeGddU4S/03RHDBl4CtuQVyyPPZsqzr7ZSLzxF6tdVBulbGOXZgUvcWChae15eWjSqmEjrhAyGFxc/QrwhzuDBgwWfFG7yPL4r+EVKAIg8GdjihRMDfrcPC6D27t3bAptzRlJ/BMiS4dYM8mFhskodneIazGfVqlVWPSKtvzNeJHpeHDhSB9Spv/vd74TlYs4P8OChEvnvuxig50hN1fkfU0ZnR46WCOFeFAJeHXHvPhKVyL5Spyc6uMxHumOWgyD7VhbBbd2AS4MCJLdeAZGiZ8+eFheOR715fgDMh7lw4UJblnTBdLNejlgAIUvIEdVwncRScieRf//+/S0vi857+ppy0BbhuI6ZUcAVLVFOOHte8vzss88CWXvNwBJhxy67OiyQyOXEE7wuceMSRDcLOKLpMnXBgGvLli36MqYj5Zu+XuFiK1eutLpxM0NUOXA+PLxoQh5GR52Xl6eDQo54l3EaWfOCya9evXoWmMyeBFev6D1xagcBKGRDMw7h1JPnp+3ITxPPQp2YdtcEuFmxAJMwiQ+T2U3KMLkw9erTp4/MmTPHjB7ReSR63ogyiiFShYJXv0RerltXGa7+pMOlZlnIqYfGz4QTbOSPbIr3TOxQu3U7KYSpcADsB17EC8DkR8jxdKOa8GsA54MoywQuE0DUQ0/+ADpEAUCviWU2Jng7dOhgAy4clfyRlzURh7L0h0BPBBD1R6TjRXp0660iTRtrPH/Fbqy5+qQDtDRmLOD1yTbiW3AZTQzG3ICr73NEzaOBw7WTmxEWLc2ePdvmcd5U2Ju9AuWifjTLhwMjZujVK5QNJ9Ug5JoPTBPxUWOawOUeA0YnI+BDrUpU4eClccyGrujG4kVrinQpigkULzlU5xnp0Szb5LQmB1u9erUN5GbeLKkxCS2CJnwca0LM0qN9HaaPiCvmwAk5uiqRr9iAu9PU1BLJ3+s94ovlYQFQLIODWMpyptFyI+F03XTDcCc/QibWRkfx6jHcykQTYRIiiBc5PyL9MZgfAmnD+cJl7KHLdab1Ktst3GQKbvcjDctSU8Fp6SlyVK0UKyryx10IeLt3TJVrhhbI8AG7pUUzUWvmRWYvbCjjptaSuQvdXzIAYATP6Ba3T2+++aZrXXnx3Dc5g2vEcgxEVae5FA1+0UUXWcZFfi+ZF+wn50ZbXTQupnpNiwV80HTnmnS4vjaP2qm3DtPTraYIwr1wYpH5EegPQOcZyRFmgEhSVnveFk1TZfigIhncd5tlpIMLhgnTsmT8lEZKfeaOOxt4OyjTtId+kmuz8OmkjHE6tc+X9m3ylWF6jqUH1g/FS4jG0R7paGR0kzgtjpbgDKisoiEn96Kr1OAlH14eHx6aBeqGiABQw+lPo6mDGZc2Q8VljvbRlUKAB72vH6H3Rr1lakHMZ6TeH3/8sV8WgXsMXqmPJiYboqVI9LyR5HnziOPy45t3BqKmKYH2soFH1S9X7v1jjoyeGApgG3iHDyq0ATeQkzq5oI/ITVcck8dfCMqMyK6MUOkCI3W0R2PBHWKRe+nezj77bLNaYc+dL5JRObKdU+tAfRiM8eMevQScj0Ed5n5+XNCsRLt27QR1nEnkzUdC/flwzGen7ZjB8yMmVACrKQ/r+HA8Nz2vvu91hHmgpTBpzZo15mVE5zwLTMWPa/Ohov6DcDKNG1xsHbS83f/sVPnOpUHgOgu+akiuTJmbo+Yc7AC2gbffmd5GOWQ44uJdCrzBeWa6ObzlMIJHZGDmBEX+iy++6Cw/cI1Khu46Fj1vIJMynmCDDJfFh5aXnMdLQbxBJcWPrpG96cKpklq0cCwFCFNX5GlmuvyID8oNuKTh49Ig8MtD3wNIOAM3tRrco0fSPYCOG8kxEj2vtm2gTZkQYW81fNrpep/apVCaNvIubcA5Ik2Vut05YWYDbx37eCEkN9Vj2YgGveeeewJhbA/AdKMXUXleBHJYrAOfcC/aLFs3jhmmzxmt84MbtlPcEnGEc7M713E58oFiPYfONZaXbObFOXX76quvbCovZxx97Ta40/e0IRHqsHBtykcIcJwfAoPRcNxfl+d1dOZpxtPaDi/bhvrZ4U0P6tYNTszovG3gXbkuW3p0OqjvhRxnLVCTzgbRqAx06H4AJpVE8e3nYJoGBoBeIDGyDzkFNF9++WVIeFkCqDNyppY1ATBcCQ6KeGHWk2cEwBMnTvTUlvBhen1gAJZngHszkeEHSvOZ9AY1iFx8ROhjEU2oD0Q9cXjoxThIc+aZZ4YYxFC+2+yiWXY8zp22DSNGjAhwXfLftNUGw5Ai85TSBR+9TrKlmj6/ntI0eIN3vPLah72DJh7+ww8/tEaaAJguTDeojuN2jCSOW7qKCAPMyH78qCdLXACGrjMAYlmLOaNl1gvRItwMmxk/mnPAD/AxEAK8mKNqYs8HN/DyXphNcxJ1hPN7fWjO+GW5hhGwew8/uC/jltGjRwcYwKSZafKd4SKnd3MvZcqchrJqXSh3toF3jBrR5Sj92E2X71B7AAQzKlTpnn+tqXw8ORhmntGYWF7BsZ599lnzVsg5nBc5szL0vEzD6mlZRuXIvn5EXZkogFuaQCEPL/D65RfuHmMBzekBql8boRVBDoerQs5um2vczSKmmYSszwAvHqKPma+fnhe7iblz51ptyVIxU8NBHrjO/e97reQH12+VUzubuYqMm5Il73+KPGsfrBHLBl4CnnslTZauypG+vQsUgI8qj9W1ZNq8mjLzKxIHuS5xNdEQv/zlL/Wl5xEw0OiVpedltyKtYuKlhwOvfhDqTC+jgVVeM1GATetpAZkWF3Q9nEdUWxq89Az8aGMI8cYELvXneZHz40nki6jkp+flOdi5EnESX70YpDtp7KQSWbg8R4YNKFKi6wE1oE+X+d/UkQ+VMdqJE6HAJX0IeAmcOqdY/ZBvtYzrnpi40RIPSdcXi5432rKc8fnIGB1DABHNh545c8Y1rzUwdFikajMdP9IjbaPBa05ieKU3JxgAkQYuPYwGNWkRhRgr+KmzvMoIF04P5gdc0vMh/uQnP7GyYroa/x7U10k4N3/hDeR4bX/izix1ugq3baDLgCNoGVJXpCKOyOQmoSqLhFDvmPWNd5er62BOEtBO+kPT980jYgE9iSaszzQh/2pCJclKkvIALmXQLl7qRl0H59ENuM44kVxXOHgZaKCWcso9kVSWhiJdtD8NPLp/c4CCCOFmO2vWBe0JumuTUAmWBznlaCYn3EQU5EtEDLMNeTYIQJvyL4OyeIHF7Zn5wFC/oaWpaHIVG8qrEoCIbjFWPS9d4bBhw6KuHpvY0V3xEjFHZEJFE/UZMmSI1bXS/cH96LKZhuWeCQTSMEo3OaTOJx5HundmKrVIBTgxKmdgxo8BHPViwKg/SMqFu2r53Tn5wARBpAT3ZlPIWMjZTrHkEW2aCgUvlUMu4yWYjR9tpcsSHxAw3QtH1aQ/KsDqZzuBfMeouTwJW12MhfTonboxpWzaY5jl6w9Sy7vmIM2MF8l5Zb2TSOrmFqfCwUslomkk/VLcKh9rGAbm7EqECkdrH/zygiOjMnOzPHPWz0+95VeGvkd61nsxqRBuqhkuDdjNMs1BnM4z0qPzWSJNV1nxXMGLWeSpXUqkZdNC2bM/TWbMS5UNuaGjQ2elkWfhELxoP4KrmA3uF5fZrPIgNAZM9cKp6IYRSThHCwE3Y4TMD5CbgyFnXRBH+MWTABGyKnIkdaNNEWUQIxC56D3QkrhpPRicVQbpnqIsZdfISJGhF4q0aVUoBcdSlTluukybGzo5ocsIAe+NV4hcr3bg7tVVRxHJVeOTl9XWVixNdhKNO2DAAGsjQeQxdoH3Ai8vBfM9XkQ03NdZZjyv4arhVD3xLC+avJCBGcQ5B3LR5FHecZlMYQxQ1jYc2DdVbh2xXQb1Da5g3qssNMdOaiSvjcmStRtDmacNvBf1S5PHHgjlIvhMfeCOPGXL21omzQh+CahIHn30UWvAgJdIVp+GG9nykJWl5y3vF/ltzB+1IT2UH6EBMdWUDCrR2Gis1MpKUU5ucgXrMZMaKEOwkdfsUasqmthMcXUcm6ps0LnelaiVJXLlxXY9KbpDpoMx7rjxxhut/WXDjW7p+hgYJQrn1Q2RPMbeAuH0vBjiPPLII5b5wC233GKZ0ZpqvmEDJAS4Zm2G9NslHdqkmUHWuY3z9u6RHxLBDLj4/CPqMrjQj3uoaPgBRvR94R4kEex5zWdKnpetBeCq4fzz/u9//xN2vMSXHWMdemtT396xrXKP40Md2irLuTqhs2028B73t4lW+wTYS0BIf+qpp2yB6FEZbLgRAGdQhOhQ1Ua2bs+TDAu2gJ+eF0+iAHzChAnW2Oj//u//5P777w+YRRYctwkAwUyNs2PHwtjzzl7QRJmlebvmHz2x1C5A58nXg39evj625ASYbv68dHyOgJZ0SbHBbJXqfc7AE8McVmuw/IdJIfP9L1+TIUfUauFame7tMG+JSP6BMJz30+k1ZUg/Edi0k5avFXl3PFOAwVEfFYjWPy/5mhV3lpO8rn4twJpAGBbghZzqz4lfFsuYzxrIjVfudX34cV+0dPVhZhMbFi0vloefyZFrL92r1quVDt4OKTF31oIMeX9CM2UqGQQupdBVmP55WRWLWyE0D14E541Gz+uVTzI8sVognJ73hhtuEH6asDIzjYVeHa2Whx1JVxuo7JJT2pTGmrsYe96W8uoHOpX9aAMvt2bML5Y5C+rLky81kGaNUyw5d8kK1GN24BKXryla/7wYkFSGEQf1TVL8WwB1F2OYcOoyVtyYS7hM4FIrtqpa8XyGvDWutdRV21UUFChnN0rP67UHG2lCwEtgofJUsiWPH1fxpaSeN77tWdm5RWLPC2jRByP7hqMNm4PzCOHiuoI3XKKy3ofzJuXesrZiYqTnPaIedXJSs3Z6casZFo/z8DqKeJRi5IHVFgYnppLauJ08rWItUJn2vBUKXr5SjKuRlZN63iqG0jDV9dPzhkka8+0KBS+11HreJHhjfmfJhCdboMLBS7lJeTeJv3i0gOuArU6dFGnbIkWaNRFl0ZMisxd4jwCRXTGAZiRJ1xGJnW5SzxuPV5dYeYTT80Za29M6p0p9tXi4QE0H79pTIhvVimIvCgHv4PNT5bphu+XS/mq+ThErlGcuULNrn7SSjz4PnaJjS04s/zHsZl/Zf/3rX5ZDOrcCERXQ81aW3wa3OiXDytYC6HnD+W3AYIuNZrQumGVOU6dOtTG6nt3S5Lqhh+XifvnS4qSTzSUrRT6e0lz+86a7gGAD71k90+RP922xectRCwss96atmm6V3O05smBp8EvAtBGuywJAdvHGJxXLyXF55EXoebHt1IsMveJV5XBeEi8V8YgfqzP40UtVxsCmPNsyEj1ve7UU/+6777YMc9hMhkE74DXpthH71cyumpUwqKdaENGz63bVli3kpbdDDXNskL7kgqM24Br5WFN2fBkm8ZKYr7755putVa94LPRzskdauG91tucFtHplARyJcxT0GOCzdIeeh2U8leni1XyH8TgPJzKMHz/e4ryXX365taQJIx1TvBw2IEWuvMgOXLNelw3cpnAZBrzn9vbfgumqS0INJ15++WVrYSKiA7sbhvNAg54XrlvV9byo+9wIDsszen2gLJthfKDB7LYOzS3fRA3DohC/Fn5T/iNHjrQcqNA7s9oGu14T8F07sjec9xP27i5SN9vGZ63INrEBEcGPcLXuJGZXWLuGoz1M3TA8hrO4kdbzxuq3wS3P8gqDg/JzdvOAlufT4OX5eRH8EKG0iECb0D3SO2kxwllXuA/dLmWwyNJ8oc64iX7tbCezvh999JE1zsHnxXvvvWetcTRVpRmhiyTM5NZ5DRdw28D79dIGyslZKHfVOY2foiwmDOLF0QUASpaQ8+IAMBX0IirNiyduIhOgAlwsMNW9BPI6H55JTIuaU6MMRrFr5mXSLpzzg9uSHs7rJMrhxQLg6jiYZcB23XXXWe8dzPD+za0IVm+o6WwS2/WqdSL7D4YqC2zgnTyrtlx/2V5xQ3m+YqajJzVUmQYbn5d27733Wh4Jw3k0NGvDS01kQkbl2WhogAsHBswmSL3qzzJ5fqRFdNAO8+hW+SEDw4ndiHIBN2CvToQzbPYb7tGjh7Vx4VTHYO2TKSUybGCGsiV3F8UmfNlUNrm4XrCxP7xDPvhEK8GO0qSV60WefLGF6xp6ZLZogAvn5cUmKoABFuADtNohCYCKBLhmmxEfwKNZMQcniBPk6/X8cHYndzfzTdTzcCIPdt9sK4BjaRZh6t6M5zl+okRGfdBMPplaU1k0Bp8Qj+gvvNlYRn9aIxhonNk4L+EffFqi1GE50qWDSPOm7LGlnI587W9XaeTnewpwE9meF5DBGQEWBifxEG0AMYNYuC4yMHnCjRFHGLS5iRGIF4BBc23fRq3km/RKWq73qgoiAttv4eEHcpOP8f8886tGMvi8VOXsplhNUoiaoEiT+UtAc1A9a2Vw8i8EvITjHWdDLmd07+4JuRsL8WIS1W8DwIXgjmYDA2au9SAuludG5qWX4qMAmOTHSmq4s5vaDBGCkXw4jhZLXeKZhvrzTv1o/vz5wi8SmjzLxJvBhl0Su4LXJV5cg+BCXt1mXAuKIjMGEYAIUFE/kzTQdBjcUosSpIlUpAD8DMwQG7TXIMAMAJwqM3opAAzAE5l4j4iBkbZBPJ/FJvPGM2OvvPBnloj2vFq9Z3oU93oG5DVeGAMruCN6awAZqabAya3QMvCBOAkxBo6dyFSZ9ryhLVaOLcVXSpdMNwNnSRSC6/JDTwsoTYKzAiDuwzkBLl058YjPNc8FJ+UHoBE/3EQBM18GZYAT4JIeEMCVKcMk4vFRECeRye3jK+/6Vih4eRhACxAS6WXoLtscIAEiOKSzOwRw/LTnSMALuBA1OOclAkTSATxnevOFkgcDOD5o0sK9TZ9exKUexHOKMmY+39bzChcbaOhEAi710VxSgxd5Fi7oBzzSQcSlJ0GLYoIdzoxIATD9iJG6Fg1IAyd2kv64nOHf9mtXznupMpS48KzD0qLZPtm6vaFMnVtLvpiNR/P4dPV0u3CvRCA4Gz0BwNGqMS8VVrj6AjJ+cElAy0fKRAXcGGB7iUrI23BexBC4OPUxJzL4uEibaB+92R7x0Ip065Amlw4skN7d9yiGkqpMcZso1W2qHHCZXaNsG3gbNkiR268tlJuv3CENlUFwKeXLTVfmW8riZ1+tqRrVDuA777xTNmzYYE1U/PGPf7S8RuKD1414Aeg8NYdzi1PRYQAF0nWCC5b1wyIPAAcX1bIxXJiPwinT6ucF3AxmtRjBRwBX10R+uo46LBGOPA89j/mxxVKv64aJ/PCmLQGHI6hoL+63Tfr1qSEvvt1U5iy0jwUowyY2DO5bIj+91QRusBp337hbrhhkBy5cha1NWdp8++23W0c2APEj5EC8jZsvxi9+ed/T9dADDt2Fl7Vc8kV+1bIxnAlZ2It78mFrjQdl07Ym6Y/MDEuEcz46to0ti2iDueP3rsszgBt8sovOOy7XXOJu6GUDb78z9wVTuZwNvTDPFsrXxst46KGHpFevXoK7J3be8SNeEt2q10v0S1se9zQn1CKDF0jgoGgS4H4a6JHUB12tCWA3mVbnAwC0/E0b6TpxX39kOm6iHHmPtI0foX7EX5n5M9//ReeVSPeO3jkMOPegum+DqhXZJjZ0au+vUzyrZ2gBkyZNslRDGKIjLjhHy84U2LrysPolOe9X9LUGBUDR5251AHTIpZr4COHSfMB+6YgPgCHkWcDPR+A1KwX3ZWKClwv3paeC9EdmXSTQH71JOP+8p59+uuV8XD8L1f/Vr35lyfac57RwN8jhHtRU7ZVYx94RWeE28O63W/tZEcy/fIe1JI07dOhQ+etf/2rtJ8vcNQOVsWPHmskC57wQ5vcTSc+rQUHdTG4QqPTJE0AKN9RcV4OLNgDE6HYBtBcBSkQH0tMGcFk32ZoPgfzIl59uK11Pr/wrO1y3i1s9pk2bJr1795a///3vbrclf78Nhq5x9rgIBTZePONrY6t3lyw+nGSfqqQ75CVef/311stYsmSJSyp7EC+YrtnvRdtTlO+VBiz14dzrJQBer2U8gBpu6dd9kr+pcfCbyaMsSH8gnJtcn+uqRPRqrGtk4SXPdM0119ieZ8nKdKXV8n6iSTPTZKdaSewkG+THfZ4hZ56aLoONHVl0gs9n1ZA3xmI0HBz1wQ3+8pe/CN3CqFGjrBevwaDTuR0jieOWrjzCNCjgeJzTtZvdm7NMzRnhjgAdEAJa0qJRAKBegxc4LRxap0GEcItLGYRzH+4LmHU9nfWpCtfsUzJw4EALuOzjjHH6uHHjAuLWrK+LlO/nZnLf90K1VDidHv1ZCzl4KIg7/cw28G7KK5ZHn2shK9Ycl0su2CGd2ossXi4yZ1EjmTA9y9XBL7u6RLsXbyLpefWgSHfLcFGACYDCEWBExkc/i0xMXsyS+QGYvCmDNtDig1s5xAO85KlVaG7xEiWM5/EingV68skn5YEHHrA+SGfc18amy+59rWTQuTvl3N5M14vaeaqeTJiWLXZLs2BKG3gJXqdcTP71xTT1aymsWaNO2FaaHJerWIiuM9H8NmiOpsEKWABiuIGn+fwMPpmRg/OSn57m9ZqhQ44lDpxbfyxmfpyTJx8HcfQH5oyTCNe0G72J1wCUOuISAftlnodFuldeeWUIc9iTXyKvjxb1s4umfrizybzOxihSnLoUuM47sV/zkImk59Ucw1SRIQYAxGjEG14igOcFQXwAXunNwRrg9SI3kcIrbmWFo0lZs2ZNWO0Rq8sZtPJRsiRIt1NZ6u0L3rJk7JUW7ssL83qxXunKKxxOCXdzqu4AMN01XTv3IyEAzCwaRL5+dg26K+Xj0dzfWYYX53bGq8xr3iNiU2VQhYM3Ee15kS2ReZ1gobtGJ4smARtkjoDZC2y8QACsu1A+Uq+45sfi9fKd9akMgIQrEz0vS3z8epBwecR6v0LBy1cKN0okVRkNp8ETrpuGAwNm5Dctbrg1POAFxJDXS6Xb1HH4eNyIXsoUZ9ziJEpYpL1TPOtboeCl4vqFcEwU0qou9NaR1AuOjEzsBWDy0GKBF3h5dv2xeOVDnKoCXupa0RSZMBfnWiWKvGs+FhyVAQVcE9HAJMIANpwSoHEfwKOvRcvgRogFxAPopHEDoQ4jDm3i/HAI9+LKbmUmahjPf88990i7du0sbRMedOKxT4Ur5z21S6rccKXI/XeckJHXlrhuWqwbqk2bNsIPQvaJhHiYRAMwHJKujwkBrfPlWeCOTFrQzQMu5FAGZZzzHF6cFWBqMBLPjcxy3GRjRCwAXBXI6xmpO6oxbFpef/112bJli7AHmxtlqnHfVUNS5d7vFcndN5XIwL7+zx7CeW8eoaZ7L8uV0zoHs8f5w8vvKTeT79jXUdGw7MP22muvWWAcqRyq4RHQywkJLzPR7HmDT1m65B1gAlY9fWsOrHRcngNwwn2ZkdMigr6vj3BqPggvedAErxOkcFzyTnTiGXWP5VVXRCwMuPDfwA8HJIwzzLbFX8Nt1+TKhWcHczmgVtSPUVsGvz6mlqzaEGaGbcgFqfLo/+UGU588a6lMHh64c5tszssRttrURAPDMc444wzrh1WZHvzoOM4jwKCrTUT/vNRdg5FnC/csPJsTdObzas7r1cvoARtpTM7LOXriqkDoebUthl99nTtgmnFr105RPXye9D/LDFXMRHm9uvXqfLUvcao89q9Qs0sb5x14bqlBiD2L0itY+pUX71HgbRC4Dcf55JNPLNsGLMn4wqZMmRK473bCCwUgXi/ULU1FhsFx4apM8aJVAMBOzkrd/brJSOurwU18ZG4tggDeRG0ft2ejLbT87nb//fffl8mTJ9tumWrAYReWKOAGmaItoroY0m+38szf2pr9Ne/ZwHt6d4fNoxlTnV903lH1HwQvlb744ovlxRdftF4wS4LYptOP0JUCXj3S9otbGfcADbpLxBtECADMwMs5YNPg8psp0lzZBKn5TDoPwrxECzN+Ip7DsMLZ8/bv318wzoH4SHnuH//4xwHAd2jjb8/LXsR1s0O1UzaJ+Lh/HnLsuL35eDlUBrkXIGPPi9mbF1FpOBtfndcL9UpbkeFwPmwP6NaZ8kWE4KND1OFlIetq8voIeVYtCpjigU7HUYPbDOMcWZgPx5QJnXES7drv4xs9erQ89dRTllE+TAEn0yanLjhug6Hrox1RG/s4yZZq1tdOowh79NETlUm7g2jgV155RR588EHL1G3t2rWOGPZLQJvo4KXGiAsawMjobkACZHBkNzLFCvNFmXHdXjicXJfnlbeZR1U4x2czBjk8Lz7L8KRufrjL12TIYZ9FPHgt3bs/lPPaxIZPp2eqLePFMoV0NsrS1ewIxOg3KJsAwmeffVY2btwoK1eutCrkZwur8zS7Sx2WiEc4LmIDXJAfqivsazXxAhAxGLSYmgPuk1YTLw1QmnEAt5kXcflAtME6ogq9WnUgMKGdSTPNDpkYQAkwemJ9ufkql+USKu7HX7SUnbuDuLMyUH828C5eUSQPP9Narh26T64ZWromiKVBsxZkyQefNZJla+wZwEUBLhTJiNOKqP54cV5dqY6TKEeAB4ABFaZ/cENApcEJh0akYCIDEUI/l6nmQlTSA0E+eMQOkzMTRnrAy0vlg4hE05EobUQ9zOdx1mv27NnWmIgP+Mwzz3Tetq5fGZ0tBw9nqHHVrgDznL1QZNyUVspMMpTrksgGXgKwap+9IFvZ89aTZo2ZnpSToLUDl7jREmBH5nFynGjzqej4cFhkXYALFwHIyLNoBwAp53Blfn7EC9YvGS4M2Pno9aCPvOC4Wlb2yytR7mnRyY95sYpi+PDh8tVXX1ne0XlOJixMWr2+SB5/IUPe/DhHspWVKJtX7lOrJ/L3ugOXtCHgJVBhTLbtLFY/ruJLcK9E1fOGe1IanR+qM0Csf3BnODHcEuC5gY+XDFeGu/KD22oiHcAnn6pGfMj0Gn7Esh/UZYhX7AbEVhDaYN+ZbrPPjpfOuJXSWgDAlHmclUr0azguPwAI9wSMvEDzJWoQA1gtSpjPBVBpB0BfFUFrPgu9ideglHgzZ860VpczB6AnpxhDlJUqHLzIh7wwXnhVJ2RXrTYDoLxAjprLcg4webmIHnywgBpOW9UBq99dJHpeBmt87Oh6WQb2xBNPxEVVWqHg5eUxcIFDJbKeV7+YaI6a00aTpjrF9fsYeddffvml9YvnM9v0vPHM2CsvHgQOVd3A6/W8yfDya4EKBy+PUpXl3fJ7Fcmco22BEPDWzkqRe24uls9fzZMl4/Nk9At58uPbiqRty5CoVlnYMzAljEz36KOPWnab4SqBDGgCGBnRHH2HS5+8X3EtEKkLAK0CLEvNhg9MlX8/mi/rp+bJiol58ujPj0ivbkH/cM68bYjs0CZN/nDfQXnwru2WorieWlBwRg9lDnnHDrn39n0hAEZfG42LU0QF9LyA1SSU8iyHxyVQkhKnBVavXi2bN2/2Nc/kXaLj9dPzRvJEGJ//4/e5MrR/gRrUqrV/ajKXGbcnHtwi7ArvRrYB28DzCuXaS923jr966CFZv6W2/OPV4JdAheGguDhFjuXre/rpp93KCYShG3XqeeHazFrhnAJFtpexSyCT5Em5twBaFN4LWgI9m+hWaCR6XtIxS4mLU7RMLAEyVWu4L/3B9bmWkxtnGV1PEYXJnTJ+aqjdjQ285/RyX4+lMxzYd4cCb0t9aR2fe+4568vELy8GF3ytfgT3ddPzAl5+zDaZIoVfXsl75dcCvCc/DYJZMkD3E/tYHnbXXXdZScgXFeLPf/7zQA98wdmF0sjH9v68M05Irx6psniZvce2gbdFE3+byE7tzCqXmvRhl8kyIPzz3nrrrb7LgEjNFwh4vfS8kTaYvSbJq8pqgUj0vHDcZcuWWdPqTH+zgTYqU7g21Ki+v1+4LGXjlBW0Qg08qk3m3b47KBIEYhgnG7caF+qU7gT9JsuA7r//fmv6z8+gBI7K8pakqszejtXhyo/psIqC8VGXLl2s9Y0LFy4MAJdnz93mvkDVbJetah2lk2ycd9q8ZsokMs8ZJ3A9eqJdZIh1GRDgTYoGgWat9ieMjfAQqWn9+vX61DouXJEmS1aK9OxqCw5cvD+hrvLfaxcZuGkD7+jPUuSUnIZqc4vQeedXRzeQUe8H8gucfP7558IvWsJCC0ONJFXdFuAdeol/5lNdccUVMmyY2u7HIFbfaDn5m5VF8uZHLaVH57yQQdtiBep3xtcNyMdGFnbwHlLbVD3xnyxZtb6V9O29V9q1PiLrNmXLvMV1Zdr8FNcMzMwiPUfeQaOAcYbJgc1znReNE86IA4ss5GiT0GgwMIAYMSNrmYS8pRsPUce5WhetiF54iQWUtmEgD9RDqPw0lUf52naYMlAlmnpUs3zqRf1MYvpdq67QGGBPYhKgI38vootHDCBvP3GAHlQbl5v1c+aLkxHWsf36178O3NJtrwPe+lhk644cGXDOUeneaY+wJG3+N83ls+kZgrmkG9k4LxGOFpTI2+NE/Rj+6SEgNpXedpWki4QYaQIqHpgBHmB1A6zOiwbJy8uzWWvpe+aRQSAv2CRenm4ggNmypV3kQasBQCGAjcdukyhX29liCWXaIAMefBVocisfAGl1EODSL1mn4Z62QnMrf+vWrYGPj/L5ADXxUery0dA4685aQl024HPe58P1U0fS7h06dIh4Ct/8WHQdncff/va3gffhvKevp88rlunz1DJ1Md+VO3BJEwJenVF5HfnidcOXVxnJfMvWAvQ433zzTdkycaT2+1gcUSO+tGkbIk5VhohwX7iF5rp+R7idn/aiDNVIJg3TAnBfv3dj3vMTGcIUU6bbFc550Qu2Uw7XIiX2u6ALT1LFtQDMBbVWNLRixYrAGCGadGWJW+GcF/BGQ8iT4UgPzMx4fgMN4sE5NJnnOoweQpOWH/U1gyCTwpVv5qXTmXm4la/jcdSyuw5Dt67JWTfCtayuz81rwtzqQ7imWHq7cO2t847nscI5bzwrr/PSAx/9UpHZtKaAOIyu8aOmuzc0GCYguIbD65cGIEwZDRkdAAA4Bmtm3uTvVj5lagpXPnVxlm+m9yvfre5a06DL59m1Nobn8NM06DRV4egK3lNapyk1WYnl6Ey9R/l6mch2tSAzUUkvhPSqHy/T+ULNuADVBKt5j3PA4zfILGv5ANUEa7Tlm2o7Z1quIzVrdEtbkWFpaSlql3e1UrsBJrIpsm1Xinz9TRTahsHnY+GzRc49PVjttRtFnn21lYydFOxKuUtXMXLkSHnrrbcsrjV48GB57733ggnjcOb3UuOQfTILlxbQPZjLLc8g3at5Rghzo0cnhbsb98tVF5WqL4m+c4/a2mpMc+VeN02Yg3CSTXjDme9vf5hrAy4JOrYTueemrSHOfnnIPn36yCOPPGJ1qd26dZO+ffs6y7Bd04XR1dE1h/uRsLp0cbZGSPALxCDk+HDvR99HjPLr2cI9bv16qfL979iBSxo2zP6/729XfntLtwdz5mMTGwaq2Q088rlRtw7Ka/VF+TJltp64KI1FxefNm2fNnvDA4QYD4bpgt7KTYRXbArxTTFzjRag8b7nlFssRIx5z2KPa7KHP7ikBD01uZX730h3yygetQrivDbxdOyo+7UNn9MAbWhC8CP94vMYT+qZNmyzg4kgtHKGKcQ563NIwyOCD8JNH3dIlw8reAkwNO7UUXrnSA8OFvQiPOYgVgwYNsvw54xb3008/DcxwntbVOy15ts1RW0Z0TpE5C+2igw28XoXrcEO7ZAUBLCpC186XRXdDJXEy4UWovpgajpSY6mSqNEkV1wLx1vOyD8Ull1xiiZasd0SrYzIvm+waxWPawLtqXUM5p1eoRZnOb8Eyu9dCDFL44latWmXJsdOnT7eMzXV8t6PTBsEtjhmGXjgJXrNFyv9cqwyjKclPz7t48WLLxSnMDddP69atC9htUMaSVf72vJvUHNWyNXauSzob6KfMrSUbtxAcSquVCeaYz4MiAzHguPjj/f3vfy8zZsywDIyTZo6hbfdtD2GR7oABA+Syyy6zel3EB3OSZt6SEhn9WW3PZnp3fDM5eCgUvDbO+8WsYrUyIsdaDIcQrWnDZpHn38wR7jsJl/5JSraAXwsAVBxMs8BWkzmruHdfibz8fkNJzyiRywcFvUzv2Sfy6uhm8uqHwDQMeMl4knL0u35zjpzSWm21mo2yWGTBshRXS3ZdkfI8JvW85dm67nnHW8+L4/Fx48ZZP/cSRTBIv+9PDeSDTxtKYyYpTqRI3s5Umb+YSYpQ4JKPjfPqjNdtKlZG6PqKo3tiM0ak53qa1uw2vNIy+Evqeb1ap/zCkU0Zy4RTe+oaEDecnhfwhqMTJ0qUKlZjjaP37Bp5uYI3XCFluZ/U85al9SomLZoAdLGJTrYBW0VV1lyV4FcmqwdiGfn65Zm8F1kLRDPd66dpiKy02GJVOOdF9aWXAEVS5aQ9byStFN84seh58YJT0eOTCue8gNccaYZr9kjsecPlkbwfXQvE0ttFw6mjq4137AoHr3dVkneSLRBdC7iKDewz3LRxqmQo+8pamSXyzepQ/S7FwEH5SrE90NoDjLWTlGyBWFsAT6UslC44VqImJpQd+S5vPIWAt1uHNLn9uv3y3eGl6/pZPz9xRpa8NrqRMoywZ4TxxjPPPCNjxowRpgBZl/+b3/zG13A72oeqaDkq2vpVx/jx1vNG0kZNGqXKTVeckBEX56mFEKUp2IftrY9D7ch1fjbwnnlamtx/xxY57wx9W6SGmna+bOBRqZedq/YezpGFDk992OZihM5SFizKcC7x8ccfBzNwnLGhBqDXnNpx23aJHKV9K9huJC/KtQXQ89KDYngVCWF9Fk7P65ePmoCTu28okDu+a/dS2re3SK+uW6VOrRbyxtjgmkOdlw28g849bgOujsTxgj4iazcWKPAG3fWhxAa8+KHC0R7X7PTiR9g+JO0f/Fqo8u+h58UZXkXROaenhQBXl42T6euGbVMcuKX6oHRo6dEG3p7dgi6M7NFKr/qewZcR9GYCt/3f//4nl19+ubU8neXPeMQJR6hiIvlS0fMm7XnDtWb53Kd39LPRNUtFz+sXF489MDZ+/fr1sxyIY1mm6eye/va8vbuLIBWUThXrVI4ZtuzaDmgH41lnTgfAuCm6++67ZerUqZZjab2sfcKECY6UwcukPW+wLRL1LBY9r5/fBlzgAlxESsxn8en8i1/8IgD4rMzw4kl6cLV/oNlsqrINW+z2uoFYJ0+Wr7WHoGVANsIPF10Nq1j9vkBSx2LPay81eVXeLRCLnjfcLNtZZ51lLb+fOHGipaUy9cKrNwRFUbdnO6C0Dms3aZuHYAyb2DB1bj259MJDgidqJ2GeNmZiKxUczASgsgfF6aefLu+++65liM6XlaRkC5gtwDIxVlPgMBCQgxVzJcWCpSkyda4oD5FmquD5u580ll17QqUCG3hZ2t6gfgv50U3brJWbweQiL77TXD78LAhcfY+1a/ygcP4DdJrk8dvVAmiM2MJVkynvErZRbZb9yoc50qRhrvTopGOVHjFSf2Ms7mtDRQsbeIk+6r0UWbcxRzn6LZIWjY/Lzr3pyvFDRoiOtzTr8v9P6nnLv42dJVSGnpeFDhuUHXm/s4vVlmnHleo1VVZvyJBJM0QOHw0FLnUOAS+BX84vVj/0avhKhUJZdml49P/anjeSBkIuStrzRt/GZU2BnhfdLYOsSAjxMRLtUbi8NuQqAOcSS8vA/uW7gjdcIWW5n7TnLUvrVUxa5FFmTBOdbNqGRK9ssn7JFjBboEI4b8MmzSPugszKJc+rZgs0bNJMtm5aX+6VL3fw7tmutuV0eisp98dKFlCZLbB98wbhvZc3lTt4eYCd2zycQZT30znyz2nXSTJr15HiCA1OHMkr7DJVuU/avHa5HFd2I0nybgFX8F5wdqryDVUozRufkN356fLV0hoye0GougLLMKb+WI+PX7GcnJywew97VaVJyzZet0LCd+VttsLqN2oiGTXtW1iFRD4ZQJpmrdvJ+lXLpLhQredPYOrQrVcC1678qtaudar076NUZa2UqkwtfV+1oaZMmlmiNBnuWocQ8N5+XYn86OZcpTC2V/LxfzeXf71uH9+hyrrzzjtlwIABloHOD3/4Q3n22WfFucOhPSf3qw7desrmdeFn59p27Gp1SUxLt+t8quzL3xWWQ7Vq014OH1D7rhUclYN7d0vhicQG7zFVz28bDTovVR64M1e6d7Q/+ehJteXZ/zWU9VtCmacNvFddnCK/vCtPsrR618jnzu9ulx27WoXMsqHfA8Q42svNzZVOnTrFBN5jR49I3sY1Ronup02aM0VdSgUqzY4tG+TokcM6yPWYXbeeLdzc08x2I8yFOaUZJmryttEC7FENeXn7bNcqVW67OhS4pBlx8WHZk58lf3xO634JLSUbeC88Z78rcImKRdlVQ7Yq8AZNIuF+GzZskH//+99y2223WSA2XfqcLCPiwz333CPaMs1MxPawc+bMMYNs52xQ50YvvfSS5RPWea93796Ct8JoiJ3t2XwvUsV9pHmzlAoGYO6REWnaqhIPD5G4e3rjjTdk1qxZIdU+47QST7sGIn9n+G554a2cEPsGG3jbt1bmOz7kZOmAd+PGjdYOkvgs+853viPnn3++jB071icX/1vO3Rr9Y5fexYTPuYVpJOkijYNNMc+qOUik6fzi8RGwVwSGKvixqM7gpR1wYoKDvWuvvdbCzD//+c/ASo3O7fzFuLrK2LFj2xQFXnuL2sB78DAyrfdUcP5ee2KusM994IEHrJeLL11tpBMaM/FDWBUCd3USQANk3I8X6cWriCJ6p5545Z2I+dCu9NAwgHPPPddWxaMFLsa6thhqe65Qkddu27BoRRPpf9YOR7Lg5awF9lEcHImVFNCpp54qd911V8zgTUtV+xLv2iRLFh9Vnir5pkqsL7OoKFTWsQo8+VdTeRZcsfxrtatmbUts0VyysMhFsBeUJwAAOl1JREFUcDcTepwnfQF7NEwZglmcoH11IPeyeMGkeUv8/fMuXK52pHLZFcjGeafOqSFn9hA5/0wz69LzL78SGTuZzZvdOfPSpUvlZz/7WWjCCENq1UqVa66+QjJrNbcWZ8Ltjh5YK2+9P9U3h4v7N5bhl49QC0VrKdCnWYA/sGOCTJtX6Jvu23izudK61FSqRUSgeBMMZ+vG1XICt6IOOueccyyNlBn8+OOPBxYuzF1UJC+909h1HdsRpXh5b3wLVWczdem5Dbyg+w/PtpbvsfT9stKl78dUXSZ9qZa+j20UsnLYmV3ZGiVF0o5Pl4LCznK0qLnUKNkoGYXLXLtxs9zCQuUz4ugUZdzcRo4XN1Lp1knx4YWqB6hrRqtS5wDg1D79op5MyVITMBtXL5dtW9a7Pm+bU7rKhtXLpKQcJmlatusg+TvrKPCGetZftmyZNR56/fXXA/Wih9QEMF94K1MOHGouI4Zsl/atS+9EtfSdJCvXF8nDf68jz71eV9JTldORWiWydBWwd4F+aRlx+S8qOiGND/2tNC9DJ719e3818eFYf2SUuH/vBml84JHS9R0n021VW3mtWHGWq6bBSJqwp2uWBQ23o6lkMzXRk6bUll5UoFSK+TvzpEiZO5pEj4UGJhL66ivVBbtQPTVh5EX5+fnyr3/9S/Bn5kWslHhmVKp89EVrqZ1VonT3avNGpQHdEY3TETIvUAk3K+v2CicDtNGUHaHZaURZNmvWLCQeIgwOkiuC2KAmWmKlAqpE6inFsTUik03hCBB6gTdcWj/gmmk3bA5yZDPc7dwmNrhF+DaFsfCQKW4n0cWZ3ZzzfjyvO3bsaK0JjCZPPWiOJo0zLs8XbtWK9XE4E1bi9bcWvF9++WXEza5HyhEniDIiK6q1N0zt+80vi3jqm81ywq1aiWVVsZl/vM8THry8qFatWkW9nRU+JVitiu7ZSX77xDnjco2O102ccIsbS1j37t1tMifdsxdRl/ICr1eZiRput7Sp7FoqXXWBUuseVWOOY4w71HX79u0l3KxbsYobSKfSYz7MTF+SqncLJAznzcioKbnZnygnfHWtxX+YWxadyFf6vfG+b6Bpy96ys+5DkppW6p4II6HClNlSsrFU1eeb+Ft+U4tDHB977DG5/fbbfVuEKV2dRkesTDnYFbwd2qbGtJUVtg04lIiFigpPKHa7QnXRrZQivYY1cj56ZK1yI9VLJk/+wjPLIwd3SUnhOjVBUVdNs2aqaUS1m3zxFjXwUrMtSfJsAdRjfOgafEzfhnt3OEjEh5km0rJyWOehw2M9ZmSkSL8+KS5bWbnnGALeIRekyp3X54pzE8FnXs1RuxTa1WfIX+asGuaQeMyJZeXpoSMpMuvro2qkrawwAtRD2rQJXLieTJqpPFsOzlSGOXoHRSVrpAxRcrJrdCsQ10NdunTxjuC4w8uZPXt22NG4I1nCXyLHmy4IwhkHOeV+rOFwWRsPOq1rmtx1wx7XTQT/+166HDgYqgK0gReD4N/ckxtw7qsr1V4B6Ic35sr+g/ZdMJlRM4HKOUvbqwJ16NAh4mqiRgK81Y0QAcKpxyrimRvUT5HvX5tvAy7lYoZ73+07VG/aTJ57RTElB9nAO/CcIyHA1fE7n6LseS/ap7ZwDU67Al42y8ZWc8qUKWV2PPHJJ59YW9rrMiM9Pv/885FG9Y3n1QXynE5Zzzej5E1bC9SvX1+YfEHzc+mll8q8efMsb/o60tk9U2TEJd4LCr4zbIe88kGrkP2HbeDt0sFbRUNBZ/TA3jcIXsJYlYBhN8YX6E7xAhgLZdWqLYV2IzdbNi3bqK9HUa062YHwzKxa0rRVWzlxrCAQZp6k1kgX0mXXa2AG+55/8803rvcj8eTumjAZaHnOBydXX321jBo1ylp1M3ny5IDX+55d1HjHh9q2FOXDLEW5HLOLDjbw+qS3bjH7aBIy77333msJ/nCta665xtJBfvTRR2Y033MNrDy1nKeGAmM42qbi1c4uXdazcfVSycwyZWT31Lkb1sqRQ8rgIUmV0gKMg/DjDF5uuOEGS842lwTZR1KRV9EG3pVrG8k5vRzm6kZeXy/Xg6LSQLpTOO3ZZ58t06ZNswKjtYc9pVsvwWCkqMhuLGIUG3Laok0HiwMvnjNV9svukPvJgMRqAcxl2Wina9eu1pho7dq1ljpU13LJSpT63rQpV2TpagfnVNFt4J0yN0upKkQ6tA3NaMU6Zc87ke43+J0AXtYkua1LCs3BPYSVvBtWfaOsiNy7frdU6Rk1pNvpZ0uH7qdLvYaNQ6yknGmQV1ctme8MTl5XUAt07tzZWqxAccyWMqPIDlLgB5q/RNRu79lyzVD33vGdCc3kkMvydzt4ZxdLakqOpSpjJxZNazaI/OuNVjJlThC4+l48j8ymmcTiTsgZviV3qxUOiJd/PSvs6uEuPdUXGSGh+0xSfFuA8QKDenNxrjkA3re/WF5+t56kpRapRb5HAoXvVELAq2Oaq8EamoYwnJdUk/GTuqW1tMspkew6SgldmCILlvpv5hYorYwnbMzSo0cP2bHuBWEp/L49pV9izZrrpWGLiyWnrRJP5myT115/I6Skvn37hoTpgPzD/gMCHQ/g9uzZU18GjqjKTJVg4EYVPwFAsboB4NFxhRoJYU46btw46+cVf9maYvm/R+vLhxMbKRVZsRxTTke270o5ufwnFLjkY+O8OmMcPKzfoq/cE+q75XHMaddPGtbaIvUOTjmZ/UHZ1fgKKcJCWba5Fok85VzYR8Q333xTeScOBW8022np7s214CoaiOnnddddZxmIA+KWLVvKyy+/LE2aNJGRI0eK1rrQ62FIzgrtO+64w5qE4pFPOeUU+cc//hHx7BrgDUdFqmOfNlfb84bHnSt4wxVS3vdLkIVS7UppGjhePsbY7JBfpMQo2Tm7FGnaRI5nqv9oXxxK08uY4ZzrcJbo66lgeqnK/qgTCrw4F+F3/dBDslXtQbBtQ+mrr99IJLvZ6zJ11k7J3eHum4xGZ3qTlwDpRi7NIfnv1QJeuzO5OX8hj7p17Xp+r3wrIjyhwKuXijwcWOqktNMBmhs4Y6BmUsN6xXJ+r13KgnK+EvpL7x0+sE4+n1UKZDNu8jzYAhiX68Ew2y1ooqdp166ddek0UMd+BUKvX9mUUOB1WuprJx/O8CLHOq3aatatVtMbA0bacN3U2sr/QzoDOy1DVXZTJ8uPdwskFHjxvIPh+fjx4wVOoFdB6F0zcafKNkivvva6rR0OHtgvLQ4PVhqK2lJQdLbajmOKqAGrrF93gSxasl46n3amLT77xkVDiCLVcZsuazDr0hDmEnXzNrrZRKIQ8GZlpshVF5fIuWcclPY5B9Vm2dkyb0ldmT5PJG+H/wiwT58+Ma8uNRsFcDFTp11Hcf6DH/zA1wIqTfViteSw+mkNRWmObrIvXaWbSsysg3mOPD1q1CgzKK7nc+fOlUmTJll5fu973wso9ONaCJmpjxDH1bTJFuXR00nc2638p/EzifDDyi3VN2qmzCTCNaWklH1RTn/lF3rAOUele6c9yj8vXnKay4TpGbJauWNwIxt469ROkfvvOCa3Xxuccu3V9aA18/Hq6Abyu7/jbSWYDSNR09viFVdcYbk51RwzGDO6MwZezskC7E71YCy63BI/NvKjNk1kBF9e8uTRwwelxxnniaXNiXOzAOSdW2PP9IbLRf58f67SdATzuPDs7XLR+SJ/+meOzF1kAO9kFBt4rx5SYgNuMBuRW0fsVXtkZcl/jYUSgBcfZZpwKt22bdtAd6/DIz0yA8OPETAKcK2KYTElesfVq1eXqxYB3a85cNH1tmRo9axw4PImdKrlRWuWLiivrMuUL4boN165xQZcnWHPrsrF6bADagpZbcfgwK8NvP3PCY44dWLzOGJIngJvUAPAy8SWFgshrRvUgDPTRXrutVs8gPr73/8eyMapbQjciMNJpLNGcSjKM4smzVtLljIhjLYt6yo7j/177V2+ZyGVdAO7hjVr1th6l97diqSnz8KWay89IH8fVVe25NnRawNv88b+nKVdK/sTs57pmWeesYwsmD799a9/bVkPJcpqiubNm8mF9XNk+15vQ2f7EyXGVdtO3WTr5nVq+wEl+EVBu7ZvVVselKHvjqKsaKJi1zBs2DArCcv2EQt//vOfBwCc0yL8c7ZSjoy25NlLtYF3264MOc3HMHjNRntirlBnDR482KoQs1b9+/eXjz/+ODRiBCHa8YaOunt3qeztDN+3374yGHn4YO1rpLDmQCXoH7N6gbQStT1B1g45UhC+YXR5iXI8euSQte9GddkNCNuGAQMGWC6z0BP/97//DQCXNt+zLzjwc3sHR5XB4dHjoXds4J27uLEM6eduO0DSKbPtfryQBQHvk08+Kffff78ljz7xxBOhpUQYcuONN1qGOeuXPCeHDh6QfftKu8Ds2oXSoEkn6dLjImWYsz3EMCdD9QD70u+WWjVrK4P2UomfxYE1arylSq564I2wuapMtM2bN1s9MkuAcOinmZJ+gC/npcueG0rXrOkw8zhrQYYsXmYXGbhvA++UWenS7ZS6gozhJOwtP/o8QwUHM4H9o5uFAG+8qEuPAdK49jrJPjD7ZJaqO2z6sJwoQKwJ9YBzTMncS5d8Iad27xXQSJwoKrB6hNffjHxVBxwc21MnIXvilj5JsbcAjA79PT8nLV9bLP95u4X84gfb1Ayp/e7K9co/74SmKjBUTWsD7zrloe+hp7Nl7Wa13uji7dK0ici6TaUcd4wCrlNgthcTvyvcnRZJlj3D4kw12ndfmbz3QJraryBVjp4wV3rUsqeP4AqthhsxMI128OSWTzLMuwVeeCNF4StHLr9ot1x8XoHgF/rDzxoo4NaRxSvcx2I28JL1kaMl1n5r/3o9qFUoLTLIcb2rULY7KOv5jbjoiBzZvVfmqw8HaqAWcGQdeF2mf1Ugm/Lg/u7kt2OQmSJaqzJtWVWvXunaOTOvspz7+SQrS75VNe0nU4rlkykNHdV3By6RQsDrSFnulxk1akrbzt2tpTy7Dhy1yvvPhxjU8BBDjfK14XOhtXkg6jI4Ylp6hqQr87zXDK/bRiLrtFOPM6xjitLVpmeky3bDCMUZ1+06RVKkQcMGaj8w3E/F7yOurWxka6jnOKo2DeQZNGm1o75OHt1boNLBu2FlbLLkrrxNahDXQgBmIa6ifEjPzB1Rg8Aup50VGwDV95SmwB8qefkUHMEtPtMirLANKo5iMaqR7Ft3GjfwMtiJZQaqLEp10m6M4pWtXb4oitjJqIneAmUGL7YNrD3DbJEFk0xamGvyE70Bqlr9EJdaqd3ro3EVwE49h/bvlT1qP4rqRGUCL5vfjRgxwlrLlJeXJ1hE4dYn1kmKWBuW3d9ZBh/thtiZ7J6zcqns2HpyZBhrBSowXd36DaRO3frKCCbyOmdkZknrUzp/O8CrNgGS5k1TpFnjFDVzJsLKTjdiYIGogCEN6/ExntGW9m7xyzNs764dahunZVEV0Vy5gtLycFQJKznyoQP7ZNf2XM9a6NURRKA3ZIurulG4vPLMuAJusIl2HaXlPHosRfYdLJY9e71HGSGc97wz0+S6oXvlarWODNqvVp/PWpgpH37aWCZ+aQexNsi59dZbZerUqdbq3eeee64CHjG0CJTgp57aQy644AJrwSAGNuz/haUbxBSzXh6P4zeWHK1atzk0oyoWgvpu+PDhVq21cTnXp512mjCz9eijj1aJJ+p8SppcPaRALj5/l3RsV1pl9mEbN6WVvD7aHcA28PbqliZ/+NkW6dQ++Lz1lN7+0v4F0rp5rmzdnmPjwqiNmKeGMMbB0V40S8p1KTVqZgpTvJHQYaUx8COMzPmommbNkCGnLZS0Y8Hp7qKaK6V287tlz7GevnuC+eXPPb1JN+u79IJEytR7RdAuprrLvDbjmend9jwOVw/us96MRQBbtmwJ+IxbsWKFtTqaVb/t2rWTfQcUB0pwum3EQbn5qn22WuL4pm/vrap3bCmvfWi7ZV3YwHvphQU24JrRT1Wzpt8ZflQZpNcMBNNwt912m3VN98ugbcGCBdYGyYFIEZzknNLF6taOKGNpP8K10/pVSyOynKpZ9zzJSs2Vekc/CGS5L/M8Sa1zlqQcV3JRGQjOjbE8HyzLwXHcAZfDyg5OiPyP9gVuzzw+ohVL54mP0Tm+Edgwm2vOMT6PBby0P+MObS5KXpSNqKCN2/UHVYbHLfekODQfMcQOXLPQywflyWfTc2TnbnvPbwNv3zN2mWlCzkcM2aPAG5x5o9HxjE53jEt/Nph74403QtKFC8D0b8v6lWpAEWq3YKZto0AeKSFGpKXb9b/p6QVSWFykDIgcE+g+mbIEHFCaBPfkByABJpv4aW7MuZ5m5pwPmh/ncGPicQ6RXp+3aNHCLMKy0tvjWI5ji3DygvL5QVp+J11ZPOGczDpuB+qFQxg9HpoxY0ZAnKOQ7p1OSG2f2fxzeqnerl6KAq+9Sjbw1ghO8thjnbxSW0XYCO7y+9//3uIeVIjlPwzcMDaOlXjRbqRXErvdM8PY9AO687oacnj/QtlzUmpQ7n8lM3uxZNX7r/z3/cg9Upp5J89ja4GhQ4fKgAEDrF6Z9/vTn/7UMujSy50ya9g5qlsptTJD5V4beBctbyDdO+51S2uFfT7LbizDF8VXzo8ukh+WZmUBL9ZpbRwbUbBiOBJTS9Py6yeBibtgT1H6YMGlMC2Vq9QklX8L6H0r6A2R/xG5EGc0eNdt9uea69W4+sDBUFHPBt4pc2rLjVe4g5f9iMdOaqSe1P6V6K5KN4HzWodXxJHBGt0vjQSxfEj73KJH6NatmxVOHfnIqoO2wXogxx+bJzqdhTiiVOgl6xIRpRAbMEbC/luLS1Rk/LQUueKiVOl/lh1bupITZzQWLB6dZAMvqrDfPNVKrh++Va2oCEbNU6LoS++3CFGVITawVy57SUBsUoLDO+1oOphDxZ3hOt6SSbf/Qznm2y7X9ss9WXiupGXuksbNekpJve/L22+/XXGVqqCSNOMAvAwq+UC3bTspN1VQHbyKQZXKz40OK9+7/3u/peLKuWrpezAGatqxkxoqNW2mCgwFtg28JEOntmh5jpzWuVhaNi2U3fvSZcb8NFfko4oBwHxZcDlctjP6jpX6nCbSsWWu1EhXbF71EkcP75WdmyeojTSujCpLXmLHnvdI2qHXpF7B6kDafZntRerdKrv3hx+wIZsxuNJcPJBJBZ4AQtrVrw6MBZjZZLzx1ltvWbVDx2vqeZmkSHT6YpZyVP51SxnaP0W51y20JilWr08/6RM6FLg8Twh4CVy6qlj9zNuhLJu7jHLplhm00YjIMZHIpqR1o0aN20pGvYulhgIOH0YNpS2oWVepULQ1pFsilzBedqFay5aRWtN2NzUtS61xO66+cH8ZSydq2rSpJc8jp1U08QFSPuD1Iu29cdSoUVYUrXWgV3HrWZhWbtupuxxTJpjxpppqCnrTmuXC7F+shGg6ZhIin17T5t/uruCNpnBG9yjqGWShX2TtWKyUu3mpNDs0SIqUc2xLbFXPsWZrmrzyquKYEdKnn35qDQq+OyxV6VJXy9780oSqg5CMwuVyPGu2fPpZZNoGPPXQs/CraOIDpPxwhK7YSc41Yvp+Wnq65SZ2R+4GHRS3Y+sO3WwTM3HL2CejMoOXvBkcsGlGWamkpEhQzZqVIixSQtugNQ5jx+pUpraBfS/e0zfUNldVU9uQqSYmsuvVDzxHuJMaasckZjEhuO7B/bFzR6+yyoObe5Wlw02c6LAqe0TbgLdvBipMl+JLghkniJmv8847z+LKjHq/+OKLsNoGNBSoAStLbMBbuXOpEMvhMYtslhN5b8RqlV3bcm3vFc9GeEc3aebMmZaogtdzk1hehbaAvfZMwpdyZVK1Ai8NiZyo7QfQL2qZEUMdBjXYH+sZsHANT3q6b9NOIVyaeN2nXK0fNfNEplymNpGJhZheN8n0M0c7AV7okksuCUSjV9VrA88///xAODraygZv+GF3oLqVd+KctIikJozUmdoFBPrHNeDWKqVw+SC/VwbX1fUqy/hB51Gdj77gZQ19pn3AXs5tofY/UIqA41kpUlBDpECdp6SkycCBA6MuF+2HG8eEKwPmSAi7WKddQyTp4hGHD4zyy5NoI0xDtUd6XRZaDCzT+Dk/Xj2uQDSrbAoRGzq0UXaVlxyXSy7YYVmYLVohMndhI+UnNUsWungtMR8A45x3333XDIrqPKeN2saqzmOWpRSNRgM1avOR7N4SWTaIBQ899JAVuVevXpaCXs80sZvNwoULLdFBz7qlZ7r7adClYemF+ilSTq3TxePIBxaLpVm0ZWN95vZ8WL25kZ7SdbtXlrBGDVPk0gtFBp27U87tfUJNHYtMmlFPJkzLtrZXc8vbBt62LVPlNz/eJoP7BlVJp6sZ1dO77ZEO7WrIr/+m9I67gro3TPKwKtPEQIh9ZmPds2zXjg1SePhrpdNqLmmK82SUFKgVHamSt88fZLp8U0bUzpr1Pbpg5DqTy7Rs458v3tABvdNXsM6zvI/l7Y1948aNln6e5+Aj5zkBshmO2o1w1IVolDTHxcifns3JmWNtk1uuLJT7vmfotLNErhu2X4YP2i/3/zlH+XMI4k6XYQPvZRedsAFXR+J40XnHZdmVx+Spl1RffpKouAlUzt30jjp+uOPCFemyRnnraSNaDVRPJWmmfuvCJbXuu3EQLSK43QuXKa6fKlPbQPm6lwhX12jv5yrP6AzETA6rZxSdH74292SxgUl6EkW3sXkvmnNW73xnWKlWyJmultLwXX1Jnkyf30LNtNrFPRt4+/UxkO/MRV2PGLJLgTeoNwW8OHyGMMbG0TRfbVkIrYDJHaPJiynRH/3oR5a2gRfDMiDd9WLfiijBEftjZqDCGeZU5oANQFTEgK0sEzDx4ro9uxZKq+beb/qi84ulaaMUf/DWCzMF3kgzxJPl0G1gm/naa69Z3c3IkSMtR2roUGMlls7Hg9iJniVJuuulW+R34YVKsIqAGLTwIWLgUlmDtrIyggges0KiYO/CniL0fi+88IL8+Mc/lqeffjpgEtmwXlBM9aoQ2MNvnkk2bcOaDT7m7CoVu3ObhC0DXy679GCHC1i8jMnNdBVxTlfn3LWSbg4wRkLI8+yDXFnLaHjRlF8dCIYBM4B5/PKXv7TMVk1NUO62oCjq9rw79yjzFherAxt4Z3zl/2InTGtlyxt5CXNI9Kdj1XwsRuhTpkyxxYnkAj9dzVufIu27nOb7a9zCPiPkljfdLT8+JG2oouMx2GDGKlIZjfiRxtVlxOtIuXpwFK88Kysf1GvI72AEE03nEiU2e1y+1rt2U+dkq/thBmyT56TIP15pIjdduUsaOnD8wpuN5WMXaUBvuepddPg7uetXSQvlQ6G1WqN2/Bj2B6EEJzyA1xcft/U00t13320lZpKCl2/KjZ999plla6xtXP1sG9CB4tHbbQ1baO3KJ4TyqwMxOHzssccsA3TEBoBsqtzYIu2/77WUH96UJ6e0sT/x5zNT5YPPGLiHAW++cvDwN6VNWLamlfQ/+4i0aLpfLXevK1Pn1VFe0ZWZYaF9tGcvJvYrAHtof75sXrdKNq9d7ppR7ey6ys1RZ9d7boHofJ0EICMlxB8M7eHg8RqYRFq2jofYwOC1sri/rkc8jtrGhLz0IN/M973xIt+sbC3DBx6TXt13Kv+8GTJzQWNliJ6qlgCFApe0Nm2DzmzCtBKlHFaKtoCDZ/fEOn68j7w0c0qYzQQ3bckNWwyGOSz246tGxQUnRgsC4dVHG+Zg8IKP3nDaBlMuC1t4OURwKz81NU1atFXWcNHYGKuBNR4yi4vDD4zK4TEiznKl2ixwpTJAFwlqtNw8ousMXcGrb1bm8aqrrrJGp3CdaDQQLEViCpjuHgBr21bC0DwMGjTIsj8GvH4El0bHWplig5uOt36jxtKwcTPlq6z0o/R7Bn0vQw2s23bsKhtW281W6VHKMsA2dcS6rIo8JiR4caTBbA6cx5w1i6Zh0DRovwo6Hdc45ohkIMRLxWwQvXNlddvIhgyCneUf2JcvO/JK9UaYeuqlV7prpmfRRBjLgOpkIzcGiTyZcdTcHXUgWiM/wi8HWgNNzgGxDq+oY0KCl43mcFKBumjixIkxtQUNazY0mQBawpxg8CoANRkDvkjje+UTSzjPHqma7ne/+521iuXxxx+3imIRqrmGza18uK4eA6DupM3ZhsyPkP+xD0kUSkjw4iJ18uTJ1kAJrrJ27VphwBaOABpr6HjxvAxGuVrbgA0vgx+mryMZxfNysaqCs1WGbQMfDOX7ERoYxJpXX33V+jDhuPRUs2fPtkCG7I9Bff6+0KVCzny///3vB2yfnff0NYb+SfDq1vA48uJiGeHjnEQTgDcJBTlrwhYtWhQI9lOVaVVOZXBdXUFdB33tdsQqTHvC5KOFtPjAuRYLOK9u5Mp527VOU/uxFSuLrmLZfyBVvvwqRW0V5a5x4Ms3icYsqyDPgk794nghDMK279xlFuN6jrYB9RbA54eWQnMvnJFg2wDBsbB5CKdtcC0kGViuLTD4/FRppXB3VGk1N6rFt/MXe69hDAHvNZemyHeHbxGcm2lavV7klTGhflIZ1Pz5z38OAA3ZCc7273//WyeN6Xj66adbbjsBMD4hNkZh7MMSFjQL8+bNs7pUc50W3JdB0Jlnnum6NDymylajRKgT/UiLYH5xYr13fp9UufnKnTLkguOSnlaayzZlJzZ2cmN58+NM2ZQbyjxt4B1wbqr85Re5kmELFel8itrh8vtb1SZvrWXa3OCXQJfKIOgnP/mJVRpqKO0JMNaHIB0jfEa/TCOi740GvKSHW/fr18+S/TTnJRyZkEWEsYgkpK/OBOPh50dl7VG98q6RkSIjr9mhtg5WFugGtVDWsHffuFsKjjeVp192gFLFs4UMPu9wCHB1Xg2UpmXExfkKvOrkJAFcgHLXXXdZRuhwvVmzYlscqPPkiApH6x+7dOki06dPN2+HPeejcmoaSERd3cL9MoSL8zMJsUPnxQvX58iX/LQKiXvmuRZnSE8duafPo62XWZ9ozjNq1pRate1G+Klqvdfjf/lrRNk40+pErFD2InpSnhfDfnaAx1x1woQJgejDB6WEADdwU50M7b9TxnyWIxsc3NcG3jNP3WumCTkfNvCw3PunIHiJ8Le//c1yK89GKqyiiMdmKtjh3nfffbbyI9E2kOCDDz6wGgrxgCliDR40Blyj+HebnrQVZly4dZX4YwOw5IMumA9t40nzSbQaDJgI0xMlqKSQuXEux8RJ69atLTUVMjn15MVGogExqhU4pR7aUo68Ibp/ykfscurJM7NqSWs1YRErtc5u4JrUD7y0Ec9Iz4xLKrQWMCTdtp3b+U/bd1U9f3Z26WDULNwGXjXG8SXFKGwEIO655x558cUXrUHanXfeaXU9ldUt68WBVNK5GoAwtA2o4DT5aRt0HLejCTQ90iceqjmTTOCYK0xMUcY8N9NGcg63BgBOPS8LVk09r/ZVtj9/tyyeMy2SrOMahx6aHd8RBenF+LDM3uyEA1duhR+3SxRWFBt45yxsrLxDOtxPGzmNnmgX6Oki6QowSMdtJZwNXwBml2AkD3vaVJk8mtuYmgnwX5aR4d01NW7eStieNRqq16CRbNusRqNVmPgoXnnlFaFr1oTLK9SGaF4SgcADk03McNILPfLII4EekfqtXFtDTqiJO+dYS9d9obLVcjPOsYH3sy+zZNgAcV2SgYPf9z/FWN3OnqkMrvwffPBBq0KxrqLApT/u/f2IrseN9u3ZJauX+NsquKXbo7aDKssOnG55VkYY4wxzrIGO26nnrox66TIRjVgiZtKYMWMCA+fxU0tk8Hl15dpLD5hRAufjprQQzCadZAPv/CVF8tDTOWrV5h61DPmoFZdtcWd9nSLvfNJSFiy1A5fu4Nlnn5WNSt6jK4UTm06DnYV5Xf/lL3+xLbXBjyvyGjISHwXd4y233GLJmOwK70bVAYRuz+UW1qJ1OzXoCrNmy0iYrrrrwkJ/xmBEj/spuGCghtpTE7K6Sa+MridHjqarrazyBS0DtFiZM4/7orm89LY9buldh7aBwMnKT+rcxQ3l2VFqE8EmykeuGmjPWQhoQ5EPJwS4kBa+rYso/zDEYYCmB1ckv+aaayyDE3z+skYOtRkyU2UTspvujpHbkPed9MMf/tCmdnr55ZdDJm60elGn/cc//qFPfY/5arPERXOm+saJ9CY+yWh33h1gQjfOgDcSwg6CgbUeJPqlgbGNGzfO+nnFW7KiSJasyJR3xudIfWUJUKA2Edy5p0Q2b7UzTDO9jfPqG4eUp+rla/npkPI90nAYk+iBHpwXYkSKgU64pUWM5H/zm99YafiDO7Ollp/6iREwGw7qZd0fffRRxEZAugvEysqLdByv+5SvfaahGoyGCo64LOiKJoOTcVHTMaj84x//aDEGelHkZcCMhRmqPp4RJoWNB++Ca3rcYcOGWVoNuv9ICPBGQviGjpRcwRtp4njFo3GYrtXg1RwYeRquCydDreRH2niGgQochGlqP/DCDYhz8803+2Vru4fqC1nyqaeessK9rL5YJ2fWl0GtU8GPZkKv5cJaCyD51ddWkThe8Ex4OsJUlMEfwL333nstbQDPB2Dfe+89a+EkOz6h2UA9CsMJN6kRx2q6ZpUQ4KVmcFcNWrOmfOnIvqh+IvHngHwFZ9C2EWZe5jn3YxnUMPunCcA5CTUQPYaeWHETdeC4plsswF1ZBIPgQ6P7xxKPGU16Ba1nZ4NCeihUj+PHj7feEVyZ+KgmK5NCW78SasNXzKBNE92+CWRsJbStqo7jd4yUgwH0spBXOU6tCAAxifvOOOb9ijznY9SD4LPOOssCLuXTNnx4fOT0UNrgne3KYCJoECqbEgK8zsGLs1HozpgM8SO2FIDcFl76pdO+Z/3iVOd72PvCOBAB6IkQuQAoBlcQ3Jbxw69+9StL3YVohyjHoPW73/2u/OlPf6q05kl5+OGHS/7zn/9UG7tPuDgvxOTcfq2rl8H7xdH3kA9NMQDTTabETUJsMK2zuEaeN2fYEBP0YI20nDNT58XJzfwr6hwNEFzXrBP1NFWhPJuzV6mI+qHlYXDpynnT01OkZTOlKmvMZntK36bUGG5E14I8ahLyU1l2wDTziubcnFs/qLrC9PSMkA+yUO0EpAkOgmxc3chsB69nO3HcLsa4xUNUcJIJXO6VB3BxsZtdp0QNGFMk/4DyDu/YLNusUwh4+52VKtcNzZerhpT6Zz2kDrMWZMgHE5rJp9PtagxG+Ndee23Akh+OQ/ddGeBt07G71GvYyHWbJoBccPSIrFo8z3z2anl+SrdegvGN16QECzFXqdlIZiUTibp1wC90gZqkyJP2bUprNm+xmqSY0lJe8VA928B7evdU+eO9uTavJXXUjDB2ljnNc5UDkhz5ZnUQwHAvumeWpvMVovujy64MKlG7ua9bvkgwPnFSZq3a0r7zqc7gMl+j+4yE6F4rilKV2AQ4vXTBuNRKRLr16kMhWwef3Uvk7F55ypa1hbzyfugsmw28Q/sfswHXfMjuHUW+M/yIAm9mIBiZiK7kD3/4g2VRhang66+/Hrgf7gRVEx4DkVP1CFyPws0j53o393B5lud91EPMsOFTAkKNxwDHSUyaaJkWmdHNBJPZLVPVZlqnOfOL9ZrlU6i5NJnqOR3mdcQp4U033WTdNt+Nfi/c4BwG9vzzz3tlY4VfccUVFmMzI2HMpcW2S/qnqp7e2xz38oHb5NNpOTbH5uRlA+/5Z/h3JVcNyVe2Dy3NOshLL71keTPkZaELZOVqNGT6GPBK55S1vOIRjrrnjjvusKLQG9BIFUmUiWJfr5ejbK0z1fVAPTVixIgAwJlhK6/9mvESpAEXDXipKx9hONp40jzALx6zl0wn//rXvw5E08AloFvHE4ITaS86q6eyUa6bosBrj2EDrxINfamG4z4DNhzboTphlgiVF+vEYrUs8y08wptwce0J0mygCJOHjYannXDedgBJOKBEo7cOWymPCDderlZsHJ6m1GAZsmnDao9YFRPMZEefPn2sCRHnzp6ZNYKiqFdtatYMta2xgXfhsobSvWO+V3qZNBOTyCAxfYh+kBkXfubynWCsij27/YbuUrtRK9Ulqz0UvvaQ9MtQJe0+yi+LeMXxKyOSeyeO7ZOmdZSBihIXv1Z7S1QWIU4y5Yy6kMkO/MeZe1Sv3VTDt2o4lT54KIzM+8XsLOXe1D2fI0pzMmYSy9yDajPm6/HPiyE0vlfRg4YzonHPPX6hm5b+WS7o82dJVR/q7Fney12oK0vlEVvoQZjcwMVUNHrf+NXaPyfkTyYFmLpFw4MxDTYc4aa38zYtlPrdF1qZ5+9prewrgu/Ov8T43mUxLCtYsJHAEIoJEJie1sWPnypy+WCRAee4l/vZl01k3ebQuts47+czS+RXf20pN1yWJz27BTPaogZ8//2gpXw+IzSDePjnDZZU9rMipcKsVajzCe1quANor7zyyoBpo47N2jOspPR0qQ6vzGO7du2EAQ/L9U2i62X2C2MZL1LjqYQggNpe7Sl3/fXXB+rDYFWD98jREhn1QY4a/G2XQcZOVHuVo58xkxor/7xoa0JFCxt4yfnNj0QWLG8tp3UuUkbBxcpVUJp8OT/Fdd18oCYJdKK0YgGqrWyAVYcTuOYE7mXa5Jo34cKo+xgg+hkBMUOmBzNap61NIOHezMLBzSG9VktboOlrZHNID6asC8cfakdMRc3Bn47CPaZn0WZ4TXE3btpAbca4V9Q+jJLTuqOyYtuik1foEV8eMAytgXEzV50yu1hmfNVMrRRW76hVobLnTZU1G9Jk+jxAGwpcHiAEvASuXKv8pFq2vLwAPt/y+4T9Xh51iZYatr5WdmSfq9ZDpcqpPVfJuMkf27LAbwPWU14Ep2OPXT/wkva3v/2tZRqo8xk5cqSlMQC8EMZETGHq1QPIfIwJ/ve//1n3kfnYGoqRuBfxQbgBV8dnepqNY7zAW7/pYNld4yJro+3W7ZapZNGBN17vhp4skt7sxIkS+fj/2zu3GK2uKgCvuUhlROlAOzMMFEmr0rRKCuKFgtJCIU1xUjWO8ZIGqEZjaIIv8kbCQx9MSJ+kwYdK0DaR1spQ01KlaiEtWJWKpJekjg3QQodOKTIYbrUM7u/Qxb/PPvtc/vt/5p+V/P+57MvZZ+911l573fafeDvztQXgR9oPEv3Iq4mVPmLwYQPUKWna07xIDeyydCqLIqVemo/jm8cuyNXTOuTipTazq3mPnRScK4WMJFg3ML+Ez7S9f63kmp1mCeBCXAuiArmeyzTy4YFheWDRZ4N+mjmbD/YJb9vpT/rX7k8UK1nGhlnKHhsekGXB6m1IkTe9lLfIOgImnBfQKTSuPIsNV65rB4WLK8d9bEwVkhZVe/aboB8fvuzWMjpq8RAfFIaypkG9IkO67cqirYSFidPggUQrV650q/VeQ8VtgyIylTI2thG+90EVvFk28iLbZRqGOkJJ2Tgj60uX+h42hXDryCKHdcv4rtEe1huytiHOQAbZ+1iGspCXL5VpCwRm4YA7CQsetG61BsIYTZ7S5Y3tQFh7jFUAeFB35e62FTGULqzctFpeIwqzZxzfs5GZluP86qszL/fKQl61UcWqHp8wjmmyx2p1zNCRQzKlu0cmTvpo5BFtRixz9NBgcB97hDTkxV4BTWG9gcXf0qVLE5uBK45uUUvGNqMmvf7GOSYGht/cs9PsZ/GfE8cT68xLohd5iRa5YO55Y9N7ToaGO2TP366SvfujKz/kdJs3bw4WDPC7DHhW1+lKd9DpUyeEXxqAmIjLCAoIq8PUzI+Zgx/hl4q1z0h7ZqnpiJQGBgYCew0UQvbqH9EbG8S4hkGHXkv2Kzt2eFDOmJ2BqgVJLF3aM2dObzVBby7KzZ88bawU2+XvL02SgT+Y7RiMFMIHEeS9b+VF+W7fWwZxNfsZ+d43RR585FrZ9MsJoYoQNCMzBZDjAWhTqq1lK6eDQFCCAWJsTSh7F9hGC0upYqzj3DoqcY2sePXq1cH2W+qeb9dLwDo2RcSOw4ZqIqb9nEqf372sRX7wraPy6U8Vau6/a8TsBzhRtjw2VV50At6QK4S8X13eKj/5vlGnOUCw37Ur3zGKiuny298XEhlkAk8g0mEVj966WB+yQm21O4NH9G0TpS2Ad0dMRnwtFqF8LBzVflnzVeoIEcANnufos4i6uWLFithH0H4XcWMz1zmBd8LSTkV/iOBsE9Cua1rl3v4w4mqTv3L7OROd/6xB3qjZWch99sufM/q4BFhx+3AolU7HthW9O5ZkbJ5db4oVamDChaom47KgHED8R3A4ZL6cqwdtXJlS79OP1A0C4zuG6At73yTgY8oLsLEjeKJSEcxUNc4G77Bs4UW5xTJHcN9ryRdPyuwbVHFRSA31wI03hFWphWyXzxbMC4uPmIIxtoDfxZcNgwtlI9yyWa7hQfnVAtKQl5nE5jFpk3tdqXZCmVxIk5fWEnnpK8aaI7NPEvjeRZU99B/lQVxVl1PXx406OAmIXfaxqMg+zDbgr5YEIw6fj8EFXxVAo/iyoBzFAFO4etfqlwnlQVEAr+ejdr4OKuaZ5E1DXgJAu1BL5LUpk9sOrun7agPSJGTFjJE6ZKrnMwGtNeJPWjsQT2LXgGkki0zC4doOBqf+m/4uI8YZ04UQz7t3f4/ZSCVejDKwy0TeswAEILaVDWkUw85Lx2AdpTJV5S+55kfnofrM6itm1512noa8lNcQSFoXA6DGJUSvBNRAhwGxr910Yuja6RoySssHidYfrEQSVOIDTqoffhplkxIUnscPqQeeICA0GsAsCIz5KZ4jUFsoOD+b5335tXZ5+12R7qn+Fu3+q8iwx0so1ENP/vlD8oW5IgvnRSvBsuzXvwubpkEdSvUeBjmZTjjSAVBb6oOiKBXXPKTZ00y0dcXfyYK8KGFUll38E8orYceH8NVUTcqLyBMVPCJExoa+ZwwAEA/WDqRmcQ5xSWtrX19f4MeHsZIqtZD4KAuC5djjO7tkzT3hNZW+98CuGXJqJMquhJAXg9/7fzZDvn7neVlx24lAXMY2Vn/55xR56tkOeWMoXAEPBwlK8R4GKZg6dBrShnKEAsN+8KMj+dUDeXXAtG26o7xeV+oIIrrb1KaxDdXkeelvCAf2Di7bxozAj75h/KDANvL6ZgTy4rzKwh584aPg/ZSq048P75ggJ0emyZJbhwLi+b4xHX96T4fs3N0pO58N4532ewh5ufnqv0fl1U0T5P5NvSZOaqtBpEvGphd+I1oBjeAFSvEe5qVBTp2GtUHukc5TfkvTfB2kaVmPWSiv+8EwSEx/lQafWWQ9kRfWgH53Edd+bz44CA95fXJoOy8zLI6gqtnkw1Cqq/mGhkfloUdb5JEdvdLW2mI2EWRxR2qU19UyEeTVBI6nTkcR1k7nfMOGDYEGCB38li1brtivuvnca5DHRQ43D9d0UhZE85VNupelTnfx6V4n1V9Mmg9J6om89I2vTe47QYEhYGmAlpBfFjgfBPOJR1i7jkTktTPGnfMVYVTNrxhwp+Sksu5AVoLyul++7/nux5VlceKrJ+2eD1Hcd3brqCbPy9ikLRi1PWnt1HzVOJaNvKU2CnbBFpck1VONgWLhkQb4XNl+V2n5S03HGwIjedgjfhAE2KokqMQHHFc/H2mWj5vyLvJWs11ue+uGvPBJdqBmt2H2tUvxKtFBWQfHbke1zll8wT/yywrV+KD12WgTkSRkWRS6Y6N11OIY0rDV4oH2M3TnRvuee8705U7fbp5SrhsJeUtpfxbEKqVeytDnaQtp8rGAtSUN3KslxCJv59VmW9DJrTLrutgsZbeTDkIBEUdJlSJVq4OysA5lv2SVKqgm8tJkxiUJgWEXSHfZBt/r4qAANQcos379+ityYzd/97Wtxnu41exE1WpCnUbV5nb+CNtwXa+x8PnGWbML90kzbRjNhrG4++PznbLtyUneOL14xWJTigwUnynklRimZwUWK0yByPwQfkMRGRgWDVDcaiEu7QN5sy5Msr5PrfJVG3l5DxCN/rHHBmTlFzc2PkIEH2+CmMv27dsDpRbOoq6UAkTtv+uSfO2Oo1dihjzzfLvBu24hnogPQsg7Z3ab/Pje42Y3woL4o2uKBKEnu6aOyAMP9QZyYK2IrxMVIUbTLGxQDaNBKQZ5qYuOKIY18HWQtqmYY54pbzV5XrsPEQ+WKyLEvpuPjT31ON+2bZv9iOD8R9/5X0TDtmzR+zL35mPy05/3ym92RopIiCe4zSCtjbh29jsWjsrdy87btwLVKTLBjRs3Bgw+Rhd5gjwjby0ob6XGkg3VsZEG2NQbNbEtKp0/p01++G2/aviaTjEUOWpjTl0hyjvvJn8FZAQWzcfNpjc41z822ujp6QkQGS8KdzrQfI14zKKoaMR206Y8IS8OuewCqoDZrI0nC255z7Anmho9EuJ0/mfMhoYvGZ2xBaEinZOTNWrTuqyS5pTpGwdBVH9YRxERxqfqDJdqnKtxylv5sfCxdJiS2uak+A8S405tGyZ9JIyUbquMttjw2e5dh/K+OdRhLNrjjXr/dShcAcw8VmUstDBKJ+wQuu5qg6+DSnlmnpG3VjxvKf0KotpjBGFTaQP1ubPG629ctliLexYq40NHo4u2EOXd/UKn9C3xI98Zc3vHrumm/kIlkH5iNuCfBMsAX6OhLOMa0kj384y8LgI0Ur+6bQE/mJ0VkD7YcvYXX24xm/aI3OoxxaXMo09NkePGcMeFEPI+/vQlI1/rlvvueTsSZv0Xj3UZsUUBcbUiEFhtG2DCMTyOAyj04cOHQ8kYfGfZTRH7UjVgtqegUGVFXozzvIUOw0QVU0gb8CYhTEAasAOURknyjQ1GOfS1xnIGB2ye9/UjZmPCgekyc9oxmTEt/LRn9rYZO3J8gKKsRburknzwV20mtOQMmXvTBZnefU7eGp5o/Oevkhf+AeJGkdd+FDyMvoR9X8+x6XSBzoFqp8G+fftC4fTtaSmtbFx6HOUlHq4Ny5cvDzZ+se9V45wPlN3r7UB1hDhdtWpV5HGVpLz0pc8TmaDhWcYGjxjbG9sdGxZobOzCzu/I9dl8290rZOfuS3Lk2Az50ucvyidmnpUL77XIK4MdJhp/q7zzbhRxA+MhZZrt3tn13Kjseg4OWbnkKMm28+f1PA553fcpxrXJLVvMNchrI25S2Uoib9JzKpGGJzQbicMqcOzv7w94YPddXxk0oRQG0arZ3pZR3OMDYOzacXVxv5RKNDgPdeSZbWjkBZs79qyD1q5dK4SORbEFe+Iirlsm6RqcBYHb8ehkJeib0pMqGAtpWSlvI75rnigvGtd169YFiza8Kg4ePFhyl0K90caiW2ifNWtWEDMXE7gsRhYlP7UBC44jb+0GBdttwlOVCwgEkBNzDKQNa9asCQwn4LnqMR3VK7JkHNtQL0UL24FlfXatKG+9xsaH5NhYYDujO3MGyEtwOVZ/eAHDPtgyOF8llbx34MAB4VcPyDPlrQWRgVflV29A/IbzAtvRwn6oJeAVOe/ixYsFud7WrVuD/chAYtxRxjLkGXlZZCM3H6vA2PCBatQkYp2hBLOtD1tMFPCI8BYhMnFqOSqWj8VOImAG2p88AjGE3W1Q8/gecW1mkQdHwA9Wwed1c4Xy2pWwiOM31gGZY14BQ3FMDZsZQva8zdYRPlVmXvqgVgu2Ru6PpkbeRh6Y8bal90BTI2+eKW+zakVtlG5q5B1HABsV8nfe1Mibv+EqtHic5zVG7YXuaL6zcbYh32PuFZXl+5Wytx73lLxuccomL80OXiVFs3fK+Pvnoweamm3IxxCNtzKuB/4P4Ano36aj79MAAAAASUVORK5CYII=;rotation=-90;" vertex="1" parent="1">
          <mxGeometry x="205.35999999999999" y="503.5" width="75.42" height="153" as="geometry" />
        </mxCell>
        <mxCell id="s5DQ25FVZao19d8wmNkH-21" value="" style="endArrow=classic;html=1;rounded=0;exitX=1.072;exitY=0.358;exitDx=0;exitDy=0;strokeWidth=2;exitPerimeter=0;" edge="1" parent="1" source="AQmvB_hK_ORsPchkkE_o-41">
          <mxGeometry width="50" height="50" relative="1" as="geometry">
            <mxPoint x="1266" y="403" as="sourcePoint" />
            <mxPoint x="1309" y="440" as="targetPoint" />
          </mxGeometry>
        </mxCell>
        <mxCell id="s5DQ25FVZao19d8wmNkH-22" value="" style="endArrow=classic;html=1;rounded=0;strokeWidth=2;" edge="1" parent="1">
          <mxGeometry width="50" height="50" relative="1" as="geometry">
            <mxPoint x="1220" y="390" as="sourcePoint" />
            <mxPoint x="1180" y="440" as="targetPoint" />
          </mxGeometry>
        </mxCell>
        <mxCell id="s5DQ25FVZao19d8wmNkH-23" value="" style="endArrow=classic;html=1;rounded=0;exitX=-0.061;exitY=0.433;exitDx=0;exitDy=0;strokeWidth=2;exitPerimeter=0;" edge="1" parent="1" source="AQmvB_hK_ORsPchkkE_o-41">
          <mxGeometry width="50" height="50" relative="1" as="geometry">
            <mxPoint x="1080" y="250" as="sourcePoint" />
            <mxPoint x="1247" y="280" as="targetPoint" />
          </mxGeometry>
        </mxCell>
        <mxCell id="s5DQ25FVZao19d8wmNkH-24" value="&lt;b&gt;&lt;font style=&quot;font-size: 18px;&quot;&gt;Streaming&lt;/font&gt;&lt;/b&gt;" style="text;html=1;align=center;verticalAlign=middle;resizable=0;points=[];autosize=1;strokeColor=none;fillColor=none;" vertex="1" parent="1">
          <mxGeometry x="1328" y="330.25" width="110" height="40" as="geometry" />
        </mxCell>
        <mxCell id="s5DQ25FVZao19d8wmNkH-25" value="&lt;b&gt;&lt;font style=&quot;font-size: 18px;&quot;&gt;Streaming&lt;/font&gt;&lt;/b&gt;" style="text;html=1;align=center;verticalAlign=middle;resizable=0;points=[];autosize=1;strokeColor=none;fillColor=none;" vertex="1" parent="1">
          <mxGeometry x="1029" y="320" width="110" height="40" as="geometry" />
        </mxCell>
        <mxCell id="s5DQ25FVZao19d8wmNkH-26" value="" style="endArrow=classic;html=1;rounded=0;strokeWidth=2;entryX=0;entryY=0.5;entryDx=0;entryDy=0;exitX=1;exitY=0.5;exitDx=0;exitDy=0;" edge="1" parent="1" source="AQmvB_hK_ORsPchkkE_o-38" target="AQmvB_hK_ORsPchkkE_o-45">
          <mxGeometry width="50" height="50" relative="1" as="geometry">
            <mxPoint x="1590" y="341.25" as="sourcePoint" />
            <mxPoint x="1590" y="306.25" as="targetPoint" />
          </mxGeometry>
        </mxCell>
        <mxCell id="s5DQ25FVZao19d8wmNkH-27" value="" style="endArrow=classic;html=1;rounded=0;strokeWidth=2;entryX=-0.033;entryY=0.592;entryDx=0;entryDy=0;exitX=1;exitY=0.5;exitDx=0;exitDy=0;entryPerimeter=0;" edge="1" parent="1" target="AQmvB_hK_ORsPchkkE_o-48">
          <mxGeometry width="50" height="50" relative="1" as="geometry">
            <mxPoint x="1565" y="385" as="sourcePoint" />
            <mxPoint x="1650" y="277" as="targetPoint" />
          </mxGeometry>
        </mxCell>
        <mxCell id="s5DQ25FVZao19d8wmNkH-28" value="" style="endArrow=classic;html=1;rounded=0;strokeWidth=2;entryX=0.5;entryY=0;entryDx=0;entryDy=0;exitX=0.5;exitY=1;exitDx=0;exitDy=0;" edge="1" parent="1" source="AQmvB_hK_ORsPchkkE_o-38" target="wYebdBgnLxdCCM2Bcpz7-1">
          <mxGeometry width="50" height="50" relative="1" as="geometry">
            <mxPoint x="1575" y="395" as="sourcePoint" />
            <mxPoint x="1651" y="407" as="targetPoint" />
          </mxGeometry>
        </mxCell>
        <mxCell id="s5DQ25FVZao19d8wmNkH-31" value="" style="swimlane;startSize=0;fillStyle=dots;strokeWidth=2;dashed=1;" vertex="1" parent="1">
          <mxGeometry x="1100" y="100" width="700" height="440" as="geometry" />
        </mxCell>
        <mxCell id="s5DQ25FVZao19d8wmNkH-36" value="" style="shape=image;verticalLabelPosition=bottom;labelBackgroundColor=default;verticalAlign=top;aspect=fixed;imageAspect=0;image=https://cdn.freebiesupply.com/logos/large/2x/docker-1-logo-png-transparent.png;" vertex="1" parent="s5DQ25FVZao19d8wmNkH-31">
          <mxGeometry x="-1" width="213.01" height="60" as="geometry" />
        </mxCell>
        <mxCell id="s5DQ25FVZao19d8wmNkH-40" value="" style="endArrow=classic;html=1;rounded=0;exitX=1.072;exitY=0.358;exitDx=0;exitDy=0;strokeWidth=2;exitPerimeter=0;" edge="1" parent="s5DQ25FVZao19d8wmNkH-31">
          <mxGeometry width="50" height="50" relative="1" as="geometry">
            <mxPoint x="219.5" y="269.49" as="sourcePoint" />
            <mxPoint x="365" y="269" as="targetPoint" />
          </mxGeometry>
        </mxCell>
        <mxCell id="s5DQ25FVZao19d8wmNkH-37" value="" style="shape=image;verticalLabelPosition=bottom;labelBackgroundColor=default;verticalAlign=top;aspect=fixed;imageAspect=0;image=https://en.opensuse.org/images/1/1a/Raspberry-Pi4.png;" vertex="1" parent="1">
          <mxGeometry x="490" y="255" width="302.15" height="200" as="geometry" />
        </mxCell>
        <mxCell id="s5DQ25FVZao19d8wmNkH-38" value="" style="endArrow=classic;html=1;rounded=0;strokeWidth=2;entryX=0.995;entryY=0.441;entryDx=0;entryDy=0;entryPerimeter=0;" edge="1" parent="1" target="s5DQ25FVZao19d8wmNkH-37">
          <mxGeometry width="50" height="50" relative="1" as="geometry">
            <mxPoint x="879" y="345" as="sourcePoint" />
            <mxPoint x="839" y="395" as="targetPoint" />
          </mxGeometry>
        </mxCell>
        <mxCell id="s5DQ25FVZao19d8wmNkH-39" value="" style="endArrow=classic;html=1;rounded=0;exitX=1.072;exitY=0.358;exitDx=0;exitDy=0;strokeWidth=2;exitPerimeter=0;entryX=0.5;entryY=1;entryDx=0;entryDy=0;entryPerimeter=0;" edge="1" parent="1" target="AQmvB_hK_ORsPchkkE_o-41">
          <mxGeometry width="50" height="50" relative="1" as="geometry">
            <mxPoint x="1029" y="357" as="sourcePoint" />
            <mxPoint x="1079" y="408" as="targetPoint" />
          </mxGeometry>
        </mxCell>
        <mxCell id="s5DQ25FVZao19d8wmNkH-41" value="" style="shape=image;verticalLabelPosition=bottom;labelBackgroundColor=default;verticalAlign=top;aspect=fixed;imageAspect=0;image=https://static-00.iconduck.com/assets.00/database-postgres-icon-1845x2048-smttmjhf.png;" vertex="1" parent="1">
          <mxGeometry x="916" y="413" width="89.43" height="99.27" as="geometry" />
        </mxCell>
        <mxCell id="s5DQ25FVZao19d8wmNkH-42" value="" style="endArrow=classic;html=1;rounded=0;strokeWidth=2;" edge="1" parent="1">
          <mxGeometry width="50" height="50" relative="1" as="geometry">
            <mxPoint x="960" y="370" as="sourcePoint" />
            <mxPoint x="960" y="410" as="targetPoint" />
          </mxGeometry>
        </mxCell>
        <mxCell id="s5DQ25FVZao19d8wmNkH-45" value="" style="endArrow=classic;html=1;rounded=0;strokeWidth=2;exitX=0.5;exitY=1;exitDx=0;exitDy=0;" edge="1" parent="1" source="s5DQ25FVZao19d8wmNkH-37">
          <mxGeometry width="50" height="50" relative="1" as="geometry">
            <mxPoint x="970" y="380" as="sourcePoint" />
            <mxPoint x="640" y="500" as="targetPoint" />
          </mxGeometry>
        </mxCell>
        <mxCell id="s5DQ25FVZao19d8wmNkH-46" value="" style="swimlane;startSize=0;fillStyle=dots;strokeWidth=2;dashed=1;" vertex="1" parent="1">
          <mxGeometry x="430" y="503.5" width="440" height="223.41" as="geometry" />
        </mxCell>
        <mxCell id="s5DQ25FVZao19d8wmNkH-47" value="" style="shape=image;verticalLabelPosition=bottom;labelBackgroundColor=default;verticalAlign=top;aspect=fixed;imageAspect=0;image=https://cdn.freebiesupply.com/logos/large/2x/docker-1-logo-png-transparent.png;" vertex="1" parent="s5DQ25FVZao19d8wmNkH-46">
          <mxGeometry x="17" width="142.01" height="40" as="geometry" />
        </mxCell>
        <mxCell id="s5DQ25FVZao19d8wmNkH-44" value="" style="shape=image;verticalLabelPosition=bottom;labelBackgroundColor=default;verticalAlign=top;aspect=fixed;imageAspect=0;image=data:image/png,iVBORw0KGgoAAAANSUhEUgAAAoAAAAFRCAYAAADkRxw0AAAAAXNSR0IArs4c6QAAAIRlWElmTU0AKgAAAAgABQESAAMAAAABAAEAAAEaAAUAAAABAAAASgEbAAUAAAABAAAAUgEoAAMAAAABAAIAAIdpAAQAAAABAAAAWgAAAAAAAABIAAAAAQAAAEgAAAABAAOgAQADAAAAAQABAACgAgAEAAAAAQAAAoCgAwAEAAAAAQAAAVEAAAAAwamHuwAAAAlwSFlzAAALEwAACxMBAJqcGAAAQABJREFUeAHsXQd4HNW5/dWLe++WjGk2YNOLgVhAAoSEQAihg0V4kDwghVATklgkpNESShqPgEwSDIQWIIHQLNN7sY2NwQbJNu7dVi/7zpmdux6tV31XWknn13d0e5mzc+f+c9ukmEQMiAEx0DsZ2AWXfQqwJzDJN1fBfAz4F/AWIBEDYkAMiAExIAbEgBjoAQzsimu4B6gFQs3gXoSNAG4B9gYkYkAMiAExIAbEgBgQA92MgTTU91agDmhO8QuGbfTjVsP8McA8JGJADIgBMSAGxIAYEAPdgIEs1PERIKjctcf+JvIY3g2uV1UUA2JADIgBMSAGxECvZqAfrv4FoD0KX6w0HyCvwb2aUV28GBADYkAMiAExIAaSnIEHUb9YilxH/DgS2DfJr1vVEwNiQAyIATEgBsRAr2TgBFx1RxS95tLe1CsZ1UWLATEgBsSAGBADYiCJGeiDupUCzSlxHQnjxhDuKJaIATEgBsSAGBADYkAMJAkDM1GPjih4rUn7UJJcq6ohBsSAGBADYkAMiAExAAYWAq1R4joSpwZlaC2gbjcxIAbEgBgQA2JADCQBA7uhDh1R7NqSlusMJWJADIiBbsVAareqrSorBsSAGGgdAye1LlqbYj2A2NtjpPhiDD95iQExIAbEgBgQA2JADHQyA0+hvLaM4rUU9y9+/S+Kke8bnXxtKk4MiAExIAbEgBgQA2IgBgNz4NeSUtfa8D9H5X9/VN5aBxhFkJxiQAyIATEgBsSAGOgKBkpQaGsVvKbiVSCP78WoPI+X+TAq/9NixJOXGBADYkAMiAExIAbEQCcywC91NKXYtcb/daTfvZn63h2Vv46DaYYsBYkBMSAGxIAYEANioDMYWIFCWqPoRcfZhHRXAmktVDJaAeRoIUcGJWJADIgBMSAGxIAYEANdwMAglBmt2LXkLkeaXwNM2xoJKoD1SNAAnNGahIojBsSAGEgGBtKToRKqgxgQA2IgjgwUtCGvbYj7V+A3wJo2pAtG3QDHdCAj6Cm7GBADYkAMiAExIAbEQOcx8E8U1dKI32LE4QaPfu2sVnAEcG0781AyMSAGxIAYEANiQAyIgTgwMAJ5VAOxFECu05sNHAd0VKQAdpRBpRcDYkAMiAExIAbEQJwY+CnyiVb+VsLvW0D/OJXBbJ4HXDmfxDFfZSUGxIAYEANiQAyIATHQBga4ppm7fznSR6XPKWiJmKLdHMh/DuwSMSAGxIAYEANiQAyIgS5gYBTK/DKQA3wbcAogzf2AeMmuyCiY973xylj5iAExIAY6iwHtAu4splWOGBADiWZgFQogKK+Fjcj/L8H2XsTVMcuBUcnfjnLLKQbEgBgQA2JADIgBMdBFDASngfllj3gID4gOfmWEZwBy5FEiBsSAGBADYkAMiAExkAQM/AR1CE7VXhOHOjGPYJ4vxCFPZSEGxIAYEANiQAyIATEQJwaGIh9+4cMpbLWwH9aBvPdC2qpAfsz32A7kp6RiQAyIATEgBsSAGBADCWDgf5GnUwBplgG7taOcfZBmERDMa3Y78lESMSAGxIAYEANiQAyIgU5g4D8oI6i4VcL9Y6A1n27jmj9O+0YfLs2jZUYCEjEgBsSAGBADYkAMiIEkZICfe3sRCCqBtM8DzgBijQhOhv95wKtAdLp18OOIoEQMiAExIAbEgBgQA2IgiRnIRd24EzhamXPurQh7CZgLbGsm3kaETQEkYkAMiAExIAbEgBgQA92AgdtRR6fwtdfUrt9u8EOrimJADLTMQGrLURRDDIgBMdDjGKjBFXGkryXhZ+UIiRgQA2KgRzGgL4H0qJ9TFyMGxEATDEyF/0GBsA9gPwI4GuBXQsYDowG+FPMAaX5T+HngWeBhgJ+Yo+wC8DiYD+mQiAExIAbEgBgQA2JADCQXA1moztnAK0D0lO/1bajqZTHSl8DvdKA1O4kRTSIGxIAYEANiQAyIATGQSAa4g/cGgLt1oxU/ukuBgUBrhRtIPgZi5bUK/r8EdgUkYkAMiAExIAbEgBgQA53IAEf7LgDeAGIpakE/Tul+A5gAtCRDEOEE4EEgmEcsO3cRzwAyAYkYEANiIKkZSEnq2qlyYkAMiIHmGeBI3neBS4HhzUeNGcpPxS0H1gDc7FEPpAFU/MYBo4C2CkcFbwf+BGxua2LFFwNiQAyIATEgBsSAGIjNADewXQKsB2KNxtFvPsAvfnwfoJLXVLy2+vMswJl+vm81k+8GhFE5ZV0lYkAMiAExIAbEgBgQAx1gYF+k5S7cWIobj3eZDRwJBIXTsucCjwDbgVhpm/OrQpqngO8A/YCgHAjH3QBHEGPlsQj+hwASMSAGxEDSMKAp4KT5KVQRMSAGWsEAp3pvArjmLyifw8Ep17sATuc2J9kI5LEwPM6F4DRvfx98JvKrIMRagIom8T7A6eLmZDACzwcuBnhcTFBq4bgWuDHoKbsYEANiQAyIATEgBsRA8wzcguDoEbY6+FGpym0+aaeGcrTxZwBHDaPre2+n1kSFiQExIAbEgBgQA2KgGzPAkbVoZeod+O2XxNe0J+r2Yox6X5HEdVbVxIAYEANiQAyIATGQFAxMQy2qAacAcmTtcoC7dbuDXIRKbgNc/TlqeWx3qLjqKAbEgBgQA2JADIiBrmLgeRTslCeaVP66m1yACgevgesKJWJADIiBLmNAm0C6jHoVLAbEQCsY4GYPnqXHjRuU14HDPNvO//g93z47e3eqD3chL22ixDnwLwiE8dzCdQG3rGJADIgBMSAGxIAYEANg4CggOHI2OQYrVA5jrbULputM+2LUZ2yMeu4Bv2A9To0RR15iQAyIATEgBsSAGOj1DBSBAac08WiWWBJrg4hL01Umj6qJJVvg6ep0a6wI8hMDYkAMdAYDqZ1RiMoQA2JADLSTgYmBdCsD9qB1TNCRJPam6sQvkjgJXpvzkykGxIAY6BQGpAB2Cs0qRAyIgXYyEJxKXdHOPJIp2bJAZZpSEgNRZBUDYkAMJIYBKYCJ4VW5igExEB8GxgWy6QkKYHAEUApg4MeVVQyIgc5lQApg5/Kt0sSAGGgbA0ElqacpgENBBb8aIhEDYkAMdDoDUgA7nXIVKAbEQCsZoILkjn9hEn7vt7tLcAqYx3DxO8QSMSAGxECnMyAFsNMpV4FiQAy0koHg9C+TxHMEsLaZOiyJCuOu3XhJcAqYeQZHOONVhvIRA2JADLTIgBTAFilSBDEgBrqIgeAGEFYhXgrgY8iL5wmWMdMo4VEz/L7wWb4/P+FWAPzLd3fUCI4AMi8pgB1lVOnFgBhoFwNSANtFmxKJATHQCQwkQgF8HPU+DdgAbIxxDX+D33bgCD+sFOY8gGmeADoqVGKDI4pSADvKqNKLATEgBsSAGBADPYqBX+Jq3KHJVc1c2U8C8Vz8WCYVOG66GAi83USaveDfF+BIoMvjLdgHAEz7ZMDfhccyZyNeU7IGAS7NjU1Fkr8YEANiIJEMaAQwkewqbzEgBjrCQHANYEc3gPwHFfkGkAM8AxwARMuL8PgQOBvoFwg8EHamYVrm8RTQEQlOA4/uSEZKKwbEgBhoLwNSANvLnNKJATGQaAaCU8AdWf/H0b5TgBqAo4AHAbHkT77nxTECD4bf00AD8HWAymJ7JbgRRFPA7WVR6cSAGOgQA1IAO0SfEosBMZBABuKlAE5FHU/w63kzzNoYdea07CPANGBKjHB6MZxpOU28D9BekQLYXuaUTgyIgbgxIAUwblQqIzEgBuLMQLwUwAzU6wHgJIC7eU8H6oCg/BUOjhDGGv1jvGsArtfjDuFngUFAe2VZIKGmgANkyCoGxIAYEANiQAyIAU63us0SlzZDx08C8Vz8WGY14p3o58O1fBzNY7x6IA/gwdPcbBKd9sfwo3AkcT0QHR7L3dwmEIa5NCxbIgbEgBgQA2JADIgBMeAzsBqmU5Qehj2rCWZaqwAyLyqBX/Hz4XpA+vFoGMpVgCvPmS97IeEp39Yqf0wbSwFMg/8/osp4x89fhhgQA2JADIgBMSAGxAAYuAVwihjNjwE3ggdrRNqiADIfjvJRoXR53wZ7LvBpwM+F0bwbWNtEWDBe0B6tAHIa+p9ReXD0r6kNKQiSiAExIAbEgBgQA2Kg9zHAEbPgdKlTsN6C/5kAz+WjtFUBdPkEzS3IJ+juqN0pgP2Q7/8C82Pkfzv8JGJADIgBMSAGxIAYEANRDMSaNnXK2Vw/bjwUQJdnvEynALpp5uh8F6Lu/aOuVU4xIAbEQKcxoF3AnUa1ChIDYqAdDHCa9DzgR8C6qPQ8mDnZJfoZy6nkSwAeNcOvjUjEgBgQA13CQPTDqUsqoULFgBgQA80wQCXwN0A+cBnAr3UsBTpyODSSd4qsQimsK+vM3cQTgT8CdYBEDIgBMSAGxIAYEANioJ0MJPMUcDsvScnEgBgQA4llID2x2St3MSAGxEDcGOBBzrFkUizPLvYbg/Kbqi/XLm7u4vqpeDEgBsSAGBADYkAMJD0D2ahh9EaK7uo+IOnZVgXFgBjo8QxoDWCP/4l1gWKgRzDAs/uW9YArqcE1fNYDrkOXIAbEgBgQA2JADIiBTmGgAKV8AnTXkT9uCOGOZokYEANiQAyIATEgBsSAGBADYkAMiAExIAbEgBgQA2JADIgBMSAGxIAYEANiQAyIATEgBsSAGBADYkAMiAExIAbEgBgQA2JADIgBMSAGxIAYEANiQAyIATEgBsSAGBADYkAMiAExIAbEgBgQA2JADIgBMSAGxEDvZiCld1++rl4MiIHezkAoFEr5zW9+M7G8vPyodevWfQF8HOFz8vKwYcNe7NOnz5xrrrlmaUpKCs8flIgBMSAGegQDUgB7xM+oixADYqA9DED5y77kkkvOqKwsv6q6umYS3I2ygdJnWVmZi3Jz+/4WSuCD48aNq2wUQQ4xIAbEQDdlQApgN/3hVG0xIAY6xsCrr76aU1xc/LvKyoqz6urq+jWXW3p6+racnNz7CgsLL5s2bZqUwObIUpgYEAPdgoG0blFLVVIMiAExEGcGMjPTz8C077X19fV9W8q6oaEhq76+bvLixR8teeutt+e3FF/hYkAMiIFkZyA12Suo+okBMSAG4s3A9ddfP6ampuYSKH+5rc2bcTFNfAnTtjaN4okBMSAGkpUBKYDJ+suoXmJADCSMAShzR1RWVh3a1gIqKysPY9q2plN8MSAGxECyMSAFMNl+EdVHDIiBhDOwYsUy7vZtl3QkbbsKVCIxIAbEQAIYSE9AnspSDIgBMdBpDJxxxhn5LCw11QpoNjRYyf33319K+1lnnVGEjb0FsOYDedjUe/59991fnJWVffD27eXwaptwl3BGRtbRLhXyL4Q9HyhFuaUwKaX85+pAu0QMiAExkGwMSAFMtl9E9REDvZgBp8yBgnwodPmkIkqhK4QOVgjvfCAPiIg7wQXproNnUSTAbHrAnk87pn93Cfi1yVpdXT3WJfCVyxl0Q7lsJGeeeQbdZfAvotJJR0BhpLOR0iiFkZRIxIAY6CwGpAB2FtMqRwz0UgZ8pS6o0JVC2SkhHVSIfIUuqKR5TDWh0OUjcKe4XgL/H9IxjpNSZ6HpwnJysj+tqCgfHAxrrT0rK2tFIG5+wB7LmhcYGWT5hYgUqX9QaWxKYUSaAsQrRTopjCBBIgbEQHwYkAIYHx6VixjoVQwElbq2jtBBmZkFskoChEUUooBfxOqUNt+jNBKww1IWCCtF/iUuiHWD/SiASmcpTE9qaqrfwCHPB0Yf/OzCmzJ5MHRdXc3zLhzOYthL/Drm+/4083w7jdKAPT9gj2WNqTAif09QXkScwoiwwqBCjQj5fiQpjBG2ZBEDYiCaASmA0YzILQZ6KQOB6dfI+jX6QekoAiX5PoKKDUe0OPU5C2GFgJPpztJOswzpSn2wjGLYPWlKoXPh0aav9JVG+48dO/7Fjz5adEm0f2vcY8eOfdHFc1O7zh1tkr+g4um4xDXl+3GDpuO21A+jkR+wx7IyTakLQL5FsLt8+NtEpBmFkdPspX7ERopyJLEsYkAM9DgGpAD2uJ9UFyQGmmaACom/WSLfV0LyEZuIKA2wzwIKAW9jBeLNoL0DUuanLaEJpcQzaY+XQse82iKYxn0Z08CvV1RUtukoGKZBnV9ubVlB5Y9p2qkwMmnw9/Lc+Bf8zejXGmGaUhfRKYyxFEU/TinicITRS+O/JOQjTIqiT5AMMdBdGZAC2F1/OdVbDPgM+J2yp6z5XlQWCnz7dJizZs++v5BuKn8Iu4f2ZiTfhXFkKKgcOH+YEaUO4aXOv6sUOld+a82rr7565f/+77f/gIOdp7T2MOi0tLSKzMzMPxQVFa1sbTltjecULZeunQpjs8pidBmurCjTKZfO9IJ95d3zcyOKfroSmrwXUOci2iViQAwkNwNSAJP791HtxIBFKXj5oISdbDGp8TdReAodFLumJN8FNKPQuShU7Eqdg3Z06uczHe0tKQ9+OOMmvZx77oyH8S1gHAjd+m8BM82f/vSXpLm26N/D3RexKujuo2AYftti3Df58CMo+UAjpS+qjEZhgbgzYDfegyin2KWBklhKf0ipD28E2L+fDPFK4C8RA2KgCxiQAtgFpKtIMdAUA+ykMUpXiI60wI8z3cUNKHhU0orpzxE3dOItSX4gQinsszhSA9NtEmhSsfM78mLE7XEybdq0yuXLl1/261//+vXKyvKrMBo4KXpTCDd9ZGVlLsrJ6XPDj370owfGjRtX2V2JcEpZsP5NjdYFlMX8YHzY5/pu+uf59kZGVDkuDk3vXsZ9PMPdsxxFxOh05A7GC00R4rn7UgpiI2blEAPxZUAKYHz5VG5ioEkGfOWuwI/AaTra2SmWoRPMh+kJ/Gc6eytNKoSUEv5rTrnzO+dCxpOYUaHDlO69ubm5L23duuno9es3Tm9oaDib3GBq2EaNGnFR//6DXqioqPgMcRt6C2cBJa40eM24TwuCbl9R5EtLftCf9oASGR3UpNvd+0EFEZF5f5cSvLebUloRLhEDYqANDETevNqQRlHFgBhoggHX6QU6UPOnwTgC0pREFECmRyf3WVTEiILnK3fcTFAUFUfOODGA3yvksgqOTjk/mW1jIFpJ9F988l0uTqlEvALc33Ocf1Nm8Dfx21Yp4nrKIUfEmQ7tzzNpl4gBMRCbASmAsXmRrxhokQF2bNxUgYjB0Tyma0mhY5xGgk5xglMaua5Pa6Qa0dOpDimAnUp3pDDXngIKYj4Co1+c5rZSYYy8NCF+YaQQWcSAGIgwoCngCBWyiIHYDLBjcsoZYwQVBHRWsSTPpWE6xJ+LSNMBdkolgHEkzx+t2Gn9XXML+ZlWIgZ6IgN+GyvGtRGesB35Vm+a2b0Y0Y/Tzk20PwY7xTGfDgryciOMkXaI9MUMQ9klNCVioDcxIAWwN/3autYWGWCHE2tUD/6RETpk4hS6pvJjBxMRdDJF6mAidMgiBlrNgK8UMn5pdCK+KKFdlsDfUw7Rzgpo9+EpgHjRKoHbE7ZrX2Fk2Ax6Itwz8ZLmtVm4i7W8wqNL/3oBA1IAe8GPrEtsngHuPPQ7j+mM6XcS0Yny4VEa7Qm3t6O2qdE8xpfyF4M1eYmBODDgK4ilflbFLku+yNEe1ZZL6deEUClsJP5zoRCeJc2N2DdKJIcY6EYMSAHsRj+Wqtp+BqJH9tAxREblgspfEyWUcbrJhSF+YWBkwnnLFANiIEkYiNU+AyOGnD4uQFXz/bafD/tOCiDCnP8M2DlaOBPxuASEo4VOKSyOVRbjScRAsjMgBTDZfyHVr10MRCt8yGQ6H+JO/A6ghG5O+yBsuh8WfLiX4OHuxfHDPEMP/CAbsouB7sNAoO0WB2vtjxjmY8NISdC/CXse/D2lEM+RUtiLAW+NIU1KrOdGOET/xUDyMCAFMHl+C9UkTgz4UzczgwpfdNYIy3d+/vTtUXpoO0ZkioHexYCvGJYGrxrPiCK4i/iyCHsB7PmAe1GENfIta8+OF8lCWGbQETVKGPNFkvEkYqArGZAC2JXsq+x2M+BG+PwHMx+6swLHPZQ2kbE3uoc0nLYpcXFiPfxdmMxeycCsXnnVuuhGDPjPBfoV+4gcbu2UwkAcxivgP18io4ScOvYVwlIqlcFnj4ssUwx0BQNSALuCdZXZLgZ4Ph4Sct0OzTyYQSlwDo7o4aHrKXswveNW9NB17MhsiYHAi0RLURXeyxgIKHzFuHQiInjWFPnPpukRzx0WKoREqfPyZyr4PGv0QurCZYqBRDOQkugClL8YiAcDeINurO7tnGkZHqQFgQf0zjHkIwbEgBjoBAYCMxSFfnFUCiOHWNMv6pkWmZ1gmF5YyYIk0QxIAUw0w8q/TQzgwVngplcwElPgEkc9LJ135AgWPTAdJTLFgBhINgb8TSZU7EpZN85m4IX1nmbq6SmEGo1uhiEFdZgBTQF3mEJl0FEGAkrfTOaFB6Mn9A8odnPhmY9plmJO8Qb8w5H1XwzEiQG8bJS6rNAB5zu7TDHQXgac4ufS8xmGF93z8awrhF8+kAcEhe585+ErkPl67jlGZMaDASmA8WBRebSZgaaUvmBGUPYK4S6hX3A0kG6JGEggA9GdcQKLUta9kQFfISzGtRPe5hJ/5qMQzun048suTQrCOGLoNpOUwF4sZTDMjf63nwEpgO3nTik7wIC/YNp70EVl40196AEXxYqcYkAM9FgGggohR/uoDPrHU3nXjOdhgX/xfDmZgefnDIxU08s9L4v8PPxoMsRAywxIAWyZI8XoAAP+w4xvr4XIpsStaeHbLfycAugeYnqr7QDXSioGxED3ZyCgDEYuxn9e0u2emS7MKYQFeNYWalTQ0SKzNQxIAWwNS4rTZgb8Rc6FSBj8AkeBy4ifZUKcfLzlUukrdf4yxYAYEANioDEDfF7Cp9iNDvov1EFlkIpgKeAJj5jRWmnHhsymGEhpKkD+YqCtDARG+2Y2kVZHtTRBjLyTh4HgjnOMWOsZmTw/jWoSYCBKGSx1syuMEriHNbsS4EzWxgzo4daYD7k6wEDgoROdy1xOYfhvsdFhcouBpGIgeB9LAUyqn0aVaQUDHP3DCGGsl/AyPIeL9BxuBYm9JIqmgHvJD52Iy+Q0L6YZSt26Ezxcrgs8ePiwodJXlIiylacYEANiQAzszACX1WATSWmsaWL43YMXnCI9m3fmrTf6SAHsjb96B645OM2LhwmPKpiF7EqYJR88cOcDJXrLJCMSMSAGxEDnMhDYRMJ11m4D3vRALfJgL3VuPtO1Dtux0btMTQH3rt+73VfLhwQUuyJkMCMqkzJMk+VH+ckpBrotA5oC7rY/nSreBANR6wWnB5c24H4vQTI+3zVj0wR/PdVbCmBP/WXjdF3NKH4sQWtK4sSzskkeBnDPF7jauOUNzi1TDPQkBvzn+2eBayqDPXJcV8Bf1h7IgBTAHvijxvOSgqMhgXy1qSNAhqxiQAyIge7IAF92MPI3J0bdPUUQy3yKND0cg50e4pXaQ65DlxFHBvhW6LLDw+F8Z4c5Fw+EozB9UKA1fgFWZBUDYkAMdEMGOMKNZ/oE/zk/N3AJXCfIL46UcFdxwF/WHsSANoH0oB+zo5cSOD5gFvIqZH48TBQPgVl6EyQbkt7AABfOu+vUi45jQmZPZcAf4eMh0yX8BB2e9YW41un+9eaxD/DtMnoYAyk97Hp0Oe1gwJ8GKEZSvvV5wpE+rX9ybMjsTQwElz0EF8v3Jg50rb2bgcDu4fzgJj+0jWIMCJTqeK+ecX9oBLBn/I7tugpO9aIxFyOxe9tz+QSnApyfTDEgBsSAGGgdA7mINhBYBYRalyR5Yvkj396n51ytfKVwBgYH+KWRQvQdRRohd+x0T1MKYPf83Tpc68B0b6O80Kiv09tdI0rkEANioOcxMAaXdBCQD1QD84DXgAagI8I+lUtozgQ4w3YTcCXQ2bI/CpwIvAmUBQrnLM/BwCfA+wDj7Qq8BXwGNJKoDSD5gcA8KII8VJrnDHKjSEkgTNZuwoA2gXSTHyqe1fTf5GZG5TmL011S/qJYkVMMiIGexMBgXMw/gFLgUeB3wB+Bl4EPgI7Kd5HBWcB24EngXaAr5CEU+iDw5ajCf+H7X+r73w/zAeAE392k4R/0fz4iBBXK6ZxF4tRwkwkVkLQMJJsCyDemzKRlq4dUzF/UO9e/HLezt7CHXJ4uo/UMcJpqNMB2x2dBPyCRkoXMWZaTvrBoFsKxITPRDIxEARzlo4LGkb5ZwBXAr4GPAY4KdlRO8zP4GcwTgdkdzbAd6ankTvDTvROV/oCA/wDYOfpHaVFR5Wggp3wx4lfAmaJwMu8/RxVnQAks5XrygL+sSc5A8GHcmqryAf4FgA9tNqTNgJMvwpID/Bto7zB6GdKOBw4BOHTdkuQjwl6BSJtgXwBsDfixIUwOuJ31VVgYfxowyPesh7kG+BCo8f1iGRw2b83w+gjEOxJYC7wIdIn4mzw4VF/shuq5/o87vrSGo0t+kngWynuRD/GYUzhNFMT2OwsITlMdCHcBMAO4F4i3cCrscuBmgJ3uxcAfAD4vvgo0J1ROTwD4cvgkEGybh8M9GigB1gHt4QPJdgg6spBzaROIY6JHmI/hKk4CVgPsr/icd8J7bDdgMXA0cDXwEHAswD7mOIB9A/15v9YCdwDMj/fLDwHezwzjffo68CDwO4AK0s8B3ptLAI5Ang88AfwZoLJ4GPBL4LvAFIDTs98BtgCUlvIIxwr/57U9C7CO/YBqgNIH2ArwWtnH0v0CwH6P8SqBVkuMNeRz0V4KWp2BInY7Bn6CGvNmJx4O1H6Y71cFk51Le2QsEjFfKo8DW5nBfD+NqxPN7QA7Nids5MFwZ2eHwobt3EHzc/ifDTQlnyKA8dlAg3IvHPS/y/dkg6Z7ru/udIPKHzs0H6WdXgEVmGgGPkYBvMcuaUNBl/lp2BmwE2J7Kff9DoSZCOELI+v5P37mf/PdN/ju5owD/LhMPyQQkR0Z2zv92UFT2sNHOKX/P9BemK+kZzCwNy6DvydBJa05uR2BLi5NKkgDAPZ5QX9nfxP+p8QI+y38+HJCxdHFDZpXwp+yEqC/a4MuzhUMhLQmj3DM8P9rYDCP6FG9w31/KobZAPNnvPlAu4VLitBmGo3+sd+hf7szVcJOYYAP0LYIR7OcfAWW/r7DdRrz4K5zEdpoujyoXAVHFpvKhmVTgaPcAvwcoOLWB7geoFCRnOTZwm9n18FOzAReBPjWRVkHMP2dABsrG9wsgItlo2UwPCb4nu9EBbKjojj/aHc4tJP+o1GWYKh+TqC4PDbMgFvW7s0AO6Vd/UuIftg3d2XR01Rst7kAO4YOdQZNFMqXwql+WHvahmtHZchjQ6CMPWFne6cw3/by4WWgfz2aASpolKXAk0AesB7Y5IP31T4Axd1vVMjOBQqAaQDzYP/GwYM9gFKAwnvvCYCKF+VtYBTwU4CDAMOBBUA+cAbghPHY1zAu5SNgCvA6HRCmo7SURzjWjv+u/qxXUFwf+yE8q4Cm4gXTtGjnLBKPinGzS0yAfodTxdwkUtxiBorQZQzwwdwW2d+PzLeGLOBrwN+BWDfSvvC/HGCjSgFeBq4D1gKUfIBKF/NcAVQAFDYKJ0zLtyR2HvXAUwDTVANMx3zZIK8FeENTfgbkeLYdcdixsS5MFxRXb9aNSiGF6dkQqTyywfPtLiiOA+Y5LxDAjogdEsU1PJe/c4dDE/w/xtA8S+RaP+3WSjD3nZy9awNsG+8DVOLuBxYDbEeXAFzeMAu4CRgJ/AFw9/DpsLMNbQAo7KTYRo4HOEr4EnA9QOGo9jjgB8AxANv+vwDmx/ue+acCVC5rgKuBrwLpAF9C2CaZN8voC7ADpTDPucBg4F7gRiBaXMf1dlSA818G//XAUQCvx/EBq0QMeAxwyQ7FPYupXPG+6Q+4sM2wpwHuZeVHsP8doLBdUehmP0RZB+QDvC/ZH9BOYZ+xGuBUMNsYhe2hDOD9SWEf+i7wBTogbDOnAIzDvCi0tyYPL3LgX1P9TrR/tDuQRfutvtKX5+fAtYEF6HsKgwpi+3NXyngywIdza4U/6FCAjeS/AG/sbwJsEO5B7B7QJ8LvYSAD2AawY5oC8KH/RWAswEYyDKDsFTa8/66BfgmufwOsIzs3djL7AVT0fgG4m3eh7zce5lkA5dmwEYnDIfZ9fT82LjY8isvDlUk/jgC+ARwHuJsY1oi4a10AH3ZoTpg/O0AqpPMAxxeskYcO7QkVjvBFjfqxPK3NSCjrXZa5u38XoQaVwBEA2x4RFCpV/wQYn52Mk0NheRGY4Hu4dsB2fSyw2PenEnmBb98Ok50V2+dk4G6AnSM7zZuAcuAR4GTAyf6+ZT5Mtr9DALYVCuvm5AZY5gDuOeL83XW6+jXl7+I5Ply8tprseCU9iwEOWFD6hQ1vzSzvS/YZ/wDWAcuBvQH2V3yOzwKcHORbnvNN9jeuL3D3ZbSbefHFpwF4AaC49rcU9i2Au2fZZ/G+Y7tgP0dhP9WaPLzIgX+u3+JAhhPme4zvYJsfAOzqu139fWfHDA40oA+izPBzyuOIIKaEi3XKhM9IkhjuIdya6rgblcrYv/wEVJLYoFwYbyS6/wpQ+bsJ4I3GUQHKUUA28EtgGDAfyAfOBJwwD8YpBphHIcCGyg6MMjpsRMqkUrkMKAV4Q38AXAFQXL3YIF73wQ6GwryplFLeDhuR/+5hwc4sWlyerGdQXOP/EJ5UUl287bB/HIyYKLs/8ueuzysGDe98LcxNFONdnq+7x9y96Nys2K2AU7zoZnt7AriGDgjv+VHATwGXLjof53Ydkusk2RapBI4Bngeo/L0G/Ag4AaDyR0Xvy8CeADs2isvPtRX63Qwwn1V0QFxZYVd4BISdIMWlD7tarreL1yaT01kObUqoyMnMAJ/LlC8B7IecuHvR3VuuLSxAhK0uEkz2YxS+aLF/+DOQAlQDzJv9yT4AxeU1MOz02gIVyt2Aa30/F8eVz/ZD2QPoC9QD7GtbkweiRYR9p+vX2fYorGcRwL6T9X8U4LOB/q4cWOMj3C2M9lPIvieQI88NnMllSQE/WbuYAXejtKYarmHwxn0SoJLDhsAfeSzgGsJJsLOz4Ujaj4EQ4BQglseG4hTCq2EvA9zND6v31nMiTN6slDMANrDzgApgFkBxDYeNdASQAnCk7wiAHRXF1fnfsN/o4woGQNipsP4U1xhp5xvbQbRA5oeNRv9dnsE0jBDt79zvIYxvgAkXNjwU4vgpQ4M7Srt8E057Vxbg7jF3Lzr3S6jUZcCqQOX4kkSlLN/3exPmaoAdwL6+H/Nhm5gccNN6cJR7E9xsU5TDALrZTtnJzQAofweeBhYDfBZQYtWT7ZHtdjMjQJhHUPiSlul7uPR0pgHBetPPXX8wHv0lYuBuULARSAf40jIP4Ajb9wEKX4goTd1DZeFg78VqIex8uaEwH7Yr15+wX2R/RXFp2KbY3nhfDgYo0eVFu1kGlbXW5MH8nLB8lkW5A+CzgP3vTwEKnwvsM911fgQ7+9W4C/se9EETkPHcQObToQSWBtyydiEDbVEAncLFm3gb8F+/3u6N5gO42RDcjfWi72a0qfwHWQvsDvAthUqRG636OuyUpQA7gkPpgKwA2GDfB64D+MB/HRgA7ApQTgLYSbDjoNJ4IkAZCEz0bOG0V8FO/J/v5+rJjnG970eDD4Q+ADvGx4BoyfM92HCckMdjfAevm+LyT3hnFNzY4Q+/X8cRDK25CP8QPfR/sA24e8y10b/imkOBe5DtiG2P4uK4NBwlyAXYdtmZsS3xJY2dzyKAclrYiHRajM/RDCdLYGE7orj8nw87vTV+zs+V6doG60npB7i2SoUxKK69sY1uCARMg53ttAaIfia4cgLRZe3lDHyO6/8i8ALAtrEPsB/AfuNZ4G8AZXLYaDQoQa+fA7zXxgIcJKBCSXktbETue/aDzJOyFLjHs4XLeg921z/wnh0CjATY9tw9uxfslFfDRot5+NEaGd+C600gDTgCYF/5CXAW8BeA0tR1hkPj9J+DEuiTOBrI/ttJibPI7D4MrENV2XCowFHOBuh2+CM9IX8C6PdPOiB8e+fNTT+GUVGinY0kG+DNyYc7/R4AKHcBdLtGRr+gFMDh8mBjpLwBBNMc7bvZaPkGFi2ung/7AekwvwewXszHXQ+sEWF9GUZ8x/dNgcmHA/0qgP4AxfF1TtiZmP8cUucbVVAJTExJyjXJGDgK9eE9x/uVClkfoB6gn1POfua73YsMFbsq328qTMp5ANOwc6LMAOh2itjlvpt+JwOUYoDuUt+k3ZW50fdjZ8O2z5FChlcDLL8v4Op5HOyUnwKMsxJgnKCcC4dLP8oP4MsdO1D6P+r7RfPhe7fd8NsU21VJ21MrRTdggPcl+518gPagUGnicz6WsJ3xPmdfQXF9D/uApwDejzcB0UIlb4zvyfyD9zj7pqCbebGcaGkuj+i4zs12QkVvgPMImKmwxyonECW+Vv+4mJJgrly2FHTLnpwM5KFavLm3ALxBKVR0XGfCsAvoCaFiRDc7pvsAjirQvRoYDbAB0U1wqJzD0c59FewUmvQrB/4PuAV4BfgRQLkCYDjzdnInLEG/K303O5u3ArgedsqbAONvABYCVN7oJp4EYimN8I4omry+lwC+Wbl034adMh5wfpM8nwT88zuqEEyCSmB+AopRlsnJgGsDC/zqHQGT91ywjT7u+/3Ej8MRD8apBFwndpvvdxdMilMIG2B/H3D3Mc1xANs57Wy3E4GPfPd1MClUJBm+Fljq2+lmG6S4ero82K5pJ/jsiJZd4ME2zHC+VJUATslk2+XzhBLNR9i3Hf/99uS1q3YkV5LexcC5uFz2U7w/OdiwNyBpBQMctGBbg2JY1IroipIABvgW0BrhWwTldYA3OoUdwN8BurcDcwDKX4H7gTTgTGAf4AWgAFgJUGG6F6AwX3Yyc+mAMH/KH4HngVzgf4DLAD7oXTxXn9fg58SNYLBTovCNicJrPDAAdmyUUWHDW5OxK+zsVJ4GWOevAtVALPkWPN8EeH3szJiW18QRj78AFFc/5rnY84nzPzScEmQ53WWLIfZifw2g85LZsxlw95hrA3v5lxtsoy6Oa1dsB5QPgDrPtuNedflwJKMMSAH48nIjQKWSbbcWuANgm78EWArwJY9yQtjwjo1h2xkGcITkLt/f1cHV6Un4sy1OAxj/J8CfgWj5FB7nA+uBoQDveY5o/Me3s+1RXL7uOsK++i8GEssA+xe2F/ZXXwMWAJIWGOBgBfosT2fAFPFM9GfFLSRRcAIY4EO+tcKHeRXAh39QqAjxQR7tz4f0GGA5sA2IlvHwqAc+B5gHwTeooAyHg9gMMJ4rg40uG6gAgsI6spNynVswLN52Dq+PBlgvdpDRwrrweniNcZVo5Q8N6Cit94srxd0hs1htIBcV5+ieaycZsDMeFSy2dSpNxwM3A1cAFLa7TIDpnDDdLsAqgC96WQDbFO9l3tc0g22V5bIMd6+zbVAB/AxgOqYJ5s/8GD8dmACwAw3mB+dOwvqPBdjuY8WPxcdOmbTGg6MSLh7W0rJciRgQA3FkwFcAi5DljEC2Oq4sQEZnWPVw6wyW41iGlL84ktl7sjoXl8rRNSpqfEHaH9BIBUiIJVIAY7EiPzEQXwakBMaXz/bkxrdmSTdhQMpfN/mhkq+abOccNXse0DRV8v0+qpEY6HUMcMmSf17gdYGLn+73cwEvWRPFgBTARDEb53z5toQsS1223FavaV/HhswWGJiFcK6R+yLAda4SMSAGxEBSMMCvg7A/C1RGSmCAjERapQAmkt045h31tjRXn9SJI7nKSgyIATEgBrqMgRhKYJfVpTcVnNKbLrY7XitG/gpQ71IqgN2x/qqzGOhuDGgNYHf7xVTfnsIAj4TBpsYCTA0X9JRrSubr0AhgMv86qBuGxouBEh6imeRVVfXEgBgQA2JADLSbAY4EBpU/DoCo72s3nS0mlALYIkVdF8FfDJuHGvBD2vf46wC7rkIqWQz0AgbwwnW+Qy+4XF2iGEhKBqj8oR3OQd9XJCUwMT+RpoATw2uHc/WHwme6jHTWn2NCphgQA2JADPR0BqJOvSjj1LCWQsX3V9cIYHz5jEtufPPBzR5R/vAWpB2/cWFWmYgBMSAGxEB3YAB9YCHqWebXNQ/9YLFvlxEnBjQCGCci45lN1JuPTkePJ7nKSwy0wEBwqYVGHFogS8FiIIEMuGngQBGzeHZgwC1rBxjQCGAHyEtEUih/xch3usvbfwtyTpliQAwkmAGMNHzmkOCilL0YEAPNMIAXsBK0xfMDUWZoPWCAjQ5apQB2kMB4JvdHHma4PKH88Ru/pc4tUwyIATEgBsRAb2IAO4OLcb2z3DWjXywKjtI7f5ltZ0AKYNs5S2iKwNvOXL79JLQwZS4GxIAYEANiIMkZoNKHKkbWA6ameusDk7zWyV89KYBJ9BtxtI9vO7jZJwCFSVQ1VUUMiAExIAbEQJcwwL7R9YkcJOF5gV1SERUqBhLBABe7JiJf5SkGxEDbGMA63JBD21IqthgQA4lkQFO/8WVXI4Dx5bNduXHXL95q5nADiG7wdlGoRGJADIgBMdDDGQiuieegCfvMHn7JCb08KYAJpbflzH2Fz+365QaQ/JZTKYYYEANiQAyIgd7JgBs0wdVrV3AHbgEpgB0gLx5JMfJXHMhnljZ+BNiQVQyIATEgBsRAFAPoN0ucl79BxDlltoEBKYBtICveUTmEjTzd6J/pRo43w8pPDIgBMSAGehoDDQ3ewElkV7Cmgtv3C0sBbB9vcUmFt5iiQEY89qU04JZVDIgBMSAGxIAYiGKAfWVU/1ngD6hExZSzOQZSmgtUWOIY4M2KG3iOKwGjfxOkADo2ZIoBMSAGxIAYaJ4BrgVEDDeLps/ENU/XTqEaAdyJks7xCL69wH6dlL/O4V2liAExIAbEQM9gwJ0N6F/NDI0Ctu13lQLYNr7iGTvfZeavZ3BOmWJADIgBMSAGxEALDPgDJ7NctODAivOT2TQD6U0HKSSRDODNpQCfsylAGfmzZ2vtXyK5Vt5ioC0MBBeUo20WtiWt4ooBMdC5DHDzJBQ/HqE2l/bOLV2liQExIAbEQI9hAAqgvgTSY35NXUhvYEBTv+37lTUF3D7e2p3qrLPOKNTN2m76lFAMiAExIAbEQCMGMBVc0shDjlYxIAWwVTTFLxKGqO/BcDU/+1Yav1yVkxgQA2JADIiB3s0AB1jYtwaXcfRuRpq/eimAzfMT11DenHHNUJmJATEgBsSAGBADhpm1fA6wgIo8QDuCW3FPSAFsBUnxioKbs9Dlpd1KjgmZYkAMiAExIAY6xoC/I3iuywV9bKGzy4zNgBTA2LzE3ZdvJ8h0ussYR7+UOLtMMSAGxIAYEANioGMMRO0CLuhYbj0/tRTATvqNceRLYaCoWTr4OcCGrGJADIgBMSAGOsiAvxnEjQLmYdlVUQez7NHJpQB20s8bNf1b0knFqhgxIAbEgBgQA72GAUz9FruLDfa7zk/mDgakAO7gImE2f/qXC1M9ue+++4t9qwwxIAbEgBgQA2IgTgxELa/K07FrTRMrBbBpbuIWEj39G7eMlZEYEAOJYICflnJIRP7KUwyIgQQx4C+vYvv1RJtBHBM7m/oU3M6cxN2H3/qFEljK4WigOO4FKEMxIAbixoA+/xY3KpWRGOgSBtDPus/DzVKf2yU/gQoVA2JADIgBMSAGxIAYEAO9kAF//V8vvHJdshgQA2JADIgBMZCsDKQka8V6Sr0Cn3wr4bC0jn/pKb+srqOnMoA2G3LXhulgPSMdGTLFQDdjgAMwXIOPvrcAbbmgm1U/4dXVJpCEU+x9lsb7NE3ii1IJYkAMiAExIAbEABngkTBQ/mbCOl27gXe+J7QJZGdO4ubDb//i5nMyV6N/jgqZYkAMiAEx0JMZCEGS7PrmzJ49O8mq1LXV0QhgAvnnsLPLHm8iJc4uUwyIATEgBsSAGBADXcmAFMDEsl/gso86nNJ5yxQDYkAMiAExIAbEQKczIAUwsZRz7Z8n/jcKnVOmGBADYkAMiAExIAa6jAEpgAminuv/AlnPDdhlFQNiQAyIATEgBsRAlzIgBTBB9Gv9X4KIVbZiQAyIATEgBsRAhxnQLuAOU9hyBlr/1zJHiiEGxIAYEAO9i4EVK1bYBx984F10CnZKDhkyxA444ABLT0+8ahKqqbKahc9Z3cpFZuik08ftY5n7HG8pODjQSW3Ze1a7+CULVW2ztBG7WtYBJ1tKepYLtubCQ/W1VjPvKav7HPmnpVnGxEMtc/cjImmTwaJDThP8K/AgSh3/kmCSlb0YiCMDOgg6jmQqq17LQGuOgZkyZYrNnz+/EUejR4+2J554wvbff/9G/m1xNEChmzlzplVWVnpmv379GiVvKN9km274koW2rm3knz3tHOv7zV95fuWPX2+Vc+5sFJ4+4SAb+L2HWwxvqNxiW+443epXLmyUvs/JMy1n+gWN/LrSsUPV7cpa9OCypfz14B9Xl9YjGcDyjQkOPfICdVFiIAkY2LJliy1YsMCryfe//3274oorrG/fvrZy5Uq79tprO1TDRYsW2fXXX2+33nqrZWRk7JRX3fJ5ZrXVllNwofU56aeWkjvQi1Oz4FnPrF7wTET5y/7CBZZ14Cmef91nb1ndigXWUnj5wz/zlL+UPoMs98QfW9qoPb30lS8Ve6b+9WAGOOqnU8d78A+sSxMDYkAMiIFmGeAIYHPywgsv8KDoEKZ7Qxip86JefPHFnt++++7ruTdu3BiCMhg64ogjQnvssUfoxBNPDL3yyiuRbJ9//vnQscceG7rzzjtDp556amjSpEmhhx56KHTooYdG8j755JND9913XyQNLQ21VaGG6oqI36Zbvx5a94NxoY03HOv5bbrlq557y18v9Nz1FZs9N+NUL3wh1FL4usvGe/Gr3vmXl77ipVnh9FftHikzGSyJn2hv9hbpmYFYylCEK5uBqaQy2u+77/7innmluioxIAbEgBgQA21n4J133vESQWmz7Oxszz5vHkbmILvvvrutXr3ajjzySFuyZIllZmZ66wIXL15sUBzto48+srFjx9qjjz5qzzzzjAemS8X6Pcy62euvv06n1dXV2WOPPWZf+tKXPLf7x3V8dWs+sRCmgqvfe8LqPnvbC+KIYP2GZVa3LLwuMfuws1ySHWZKarPhdSs/globspScAZY59QQvXUpqWthE2mQSKYCJ+TUK/GzztAEkMQQrVzGQKAZwhFORyxsvbxG785MpBsRAxxlwCiDX51FJw8idvfzyy/h+b4pdeumlduWVV3rK33777ecpeJzKnThxom3YsMHmzp1rZ599trk8+vTpY3/+858tLy/Ppk6dap9++qm9++67dsMNN9i5555rw4cPb1RhbvzYfONxjfxyjvuBZR90qlW9+c+wP5Q2btyg1K/9NOyH/w1u3WAT4bWfvuHFzZh4iKWkhVWsOj996qAxkXySwSIFMDG/QvAA6NLEFKFcxYAYSAQDeHmfGci3KGCXVQyIgTgx4JS3V1991b7+9a97uebm5tptt91mmAK2Bx54wPO76aabbOjQoZ592LBhngJYXV1t9fX1kR3Ev/71r+2cc87x4tCfI4SU6dOn28iRIz178B9HALMPO9saqrZa7aISb5dv5bN3WNbUr1j96o+9qGnDdrGUzPDIZB12A3uSmdty+Kpw+vQxe0WKrFsWTp8+dp+IXzJYpADG+VfQ2r84E6rsxIAYEANioEcxwA0gnNqlXHLJJTZ+/HgPxx13nA0aNMioFNbW1nrTvpwGpmzfvt0b2aOdI4Hc6FFRUeHFmTFjBr09ofLn/DkaGEvShu9ifU/7tRdUPe9p23bPRRjaq7O60netYdt6zz91yLhIUrc5hMe4tBReszj83YfUwWO99IzvFMiMPadH8kwGixTAOP8KWIKQjxEEJ/oCiGNCphgQA2JADIgBMMDpWWyCwPF4aXbjjTdaTk5OI16qqqo8N9f08UgXyi233GI1NTXeiN60adMMGzs8/7333tv69+/v2fmPeVN22203y8racWaf54l/NYtfxJl/UywVO39DyLtm0RwXZKkDRlhKRjhNw6aVnn/tp29Z7SevePasQ06z2oUvePYmw5e8biHsMHbhFc//EcplPXYaD7CsvY+NlJUMFimA8f8V8l2WWMpQ4uwyxYAYEANiQAyIAYus3Zs8efJOyh/5oT/X/FHhO+aYY2zw4MHe2YBcH0hFkGFuCpkHRweFo4uUTz75xAoKCoxHzLgpZvpvK77YQnXVlj56T289X8PmVfS2NEzZZuzxBavf9Lnnrl/1kW28/kjEWe25M3Y9zDL3+pI1bFnTbHj6uL2hML5qFf/9nVW/+y+sHwyPdOaecKWlZOV6aZPlnxTAOP8SeKnJD2RZGrDLKgZ6BQM83qCnXOh9983uMdcS9ZvUojPNjPKTUwx0CgMLF4YPSD7ssMNilsd1e3/84x/thz/8oeHYFy/OuHHjvE0dWGbluZvKgzt+OY28adMmbyr59ttvb1RGxq6HWs2Hz0Z28hpG/Lj2j4c0c9NG9sHfxLrAOYjznDVsKMPW4nTvHMA+Xy/yNqi0FM5zBbf+9UKMAK7wlD+O/OUef4XlHH5eo3okgyOlsyvRkzqHzuYuSctrQEcS3uOepBVUtTqXAbXxzuW7naVJAWwncUrWOgaaew5wWpfTvNz00ZxwHeCyZcu8eKNGjWoUlZs9GO6OkAkGMm9+Zm7EiBEW/RUQxmuo2m4Nm1dik0eOpfbHtG/6zu9CDds3WkPFJksbMh6KYUYwe8/eXDjfgRs2LveUx7RBo3dKmyweUgCT5ZfovvWQAth9f7uE1Ly5B39CClSm7WFACmB7WFOaVjOg50CrqeqyiMl1KmGX0aCCxYAYEANiQAyIATHQexiQAth7fmtdqRgQA2JADIgBMSAGPAakAOpGEANiQAyIATEgBsRAL2NAu4B72Q+uyxUDycAAF2h/8EH4e5s82mHIkCHG4xzwYfhOqV7pxip7fMF6+3xLjeVmpNpXJg+xA8f3i5S9aku1PfTBelu+ucqG9c20U6cOtQlDdpxVNnfJZnvlsy22qbLOxgzIsnMOGGFD++5YKF7fELKnFm20eSu327bqetttWI6dvu9w65Ol/VIRkmURA2KgSxnQJpAupb9HFK5NID3iZ4zfRbRm8feUKVNs/vz5jQodPXq0d9bX/vvv38i/LQ7uLpw5c6ZVVlZ6ZqwdgLPeXG0XPvCx1UJJC8o/Z0y2U/cdZi98vMlO+usC214TPoCWcfpmpto7lx9gE4dCkZu10B6eF/5agEs/rE+GLbzmIE8J/HR9pZd+weoKF+yZz35nin1xj0GN/LrQoU0gXUh+byi6Nc+B3sBDMl9jUiqA3ML90ksveYdAkjxuFecnXXgYZGdJA+qw4YknrAHbzIedeqqlZu7YJl63ebNt/O9/rXr5ckvDR6gHf/nLlp2fH6laS+H1+KTNhv/8x6rLyiwD29SHfOUrloERkG4qUgC76Q+XqGq39ODnQa08pwvxvENaeagrP+TOTz0df/zx9tRTT7W7ah9++KHxywAcSdy2bdtOR0RsLK+1MUWvWVVdyM4/eISdvt9w++7DS+wTKG3nHjjc7vjGbrbr9W/aOsT7wi4D7Ng9B9mvnl1mFbUNds0x42zP4blWOHuxZaal2K1f39X6YUTvnH+Evzv6+AV72dG7DbKpN75tSzdU2cQh2faD6WNtcG66vbVsmxUdn28DcjpnhLMVBEoBbAVJitJ+Blp6DrQ/Z6WMFwNJ8zQKXhA//vzTn/406OWd/M0PPl9++eWN/NvqePDBB73DIU8//XRr6hDKtZ3EtEsAAEAASURBVPffb59efbVV4/yhFCh+VACdbHz6aVuItPVbtzovL84UKIQDcep4S+HbMe01Hwpjzarw6ePMJBPnGx2Az9dkxvhodaQQWcRAD2HAfQaKStpvfvMbT0njtzt58Ovq1eFT9zmSN3v2bPvHP/7hff+TH4PnAbD8biinjF944QX77W9/a6eibT7zzDNGxe8Xv/iF8dlB4SekzjzzTDvttNM801G3YHW5p/zRTQUuG9O/menh9+DxA7PtzldXecpffyh2j0GhG5SbYc8t3mQlS7fYmm013nQu0xbsOtC+c/hob4qXbsr4Qdn2+xdXeMrfqP6Z9uZl+9tgjAxSzsIUsUQMiAExkEwMJKUC+PLLL3sc8RMwX/jCF+yf//ynLViwwK6GUnbBBRfYwIED283hddddZzxB/JBDDompAH7y3e/ayjvuiOTfB6MJbvSvHtNKi84+21P+Rn3nOzb0lFPs0yuvtHIodWuhWPZDns2F98f3Cz/8xjc85W8grm0QTixf9qtfee7VxcU2/pprIuXKIgZ6KgPuE06TJk2KjNDNmzfPu9zdd9/dMy+88EK7++67PTvb++LFi70vAnC08Nvf/rY9+uijnuJH5Y9Che9+vLi9/vrrnpufkHrssceMXwUIyqQRuZYKfY+zv+dh5G7t9lr7EFO1o6GwXXrkGDvxrvC09KlTh3nKH9OmY7SPkgrFc59RfTz7nE8222WPLrF/vLPWc5+OqeMpo/t4U7/0yIcy+PNnyqy8pt4OnzDAzjtwBOoYzsdLoH9ioOczUIHDmtPwMpdK0N7zL7n5K+TLK59VQC2+g1wPc8c6k+aTJiQ0KRVA10FQ2eNb/PTp060Ao2s8+Xv9+vXeh5+bGx0oLy/30vFj0Jxq4kejr4Si9uSTT9pHH4Wna/h5mFdffdWiPxNT9emnNh6jj9veeMM2oXPpG/jOYMWiRVa3cSM+GphmuyF9CkYwyvqFF45njR1rLYWvxWhG1dKllo7RjL3QgaUj7VZ85oZTzZxOloiB3sCAa98DBgzwlLSHHnrI+NLHh+Oll17qrQOk8peJ0XcqeGz/Z511ljciyOlhKoAujz5YgsHp47y8PG+ZyJIlS+z999/3Phl17rnn2vDhwxtRyg0dVx41zn77wnJ7bMEGL2xon3R77Qf7WR+s83t3xXbP75jdd7xkLl5b6fmNH5SFaeOR9vu5K+wj+P3+xc89/5P2HmJ/P2eSLVpTYWWbqj2/18q2GkG56/XVtmprjf3oi+M9t/6JgV7AQAHa8zpcZ14vuNb2XCKnBogyoBAoATpdkk4BLMO6OCp5FLcY3O0W5FrAMWPGWEujA5xiegJKVVC43uiRRx6JeL322muWlZUVcTvLPv/+t2d90x+J6BdQAHN23dVSMAIRwrrAJT/4gdWsXGlb0XFlofMZjU6JYc2FL/S/YTgcJpU/CpVIT6BUSsRAb2DAKW9U+txoP9v2bbfdZkceeaSddNJJHg3f+ta3POWPDr7MUaqrq70XQfdM4LKQc845xwvjC+LHH3/s2ak08nui0fKb55bZjXPCL1tjB2TaCuwCXl9eZ3e/sRo7gQd7I4NMs++Yvl5S7gZevjms1B0wtp+dcOd8T/njGsCBWM/HEcSnsdv3A+z2Xbw2vOkjAyN9v/rKBDsIu4ove2ypvff5duOuYSmA0b+G3D2UgSJc10x3bTNmzLD8/HxvEIcDOb1VSktLvUsvKSkxB+g7eRgFvBcjpJzuKPIi9OR/XBjanDz88MPcmucBSlwIa4RC6Bw89/e+973Q448/7tkxOhACiV5WGCX0/NBxeO7f/e53npv5YM1Q6LnnngthQXgIuwM9f3QyoVWrVoUwUhizKrWbN4dKUlJCJUi/9a23GsVZcdttnj/DiDf22CNUtXJlJE5T4fU1NaEXc3K8NOsefTQS/8299vL8lt10U8Svm1nqwbNEDEQYaO7+3Yy2hZEBrx2ybWIdXwij+aGNGzdGkuElzwvHet2IH9s2CvDaM3YPe3asIQxhQ0kkDpaJRPyxkSzi7yzPLd4Ysh+UhFKAe99c7XmfOetDz2980WuhJxas9+yMU1Fd54X/5ZXPPb+sy+eGvv3AYs+ed91rocVrykMbtteEhv/kFc/vin8tCd3w/DLPPvnXb7oiQ2f4+X/t/+ZH/JLEUhP5wWQRA/FjoARZee0Qil+S3OrJWY3PPvssopP4nJG7TpWkGwF0owNk4cQTT4yQwalgLvrm5g1KU6MDDHN5cP3gHYH1fEsx/Urh+r9YowNeIP5tf+893MIhbzSvzz77OG9b8/e/26f+Or1sjAZWYbqpEmuTNjz+uDcC2Fz4QIxINGANIaXvvvt6Zh02klT4U9J9O3D0hZeZ/omBbsCA2wCC9S924403Wk7OjrP1XPV5hAsFj23P5HEx/8GuecopWHfr2jd3+/bv39/z5z/mTeFoYazRfZ7LR5mKtXrnHjTCs/fPDj8CuREkO33HufjLMOo3bmCW3Vyywov3Tazxc+kvOmyU7Y7dwFXYGZzur+vjqJ+TjRW1nnX5pir798JwmUfvtmNK2cWTKQZ6GAPFuJ7pvKY5c+Z4I360S2IzwFHRoqIij6ejjjqKkchdkQ8YiZcdT7zEl9WqEtzDnVM4119/vd11113eDj+u48vOzo48/I8++uhIfm46aOLEiZ6fy4NrCIPi/HngbHOy7e23vWBvA4g/TbwNSuFHGMrm8TCTseHjkE8+sVEXXeTF+xxTVy2F1/i7G7l+MGt8eC3QJuwcxnyWpWE6eMBhhzVXJYWJgR7BgGuDkydPjqn88SL39V+QfvjDHxqnj/giV4tlF1T+2O5dHtHtmMfLUD5B2+RUEzeKBGW4f1Dz+yvL7av/N9+O/sMH9pfXwrvxLzx0lO01MtecInfo79613X/1pn28rtK4I/g6HOEyzE9/05wVdua9C22fG96ylVjbl4XpYCqUTE9Zva3Wpt7wtu1/8zveruF8rB38H+QvEQM9mIECXNsMXp+UP7LQeuGzipxRMB38LRgFtHeGpHZGIW0pwz3cuc7v2muv9Xb9srNw0tLoAM8S445BSvCYFx4z4fw5ctCcbHvnHS84uAGEo3yGoykGHH64DfvmN73wjGHDPJPr+FoK53EynkDhq123zkIwl998s+c1HKObqVBuJWKgpzPAHfiUYNuMvmauBWSb//zzz+3ee+/1DnX+/ve/723mYtym8uCOX276qqur8zZ47YpR+qBccgR2+e41xPPiyNwcrMvjBpBfnpBvVx49zkbhix63nDzRU+g2V9V7XwnZF6OFz1881XbBAdB/OBVnBA7N9r7+cf9762zJ+iqbgl3BT+OA50kj+tiXJw3GF0HCm07mrSr31hYej3MEX7hkqr4AEvwhZO+JDBTxongIOxUaSdsYIGfkDmsBxyFlWBtsWxbdI3Zzs/FYJBnCVXhYtGhRzKgYAfDCuU7ovPPOC+GICM+N0QEvPg6Q9tzYYRgCmZE81qxZ4/kzf4wchC6++OJIGC11WA/4/jHHhN6dNi30Ur9+oRLEe2XkSM+99d13Qytuv93zm5uREfroggtCH2LdYQnWIDEew1oKr9mwIbIG8PVddgm9NWWKl/blwYNDVcuXN6pLN3NoDSBuKskOBpq7f7FRo8m1t8F0bLvL0S4wmoc9V7XBoBAUvBBeBBv5OQf9mWbr1q3OaydzY3lNaMHK7aHPN1fhPWzHM8JFrKypDy1cvT20uaJxuQxnvZZtrPTCmU8s4dpApt+O06aTWLQGcMctK1vHGChAcq9/TeL7PVK1dc88GFp8x09C25Yvjfglg4VrAh2PMMlpz5PmiMYRDx4B+C4oHsz1MaNyoTdGByJEYa1PCKMDIbfoG0dCeGHHHXfcTumhZUfS/fznP28Uvu2DDzyFrAQ3ciOkpYUqli4N4QzA0IJvfCOyOYRxXhkxIuQ2b7QUzsJW3nVXRAlk+ncOOii07f33G9WjGzqkAJokyEA3vId7Y5WlAAZvWtk7wkAREnsbGpK9Ia357wOhVRdND4UKJ4U+ufzY0OZPPkiqKnPjDLkEyGnCZcfK5YQXFS6AbDdXFKd4ef4XF4k3JcyC00P8ZBwXUkZ/QJ7TvVxcznPFgsJ0y/B1D+Y/Cl/faI/UYZ1RNT5kn47P0mXiM24pqY1n0VsKb8AxFlWffWaZ+O5pemABe3vqkiRp9Cm4JPkhkqUaLbXxZKlnL6+HPgXXy2+AOF5+MfKacc8991hhYWEcs41vVmuenm3Vf7/BBqfUY61vlaXW11pp391s+OW/swG77RXfwtqZW3FxsZ1//vlMPQsopCWR0lhDSmRJft7qHDqB5M4tQgpg5/Kd9KWpjSf9T8QKSgHsFj9Tt6hkKWqZhylMb0AmGWu89v3XrPKvP7dxW9YYPk9iFVZvualp1jcr1RbmT7MJl/zccgaF1wd3Zf15VuCECRNYhTIgn5ZESuPhq0SWpLzFgBgQA2JADIiBnsZAHi+Is3HJKBVbt1jo3ecsr3691dbVWlZDrfXFRzjqLdW2VWy1yWsXWvmH73ADRjJV3+M00RWSAphohpW/GBADYkAMiAEx0CUM1CydZ+XPPWrb1m2zWquzGqwuSwtBEcQUcENallVsWGnrH7jNyj//zGqwRKsp4VeIqsu3W41/TmlT8Tri39lKdHpHKqu0YkAMiAExIAbEgBhIRgbKN+DItSUf2C4Dc6x8c53Vp9bhsL0QdlngQw+hFEtJw6ddoRCOrfrUNjxyu6WPnmK5o8da2qgxljEiz3L69LXytWusftkS27biQ2vYvgVHtg22voccYwPG5SfjJbepTiltih2HyFofFAcSkysLrQFMrt+jy2ujNt7lP0FrKqA1gK1hSXFaw4C3sRPtvjVxEx6H3wSvLPvYqj7+wCo/fNvSF71sA+oqLVRXg/E/jP7hS5QNKaneVttU2Otq4Y8RwdzsAZaWOsgqQ/W2adgQy5x8mA2YsKdteeM1S533ug3rtx0H0lfa1uocqzzmbJsw4/KEXEtg82rC9TONACbkJ1SmYkAMiAExIAbEQDwYoHK5feM6q9u42hq2bbAUKHkNqdmW2megZQ8fbbk4lYOytfRjq3vjWauY/7L1W7XEBiNddW01v+EAScepHSnY/QQrFL90ePIvJSPLskP4ik9NOtYFbrPMlAYbsRZfFdr8qVW9HLLhdZlW35BqtVsqEbvGBmZg9HD1h8Yp4VifnGRJ3UWkAHaXX0r1FAPdh4GkWk3dfWjr1JrqN+pUulVYexio3L7NKt5/xeqXzLf6jasstGG51WMnbyqUt9q0PpaSO8hqR4yxqlF5ljJgsNW8+7wNWbHIsiuqrK4+ZFXY8JGCKd9U/IUszVKgyKWlwMRgZVoD/FPrLYRjYVKgKKZAuQsfwYcRwjoA6TMxP4yVf8ZPfaeE6pBXmmUDNVWVVlu+FQpg+Gtg7bm2ZEjTFQpgPB882sQSvoviyWlb78uuLLutdVX8TmAAUxhYVSMRA2JADHSMgdWvz7W0J/5sI8qh/EHp4ywzlbcGjACGQlssY+taS1mz2FIWpNr2ugYbCGVvU3WtZWSl45y/Okz1Yoo3Haof0iLIczdghA+f77Z0fMIgjesBYW8g8IcoyBfKIMLSGRDKwEhjFQplNwfFD8ioTUU4HnH13b/r63QFsB2dQz6YLwCcOR12SWMGlsNZAhT7JgyJGOgWDBSilvlAAaC2DRKakFnwLwZKAIkY6BUMhFYvs4wtm60WulYIClcKFLEU6GX4gKPVQ7nDPl4zTNGmhSotOwU7fOug+EFxS2vAhg+oa6lp2bCnc+8v7A3WLzMDI4OptiGUaduGDLeUvgOh6WVgYwjGkmoqrX7bJkz9rrZRWVAasW6wqqYcYVANG7Kh8EFdSq9FufUoEtPGuX27/W8AKpNaClC7OUldw+SrXBmqVAwUARIxkKwMFKBiRYCUPpDQBmH7LgRKAIkYSAYGQqxEIjaBfP7w3Zb2n3sst3Y7NUBM00IB5DAgBRs54PJG9TLroPTBVQslLyU13dJqEAfDfDUpNZbF+Om5trH/SKve40AbOHWa9Rk53uqhxFlGppcPsoFWiVHFGhwDU1NlFauX27b3XrXMBa/aCNuI8wKrLSMtHYpgjWVblm3qN8bKT/uuTSj4ileVeP7TJpAwmyUwpgeI/TnsJb82ex9692QMwOZ89bnnng2Ed7mVqwg4asxxZG+PEV5V2ChScaPyBvOGsJuopZ/MC0Vsvtd4w9H0wIoFGnAj46Ag7/Ts7Lr9jjzylDVmQxE0AyBnM/1oRb4po2sYwMpiwyumrQL4I/YBtgGJEOaPV1lvIQvzx9MNt6FZJR1JJkWoj7tHy1JTU2cBJbW1tS/CPx/YFeCGvfgKc8RLfDjjOlp3eHiOYJEcNXDix8XoQjiRCwnn4GLF2WTmS0bgc5NYbB7avn37dOxuvBt+ecAc4DqgCJB0LgN8zvLxvBFgG0NXhA9LJEZ4D4QA9711DjlhPjJwa8LRk6Wh3yALZeZC9wPFHAH0O1jP8H6GFPSvlVaX2gf9K0b76mswOlhjVZjazcSvlI3Pvq4YMtH6H3+ODd/3cKvNyrHs/nwkhx+WTXGXs9sU6zPlcEvBiODnr/zX0l94xEbXbbKt5bW2HT95n23rrP75f9iaQUNtxNRDmsom6f3ZaSSjlKBS0/2KnX+H2Vv4LX+PyvZDSxiIXm4P1zKSpfJspXVcXIq/TChmOF0IbrNq2ENYQcr1BCl4g2G8aOGPwBua6flOk4nFqQ0pGVaLRafpGJpuCGH3kvf24zqecA5MR59as8V4Cm2GdfP1uK+hDB4djpGUnQS/t1MA8MH5DrAUSGYZgcodCawFqKC0Rnh7zgLOBPgz3QQcCBQAM4B7gXhLGTIcD/BptBxYBpBjdhqJ6qCQdZulCClm+qlm4QXpRth/BwwAUoF8gJ2sxGw9SCgF+Ds+ddVVV/3n5ptvvghfLDgPbsp1QBEtXSz7oPxJAB9HTwPJdL+hOjvJ/vDZFXgL+Gyn0Ngee8L7IWAvP5jt7BUgUW3sUD//FTDzgIuBPwD/Br4KJJOEWJlEjACumf+u1d9bZP3XLcVRLdSG8YgIYUuHVyLW9aG/rEmrsyx0tumY6q3lwr567M5Nz7INWUOtatoplnf6hVjKl2VpnOpth9RVV1n9hrVW+uhfbej8/1hmRYWl1GGKGcpk+YFftv5nX2l9B4Z3Ibcj+52SdOYIIDunZJMCVGgOK4Ve9Bj0Dhvxs83GDPyePKObv3tjNYgxk0dIaBgcrOYHN7lWASOBGD721hk0UVWm4bWxB8Qt7CEHC13T63CmEYayM6AUpkGZjCXI2SuTTyICw6J3PWj2P37c62AW+fZkMPgQ/YZfkXthzkiGSjVTh18i7MfAi8D0ZuIFgy6D4xaAo31zgfuAuwCOCB4EvA3EU8Yis+UAbxA+iaiwPg6UAhOAZJECVGQOK5ORkXFBTU0NXwDuB9i5JlTYFgm2D69lkimvtcGgnQ0QwjghrCUK4YUrNYXriZjCOzaWweG14F5aOgD2RFyU1DmyEMXMzMnJ2beqqupav8ijYJb49q4weL8tBcLDKmYnwv5kV1SkDWV+jLi7AZcCVKpaI68hEpWyjwC2tduBRLYx9wx5BuUcB/wNOAfgC9NVQDKJ1yISoQBu3bDRqu+40nLL3rPKauzSzUiHsldrmTjLpTyLFDRYejrXAGKVXxWOe0EHOgiDJqv6jrFtp3zP9vziSXFrnzWV5bZ5/ltWfff1Nnz7aqvGJpPK3H6WduK3bejJrrvt+M/SmQogdYdkkzmsEB673/o9Okz8no/h8dqPPWmnPWY7wAi7i3pUtA6KH5YjeCeND5oyxcYUfMEyhwwLdzbR+aP5pHKkkFPFuKEbsOiU08Xli5bYZ/952lI2r3NdVXRKz+0UYowEehwdA+XvTbN3S832h1chUAQkgxyGSjjlj/XZPRkq1UIdDvDDqay0Vk7zI/4MJm5jb9SAyh9/ovlAvIWji5RPAY4EO3db6sz0iZYiFoDp3nuh/K2F9SWgH/06TdhVARxxZzvlM4U7BENQ4sLKHyOw4fLRiIUcjABJCTEUAoWP72Ec6We4t33Qt3rhif03Gdn/s7Ky8trMzMy/Y8qcCkExkA90lfwEBTvlj3WgYpXMwpHmXf0KvtvKio5FPCp/lC8CnwPX0QFJVBuLbsPteQ6Fa9iN//cbPMhqMnK9I13SMjC7VovhETTKWjTPFIwEpuAFLbW82hvhS0lLtRyMzK3tP8rqzv+p7XlwQVyvPDOnjw1HnhU4d3DNH39sIzfifax6q22c87iF8va2Yfu5WySuxSY0Mz7lkkmKXGVuR8PCI/cBKFT9KuDJZ2wyC7uHepwPxAEBjt/R2I4OYvzRx9nXfn+T9Z+0B04ih6rWxCgeU0WEHUw6lUGzeXf93R6/7AeWXrHZG72IxGnCwnKrgG9D+bsJI0Abwp1DAbxKgK4Wvr1SMEhpXwKiOwte9IXAKcB4gG/b1wCLgSEARz2mATnA88DVAJWqfYArgakAnhD2FPBzgIPG+wI/Bth50n0vcCvATov5TQeohLAzYNm83YISfPBSieOIFevDUbxLgEHALAB020iAIwpUvCmnA7x18TN4sgD/WYdfAnzA03wRmAjcBmwC2Kk/CLCjugr4ADgfOAN4C2CHmw/w+ljOCsDVmXWiuDpvgZ31JS/M5zsAFcSukAIUSq4Na9nI1QMAee8USUUpXtvEyB4Xj9fj3IcUjqqn4aBYjPh9vLbCtlVh7hmffhraJ9X6ZGCaCSPv9VD8uISDXw/gSxk+e4P+h2eJAay5rxd2ykXsKOSXs2fPvuDUU0/lvZIHFAAlQGfLBBTINoAHm70MFADRL3XNtduDEf9ygG2T9+odAO9XtpkzgbMBto1VANvHowClqTbdlH84Vfg/2wzz53PifaClNv11xGEdKfy1WcffAK6NvQP7IGAWwNuM8flMOg9g/R8G3gR+C7B987p46/wJ4G/HtsBRvq8C3wX43HsBOAKgMP++wB50QMYBc4HBwL2Ae6bC2vOEo2FVu06xhk/ftT7Vmy0LfWxtQ5pVpeNMPvSlaQ2ZhmOacd4fzudDm6zrP8Qqv3KhTTi4IGFk5ObvbkP+9xe2+o6rbcT6ZTa2YqVtmf+i1e1zIEYjk02lap4GNoRkkmJUZgZ60St+Ch0GVO7Gni3ZKtkUYQ14A+E0LTsW9vI1eHv50i2/tYNmXGgLHnrEVswtQTieIcEpI9/OEUBeJ99q2NHUDelv+150kQ3E4ZaPnH2uLXnyX55GgNStEub1HlAcjj0LRmHY2mX/T0bJfIB/DhwPzAcoQwAuqKYUAzNogbBTYWu6GHAPUT4wQz74sMWQqu0H/BtgXD7Q9wSoIP4M4AOS5fQDXgfGAouBLwLPAccAS4GtwFRgOLABcMLySn3HJJhDgZd8d7SRDw92CqxrUG6Ag/X5LnAXcBGwGegPHAm8DFwI3Am8ARwKuLqx0+M1vArweqcDywAqq7z2aLkKHuwQ2GGiGe0kDGOcrpAiFDpzzJgxv1+xYsVXYN+t0yuBdskXsAYodmhiWJdbh5ss1Z5avNX+8eoy27w9wwZm9bUJIzNs99GpNmlUHxszMMsG56Bzwdoi6IpQ/tKQBZRHtls2MugEUAlh8ufxPOjZGfIKpoJL/Kngrmrf9+FCqdD8BSgDfgW8ALBdUdieqPzkASTJEcV7ly9yfB6QuDqA7XcOcDTwB4Dtnu2yFJgC8NG3D1AOxGrTFzThz7YelCvgYDtYADC/I4Dm2jSVvTOAoBwExxMA29hxAH/4p4HVwCiA8izAslne3wA+93iNbPPHAujibCHAvKg0/h2IJRPgORZoqo5M/3ashJ3ox98V7cIz4l7s1o3rre6mK6xv2dtWm41Blmq8wKVWY+MHiMfGj3Qc9lyL0cGcihRbsf90m3g1H5ttFdSd1ecv2cp2vPWjebb+1ittfOVntmr0HpY74xc2ZI9921rwTvF78xRwAdlAq1mdiw6CvaT3e9CzG0gKdinVsGMYNNiyBw20kZP3tOF77WFVK5bZa7febh+9XOJtA43VTOpxfRkAr5fh24E+Eyba4eecbaMm5nlDYfBqtTCPfjtiF+ywdomNDz4+SCm/AKiE8ZLTgN0BKmdfBmYANQAVhDnA+cC/gd8CecAHwPEA054GkKZigNQx7b3ALOA8YDTAPEkDO6HDAJY3GBgCHANQ2OEsA/jg3gAEhQodheV8DPBh7+RWWFgWlTHKMICdwjUAr5UP5ROBjQCvhfIOsCvQH2CHRoWV4sphOOVvAOt3FsBryAQ42vkqwDJZ1nyA+fO6ZgMUpud1s2OisA5nAj8CvgVQWe4qyWfBBx98MK97N9o7Wxp4nL83p8ujIkK2sTbNnnlnnT36yjobPnyw7T4s21auq7A1m6rsk+WV9mzaVhvSP9V2y+9rk0bn2vhBWTY0G4fNshNi5XElIaw34gV57s69oMPvvPPOO8477zyWWtC5RXul8Z49A6gCfgEcDlCCv21T7bYc8e4CSNvvAL6UHAL0AXjfU/nbAPB+XQesBAYBvK/5vOgHRLfpbzThD+9GEt3WnJuRYrXpi+A/DuD1zQQ4csfnjWtjbHPfBii0O9nft7ANrgWeAU4AbgYOBCoAPsMoLJdCzeWXAOOcA/DZUQqcDDhh2C0A8+UzixzR3mOl/+Chtmqvw6zu84WWifP+stB2U/gFD6yx4uh8JRpgRlqNVYycYJlnXN5qHkI49qWussIqNkPB3L4VczM1WJucbqEs7Cbu089yBgwyfiYulev3Y0j/PadYzdmX2oZZP7Zhm1fY9sX4+eOgAMYoKmFesa8sYcW1mDE7efaGG/lUweM67sI8vT4gFM6aRng9j+/RRIlMV48hZtx7eGpxly5uQti9vJgG9gbcLIMOnWaTzzrDdj9img0cNcrShgywbR8vtdz0NK/X7gsFkWMGwWvjEvPq1HRv2zo/S5OKUcKB2bmWXY0bnGVQ3WmH8InpS56zdJH5Pyh3D4APcr719wVWA2MAdhhUABmHMgt4zrOFO4kc2KnEUK4EmI7yB+CbABUeyhkAlaTJAB+uzMeFHQz7G8BlwKtAFsA4ucBbwK8APnyjxXUO7yGA/bxzvwQ78xoBOFkGSy2Q73u8CZN1TQPcayGeEJE8PoadiiXloLAReZA/Ajc7mqE+noJ5I8B6u06D11oGBOVdOI70PWpgngowznLfr843u8IoYKFf+9rX+Ft3gTR4bw1seDjb39ZU1tm9r22yue9stP3yBtl5XxppQ/um2qtvL8H3RfvagCGj7PM1FbawbLu991G5PTevCh+LD9mkYan2lQMG24FjoKtw1N6NBnbBFU2dOvXsLijWFcn7EWx6LytsS5v8gLEw2WYpTbVbttVhwDqA9zHvy1cAyoNhw/u57oZ9CsBHGdvga8BAgBLdpteGvXfy970jhmvDbIsU526qTW9DnD29mOHlGqzzib6bbWsD4PJg+6NMBAYDeHp79Ybh8XQCTNab8l3gQ4BtdAiwEbgKqAY+AM4BYtXxCvhTNgNUALuyTbMenSIDTz7HKstes8wl0HWx67ceo/g8c6M+tdZyM3MsPS3Tlh9whE3Ma7mrwy56q9m60Va/+CR+0QdtaMM2fDWkCidu4BlRj0c4dwxn5dpSjDRmHj3Dhh1wjOUMGWmpGdT7G0vOngfZlv2+atkL51j5soVWuXGt5Qwe3jhSEruSTQH0qEKlLkrUXc0BOk4BsWlSmfO2DUGlw6QrvPxp2CZ+MCpu6ciAowf8S8WUEoehOX1bB+Vw3DEFdvwdf7ABEyfauo8/tmWffGbDUqDf4K2iGmcTVSBfb7MH0kZLDW48XjNnqfij1NfU4AmIEpFvWmqG96SNTtOSm0+gJBAqe0V+PaiQrfHtztjdt7gH47MuwDepPFHxoXJVAgTlUN+xAiZpex/4J/AP4BMAP7Q3OsGHJvN/HsAP4q2bOxnmX4AJwO8BPnj/DATFPdjdg/hAP/CvMPkjunCW7zogF8elYeeRC7D+84DTAIrrLFif/T2fHQ/8veDO8P1ozAFY3t5ANkBllH6Ur4cNbyp7M+yu/OdgL/PD9vPNj3yzK4w8FlpYWDi2Kwrn9BS6C9wR6bZicwqUv1X24scbrGDySCs8cqQN789RvZB9Yb9R9tQ7y23AwHQ7atIgmzqhr5VBEXx1aaUtWF5uc5ZgiDpjg+05MhtvMUiBfLlRmK90vNk6U6ZMmfJVvzyP204sm4rMUX55F8IknJAG3tN9gKba7f+zdx0AUlVX+5uZnZntvdOWjjQBC4oNFHsssZcYMUZNNEaTmD9Go5DE+Cd/YqIxJsYYY++xYkFFiogNRJAifWm7wPY+O/X/vjvzlmHZpSmwwDtw9rV777vvzi3fPfecc622PoNh1C7iyWrTG3hTbXIy+VPyU+QWsiaQvyXfQo5v053dV9u0KIMn/WIXVvu02ktnbbqE4QXQ1P6sNmvFsdKw+gHr2mrj6oPqyaIR0UPbX/VFIistAVB9r8hq01Z6VvrKoyiNLJApWho9HNh/E5OTUcXmm5roQCt3+XBy6Ve7s7kcXAp2NKHZ2Q/dLvqfHRZChJ41yua8D0x5CCX1K+GrqWNnSjdrHo7RQUoAuVNIgG5eguEalHhZfafej81v/AMVp1yLorHnwpupqrCFUnILETrhApSvmo/G0nkIla2wAeCW4tm9MzdF3r7di7rDWMbyj01ZenrGWThjCPqJNaqq9xJ3RC6K4pQvSo6RoqUfcogDgLal8fTvg3G/uQsZvfvis7//A5888jDN1ltx2l2/xtBTx6PbmKPR2tgMDyWBHb0hxNrsZQac1AFUX9Ocmoz0gYP4riCa6mo6zVNH+exi99RRF5AF/NSRWzScJxq4LAAoYCMSYBRJQpBP1iAiUsEISNWR1SGqc1WHLnqX/D1ztvUf/ZR3kv9FlsRN79D7ysmKM5D8Bvlk8qHk9mR1vOqINaApvGh29NAGAK2OmlXX6BXpsXXPSkOzfXXwh+ghaTVZkpJ/6oKkqrWYrB7mebIA7Rqyyugy8h/JmWQRa7AhDWa/ip23f5++UTSMfLo5i7qtiJ3us8Nd++LN0qtRgX5FMPf4B9VYWt6Cb48qwvlHUvLnZTUJslCdfqQlJmHYkD54+s3FWNKtFT3y3Ej3sEMa5sFJgzPw3Of1KK1oxOYmVlQuD1Nh1/QcdEfL1DvrOfbFF++xd+pD/xBLfR6P6+PedBrP1Qb6k6ti9xW+fbu12rralEhhjiXPJFtt+naev0VuT5216TIG7Kitx+dPEy3FZw9uJos706at9ruccSwwZ91Tm9O3qY2K1KaHkG/VBclqkwLqQidq40pD/drl5LvJ7dv0tbw3hixSfPWHVr+zUTdJN5NZK00/9pluHOhUV7YGyXLw7KZYhBK8JB/3/eBQ6uCELuhuRnXxYKpnWNWq49II0ghz/ZuPIWXWI0hvrkK9wwMHl3oddB7todGlh1LEIK2MXZQAihp53+1zoMDRiNa37kH5og+RK59/JVYXHn1PYv9haDhiHDIXvsZf1+p2o8+6+l/1iV2O1Er2GEmCRxTY6klEt9FHImfAICNO1kbQGlc1UHTWjUsaF2psROmnH6N12QqkMKwkek3cTmbU1ROQf8ThWPTCi3j3l7chXF9LvQQH1r37BgadeBxOvOMOHHb1NVH0yHjbkiSKSk/SSEoVvAnIKumJshkzsWrWNNPLWKP+tnG77J1C5kwAUPQT8jPmLPrnNzzcQdZgIXqT/F3yfeRLyEeTf02+nyzQp4FhDlmd4DHkErJAnehisjr1BvJo8mTyAvID5KfI2WT1Dnr+BVmDBVurGbxG8CjS4BNPPXmRG7uhjngkWQNVPZlyIEOHx47Kl2goWb2HqrAAn8gKYw0G1s/4Az7T9/ZQINJ8sr7hSbLuTSP/hKz8Ko8aWNaSRZpFKD2FSyOLrPStwelq3lMc9VZu8vtkpbmvSQPmPiAnFpeH8ej0KqyurMe3j8ojAMwjqqefTj8dyjr5s1ANY31TEBvWV6NbdjYCgVYc1j8HGQmS/HvpioI/ankjXpsfRml1EH3SKTlgfEkOO2rR++Aj98YrJ/Alqudqk+PJWrq0aAlPBpEHkO8hK0xH7VZt/Yfk08gfkIvIleSjyGrTajNq9y+TM8njyN8i9yV31KaTeH8VuaO2ztttZLWNr3inmSzQuaM23b79KjErHavN6Z7oBXJ3slXH5/C8hPw4WVXkFnIB+Q7yd8h3k602re+bR7b6I56aNq1r5VGk9L8kWwDxNzwPkA94ql00A96GlUiizl+Yk67GlAASKbFzRrxUnUpDy0gNCZ2TJPUbpr0A1/sPcYZdg0a2dS0bi1oSPGj1JjJdB4Uw7Atam9ne/UbFK8B7Ie4d7OSYXbh5Aeoevpl6f79D9iFWtSAS93iQ3O9I1M97kzuEVHWeiS74pEsCwD1aTmGOzpzlD7rsMhx/68+R2b83cR97dv7IFAGwmVptrV0uNGxr6Zi6AiunTcGUn9+O6gWL2PVzFD7hRBz5vWvQuGYNZj1wPwIEf1lUHJX0bvVzr+E97kPY73TqCaSmMzxjKJK6gziSSbt8kWl1z0BAVvK1H0zFwkceR9PK1UZUxFzubyQQkkJWR/hsu8xb4C0vdl8dvjp4dW6nkNXRvUj2k39FVufZj9yH/Bh5LfnvZIU9ifx9sqiCPIOcSlbat5FFq8nXkVvIDWQrvK5/Q44Hp7w0uoQ6aoBbSr5GF6SPyfoFRYOjB3NPp1avIDAXjD2zwnwUu36ER+U5h9xK/gtZQE/pKk8aFCvJV5A3kAUkh5DPIP+R/Dj5u2Sl+wGZNdpYByt+FrmQvJxcQ9aAKtKAe6U5O0j/+Nmxf7qsEZ+tduD4w/Nx6ogspLj4Q2rG7+AJQd66mhZ8vLIC2YlunH5cEWZ/UQavy03r32YK+jwcbBzonZ9oFM9LK1sQKfGaQcJI/9q15wO4mH8c+7bf8xgP/nRb9W4QWe1ue+12I58/Sz6LfCy5lqw2LrqZrLbYl6w2L/qUvIrck9xRm1bpd3S/ff7at0W1K9HH5M7a9GEmxJYJliaTamMCXgKAApJWmxzAc/U9jeQzyZ+QHyKrXb5KfoCsPOhbNTErIT9CVrvvTVZ+/ky+kSwkoT7rZLJoMvk48hiy+o3fkh8kHxy0dgESwy0EbVp148/t5Gcn8EdT75eUg77HnLrdcqhb9jk8Hz6BooQGTuS8SKSAZXNqT6QOHIVQTk80JuVyfKeqVUsFUqpWomXVPCRXr2L/0ISgKxXhgNYIm5DZ1IKqJ29H5Xd+h9x4ENhnKLz9jkCopUVbN8Kr5eP9gFiSXYpMI7x3D2ZJfrw8Awfiqtf+C3e3bpj/zPPwlZdTWkfxL1EZXUuyU7f6gq0zEgxEKOUbhQFnjMfnXOJ9/a57MHDMkRh7083IGTwEU391B2bQ55+meEEXZxhMx8X14hY33UgUd+N+1KmsRB2nLUli1DGttpGjMiqvGyqr4SNr1uPmtaPjqFtnst2VetMY7YvfWs00kSyQ1VHuk3lfA4UFlnhqpG5qPQI/7UmDQgVZUrh4yueFWAOJ4lnvUjrqWOvI5WSLVBYaTNzkUnL8+3nZRpIsKH8W9lZ+479F8fWN6pCVpoDWaeR7yNbgRXRhlmsUz6JMnii/q8h6t9JtJisNvdNHVtcmUnx9h55bpLwrT/pWPRcrnyKF1bnKQOEEdgUG9zWZ32RPuYrY0cdJqv7ix9V4/OMADilx4pJRTgzvngW3JnxUv1hb1oI5KzcitzgVI0vy2R848cqs1RgztAA9M5M40LBfoJRwUUUAv3uzHAMKEvGzU/JBuxGWNJ/pl9sHtDddRsQ+z8Ojvlp1tD1ZdTW+jShMX3JH7VZ1vYi8lhzfBpVOL7Lq8kZyfP3Vvd7k9m26s/sM2kbKt/qj+La0vTatvK0gK8xo8qdkkd6l9ikQaJHamu6tJyv/6htURjoSqph+gwdDii9SvyFSGH1TOVntVc+VttIT6VphlY7CrSFb7Z2n+5z2eNuu/Md1SC/9FE7uAhKOtHJ3LPr/oy5giEXXmD0Ehbc/12khNDc1oOHtf6Jg8X9p/FGBgCsLzb2P5rT5u8gbdHiH8TatWYHERe+hZdq/ufTs4w+q7VgJAmmFzOEcFcXHIvWK3yODOoAWVb33JHx8V97478DDpeXdpb3ZplWhDiqSm5bsXj2Q3L8EpTM/wTu3ToSraiPtNKj8yZLQko6jkxLxUVrQ/WhaGo0egQHnX4hL+g1B8YB+SCssQN36zWigSXnx0EEIrNuA5roG09N4Za0UisC3Zq1pzaalxNJv/x71gLqnHlak3oo+aWlowkUmbYTdhmvM4/3hjzqw+M62fZ47eibpV2e0spMHm3lf3J7UaX7V/iav9TOoE90RxYM2hW2fX2sAuILPHiRroNC9R8kWCai1T0dAVWyRla7yZZ1bzxS//T0NmBbpudgia1DRdXw46/lBedTErkdBEtKS2S6p+7N2jQ8etstDeudhSWk11m6oR+9uWQSHGfDyvgw7Cuj2ZXN1HQFgclvby6VPwO4ZbmyobEZlYwgpXAaWQEIj/kFC2wMeHdVVFcvKTspG7WJVB8+UTkf3FbSzNt3Z/fjkO+qP2rctq02/xIiS4qk7nk/+jGxRfBuz7sW3NeVfLFJ6VprmBv+0j6/ny6yHHTy3wmuIWB4X7qA4rdlcDqevzgCwkEAYx0MHLXaN2hbHx7rMojafPB0VSCutc+s/mYz0UB1du2RQX/BoZF4wEYntDDri4xb06scpSD+0JGYiOOtBBOs4LFEQ42LfkehxcW9iGn3Mfh4ZZ/+4LVoor4T+CCs5uMSP8m2Pu+TJQQcANVV3UWdPXXag0YdgPU3AKV1zBvwGsKnV6udrD850rU6+iWAx4m+FJysLfY8YyZUj9ilcFs7ono/TfjsJzZt/gOrlX2HFlKlY9cbbqFm3hkpaESIDKq1aE7q4xM27+CfEN3opjZChiXSKwjwPsZJrcPEofwwTF4052ULx+dW5TXu9BNgNGUBZxuOfyAv3eg7sF+6gBCIozHRzeTfAubwT/XrkobyyBnM2cNymlP7YQ/LRL48K4RSscLWYIVzokZWIJespuOpTFJXFcABIo8FICV3BlG5qRFV1I3qnZzI6I1BiaNMBVQICpwJlX5BvJ9tdKwthb1PN0o/R8sUUeOvWGflnmMab2vLNybZo7CU5KPsL+mw3W4nNNeifyTbaGEG5uxuSx31/u+AvPrHCEy9BQ1oK3XzfDR/TcXE+0BpyUTUkjNalU1G1ahxy+gwzUdK5DJzYymVqj4TM+wcddABQ8r2oPSBn7jyTnp6AlaZWAn+dgSzdF7dK6cDrRsP69Xj957chjToCiZxVeIu7I6tnHxQdOhyDzjwbA848B+suno3PHv4nlj3/IlzUIUhwEnTyrdpWSj7ENO3jyhLBnbT+uDTNcymiBuULhu/xM0PqdaJPedIJKV+CtGwTJo9+VlMX02RKvGv3W50U2zd5+zEmJrapy5aAA3kpDvRMd2DlpgYkpxUgx5WNjz9fx50/UrB2Iy0Jq1vQPS8J+VnJbHN0UsndeOaspjSfTT6ZOoKiJLcT3YrS4F/UgHWVrTi8JEBpRNQUJBrCBLP/7P8lcPn+/wn79xdUz5+C1nfvRWozJYAcIX1a9WY7dBEAOiR4IYUTOI4mS526Y/JRJ6+2bBmS6CoGeRynh55BN23DOw7cyd20I87CuuWfonD5a2gmXpB6VojTyFDdakS+msYJYhQAJqZlQrw/0UEHAIWHAs2UqHPW782nInifXvBQxOxKSISPomVu2Gskgh39iGEuAWcPHgZHSgaCpeux/PXXkMFlXycrpN9DhfCkJLiyc5A79FCMOv98DD/vWygeMRhzDxuFWff8FY0b1iOJuoFyOENBpJHqSbInsBdyEbRR9FBDlq5gMr2Qa49DbR2ngSWkQaYDLGf0BdgWAjWNCHJj6lTOiCIEmFoy1rZ0NtklsKslcOmll0zjVGIS95udsatxu3L4VPr66p6fhnnrWrGhIYgwrQjHDMrD4KJUNDcFUM3NgJes3IyFNPhIZFsuyPOgKZSKdRW1SPFEUFYfRG1zAqWGEdS2hFBOt07+CNup9AgPALr44otHOZ3OP/B3P/kA+Bz7E/bjEqj4+BVEZvwVucHN8IXol4/uXpxe+erkShrHO7MtI6+0X7dfUpROyMddPqrWLUGRK4BNjdTxz+nVScjt384cOwE1q99HSnCjyYOTeogpiSnwVa+Fr5FqJam7r/O3/Tfv2acHHQB0E1TVLl+Kik8+RS/q81356gsINTURz3sIsLjPJ2cWDiOhixW86lYMRwWpdJrSjbt7eJOw8p234SX4M5I3gi0PZxp+cqi6GpWrVmHKrJlYNnUKTr3tVhz9k58jpUcJ3qMrmIavlkYd3cXGjARWXkkiPQR69ZT89TvtdIz58U1I7t6DLxYYjS5KRxzUEzYy744qRJhe0jfgnb/cg4oPpiHRLCNLcmiTXQK7VQJjWdmmX3rppdMcjtCkp59+fuZupdKlIkkaTr2+3GQaW7mxdKOfTtqbMKJ/Lgro6C9MXT49a21JRnMzAR4niWs20V/gZifPV2JYtyS4aW24tIa7hSypRXGWm06iM40FsVxFSEDY+TDUpQpim8wQ+PUl8LuLv/nF5P31M7b5LvvG/lkCtV9OQ+jDvxH8rUEo6KXlr2yFAmbZN+otg22Nwg15zZCww00ffp2RdvYIcFyWApc/qRjOpILOgm73fgp3AqnJ7omsqirjDsoIcZzcS7ypHKGq9QSAh2w3fld9eNABQCN6Ky/D5F/cjuN+8XP0GH00woWcXRBnSRdQJzG8t81vpqWelhYfPrz/fsx+4B/GQZXCaj9CRXJxiddL6V6Y0kVf5WYse/wJNK9ai9P+9y4Mv+BCZHUrxoy7/4DVk9+gBDJsLAYUUT0uo6DgsKNxzt8fQHLv3ghSyZw7FfIZ2aHF4ihQNC+KzxlnQ05KNnKHDcF5/brjlQkTUD/ncyP9Cyrhzj4mPg373C6BDksgMi4ScY6jRPB9No1Jzz777AcdBttvbobRPSeBu3y4MZu7gJzd3wOu+EZVMThd8nB5N81NfR/+L6ariG5B7gJSXY+R/Qeib64Lby3xYcb8KvRLByacWIDDi2mcyXbskBuZ/ZCuuOKK/EAgcAfH0evYUcgS1Sa7BPZpCTRsXg/fnJe5PVslmindS5AqE8ewBNPGeMILrZ5FOE/RUezxxxuJb539BLp8y8ijh6BaN1U5UpCYIDC56yTnbL7sQXA1LaabF9lB8cUEgI0NNFKvXI+sXjYA3PVS3QcxJHGTJt7G2R/iuasWI5N7fjroFDLkkHURJXkGCPLHbUey7AlTctBKXb6mjWuQ2tBAA/SoOVeAlVIYUIYckRDdv9CJJMcSOpUMYfPM9/HCddfg5DvvwKDzL8KlTz2GRa++giUvvY6KefNRv24ddf4Cxs/B+WedbcDfF08+g3d+8wekcwu4CPPl4A4FDkoIO0JzEUoNWygeP4nSxeHcg7jvuHH4nP4JQ75WfhMzZeK1+xj70i6BXSuBE1mVTrzsskumsuPV0vCsXYu+70NHuG2AWn4R/bYUUk9i5go/AqMy4U3ivp/s3KPyQbZythdtGZfAPiESjCCbVn0Dux2CyXQh8+Sn5ehRnI7rTsjHyAKmp7YV5hxa7Ww/ogsvvDDV5XL9LBgM3MKsp+5HWbezegCXgN/P7VAXT0FO5WcIBcK0qE3hbltU1eIKm0BgR6RxN72uc5u7jNwieIYeRVOe2XDX1cLhb+9BrKNUt73noI/ApO5D4Kx4E46gz0geqUTC2WMjXC1V20bYT+4cfBJAijLkEyyBnXe4qhL+ikp5+DH3tNgqmNVZdy7zkSBropeVUQslHB84eESPWp2NcOlV/qRpIMQl3ei4oDhNixZj8g+uR+nUdzD6x9dh+BXfwZCLL4dvczUaaSXcvLEctbXce3DMcUwjgs2ffQr/8vnMSzRfkv8pbx3lS/eo3oqKz+cgfNEFcGflUp9QInEtdos0W7HJLoGvXwKsmiexlp/EpeH3nM7QpKeeev7Dr5/qXkpBDYWNNoPS8uF5ifhiaSNe/qAGS1f6MKS3F4d2S0ZxjjvqF5D6QpK9L61rRHNWOv4zowJvf1yDYYOzceUJ2ejHfYK5BwHVP9jO+N8YcjH5jtrnXvq6nXrNtdde625srLuOIP4ORsjfqUh2ILsE9lIJtJYvQMvC55AWbqQwhn7+uM8v3XOw2XIU7VQzIUw9/NLt5jDgzUJSqxMlrvVo9K9h2NHbDd/hQzZuB/X8I9T1cCRwgOe19gDyMF8hGobsr3TQAUDp+AX448lK1m2AHK/1U1L/j37A+TsKNvFBR6RpiAF41BUkPAvRgoNCQzp9NmMLvEHeYxIBXieYZFhZaFiSSLDppG7ggn89is9ffwM9jh+HYd++AL1pHJI3bDCcRxzKChUFbebNlOiJBFRlsUz5JJ9L52HbTMmIxBgNU+SoJPy84EBNkgHJtuHb36FUZxLDT2x/3762S6DzEoiMD4ed47k0/C7rjpaGZ3cetms8UUtSu3Cy/Z94KA03EiOYvbQZi0rrMeerIJeG6JG4MBmj+6ZgeJ8UFNGwcOH6IGYtbUUVjUDGj0zDJScUoNhLOT93JAg4k+Fng1NL1SSwq9Nll118SUND/V3sSPruKK/8XXei59hRKvbzA6kEiMF+/fTTz07aU98kwUfzhgXIdXAJ2NEMtzud2I878HCZ1eEi8OpU/52ijqYNWPL5bBwyakyH2QvkDEBp6giUhGeh6svJaMk7DAXdd9gMtkorQlWPJvoClH/QCAdd6R5q4A1zf2KjALxV6P3nIoo09p/8fu2c6ndTXdKavltLOLwO8lqSvTAf6F+HxAoqi1wtISdEuM0bZQRhh3z20bV8bAIgQGnBR90SYJOYWPsI6l8iX4fyCqx/7nms/u8LxnIoM78AnsxMBBK8Zhm3zyknIcSE5OZeaWlxSm7g/dH6xrOtSZhQruMd/AiHPoz5lMRQoJEW8jbZJbAnS+BkVu2TOYl4J7Y0/NHXf5lVaa3Zjq6tczVXQbkoRUPqyrpnheU969ScaK6ue5Tgs9NO5R5wZ4zKx/hhYVTVh7GEbmEWl/mwuDSE52eW4ZmZ1KnNTUFtKxeNG1txwegcXDAmG6mUSIRoIQyCP2vVwLRStbutLIGjOdPfaDbY+uPyY90zX6ELkfVR5sK6aS7aP7Ru7tTxsssuGs8M/4HdwqidimAHsktgH5SAvFm4MnujPJiJQm8Tt15rJLKjhC0xmdb6XK2jc/bOyBX2IWn9dKATAJhT2B2ukWeg5v2P0IsgsGb5ZAQKrifI3AW1V67uJTRvoFoIDUq47qzm6nGzP6GAJ+CVKej+SQcdANTP5BYQM9As2u9Kihf1K2Qe6OE2pB/cdNzsSekCMnrO4Iqhzl3PBdhE8WGjVYwBTP3lE8bXdhEGpdXUoknMS6mxrpj+DvqcehKGnXMuQpQ6uBICZkk5kSLFMCud0elT3DiKhGi04knDoPO+bUQRvo3r4OY9kW0EEldQ9ukeKwFWaRrldSSf3tVXqjVpyqQOVvJ4GWRJ/0cSdzpGZ/NR23IxjM50LxqWkzPT+hSfLU5Z4amkChEu52qrNwcnbWqnTjZ2F3V5tTuPh+epNArpmZONcYO53Qon82s25mBuaS3m01WMg+3o7PHF+NbIDGNUFaYiutJ0EOxpSUqSPzlsDzNh5URNXPmzSNdSwEhgWG0LqfYbternd4XpNsoKrICaSTKdKMBV5nmtPwZY6k27R/R/3+sHAABAAElEQVRswLHVJLZ7Cdix7BLYSyWQO3gs28UklM24G7nOTWZMbvLTsTJ14bUHcGckkYe3fBof39ZZEGQOPZ0SeypufHoPclY+geWb1yJv3E3IzO/JZqa2q0mkg0Yd9UhJy+C7rcYZTdJBPf2kmkUEogSAdOUmCtPCOM3TgvKvXsemrAEo6MuVvP2MuiQAVNHvyS4rvj+03hN/r7Pf0AprHRXOOreO28SNe6BK1p5Mv8+b2ax8i557BaPPuwTdjz3WcPuwO7peN20Kdx95j/oOIS5zRwfILbB0R7Ht53YJ7GoJON4jIJr4TS0BS54eomad5OtG+9U0F7WaIIGUm08JugTujMQtCsSiOVYrijpnVcwESuYN6KFVfohbNwkWCkIluPiGGHgz3bvAG98oYw6Zgni9YVrzJWBYr2LUU8G31R9GZiInX5xPuTgBM1JEdhTKm1kLYpoaJ9TSon+jZ06TRyMooE6hnhDw0ZJfb3FSAqm8ydgkRGDqJKg0gw3vKZ9RWSXfpQxKuVAUO0Qvdu0vDXbeZYx3tQRMjH4Xz/vuWgp2aLsE9l4J5A09hV4tEtE69wGkN3AHPi1jqXmpcRhSYzAdQ+ya7czjRl5CGRa8+D/0tvF/bffbn3iGnIPWhGS0fHA3CivfQto7n2JtM73tpg/g7K8CSaEyNKYNRe/z7oPLs7W1cCTEHshXTjAaivZFWi1km21urkX3hM/RtOYtNBf0RnIqXQTsR9QlAeB+VH7fSFbN8EGT96bVq/DwxVfg8O9cRrcu/ThIUP+B1othoxPIgYNShPaDgWYtGiDLF87Hl088B8+a9QxPAEg9BVlP2WSXwDddAgQ9Uykxn/hNG4GoazcTIgIf6dgECI7kmsnlaDH+NuktkyHUBhjSTHCiX6b2Q7meuRCkk05vhFa8tKGnmget+xlc0rsgwwhYOaQna9LQNWf/CsB2FKakUeoTYYKzNLbHDO77K4mfcJikj0pb2zSKwlo2YJzotUBqiE8FDQXe6K5W6ZsQiqf3me3kEaZirnYS8HDpiL73omOZBPYMb0Afoxn/ZrHIsWR09bXo6aefe5ZGIP+1jUC+VjHakfdCCeQMOB612QPQ+OVDcK5+iX78CM7cbM9BSvcdKWglCJP+vVtbsoUoqWd7c3JHrm7Nc7F68Wz0Hjym01x6B56MSK/jUP7RU2ipmILChHoE/SvhyCrE6swbMHjc5dvEDdP/79q5L6FPAo1GaeUZcrewX2AfwPc7vfQdymVh/4pX4MrnMsLQs7eJ35VvRHuprpND07v+yRKLdZ187dmc8KuNAQqXprR6y+pkhjMNRioQ/Ujb+6E0FGkMkS9yLxtKMwEgRzEapThwc2zA2kESfGyTXQLREtiOEcD7rIkTd9MNjGnbAlSdkfXEQYVrgaAwuZnhyxuD1NVrRc8MNwqpv2ckaCYRLQ1HW4f+yiBKS8itjCewJ2t9XzCIRXUBrGr08x6QRb2fPFp8aIJEz+0YmJ6I3EQuxyqq2g3BYCQc7YAE5yJc5nHQrD/MnXo02dITvUZWwiKzOC2JpInDZzw1Ej0FEjPYRn7PspYAPNxJaHAKdXqZhxU+Dza0BNEjIYiBqUkGNApGmn8EpdHIRp7Jd3a+BBy3VBXNEGPuiOQGxu123cKi/RnDbuMG5plnnt3ptHb0Lvv5QVECqulmsvRNf23pwtlIX/cs3A1L4QpyR5CGTRwrqYvLZWG1PjfF8wGCMjfdbrRy+taYMgxFFzwPh3trCd7XyZe/Zh1a3rwcSS0b6ASak1BK8+Weja6UuCJBbS626+S0dFQVfQvJR/4MSamdb023M/nYnTa9M+l2FKZLSgBlZW1qVEc5PgDvqbelnROrL32TsXonGQcTASTynoaC6HDU+YcrPheyKKVgGvRTGNU75JjUeRT7iV0Cu1ACjmmxpd4PdiHSbgZlyyc4c1Ds5iIQ2kyQdO/0Mny5tgG3n9EDBSkyiaIsjhMcPWcXbK51j4I7HihpI7JJZIuoCTjxyKJ6PL2wkr4yBee434+WYL0ONFDCN9xbg0nH9UdOopvP+JzgT1JDqnUzIUEx9vXKC9OUzl8U2Kk1auiR3lC0dYbNUq3gIUlzL8XkhYy/dPzv+kb8ZukmHMY94h85ph8NUYA7F1VhVlUTbunlxMBBPRjNZ/JglplNSpLsR0Gnkv0m6YUXXqCGPSbREfTftziCbus2vslX2WnZJfC1SqBkKKV5ZNZTrFkxF6G17yJn0wtID9FMUmJ5uttwJ0rliU6ZqCtf7F+GyleuRMaZD8KdnP213q3ILfUV2PzGLShqraB7tWQCP3nXYJ8jqSPfHyICdCWy7wnWoH7NDKD32V8bAH7tTO9CAl0SAAY9u2tVwwoR7bbjisB043HXHZ22D6Prr0PKRzxZ6cXf3/JO3fWTNZxwwUpjCHtj/Yt+jY9HDXPxsXnZRrpPOYWJp+FJrDQM+elLySa7BHarBBzT9uZWcNH6Hau5Ak+kxoZWwz0zktAtPdmAPknpXFSLkGsG09wJ5kSSDArIOWQxyI56ZX0IL66lek9aLq7oH8HINDcoSMTkTcAb5UGkZXiRSd9eLsbTmk7QLAFTykfQ5+TSsXR8jKNnLfXoRXyP2qhUMYxULiruM14E9Gbt8i3gaqLxXLhQ4b5spG/PhFzkZIW4V7cDa6lbuMjvQmtaDrplS6poUuXAwpYbSzPCAYZv3KP0xBNPbOYLbuRWcPdu2Qqu025mj+bFTtwuge2VgCx2+x1Ch87kdW9vQsrGyUhkQwu4E+n6rI5tn1MnSv1a6DomrWUufDNuQPDIu+lho6eR1G0v7c6eNVaVofLjB1CS+BUBKKeGlDYmcCDWVpJcm0BCMCZ9pKJvIJJErx49keBO7iy5Lnm/SwLAQVd+b0vnx87Womg3H+3zzfjAR9ZTPbPOTXgTOD5GNBXN0xVOnbgJv03EaLhO//LFHUZhem2vZMJb5aWjxGKJWOJeWRIqBXOb50b3iWlqQJOLGoE6HrYi69IsTHHwMoIIhuD4aMgMVw89uFUc+8IugZ0ogemsbdrxY8ZOhP3GgqgFCApFjS2YA57nJrvx3WMLkZfswYAMSsS41BpQXWfbcCYYyIUARWoBds4eKtEl0lowQt26Ru5strSxGRubWjG8eyrO65uMQTToELxc0dqE92nl2yclBVns0UNsMH4DJpkGBxKRnzqEQe1AwAzJjCSBabYwTCvf6+XSTxIbn1qr/AH4OBC4CDh1LdvgANNo4nMfX9ZCCcGqFjq15fVwLv+qw13Z4kd1axCF/Ka+qYloZMNtDbk5oFHLkd+gMOqlYnCTV9E88WSP0HPPPbeSCV9KIPhHp9Px+z3yEjtRuwS+oRJIG/Vz1L+3Ck7fAoSp8uQMp5rxkpqB8HPrtySnD2lNc7Fp6nUIDLgaOX2PR1Ja0S69vWnzUlTOIvgLfwJ/E3X+OHFLcNMrB921aVchTQ6dmekI1nnQnEQJft5opA68AGmF/XfpPfs6cAwq7OtstL3fYJrt6Qm1hbRPdqoELIDJwF3tt96p/NuBDpgS2GHblo6eANoWFQb66KsIYE5ZM/qmO3FU9xQuubjw/vJ61FCn7pBemWaJePXmelQRVPVITcXpgzI5IATx5vJavF/hwEebIuiRmYxjclpxWEYEQ7njx5+/rMMrqyK484gMfK9fElY1BfFeWR2Sw804r08+Mri5fBmlflO4dFtd14TTe6WjV3oSJq+twvrmEE7qkYUR6V5U+UN4b1MjSmvqMTo3CcPys7Da58THm1uxsqmZ/jm5GEyLxinVHtT4mvHvQzy4qDAJ/97chJsXNKBPURauL3SivLrFAMLeSU6cUpyKwUl0U2NKQkvRAn8qkY6br92+WTQ27esS2GHb/qYzuPnLt5C6+g6EaSCiSZeT/jkjdPUkAXoCl4WD1Bd0chLnSMpBbeJopPQ9E4603kjNG7jdrNSUL0O6YxPWzfgLStyrEWhmK6YBl0zIggmt8Lm9CPoS4UrtD3fv07jylo1A6iDk9x6+3XR35eHebNNdUgJo5ACceUusG9/vaXAwCuL8lQnC+aNsmRtHJQfRZVTNnMXc8I1/FU71M8guVRo+0Xh6KqcTIu3kEm6WNz4pd1KHyJsCl5sVin2u0eeJZUJdsKnpPGq7N3M71i8rJbH0F3XfLB/F4vFOHCkF2e1SbselquiKD/UJYiEUXdz+h1EsCpx53xoeoxGiqUXLgcIJ6adyW3ema/IVy1w0qP1335YANcBwHNnSb2jmOf0coJq85+nmaSXsIc+m7ko3is+aWcnewN/GzWl78bVvFyEx8QI2sB6sTVR4aX0Rfzt1ddvzHcW/8Hkq4OSdztrHntCRRnH1clQFnsMTp6ph7RSpzqvF6p/OAqzEk5fU4vE5dbj6yGwc2cOJdY0B3PtJPSr8HgxcXY2KumbUc7m20pmK1EiA27m1UqoWwmvU+/vSnw9nkgf1TWG8XVUPT98E5OclYWNLiFa+EeoTsjWxiUxf24TfzavCid3cOK8/2xcb49oGH+6ex8GFej/H93FTwhjGuxU+vLxaLuD96D3Ei1c2NuN3C+pQwF/2qOJErGoIYtLiEGbUBpDKTcUzXUHUUEG9hjqGBfQX1jONTm3ZRhfSlVjYm4r1lE7et7QBEb8DG1lk4dZmblgfRv/+2aZvY0NmUaoN73Y7PoKRrS3fhK9XkleQ9zxdMSWFGymfw7wfQuZPGvkSGytexgsXqZsErv0nlZ0HnMc6eSjLW84fZ+CvJ05ty9iO4ivgjW/mwZl4Oju7ASaNUHg27j/pnbY07JMDtgTyh52ORs8GuBbdx9pVx3E0gSoUlJrTitLv81PPN5HAjeNlSyUKQx/AN+9DNCYOQqToGCRmFnNVLZk7eKUyjIdxWpDiaCKwq0PdojepFrIKxdjMbePYD3HnHw/BhrBEiC5p3FwJ8CUWwDn4FqT2O3a/L9/2OKNLfFCEWy05aRYRaGlEXUUF0T2XVggGkzLTkMBdM7jaQuWgFjTWVHGZhtpzsujj5tFJadnwZGdxr75ohykgqaFE2jTR5RkelRaDU5BgSNLG9XPnY/4zz3PLthaEqWc09Kxvo8cRR1HRnB21QWZy/yAdO6XCuIwvJKglV/OY+ZFHBwe9hetmhEtC9XU1nD008n7UUlHxzLIu9RtTcnLgovfwALXWEyitaK5iWO44IB0j+STTjiMGwnI5SMrnsoj0pqfBnZSIuk0buRsB/Yox/0pTS1QuvjwxLQ2erEwKCxQn6vqCTxjCpi5SArcwH79tlxeJeH5Jvqfd/V29vIgRqC2N58jb7sbx42lXshL9i40oOnuQvxEnJuHGaRfi/nEv4kdTT2QlepUVihahpkaz6njuxA3vHYYHxi/DjuL/8L0+8LgY3zE0WiuVfb4j07OWJ+/paudJbUz/Imji5vCbmtmuk5LQIz+F27U5sKnOz3ZIHRxK6YIBH8aVJCEjOwVPclu3Zh+hmd+P7mwnEw4vxN+XB7G6sQZn9U3FSYX5tCJ2YXl9ABUNDhR7gijiFj5Ka0Ujp4sJ2Ric40WyAVzsE3z08UWXE4dkJaMo1YNkbkl1ft8CTK9oxvuVdBFT7sMja1tYTAn46fAsHEUJ4D2La/FBnROD04Hr+qdgYJoLz1WF8OiKFvTOJD4mGA2w31hfQwkFpRWHJbTg/JIMFNMq+YnNYfx3bSI2hN3wsX0nqk/joGNmcmrou06DGOUTcvvY7/Le2WSpFu8uKe1rycvJ/9gmkeun9eM0h7+7o1fbM/Zt6Jb/PK8vxs3TMvnzTmN9GUGOBnHiDtazm/HXcfdhR/EV46b3L2Pcv/Md9NobTYIGQPKn//U1/2PJ2YeuXQLOonMRXsLqR2wgkQpN9jmEUrDCMTOBqh0BDvStQTp/prU/ZSLI9XO+vWERIuscbGOc1DnTOP9IIb6g/TDnvImeALpzcA/SI7zb7EFMlRMOoRFKF0Pc8k0qGs2RdCQPvR7pBwD406/bJQGgn6WeyIGoYtlSvDjpdmQGPXS+7UbJsUfjqJt+TOmcC2XLl+Cj+/6O1s1lnAQ6UF9dhyMvuwKHfucKbthMax2DkGQlGIWAIe0EwI7C9Kv8cN01kkICMF/1JqyY8R4av5gHH8FUbs8+6HHkUaZfkeNZ41SWQJGnzJUGJxPZAMDYKUEXa5j+c5BqrqnDBw8+hDUfzEB2eipaCQoDXC5y0pt4YloKeo4YgYFnnY30wdwHmPscfvzvx7Bmxiwkc4AQeAu1tNJrOY1BqM8k4bMnORmDzzgdPY8chbfuugfB+hq46KPMzwEyQhN0j8uN7O7d0fe0k9B//IlISOUyGHPJ7NjUdUrAmi5KyjGTfCGZgAl/IP+bXEveXZrIiHRCZQb8rQHg1W/Lx/iDZGkx/4dhCBKd9/O6P2caZ1OK8g4r4bO8TmWFmckK+A4r+m2s9KnUeL4KV7/9Rz7rPP4VU95iBXyH4fuy0a1k+veyFVCq6TiCve9nvN4l0lRNLVMttIrgb1OzE2ncuqcwJXp/TX0QjdThG0lPC9cf3wOH5nq43OrHc1/WII2gsDjdY9ysHFLE5eKvypHO9nxsgQfHcOlVDfTjzX4KJr04LN2BIkrpGig11LIuGy56p2vpVS5kHPiqVoNHEnp5/ciizz9qBOJQGpGcXOTAaxt8WLtQxiN0s0RweW6mFzV0N/M553CtDHdh90R8t8DLuZgLb1X6OZF04hC+K4fYuppShTJaNqcw7nU9MnBhHpeSCfherWgiZgogl2DXq9kkvz/ac/F09+gYRlOhydDjPvIIsurcyeTLyI+Qd5cuYcSfkF8mbwsAPaoDAn+RRZyt/pLLId/mIH0V64eAp34G1j+CP0S4uarj/3jnO8zpcPKNPL+PBbH9+DdPG8s0Huc7NLt+jfwiZ8L0guXQj2zTQVICFas+ogNotjgZaVFaLn+eYUrdE7gMF6KRhu4RHHCcZjPg+BzmUp929FAFTCZodEQooGGl0/NWSgDr6fLJSUCo8ZQLvnwWbUBBtt0IdxEJ+jMR6n01wd95B0wJd0kA6HR4ibj521F/xk0F79VvvMnOMILqBfPRY8Qw9Bx/OpdpicpbfFgzZSqFf35kDOxLCRnbP9dYJCFzUfJmLPXYpYskrXPwB9bWTS6yKoHBvy4PBp1+KhG/A9N+fis2Lf2KiuQxyRmDCEZZS9FWYcmLv/beVTDhzBjW1GsYmmbhTCuRVkt1SxahvKycOwx4kDZwkJH6lX3yARa/+CKWfTAL5/z1fngH9KPkMh2Bzevw1bz5ptLlDOoP2pJzvA4iUFWJ6vXltCDMRd/jj2IlbMbqt95iRQ0hg6AvqbgQdXV1WP7GG5j76ssYd8tPMea665GQQvG2yZH9p4uUwGGxfAjsPUOeQZ5OVmXLJdeTLyVfTu5DriQ/S36ArMqaQlY8SV0k6dAg/kfyt8iSyIg0gEoSqGOUUt1DWYETzUVDw01I2OhD8gC/6drCjrUcM69lJc/jG+rhbzwX//hWDW6aNp7Px/K1BdhR/BzPzQzbl+mXE5kdiX+fRvBn6OnYcZcO0YmZcsdl0YYQASCQk+xEPid5KoSv6sL0q+fFhd28OJzgT0CptCaAhlY3emcnoFuqDENCWNEUQlm9C32SU5Af8yqgvTjKuPdvXcCB3MxECijpi48+Bjc1NSHDlYLuKZQs0smsjz9JaX2zKbY+1MujjICvcSOH0vWRfOfz5RFaG7pxbW8nLutBoMf2vrE1jEouLad6fCihRFIyCTXAtZUBtHAg6sPJnRD2Ql8ApZy0pVNfsXeyfvowl7MjBLEJyHD70dfdSjdQXhY9S0AzTqWjAWzXyapvsxn17lh0gcE8cmHsmiDM+AIcxqNeMov8a7LCiSaSjyarzv6MvC7GF/Ao0jsEAm8iryXHiOBfFMFfuCT7OiV7o03qcKzDj6b05veo7urTb8Rfxz5LaV4Te/sHGCaWr+3ENxEJEB0Cf5Encd+4K6K37L8HWwk0lH2EfI6RiZGouhYdBbIKqRpTYETdKjmT12qd2ZnHtCOCQN5THxPh0pk4gVjBVCX6FRQs4H+GVCRVL4FGHmlUEk4sRlPPHyCTWgvGgfsBUtgWpulSn6O9bIPs9PIHHoJL7v4jnl18CXfJWAb/6tWY+9BDyBs1EkWDh2LcDTeg+aslKP9yHk65+ScYcv4FVJvhdkv88YINdShbsQIt7NyzC/KR3ZdjFPfwC8ixK+uIZvqttZXY9NUapGRnI7u4B72BZxsrP4cU80QMJ4XM5k1lqCjdQNAXQEGvbvB274YAa1YCkR/HCxNOAkC6HWMUOoXkUuxxP7garqYqvMf89zlyNI6beAdSevZE+YezMO13v8fCKW9j+IypyCjpiWOu+z6Ks1Lx1ITvIZlL2Gf/8U8MW0KlPz82zv0YL932BziS05He9xCceNON1ItagrpVK3DcD6/BgPPPg6+hCQtffBkz//oApv7mbvQcfAh6nXIa58dd8udVyR5s1IsfLJAn+jx6wKGxIyEONpD/Rf5e7F4tjwPJx5AD5H+SR5HPIseTerv46agG69b4AFQsWwJXsvo8itLSHwcy8nk+hH1cGSe5f2Nf+boJLymKwJ9IQrDoCcVQvh3F/9gEjaAUad47ubwnoPoh7p3Bd03Se3eN1JCiDQ8bKZlroLHHgIIEZHtohctJT0Wdj5I1Aj0uzYbMko8LqyvkjgEoSgkjw0P3KhwU1jSG0Rx0IT+Z6JbOo0U1/KpNDZSac1koLy2VSz4eLK1oxCYCsKJkHwrSMgn+IljbGsIGShqTqUNUQkBpiHhjVWMIs8rpVibiRTotArOJ05K4YT2RGsprqYfYGkCRNwiqEnKSmYB1fN9q3nMl+NGPRiSCsKs5oaWqIIZTqtiduoEabjbRn9hKSjrTadFYrFsxYrIk/cS7RRYAnBuL3YPH7Nj5Mh5Vl/5L1hsbyMnk4WTVu/Fk0Q/JBWRdqxBVPwj42zLVk+fdyAoXTwt5cSL5lwR3oxn8+zxXXbgdTveFPAof12AB65woqhLNEym0GOo8/o1Tj2Q4q+1U4ubpbBvU3YlEnsF9J34Si28fDoISSPNUw8FVMIr8WCWo9uSUegirKQGhUfVixZLmvPGwYSZTtB0gyjOVjFUtzOVA7QnuYPtzsX2Dah4OF9XAuPJmJIP862IbDTlp7dvnN8jsfhzctA04kIgl1/XIzPWp6BdxeqnXVkBkHjXeSOBS6Iqp07HoxZdw+LXXIzEjDV7uA6gfy81lTwdNwB2ajc+ZgzkPP4QVn36K5voG5BYVYsD4UzD6hz9AUn4Bd9tgZ714AWbcex/WfTyXDiNT0HtAbzg3l5ul5phTf84cglj+5muY9/izKF2wxEgQewwYgKMI2Lp/61SOzE4qiEY7aOp6k1iRWNGks+eiVM+ZTpEx7ybmFCB/+Ch483KQ3Xsglrw6BRsIThtKV3AwYgXm+905RXQQy7gUP3cfcyycBKWizEEDcFZqHrJK1H9zbkPJQYQDRYAgN6VXCSWLQ80OIMcMGISqRYvx5eTXsfClF9Ft7PEU7qSaOPaffV4C1mCsjPQnn0u+Uxekh8kaYL9HpmQOp5BnkJ8mX0o+ncxBzkhbeDD0AP++TNaA15M8kfwB+SJyPXkL3X9GBSV6XMZ1/IKs95K49Ibg0fDR8smTMcrccoSnmmP0QiCAFFmL7cV3OVhJE3qZoA5JihxkQ9/HzWOLKKf539j1Th+EDDTpokgIG6jvJy/73bJSkOKl2gcNQKqInrJZ93tlyPmRbAdcWN8QodsWJ7qlhak6AtSxQ19d1cq+vxX5XNZNY1xRHfWEN3AJNtnVSovhdGJfAjTqBNbRh1fv5AiWNwfwUUUQH5a1YIkvnZJ7AkDqDQq7rOIv88CyenywKYgh2am0Pg7hg/IwTskLYQSXhsta6OuPy8iDkhOov0ddQ+ojPrahCUu4UlDoaqYkku2WfcPiVvou4yBUlBCgEjoNUjgh/ZjIdBP1jo7NgpFCGqxkwB//SCyx6yRQZ4EkAfIryL8g62NWkaeQV5IV7k/k/yF/myxAOI6sYswhC/yJFpBvIZeRk8jWJOYQnktaaEl9eUoKBW6hns7n/CH78gPIhi7HfWNf4ARhsrlyRGZi+jhCYZEzWt8ikTXmcnvxfzxNdT1KDofAKIl9sAM34OZ3h+Pek5dE79l/D/QS8HCrHzf18+QSShVJ7pwS5BpKllYceaVJEeGSb4ACJRdX+iIEe9p7Wy0qTAV/qaW6OGGUwKeVknkPz2U4QlTItkqVMfUwBJYOTw+kdD+e4E/N5cCiLgkAA07p63GPPw4G4SCPIR8SCIgGnnomvnx/Kub8+3H0OfpETiYTqCunvT85cspig+Cvce1qvPOr27FyyjvoNnw4uh06Auuoizd97hdoqavG6ffcA39DI97/v/sw/8nHkFFUgII+PVC2cDEaVqxGciL334hNRNd+OBPvTboLm+bMR7+TjuN7wvjqrbex8auVuLywCDlHHBHtUvl+VRfTEbHSKD/a0y3A2QlzRWOQOjRtKIWbNW7dnAXYSOmdBp+CvlTDIuATRajQrqWrcEsdPnvyUXgKSyjLoTVhQSZGXPgtAkOvCRemBCEUMxKJcDARSZs7MT0DOSMGwU2VrDULl1FwQwuoJOXJpi5QAvEA8PW4/DzDcw3Mz8XuPcLjjNj58tgx+sNvAYAzef9HsWc6WAOswODGuPvR05um3crG9HNzEYms53l31tNcWlF8D2kpb/C++kP1iF+Yo6yBgehsI4y5BI+dx3dGJEli5WWVj0RuI3/GXvcvbAojeX4Cn/yveb7Tf6QBqDpNnV5/EBvrGinAbKK0LgNJlAAuW+vDxlofl1mdyErM46c4UU1Qt6KygZMnJ/rkSIhF3b0QsKbeT79d1PNLY9uINYMKuntZXtuMFM70i7gbiMjnoye/cAKWNbpx99waNDXSvozArJLLxP2SWlGQmoYygrn7v2zBSxvqcEKPJFzcz4MnV7Ri6tpW6gO6MGBQOr0CcFuqVg/Wcon5L0vZ3ltaMJf+/6r9XvRP8iPHmwAfge3KymbuJ0ogSGnixBUNtFgMY06Vn64nnBiXxWVstVnqJUq9LSoQ49HgNpPdnf0zhAGtenNrXCT9XgJ655DzyJvIt5FV6NHfMlof1ClZdZZI2sRZw6Po7OgBuv4qdr7lIAmdy2XV8c1MmVZ50j/FrRg77QUeh/BaGHdeWyRnZLR+c/Ln2FF8h9FlZI4jSxn+DpaRFLS495c8gyeMYSI2AGwr2AP7pKY1BelcBUikEZXLT+EIVUCDnFC1BmjEQbUrd6KWhjMQaU1EYhb18Bsr6B6mjjCBo3WQ/gO5rVujDEQSffCk0crXR3CYwIlabPw3ahzUK6535SL/AAR/qh1dEgCajdS1vMo1ECOw5Q/iosf+nuPHw5mThRl/+ysWP/sMDjnnHLZ5zgAYTmhdtOjZ/2LttOnIHNgHZ/39AWT07ovVb7+K/95wExY89jgOv/wS48l7ySuvIItLvidMnIhh55+PVe9Ow7Rf3g7fJkoBDTwDFr/yEsHfPIw49QyM/9s9RoL32mXX4Is3X8Xnz76IUwkAq1cuR2XpGuoBUVeAkkVnRioKR45kwTL/1P3RVHrz3E/w/A+vpiVhMho2VqCRlrzjfnoj+pxJrxycmYhCdDpL5UE4uJz79q/u4GDh4S43YeSNHIJuh72EpBxN5EkqE85YXFzmov8Icyv65fwxk1LMnqUtVEiP0NzQcnNjAtl/9mUJWIPpDGbiXbKA2kfkxWSR9fz96KX5a0lwJKkRWWH+Hb1s+2vdn9t2xzr58fsncWD8Xw66+vddWlg+wSW5pylVupS93FWscHOsoNhYvdqcJ3rOMsdIRDMw3/bjO/4Wi7+caUuSRG2waRqYR5IFHHaZ1JJlAd8ajLDTDWJMYRADslnfmVKAM/v+OQ7q+rmoFyiHMU7U0uVDkbsRxxamYlCO9P/CxtBiE12/eLki0J2AymofTsYfxCXhVEoUizhoSOB6ZH4ixlQHsIETq3SqdZxUkox0tuH3Vm3CkPSAcRQ9p6wRa+tacEJxEq4n2DsqhSCTOoiVdBVTTT3k6mYvRlH/8Iy8IOZQb3FZVTP6Zzjx7cJ0LFpfi6MzKDajcZgsgI9OddEIJYIK5uoj6gd6eN6Teby8KBkX5bu5DqvpI79CAJBfLZ0mQaNdJKtOVDLe/eQassDaVLLmpNeQRTPJeqHIqm+S6DWQrTRUX9eQLbLub1vfLnw+iX3YSwyYT34etZErkYnTWBde5kcMx7DwKHZ4BbGESs3xB1MUlgBQFJ6yw/hwdTNBHdSPvZcSxbHTEphzCYBUYLtV50x69p/9rgS82UegpWoyXIF6Omen0ZdqMo01vJmU2iXloSFhLJz5V1HHPheVVUvpK3Q2EgILkZmwGTk0FqOVJTxse9VVC+GmmobDz6Vf6RMaXUJKENletUFjrXtUmy+l/a6QdpDhLgkAKdOtp0f6dDMxpdhWBiBBSviceXkYceUVWPrGZHz+wvNIy8yhyJfm3HyupV8toK37ZA5V5/woPPxw5B1+GA0vkjDwzNOQ8/ue1JtbjdWzP0FmUQ+0NNahx9BR6H/qaUjMzecS7RAkFmajomy90SEMUIewculqM41urK3F7IcfhislA3VrSg2oW/vF5yzaID554jG8+8A/6fKKugIEgJkjhuLqJ5/gFjSFBKeCgRRLU5oA6i410mKprmoTQs3NqK2s5F70jdRnoh6COnkCXh2RlIwjrryKa7/Z3GqGVsPdio1fQj4x5KBoWiGl4Mr6a8j4JOQoF6IUQYOdkaJoTq/0bOoKJWANmv9iZp7qIENJsXvWDzaM12fE7mlATSUPjF0LOFokkZd1f6F1s+3ocJwePY/MN+DPXDiiS8QOzh6i9g7RIMW5PXHt6+tY+X8Wi/8Cwd/24xu9GoWOcCmYdP0UKtI6zjTnkUg8mDW3dvhH6bHeqv7mUXp34Yhi7vJB61luA6deYHSPFIJBGlTxWSYrutQFc7m7xw1Hd2dbcIM+lNkiHSij7mBFXYDxXOiWoSkYexD2HwN5fusR+WY7p3xu5aGtnY4qTKGOYATEbUj3OAwYk0X/WOrxcvUYGcSxh9Bg5FeHJSGF7+rGAcPFZaVT82g8lkJ3TpTGpxI45jK9Xwz2YqOPlsSURORrKZjeCqqyM2mdDKOmIT9ll3dLxThCoEp+KxcJkMh8pVGPsDut+nOoFyiLshAlhcIzxv2VCk2NetfIqm8fMtpvOoiqQhFZ9U2z0J+aO4Dqm8hKI76+6T7BvaFt61thDuutIwrQwv5f4dFTfHQxVG8K3ERhwUWcnFjIWtfR09zyuimhpEhGy8jhyAoCwO3HZ7kYipglasJWTmToJYv3uBTknxF9aP89GEqgsM/x9OFLn73cJzgUaqT3i2Qk0Pi8JnwofBnnI6/nGCR4ol1rTkohsnsca9p8iKttPqqHaGoVYiNMoSDZX/UaEpMoGaRLGM1d9czJ3Xm8Kdko6h/t0g7EMu1qAFAN+IQ//d8f/vk/t97KZSuicnbpTnaM2vxd+nIFBHajvn8l3v31/+IT6vm1NtbSatfNPobr9/xRg631jMPOnLru7JsNeEzwZlBXMI0/LBF9fR0C1M3jI4qJkyk+Js4kyURc1r1GYZQdbpDK503NqgjsrNeXovo1pkvrQwctjhP79IK3uIiBHOjRbziOPfMcJFLkHObSTWLPYrgprVRastQVOM0/dCTG/HoSkvv3wsZ5X+Dd2+7A5088g6JhIzDqhhvp0iWJfsjoi4gDkpMbWI/5wY+Q3Jv9IyunkzqOCV6rv2ZmmDcHy8MhT9icrYgs1zbB+iZaTbNCUxLooIL79GkzzXP+UbnatG9KoBdfmxt79bZSk+gDLb+eSP4zWb3N2WTCDzMYv8/jsWT+8qgjryBbJGCo+6JHyZ+QbyBHKRLZzMGWFYYuN6R7FaH3UwfGmYfhyL/Q6l+EpERtI813OT5GcmoTn3VjlaVFcGgixdp0DL2d+HLzIR01h6MQN02fz1lMMePLuVYpavwPRzOx83+j+E+TIbpJ4Sw8JUuDvTZioy4OwVMhO+hC7pIhUn8gziDIyshVMbA5ss1JN2/y0hoaargxNi2IPplsW3wm/bssSuGysqJdntKTa6gkThyHZ2q2pGLkUVJ13j+coJMrtcTIfjpwdlPRkmiNYULU0w0yT5lsdJn086efSdvBCbT2Sw6R9Ta1Sz1jYXLHEBaQiR3mSkYWwV4OdY30Kt4mKV3FkTSfN7U8ZeJqCNK1Alo/MU93jizw1ll9mx9L5ts8Pk0eSiZ4M0vCv+VR1FkalGca+j7/UrqHE8g+cycSrLC+mx3Xf1nnlvITFIYUmYP7T/6CRhuf8+JEftdE1plL+ZGHmMfAr9jB70T8aZSa00rY4biW8Q9j/Kj0MEJXRX8/dV0sLftwEJRAUnoRPms+lzq+tOSlI/icvGFIyx6C9JQitvVoP2EVg9RFjDcP2hO4EuLGUwYor/kRsoO1CNV8zMkdl4KpruEPVXIczUJpy3gMzOpuJXPAHbsaACxlCZ/w/Isv5hMAsqNl9tjpB7Umr84yhnQGX3gRVs76kO5Q3kEm76e4qbcnCWGSjEYyTHfaWMZFFlYCSdWC9S30zVdDgMaRuKiYkjzOFJhca3M9vX838yyHYJAuZ7jPnxwx612e9HQkcKlII+7Iscdh1C9up7EI+z7WKxfzEaLOUZhLsYO+fRb6n3Ey4yiDBKmyIGLcMJdhpYOkrlt7BmYM7I/k4mJkFJdg2UuvYvPChShfvhLhQNCoVbtosWs2mafmalJmhvH9x6ho3LgJH9z7axQfOgSHXvodCQgIUjVoUIfBHR34tFrUsn4jymfNRhPfe9iRVMNJ9GL6jJlKQjTd/LX/7IsSsAa4Kr58WScZ+DHvP08eTP4uWUtZ95F/QRYNiR7wMY9CBBZt5sl08liyBuxXyVuoJvAAlc+O5Y2zWEHPNG3I+F6L/IW7LvyR9yNcsv0p//6J9TeT13TQG/mCmOQa/GP8KlwxZUfxteT7JON+h2kPNw0nEnmbIvjrO9sBZMGCBa8OHz78nC2Z3PpM0v5oW5JfL61cCwgZKMQ2Z97AxwzDSZAcq4cJyBxSv+AtAUU/J4lVnAj1puLfOQMLkUu9W67uEvuqLdLHJtuswqkrYSwjEZCAXrFdMbAVZNpy0B6RNRgHDM7z2NajbVn9htyzMEnG5oSReXMxD2rnQQ4yYYanlMv0LwoV4STQ6BwxjvYobuVHeHnfuKYg+KSNiEmF0Zkfozhi0pI+cJAuBvTtZmWAx10g1SNRe+ld9G7UrcsJvLiEfGns5vs83kAuI0uiW0gOkNuDyBd4T3VKYF91Ogr+eGJ2jvnxtJ8zqxP5Iw1jSZGVRuRF+PxKm6Ue+Rn/cknYUcJrtY1q3rsT9477B89BlzHbjx8K/5YSAbqVcQzie45mWvTXQ2v2+ZHbTXz7z0FTAnLHMnrsxK/9vUUlI4gFHkb9sjuR4p/H1cFSLhunsRPug+5DLcH4135Nl0ygqwHA6SylK+fOnXulSouLIGgtp9NjdUOU0IVr2FeQsvsPosPny7Hp83lo3VTB+Ta7SSqDi/qffCoWvPo6ls2YglXPP4d86unN+/s/sLlsDZK7F6LXCcfTGKQeSdzxo2JDKT598l8YfenlWPraZFQsXIRkGpYEazcb8+9ew4Zi82tvYNXMj9Dn7CUoOHo0WitqMG/WRzji/HM5NrDjdyfR5x5nFOb10Q6dvRwctfUI04efzkMEmUFKHkEAqN7dwYoruUCggv1nK8f6IBVPN9byHjelp1Lqhg+mIqV3PzibAiif/zk+fegfGHHpZQYAhmnV7KJxiYbE+sWLUTenO6rppubTh5/CMoLi1J5FGHrxBcbn4GOPPsq3GCqNHe3D3i+Bt/nKZLJEPNFKum0eFvGWpDDdyJqelpI5M2ijf/LsCXJL250tJyfytCdZ6Zdvuc2z6DZsZ+OHk7MoWi6m5nMN/jZ7I+Lds9w37m+YMO1hZAZ6cygtw0Mna84TpZ2LfwWdRd/EvdUK6NF4bWfAjwnOIJ/w2GOPzbrnnns6BICCOJzLsGZH3bezkptr4jESL4jyNM8SmBOI07lhNTKGcfN5IUvvpmOK6ZIwgMPo/FkQ0gA7o9itHkVNkOkoLaXKtkhsRtK1ngpw8ZzgK4G/QER6FlzidVLi7iBqjNCAJOpXTKGUnjLB8GJeadlW6YVpPSgQp7xKW1HShwQ+0K49+pzoJynjTmPJqDjR79KXCfhJh1cZi+aJJ9vQM888M4U3TyXPaPcwh9eKzM6lQ1KPein5B2TVuXXkBrJF6mhVDzXTjK+Hei69z2fJkgSWkrcm6YLe+Ob9dMBbQtQcRINzAx4dtwUk3jtO0u4+9AfI50y7vdRuR/HvP2kl4w+mdLEX0bQTldVr2raX2zon9pVdAjtdAt7kTOSN+CtqK5bQ5dxjdMdWjSbvtchNU1M6cEmdRFeiEmZmOrnX2eee/d7Dd/1u/H1nnk8V5GUSvFF8l4fDbvwRvnXnnVyzr8Tb//M/mPnIf/QEl//zPxh5zQSEGuvx8k9uNJbCXi+3dkpJR21NJdxpSTjjD3/AUVxe9dfVYtqtt2D2g/+mtwJi4NQMJHPZ1s2Nnzc3NJjl3Qsf/Dt6jxyBV356C7544b8EVF66UaOVEZeGq7lQdv27r6DvSePNu43gQD26Bgwv0LRpM96587f45KEH2ItGTdR7nXMezvnTH1HQrw8+//Nf8Nrtt6PS14Ir/nYvKlaux4J/PQJfY7Xp7gOU3snLtAa+AC2aWinVG3vDtRh91Q/wyDXXoGXeXIJe9vCUcEa8bvo7o9/yVj+6DRyCM/7vTvQ+7Wz87u7f49e//rXJn4JaJ/bRLoF9VAIT+N7/9OvX793ly5dTZN4RCRAJshn7OwOCHBLbC+WpCuuxiKdqbrpsg0fmmbCKJGdaRqX/PV4hQhwj8aBpAQJnCkiwZg6xdBWOJGmcSPt5S8quIE6K3CNsiMavGPMRYkRJ/SRBtN6tcCaLJk1dCPjF55CaiXrG5SVB2jABpXQVFT9BgJHPiA8ZhzdM6orLC0oSzdHc17OtaeTIkf/54osvruLdX5Mnbf3UvrJLYK+VgGo367E57NJLrThy/dSVSLqBLmtDiL2csbiy2OOFoh6pK1EpMzOJ/J/XX319wL/79Hn8op/c+N3q9Wu1xS1NvEPIpnUvbbnhycnFmB/9DGk9+6K5sRG5I4ey62fHmZKCc37/R4wYMxaLp89AXXU1juxVggFnnYGiE8dyOYh6eRnpOP7OSSgaMAyLZ35A34C5GHnmt7ijRg3WfToH3mT6DisogLd7Cb51/73cXu0kSgFnoaW2Bnl9+qPXseNomTvK6Pdplm4KkZYYEXbs8kvmotf/kmNH0rz8R0hNSuOOJQ1I792XSqZJ/DSKei6/nGrzKVjz5ZfUDxyEZDqgTf7eBOopOrkZPNPjcrA72Ex/YRLrUGpA9NtzzNH0e5iMw885Ha6xo2n8Qp+HtJSUdpGT4DSz3wD0PJ6+ikp64amnno4Hf+PMS+0/dgl0gRJYsWKFwN+XZC0PbkOCfxI7iQyAM0CKDUFXMfAmpCRo1EZ6TESmvbVlLxyi1I6rq5S2CUiJeKGxyaRlFpl5hzfMeMWUNPgQgemeBQwFyLRTsO7Lt2eYEkHpBgr4seGR+Z/XavHRdE2Kusnk1C6VvP5Gl4tNOmbrIAFHbS0XzavAbph9h5EemvCKF41JFMr4JFMQ0dO4v9Nj4E+3SuPu26d2CXTpEhDo0+5VzTSGLC8vN8AxPz8fGRkZSKWf2z0NvILED8qDgJbeFQe42sptT+eh7UX7+CTWw+zjXGz7+kd560r+COvPP//8Nc8999wx0qnTVFnLMOqkw5QJaoIsN1DsL9mJ8lP0g6rTVIdO3Rs5e9RRW704DJrXbDsCH/X0EihZcHPACBNUqt81u2aoc6ehmpnBO+VDiGBOOoFMRwrnIlUWpWUkE+y45a5Bnbd0B8M0QZdunjKkbeci3D4qmhfGZaZp2cxHHKCUjgYO5iXMJSEzqCivhpQZnvBZG+mDOXgpP1HBgsJqVIiF0ffyfyt1oZ577DFcddVVVtTHeDLBurCPdgnswxIo4bsfJZ/QuRSQ9dm0o+gSsECewXCq5qzfaija5ZOtPHaDB5IBYXyiYLKI1z7gYbU1xSFJV1ChJL3TUalHIaTeYJ4wVYI7nkcxI/uJ2LukzWdUbpmWJHQhNkAqajCs2qLaN+EaAaFJT4ZZappMKBo/mgEtFpvM6CAy+VBGY21Y10qcvOW97EPUlylM3LdEE6Cflfz8BRUVFdS7NMu/Y6379tEugX1QAqZmW9K87b2/hf4xF1L//YUXXkBZWRnHRCo8aAwm9eROWWeeeSYOp6FnIv3xftMkwMnVB2zevJkrawF069YNgwYNosN3rrh1IYoDpNEOZA/mbY+/YDfzXsJ4k8hXkg1NnDgRY8eONWzd+yaPqsHRwjB1ue2q/Tu2hGv/RNfxT+PPOwr7zd2bPn06xHFLvkp8BnmsTmyyS6CLlEAJ87FaebnwwgtnPP/88yfofG+RWqTo63d6QnlKpYOU9kKzpw7l4ltuucUy9BjHjEwn22SXwL4qAdO0dgQABf5effVVwwJ+fftyVYxATzts1NfXY/369UYqeNlll+Ec+vj9JqmBql0UJOH99983Qhy9V+84/fTTu9wOHzYA3PLLT+DpJHIvsk07XwL2oLDzZWWH3LslMIGv+49eOWbMmC8+/PDDQp6KbdpxCWw85phjNs6ePXtELOhVPD6642h2CLsE9mgJ7BQAfOONN8BJH5KoCnXuuefiuOOOo8ZWislYU1MTWK8NQDuSXizOPvvsb3Qp+O2338azzz6L7t27Y9iwYWZ1UAKloqKiPVowu5P43gSAu5O/vR2nhC+cQH6UPJ2symbz1mVQyjJ5lDyJbJNdAl29BCYwg21t+NJLL22eNm1aRGzT1iWwevXqyH/+85/IlVdeOSe+zHg+iWyTXQJdoQRMW9665m59xeVe1WHDH3300dYP464qKysjVVVVcXciEers0csbd/yNka79fr91aY66p3iNjY1t97nM2xbvlVdeiVxxxRWRqVOntj3XSXy6lEJG9H6LuDQdURoWxeeDEsVITU2N9ajTo9KM/x6lqXS2R/xBrb5xj/+2Haxh7PF3fmMvUCF+Y4ntvwkFOGPw7L/Zt3N+kJZACb/7UfIJZJt2vgRmMOgEcinZJrsEukIJmHF4e8PxU089hddeew0nnXQSrr322p3OM8ESpkyZAi0fy0CEeq90leY3ksOLL77YLOdyFcHo9ulZOn3wDh48GDk5OUaiKB2/Y489Fi+99JKRPtJy3ugattL92nhuLSuJoJaepZe4cuVKSBJZWFho0tCysZ5dcMEFRlfx5ZflvtKB3NxcfPXVVyYfJSUlkMRS+oTxtHbtWixatMikqXdZkscNGzZAPGHChPjgW53vTQlgwlZvti/sErBLwC6BvVMCpXzNBPJYsmgC2QaDKomtaQ0vp5NLY0ed22SXwH5VAvPmzTO6dqeeempbvmX8UcttVmWQYYEeC0TqaFkEz5o1C/QeYOIrjnjcuHHGoPPxxx/HO++8Y3QJfT6fAWXS8+vdu7cx9hCgEwBU+tI1FHCTIYjCHn300aCE3SwNCwAqHx6PB8qrQKXCy1pZhik6f/PNN83SsfImEKp7n332mQF60lvs06eP+TblVYBXR4E/pUkH+AaQCsgKWG4PALYV0F44sQHgXihk+xV2Cdgl0GEJlPLuo7En1jF2aR/sErBL4EApAS6tGiDUq1evtk8SuBKA0zMBNLHAlQxEdBwxYgSo82rAnYw2JGWT1E5SvgEDBuDFF180UkUBxYsuugh5eXnGiESgTICOy8HmnXqh0pM08ayzzgJ3IjJgT/qHTzzxBJYsWWIsjyXJS05ONtbJ0lWUYUpCAr0AxPKmPOjekCFDjPGI7nM524BFgVQBQEn3ZGyiNAUwlabiSZIoy2flQeCxq5ANALvKL2Hnwy4BuwTsErBLwC6BA7AEBOo6IgEsSdIskCX/e3LTIsmgAJ2kfSIdBfJGjRplriWtk2GHwNVNN93Udl8P6WYKDz30EJYtW2bS1T0LWJZwyVbLwqLJkycb6Z2skS+55JI2gxAtExfQD/Cf//zntnwpvNzKpXGLOC09C4CKBBi/pD/fNWvWGGmhJH1a+j2CO5BRt1numkw4pSl3MwK8XYlsANiVfg07L3YJ2CVgl4BdAnYJHGAlIEAlKZj07AS4RHL8fDk3RZBUTCQQKEBIgw3QIMzo6kmXT+BPz+L17CTdU7zs7OytwJ/SkQ6fJIXSw2vv0Nl6l8LpucCnlqXbWwPLF6EkjfIdGE8CfPFhda3vUH60rEzDEPNOAT4L/FnxTznlFKOLqHBdhTqG5V0ld3Y+7BKwS8AuAbsE7BKwS2C/LgEBIkntXn/99bbvEDgTgBNQEkvip3uWXqCAnCR8kh7qvtnYIRZboLAzqaKCSFInoCXJXzwJSFqk9MQCejtLit8+TeWj/X0By46oPSDtKMzevGcDwL1Z2va77BKwS8AuAbsE7BI4yEpA1r8yhpg/f77x9dfZ59NNC+bMmWOWWLUziACapHbtQZeAoe7J8re9lE6GF/IpKLAl0GmRwseDSEnvFFdhFSeeZDwijg+v59aSdHxYnVv50zKv4miXk/h3K8yqVauMDqHOuwrZALCr/BJ2PuwSsEvALgG7BOwS2P9KYIayPH369E5zLknfd7/7XQOgZCErlyrxwE2GIA8//LAx7BBQPPnkk1FcXGxAlCRsAlgWyNJLZPghh86iu+++2+wpbC7456233sLMmTMNqIuXuElKFy8BlHWv3LMo33I1Y5F0EJWmjDXiw+t5fHpWeCtdAb6hQ4caNzHa8eTdd99ty7OWmx988EGTp/ZpWunoqLzEyJSpdbGnjrYO4J4qWTtduwTsErBLwC4BuwQOkhIoLS3t9EsFek444QRj8SsdP1nKyghDS7+S8NFZsgFHWjqVXqBct+yIrr/+etx6663Grcsvf/lLY7ihZV8BOEnh4oGWBR7j70kvUVvByZpYoPS9994zhhrS45OrFlkJx+sMKm58fCt/1j2FHThwIKTrJ4tfWRgLjEoqqDxZy9btpYpWOjrGAcDp8ff31LktAdxTJWuna5eAXQJ2CdglYJfAgV8Cj+oT48BLh18scMc9wHHbbbcZlykCTPKVJ9cpAkeHHnooJk6caAw44hOQ1M1yxxJ/X0u4d911F4466igjmRMAFZDs378/uOuIAWsWOFMaer91baUjsHb11Ve3+Q3cuHGj0R2UYYikefG6fMqDOJ6UntKOlwxKsnjNNdegR48exihE36d42ntYLmji04xPS+dxILq0/bM9cb1FI3JPpL6H0ySq31rDcw+/r4smb+8E0kV/GDtbdgnYJWCXwEFQAmP5jdP0nfaQrFLYfYoDqL2ZSunup7RzMW0J4M6Vkx3KLgG7BOwSsEvALgG7BLYtgVLeMjprE7azxdm20ew78SUQV3Yqy9L4Z3vq3AaAe6pk7XTtErBLwC4BuwTsEjjwS6CUnzhJn0kr3tCOloIVzqatS0Bl9thjj1k3J1kn9nE7JaAlYJsiXWdfme38VvYjuwTsErBLwC6BA7oEJvHrpJYVoSNne2jeyRJQWVnlxuMksk07UwI7Wb4HejAbAO5MZbHD2CVgl4BdAnYJ7MkSKGHij5IjdK8SpCHGgT72fu3v+/927u60jSCKAnAE6UPbSVSKO4nUmdNJqgiYPCSzSgzCEHDQnPWR9A0M+rF0fLpjmgAAA3dJREFU9+53/XCwvBoXvVyGv+/DbtO12/Rokw+26k8ueYvlXARyi1PTMwECBO5PYBmn9DT217HPa70i93A4fFqW5Xz7+vwj3q5X+a4f9663p9PpkmB9cLx8Yov7AuAWytljCIBZX9UJECBA4P8EDuPlx7G/jG39W+Db+NFx7OexN18C4Obk0w8oAE4nVZAAAQIErhRYxvtf99O4v66HDoT7/f78V9BxwcdpWDz/3ePmY5YA+DHuM48qAM7UVIsAAQIEIgL+besP6/i+v4rs5WtgIr/mihIgQIAAAQIEegUEwN7Z6IwAAQIECBAgEBEQACOsihIgQIAAAQIEegUEwN7Z6IwAAQIECBAgEBEQACOsihIgQIAAAQIEegUEwN7Z6IwAAQIECBAgEBEQACOsihIgQIAAAQIEegUEwN7Z6IwAAQIECBAgEBEQACOsihIgQIAAAQIEegUEwN7Z6IwAAQIECBAgEBEQACOsihIgQIAAAQIEegUEwN7Z6IwAAQIECBAgEBEQACOsihIgQIAAAQIEegUEwN7Z6IwAAQIECBAgEBEQACOsihIgQIAAAQIEegUEwN7Z6IwAAQIECBAgEBEQACOsihIgQIAAAQIEegUEwN7Z6IwAAQIECBAgEBEQACOsihIgQIAAAQIEegUEwN7Z6IwAAQIECBAgEBEQACOsihIgQIAAAQIEegUEwN7Z6IwAAQIECBAgEBEQACOsihIgQIAAAQIEegUEwN7Z6IwAAQIECBAgEBEQACOsihIgQIAAAQIEegUEwN7Z6IwAAQIECBAgEBEQACOsihIgQIAAAQIEegUEwN7Z6IwAAQIECBAgEBEQACOsihIgQIAAAQIEegUEwN7Z6IwAAQIECBAgEBEQACOsihIgQIAAAQIEegUEwN7Z6IwAAQIECBAgEBEQACOsihIgQIAAAQIEegUEwN7Z6IwAAQIECBAgEBEQACOsihIgQIAAAQIEegUEwN7Z6IwAAQIECBAgEBEQACOsihIgQIAAAQIEegUEwN7Z6IwAAQIECBAgEBEQACOsihIgQIAAAQIEegU+97b2rs5e3vWq+37Rz/s+PWdHgAABAgQIzBbYzS6oHgECBAgQIEDgrcCvsd4+94iPd2M1nLePgBumoAcCBAgQIECAwIYCt/4R8IZUDkWAAAECBAhcIfDjivd662SB32ujhMSTxzO/AAAAAElFTkSuQmCC;clipPath=inset(24.68% 0% 3.16% 0% round 11%);" vertex="1" parent="s5DQ25FVZao19d8wmNkH-46">
          <mxGeometry x="17" y="60" width="430" height="163.41" as="geometry" />
        </mxCell>
        <mxCell id="s5DQ25FVZao19d8wmNkH-49" value="&lt;b&gt;&lt;font style=&quot;font-size: 18px;&quot;&gt;IoT MINGSTACK&lt;/font&gt;&lt;/b&gt;" style="text;html=1;align=center;verticalAlign=middle;resizable=0;points=[];autosize=1;strokeColor=none;fillColor=none;" vertex="1" parent="s5DQ25FVZao19d8wmNkH-46">
          <mxGeometry x="260" width="160" height="40" as="geometry" />
        </mxCell>
        <mxCell id="s5DQ25FVZao19d8wmNkH-50" value="&lt;font face=&quot;Times New Roman&quot; style=&quot;font-size: 18px;&quot;&gt;&lt;b&gt;Korota Arsèene&lt;/b&gt;&lt;/font&gt;" style="text;html=1;align=center;verticalAlign=middle;whiteSpace=wrap;rounded=0;" vertex="1" parent="1">
          <mxGeometry x="34.17" y="-60" width="135.83" height="30" as="geometry" />
        </mxCell>
        <mxCell id="s5DQ25FVZao19d8wmNkH-52" value="&lt;b&gt;&lt;font style=&quot;font-size: 14px; color: rgb(0, 0, 204);&quot;&gt;MQTT&lt;/font&gt;&lt;/b&gt;" style="text;html=1;align=center;verticalAlign=middle;resizable=0;points=[];autosize=1;strokeColor=none;fillColor=none;rotation=30;" vertex="1" parent="1">
          <mxGeometry x="384" y="225" width="60" height="30" as="geometry" />
        </mxCell>
        <mxCell id="s5DQ25FVZao19d8wmNkH-57" value="&lt;b&gt;&lt;font style=&quot;font-size: 14px; color: rgb(0, 0, 204);&quot;&gt;MQTT&lt;/font&gt;&lt;/b&gt;" style="text;html=1;align=center;verticalAlign=middle;resizable=0;points=[];autosize=1;strokeColor=none;fillColor=none;rotation=0;" vertex="1" parent="1">
          <mxGeometry x="370" y="297" width="60" height="30" as="geometry" />
        </mxCell>
        <mxCell id="s5DQ25FVZao19d8wmNkH-58" value="&lt;b&gt;&lt;font style=&quot;font-size: 14px; color: rgb(0, 0, 204);&quot;&gt;MQTT&lt;/font&gt;&lt;/b&gt;" style="text;html=1;align=center;verticalAlign=middle;resizable=0;points=[];autosize=1;strokeColor=none;fillColor=none;rotation=-15;" vertex="1" parent="1">
          <mxGeometry x="384" y="396.25" width="60" height="30" as="geometry" />
        </mxCell>
        <mxCell id="s5DQ25FVZao19d8wmNkH-59" value="&lt;b&gt;&lt;font style=&quot;font-size: 14px; color: rgb(0, 0, 204);&quot;&gt;MQTT&lt;/font&gt;&lt;/b&gt;" style="text;html=1;align=center;verticalAlign=middle;resizable=0;points=[];autosize=1;strokeColor=none;fillColor=none;rotation=-45;" vertex="1" parent="1">
          <mxGeometry x="380" y="470" width="60" height="30" as="geometry" />
        </mxCell>
        <mxCell id="s5DQ25FVZao19d8wmNkH-60" value="&lt;b&gt;&lt;font style=&quot;font-size: 14px; color: rgb(0, 0, 204);&quot;&gt;MQTT&lt;/font&gt;&lt;/b&gt;" style="text;html=1;align=center;verticalAlign=middle;resizable=0;points=[];autosize=1;strokeColor=none;fillColor=none;rotation=0;" vertex="1" parent="1">
          <mxGeometry x="810" y="308.74" width="60" height="30" as="geometry" />
        </mxCell>
      </root>
    </mxGraphModel>
  </diagram>
</mxfile>
